<svg width="500" height="500" viewBox="0 0 500 500" fill="none" xmlns="http://www.w3.org/2000/svg">
<rect width="500" height="500" fill="white"/>
<circle cx="30" cy="30" r="30" fill="#48EC9D" fill-opacity="0.2"/>
<path d="M20.1271 40.0781L24.0825 38.76L24.7856 39.0825C26.3875 39.9031 28.1259 40.3134 30.0009 40.3134C33.1846 40.2159 35.8359 39.1759 37.9546 37.1934C40.0734 35.2109 41.1721 32.8134 41.2509 30.0009C41.1728 27.1884 40.074 24.7909 37.9546 22.8084C35.8353 20.8259 33.184 19.7859 30.0009 19.6884C26.8171 19.7859 24.1659 20.8259 22.0471 22.8084C19.9284 24.7909 18.8296 27.1884 18.7509 30.0009C18.7509 31.0165 18.9268 32.0225 19.2787 33.0187C19.6306 34.015 20.1481 34.9525 20.8312 35.8312L21.4762 36.6806L20.1271 40.0781ZM18.779 42.4809C18.4078 42.5984 18.0903 42.5153 17.8265 42.2315C17.5628 41.9478 17.4993 41.6206 17.6362 41.25L19.3359 36.9721C18.5546 35.9371 17.949 34.8287 17.519 33.6468C17.089 32.465 16.874 31.249 16.874 29.999C16.9521 26.7765 18.2021 23.969 20.624 21.5765C23.0459 19.184 26.1709 17.929 29.999 17.8115C33.8271 17.929 36.9521 19.184 39.374 21.5765C41.7959 23.969 43.0459 26.7765 43.124 29.999C43.0459 33.2215 41.7959 36.029 39.374 38.4215C36.9521 40.814 33.8271 42.069 29.999 42.1865C27.8703 42.1865 25.8487 41.7178 23.9343 40.7803L18.779 42.4809ZM30 31.4943C29.7262 31.4943 29.4771 31.4309 29.2528 31.304C29.0284 31.1771 28.8478 30.9915 28.7109 30.7471C28.574 30.5028 28.5056 30.2537 28.5056 30C28.5056 29.7462 28.574 29.4971 28.7109 29.2528C28.8478 29.0084 29.0284 28.8228 29.2528 28.6959C29.4771 28.569 29.7262 28.5056 30 28.5056C30.43 28.5056 30.7865 28.6471 31.0696 28.9303C31.3528 29.2134 31.4943 29.57 31.4943 30C31.4943 30.43 31.3528 30.7865 31.0696 31.0696C30.7865 31.3528 30.43 31.4943 30 31.4943V31.4943ZM35.625 31.4943C35.3512 31.4943 35.1021 31.4309 34.8778 31.304C34.6534 31.1771 34.4728 30.9915 34.3359 30.7471C34.199 30.5028 34.1306 30.2537 34.1306 30C34.1306 29.7462 34.199 29.4971 34.3359 29.2528C34.4728 29.0084 34.6534 28.8228 34.8778 28.6959C35.1021 28.569 35.3512 28.5056 35.625 28.5056C36.055 28.5056 36.4115 28.6471 36.6946 28.9303C36.9778 29.2134 37.1193 29.57 37.1193 30C37.1193 30.43 36.9778 30.7865 36.6946 31.0696C36.4115 31.3528 36.055 31.4943 35.625 31.4943V31.4943ZM24.375 31.4943C24.1012 31.4943 23.8521 31.4309 23.6278 31.304C23.4034 31.1771 23.2228 30.9915 23.0859 30.7471C22.949 30.5028 22.8806 30.2537 22.8806 30C22.8806 29.7462 22.949 29.4971 23.0859 29.2528C23.2228 29.0084 23.4034 28.8228 23.6278 28.6959C23.8521 28.569 24.1012 28.5056 24.375 28.5056C24.805 28.5056 25.1615 28.6471 25.4446 28.9303C25.7278 29.2134 25.8693 29.57 25.8693 30C25.8693 30.43 25.7278 30.7865 25.4446 31.0696C25.1615 31.3528 24.805 31.4943 24.375 31.4943V31.4943Z" fill="#08080A" fill-opacity="0.96"/>
<circle cx="110" cy="30" r="30" fill="#8DFF33" fill-opacity="0.2"/>
<path d="M110 30C111.602 29.9606 112.93 29.4138 113.984 28.3594C115.039 27.305 115.586 25.9769 115.625 24.375C115.586 22.7731 115.039 21.445 113.984 20.3906C112.93 19.3362 111.602 18.7894 110 18.75C108.398 18.7894 107.07 19.3362 106.016 20.3906C104.961 21.445 104.414 22.7731 104.375 24.375C104.414 25.9769 104.961 27.305 106.016 28.3594C107.07 29.4138 108.398 29.9606 110 30ZM110 31.875C107.871 31.8162 106.104 31.0838 104.697 29.6775C103.291 28.2713 102.559 26.5037 102.5 24.375C102.559 22.2463 103.291 20.4787 104.697 19.0725C106.104 17.6662 107.871 16.9338 110 16.875C112.129 16.9338 113.896 17.6662 115.303 19.0725C116.709 20.4787 117.441 22.2463 117.5 24.375C117.441 26.5037 116.709 28.2713 115.303 29.6775C113.896 31.0838 112.129 31.8162 110 31.875ZM110 30C110.274 30 110.498 30.0878 110.674 30.2634C110.85 30.4391 110.938 30.6638 110.938 30.9375V38.4375C110.938 38.7112 110.85 38.9359 110.674 39.1116C110.498 39.2872 110.274 39.375 110 39.375C109.726 39.375 109.502 39.2872 109.326 39.1116C109.15 38.9359 109.062 38.7112 109.062 38.4375V30.9375C109.062 30.6638 109.15 30.4391 109.326 30.2634C109.502 30.0878 109.726 30 110 30V30ZM106.25 34.0134V35.9175C104.551 36.2106 103.193 36.5962 102.178 37.0744C101.162 37.5525 100.644 38.0066 100.625 38.4366C100.684 39.0422 101.587 39.6525 103.335 40.2675C105.083 40.8825 107.305 41.2097 110 41.2491C112.696 41.2097 114.917 40.8825 116.665 40.2675C118.412 39.6525 119.316 39.0422 119.375 38.4366C119.356 38.0066 118.838 37.5525 117.822 37.0744C116.807 36.5962 115.449 36.2106 113.75 35.9175V34.0134C115.977 34.3453 117.774 34.9069 119.141 35.6981C120.507 36.4894 121.211 37.4025 121.25 38.4375C121.172 39.7656 120.073 40.8691 117.954 41.7478C115.834 42.6266 113.183 43.0856 110 43.125C106.816 43.0856 104.165 42.6266 102.046 41.7478C99.9275 40.8691 98.8287 39.7656 98.75 38.4375C98.7894 37.4025 99.4925 36.4894 100.859 35.6981C102.226 34.9069 104.023 34.3453 106.25 34.0134Z" fill="#08080A" fill-opacity="0.96"/>
<circle cx="190" cy="30" r="30" fill="#F76D6D" fill-opacity="0.2"/>
<path d="M178.75 26.25V39.375H201.25V26.25H178.75ZM177.812 24.375H202.188C202.461 24.375 202.686 24.4628 202.862 24.6384C203.037 24.8141 203.125 25.0388 203.125 25.3125V40.3125C203.125 40.5862 203.037 40.8109 202.862 40.9866C202.686 41.1622 202.461 41.25 202.188 41.25H177.812C177.539 41.25 177.314 41.1622 177.138 40.9866C176.963 40.8109 176.875 40.5862 176.875 40.3125V25.3125C176.875 25.0388 176.963 24.8141 177.138 24.6384C177.314 24.4628 177.539 24.375 177.812 24.375ZM179.688 20.625H200.312V22.5H179.688V20.625ZM182.5 16.875H197.5V18.75H182.5V16.875Z" fill="#08080A" fill-opacity="0.96"/>
<circle cx="270" cy="30" r="30" fill="#4857EC" fill-opacity="0.2"/>
<path d="M265.518 37.5H259.688C259.414 37.5 259.189 37.4122 259.013 37.2366C258.838 37.0609 258.75 36.8363 258.75 36.5625V20.625H256.875C256.601 20.625 256.377 20.5372 256.201 20.3616C256.025 20.1859 255.938 19.9613 255.938 19.6875C255.938 19.4137 256.025 19.1891 256.201 19.0134C256.377 18.8378 256.601 18.75 256.875 18.75H283.125C283.399 18.75 283.623 18.8378 283.799 19.0134C283.975 19.1891 284.062 19.4137 284.062 19.6875C284.062 19.9613 283.975 20.1859 283.799 20.3616C283.623 20.5372 283.399 20.625 283.125 20.625H281.25V36.5625C281.25 36.8363 281.162 37.0609 280.987 37.2366C280.811 37.4122 280.586 37.5 280.312 37.5H274.482L277.734 43.125H275.566L272.314 37.5H267.684L264.432 43.125H262.264L265.518 37.5ZM279.375 20.625H260.625V35.625H279.375V20.625ZM265.049 30.6741C264.853 30.8497 264.629 30.9375 264.375 30.9375C264.121 30.9375 263.902 30.8447 263.716 30.6591C263.53 30.4734 263.438 30.2537 263.438 30C263.438 29.7463 263.525 29.5216 263.701 29.3259L268.037 25.0191L271.699 27.7734L274.892 23.7891C275.126 23.4959 275.424 23.3738 275.785 23.4225C276.147 23.4713 276.391 23.6666 276.517 24.0084C276.644 24.3503 276.591 24.6678 276.356 24.9609L272.049 30.3516L268.211 27.48L265.049 30.6741Z" fill="#08080A" fill-opacity="0.96"/>
<circle cx="27" cy="107" r="27" fill="#BCFF87" fill-opacity="0.5"/>
<path d="M39.8416 112.334C40.5638 110.72 40.9355 108.989 40.9355 107.242C40.9355 103.713 39.4215 100.328 36.7264 97.8328C34.0313 95.3374 30.376 93.9354 26.5646 93.9354C22.7532 93.9354 19.0978 95.3374 16.4028 97.8328C13.7077 100.328 12.1936 103.713 12.1936 107.242C12.1936 108.989 12.5653 110.72 13.2875 112.334C14.0097 113.949 15.0683 115.416 16.4028 116.651C17.7372 117.887 19.3215 118.867 21.065 119.536C22.8086 120.204 24.6773 120.549 26.5646 120.549C28.4518 120.549 30.3205 120.204 32.0641 119.536C33.8077 118.867 35.3919 117.887 36.7264 116.651C38.0608 115.416 39.1194 113.949 39.8416 112.334Z" fill="#E8FFD6"/>
<path d="M31.0802 111.423C29.8825 112.532 28.2582 113.155 26.5646 113.155C24.8709 113.155 23.2467 112.532 22.0489 111.423M21.7742 104.285H21.7902M31.3549 104.285H31.3709M40.9355 107.242C40.9355 108.989 40.5638 110.72 39.8416 112.334C39.1194 113.949 38.0608 115.416 36.7264 116.651C35.3919 117.887 33.8077 118.867 32.0641 119.536C30.3205 120.204 28.4518 120.549 26.5646 120.549C24.6773 120.549 22.8086 120.204 21.065 119.536C19.3215 118.867 17.7372 117.887 16.4028 116.651C15.0683 115.416 14.0097 113.949 13.2875 112.334C12.5653 110.72 12.1936 108.989 12.1936 107.242C12.1936 103.713 13.7077 100.328 16.4028 97.8328C19.0978 95.3374 22.7532 93.9354 26.5646 93.9354C30.376 93.9354 34.0313 95.3374 36.7264 97.8328C39.4215 100.328 40.9355 103.713 40.9355 107.242Z" stroke="#6AAF35" stroke-width="3" stroke-linecap="round" stroke-linejoin="round"/>
<circle cx="107" cy="107" r="27" fill="#4857EC" fill-opacity="0.1"/>
<path d="M111.08 111.423C109.882 112.532 108.258 113.155 106.565 113.155C104.871 113.155 103.247 112.532 102.049 111.423M101.774 104.285H101.79M111.355 104.285H111.371M120.936 107.242C120.936 108.989 120.564 110.72 119.842 112.334C119.119 113.949 118.061 115.416 116.726 116.651C115.392 117.887 113.808 118.867 112.064 119.536C110.321 120.204 108.452 120.549 106.565 120.549C104.677 120.549 102.809 120.204 101.065 119.536C99.3215 118.867 97.7372 117.887 96.4028 116.651C95.0683 115.416 94.0097 113.949 93.2875 112.334C92.5653 110.72 92.1936 108.989 92.1936 107.242C92.1936 103.713 93.7077 100.328 96.4028 97.8328C99.0978 95.3374 102.753 93.9354 106.565 93.9354C110.376 93.9354 114.031 95.3374 116.726 97.8328C119.421 100.328 120.936 103.713 120.936 107.242Z" stroke="#4857EC" stroke-width="3" stroke-linecap="round" stroke-linejoin="round"/>
<circle cx="187" cy="107" r="27" fill="#FFD6D6" fill-opacity="0.5"/>
<path d="M191.08 111.423C189.882 112.532 188.258 113.155 186.565 113.155C184.871 113.155 183.247 112.532 182.049 111.423M181.774 104.285H181.79M191.355 104.285H191.371M200.936 107.242C200.936 108.989 200.564 110.72 199.842 112.334C199.119 113.949 198.061 115.416 196.726 116.651C195.392 117.887 193.808 118.867 192.064 119.536C190.321 120.204 188.452 120.549 186.565 120.549C184.677 120.549 182.809 120.204 181.065 119.536C179.321 118.867 177.737 117.887 176.403 116.651C175.068 115.416 174.01 113.949 173.288 112.334C172.565 110.72 172.194 108.989 172.194 107.242C172.194 103.713 173.708 100.328 176.403 97.8328C179.098 95.3374 182.753 93.9354 186.565 93.9354C190.376 93.9354 194.031 95.3374 196.726 97.8328C199.421 100.328 200.936 103.713 200.936 107.242Z" stroke="#C66464" stroke-width="3" stroke-linecap="round" stroke-linejoin="round"/>
<path d="M158.641 160.537C158.39 159.821 157.296 159.821 157.044 160.537L155.768 164.172C155.713 164.328 155.606 164.464 155.463 164.561C155.319 164.657 155.146 164.709 154.969 164.709H150.842C150.029 164.709 149.689 165.673 150.348 166.117L153.687 168.363C153.831 168.459 153.938 168.595 153.992 168.752C154.047 168.908 154.047 169.076 153.992 169.232L152.717 172.867C152.465 173.584 153.351 174.18 154.009 173.737L157.349 171.491C157.492 171.394 157.665 171.342 157.842 171.342C158.02 171.342 158.193 171.394 158.336 171.491L161.676 173.737C162.334 174.18 163.22 173.584 162.968 172.867L161.693 169.232C161.638 169.076 161.638 168.908 161.693 168.752C161.747 168.595 161.854 168.459 161.998 168.363L165.337 166.117C165.995 165.673 165.657 164.709 164.843 164.709H160.715C160.538 164.709 160.365 164.657 160.222 164.56C160.079 164.464 159.972 164.328 159.917 164.172L158.641 160.537Z" fill="#F9C94E"/>
<path d="M184.641 160.537C184.39 159.821 183.296 159.821 183.044 160.537L181.768 164.172C181.713 164.328 181.606 164.464 181.463 164.561C181.319 164.657 181.146 164.709 180.969 164.709H176.842C176.029 164.709 175.689 165.673 176.348 166.117L179.687 168.363C179.831 168.459 179.938 168.595 179.992 168.752C180.047 168.908 180.047 169.076 179.992 169.232L178.717 172.867C178.465 173.584 179.351 174.18 180.009 173.737L183.349 171.491C183.492 171.394 183.665 171.342 183.842 171.342C184.02 171.342 184.193 171.394 184.336 171.491L187.676 173.737C188.334 174.18 189.22 173.584 188.968 172.867L187.693 169.232C187.638 169.076 187.638 168.908 187.693 168.752C187.747 168.595 187.854 168.459 187.998 168.363L191.337 166.117C191.995 165.673 191.657 164.709 190.843 164.709H186.715C186.538 164.709 186.365 164.657 186.222 164.56C186.079 164.464 185.972 164.328 185.917 164.172L184.641 160.537Z" stroke="#F9C94E" stroke-linecap="round" stroke-linejoin="round"/>
<g clip-path="url(#clip0_551_1125)">
<path d="M20 170C20 164.477 15.5229 160 10 160C4.47715 160 0 164.477 0 170C0 174.991 3.65684 179.128 8.4375 179.879V172.891H5.89844V170H8.4375V167.797C8.4375 165.291 9.93047 163.906 12.2146 163.906C13.3084 163.906 14.4531 164.102 14.4531 164.102V166.563H13.1922C11.95 166.563 11.5625 167.333 11.5625 168.125V170H14.3359L13.8926 172.891H11.5625V179.879C16.3432 179.128 20 174.991 20 170Z" fill="black"/>
</g>
<g clip-path="url(#clip1_551_1125)">
<path d="M70 161.801C72.6719 161.801 72.9883 161.812 74.0391 161.859C75.0156 161.902 75.543 162.066 75.8945 162.203C76.3594 162.383 76.6953 162.602 77.043 162.949C77.3945 163.301 77.6094 163.633 77.7891 164.098C77.9258 164.449 78.0898 164.98 78.1328 165.953C78.1797 167.008 78.1914 167.324 78.1914 169.992C78.1914 172.664 78.1797 172.98 78.1328 174.031C78.0898 175.008 77.9258 175.535 77.7891 175.887C77.6094 176.352 77.3906 176.688 77.043 177.035C76.6914 177.387 76.3594 177.602 75.8945 177.781C75.543 177.918 75.0117 178.082 74.0391 178.125C72.9844 178.172 72.668 178.184 70 178.184C67.3281 178.184 67.0117 178.172 65.9609 178.125C64.9844 178.082 64.457 177.918 64.1055 177.781C63.6406 177.602 63.3047 177.383 62.957 177.035C62.6055 176.684 62.3906 176.352 62.2109 175.887C62.0742 175.535 61.9102 175.004 61.8672 174.031C61.8203 172.977 61.8086 172.66 61.8086 169.992C61.8086 167.32 61.8203 167.004 61.8672 165.953C61.9102 164.977 62.0742 164.449 62.2109 164.098C62.3906 163.633 62.6094 163.297 62.957 162.949C63.3086 162.598 63.6406 162.383 64.1055 162.203C64.457 162.066 64.9883 161.902 65.9609 161.859C67.0117 161.812 67.3281 161.801 70 161.801ZM70 160C67.2852 160 66.9453 160.012 65.8789 160.059C64.8164 160.105 64.0859 160.277 63.4531 160.523C62.793 160.781 62.2344 161.121 61.6797 161.68C61.1211 162.234 60.7813 162.793 60.5234 163.449C60.2773 164.086 60.1055 164.812 60.0586 165.875C60.0117 166.945 60 167.285 60 170C60 172.715 60.0117 173.055 60.0586 174.121C60.1055 175.184 60.2773 175.914 60.5234 176.547C60.7813 177.207 61.1211 177.766 61.6797 178.32C62.2344 178.875 62.793 179.219 63.4492 179.473C64.0859 179.719 64.8125 179.891 65.875 179.938C66.9414 179.984 67.2813 179.996 69.9961 179.996C72.7109 179.996 73.0508 179.984 74.1172 179.938C75.1797 179.891 75.9102 179.719 76.543 179.473C77.1992 179.219 77.7578 178.875 78.3125 178.32C78.8672 177.766 79.2109 177.207 79.4648 176.551C79.7109 175.914 79.8828 175.188 79.9297 174.125C79.9766 173.059 79.9883 172.719 79.9883 170.004C79.9883 167.289 79.9766 166.949 79.9297 165.883C79.8828 164.82 79.7109 164.09 79.4648 163.457C79.2188 162.793 78.8789 162.234 78.3203 161.68C77.7656 161.125 77.207 160.781 76.5508 160.527C75.9141 160.281 75.1875 160.109 74.125 160.063C73.0547 160.012 72.7148 160 70 160Z" fill="black"/>
<path d="M70 164.863C67.1641 164.863 64.8633 167.164 64.8633 170C64.8633 172.836 67.1641 175.137 70 175.137C72.8359 175.137 75.1367 172.836 75.1367 170C75.1367 167.164 72.8359 164.863 70 164.863ZM70 173.332C68.1602 173.332 66.668 171.84 66.668 170C66.668 168.16 68.1602 166.668 70 166.668C71.8398 166.668 73.332 168.16 73.332 170C73.332 171.84 71.8398 173.332 70 173.332Z" fill="black"/>
<path d="M76.5391 164.66C76.5391 165.324 76 165.859 75.3398 165.859C74.6758 165.859 74.1406 165.32 74.1406 164.66C74.1406 163.996 74.6797 163.461 75.3398 163.461C76 163.461 76.5391 164 76.5391 164.66Z" fill="black"/>
</g>
<g clip-path="url(#clip2_551_1125)">
<path d="M139.602 165.155C139.489 164.729 139.266 164.341 138.955 164.028C138.645 163.716 138.258 163.491 137.833 163.375C136.27 162.955 130.02 162.955 130.02 162.955C130.02 162.955 123.77 162.955 122.206 163.375C121.781 163.491 121.394 163.716 121.084 164.028C120.774 164.341 120.551 164.729 120.438 165.155C120.02 166.725 120.02 170 120.02 170C120.02 170 120.02 173.275 120.438 174.845C120.551 175.271 120.774 175.659 121.084 175.972C121.394 176.284 121.781 176.509 122.206 176.625C123.77 177.045 130.02 177.045 130.02 177.045C130.02 177.045 136.27 177.045 137.833 176.625C138.258 176.509 138.645 176.284 138.955 175.972C139.266 175.659 139.489 175.271 139.602 174.845C140.02 173.275 140.02 170 140.02 170C140.02 170 140.02 166.725 139.602 165.155Z" fill="black"/>
<path d="M127.974 172.974V167.026L133.202 170L127.974 172.974Z" fill="#FEFEFE"/>
</g>
<g clip-path="url(#clip3_551_1125)">
<path fill-rule="evenodd" clip-rule="evenodd" d="M40.0001 160.417C37.6261 160.418 35.33 161.259 33.5223 162.789C31.7146 164.319 30.5132 166.438 30.1329 168.768C29.7526 171.098 30.2182 173.487 31.4465 175.507C32.6747 177.527 34.5856 179.046 36.8373 179.794C37.3341 179.886 37.5212 179.578 37.5212 179.317C37.5212 179.055 37.5113 178.296 37.508 177.466C34.7261 178.067 34.1382 176.292 34.1382 176.292C33.6845 175.139 33.0288 174.837 33.0288 174.837C32.1213 174.221 33.0967 174.232 33.0967 174.232C34.1018 174.303 34.63 175.258 34.63 175.258C35.5209 176.778 36.9698 176.338 37.5394 176.081C37.6289 175.438 37.8888 175 38.1753 174.751C35.9531 174.501 33.6183 173.648 33.6183 169.838C33.6045 168.85 33.9733 167.894 34.6482 167.169C34.5456 166.919 34.2028 165.908 34.7459 164.534C34.7459 164.534 35.5855 164.268 37.4964 165.554C39.1355 165.108 40.8648 165.108 42.5038 165.554C44.4131 164.268 45.251 164.534 45.251 164.534C45.7958 165.904 45.453 166.915 45.3503 167.169C46.0275 167.894 46.397 168.852 46.382 169.841C46.382 173.659 44.0422 174.501 41.8166 174.746C42.1743 175.056 42.4939 175.66 42.4939 176.588C42.4939 177.919 42.4823 178.989 42.4823 179.317C42.4823 179.582 42.6628 179.891 43.1695 179.794C45.4215 179.046 47.3326 177.526 48.5608 175.506C49.7891 173.486 50.2545 171.097 49.8737 168.767C49.493 166.436 48.291 164.317 46.4827 162.787C44.6744 161.257 42.3777 160.417 40.0034 160.417H40.0001Z" fill="black"/>
<path d="M33.7871 174.693C33.7655 174.743 33.686 174.757 33.6215 174.723C33.5569 174.688 33.5089 174.624 33.532 174.573C33.5552 174.522 33.6331 174.509 33.6976 174.543C33.7622 174.578 33.8119 174.644 33.7871 174.693Z" fill="black"/>
<path d="M34.1929 175.143C34.1586 175.16 34.1193 175.165 34.0819 175.156C34.0444 175.148 34.0111 175.127 33.9875 175.097C33.9229 175.028 33.9097 174.932 33.9594 174.889C34.009 174.846 34.0985 174.866 34.163 174.935C34.2276 175.004 34.2425 175.1 34.1929 175.143Z" fill="black"/>
<path d="M34.587 175.714C34.5257 175.757 34.4214 175.714 34.3634 175.629C34.3474 175.613 34.3347 175.595 34.3259 175.574C34.3172 175.554 34.3127 175.532 34.3127 175.51C34.3127 175.488 34.3172 175.466 34.3259 175.446C34.3347 175.425 34.3474 175.407 34.3634 175.391C34.4247 175.35 34.529 175.391 34.587 175.475C34.6449 175.559 34.6466 175.671 34.587 175.714V175.714Z" fill="black"/>
<path d="M35.1217 176.267C35.067 176.328 34.9561 176.312 34.865 176.23C34.7739 176.147 34.7524 176.035 34.8071 175.976C34.8617 175.917 34.9726 175.933 35.067 176.014C35.1614 176.094 35.1796 176.208 35.1217 176.267V176.267Z" fill="black"/>
<path d="M35.8717 176.59C35.8469 176.667 35.7343 176.702 35.6217 176.669C35.5091 176.636 35.4346 176.544 35.4561 176.465C35.4776 176.386 35.5919 176.35 35.7061 176.386C35.8204 176.422 35.8933 176.509 35.8717 176.59Z" fill="black"/>
<path d="M36.6899 176.646C36.6899 176.727 36.5971 176.796 36.4779 176.797C36.3587 176.799 36.261 176.733 36.261 176.653C36.261 176.572 36.3537 176.503 36.4729 176.501C36.5922 176.499 36.6899 176.564 36.6899 176.646Z" fill="black"/>
<path d="M37.4517 176.519C37.4666 176.6 37.3838 176.684 37.2645 176.704C37.1453 176.723 37.041 176.676 37.0261 176.597C37.0112 176.518 37.0973 176.432 37.2132 176.411C37.3291 176.389 37.4368 176.439 37.4517 176.519Z" fill="black"/>
</g>
<path d="M97.24 168.39C96.67 168.39 96.22 168.89 96.22 169.5C96.22 170.11 96.68 170.61 97.24 170.61C97.81 170.61 98.26 170.11 98.26 169.5C98.27 168.89 97.81 168.39 97.24 168.39ZM100.89 168.39C100.32 168.39 99.87 168.89 99.87 169.5C99.87 170.11 100.33 170.61 100.89 170.61C101.46 170.61 101.91 170.11 101.91 169.5C101.91 168.89 101.46 168.39 100.89 168.39Z" fill="black"/>
<path d="M105.75 160H92.35C91.22 160 90.3 160.92 90.3 162.06V175.58C90.3 176.72 91.22 177.64 92.35 177.64H103.69L103.16 175.79L104.44 176.98L105.65 178.1L107.8 180V162.06C107.8 160.92 106.88 160 105.75 160ZM101.89 173.06C101.89 173.06 101.53 172.63 101.23 172.25C102.54 171.88 103.04 171.06 103.04 171.06C102.63 171.33 102.24 171.52 101.89 171.65C101.39 171.86 100.91 172 100.44 172.08C99.48 172.26 98.6 172.21 97.85 172.07C97.28 171.96 96.79 171.8 96.38 171.64C96.15 171.55 95.9 171.44 95.65 171.3C95.62 171.28 95.59 171.27 95.56 171.25C95.54 171.24 95.53 171.23 95.52 171.22C95.34 171.12 95.24 171.05 95.24 171.05C95.24 171.05 95.72 171.85 96.99 172.23C96.69 172.61 96.32 173.06 96.32 173.06C94.11 172.99 93.27 171.54 93.27 171.54C93.27 168.32 94.71 165.71 94.71 165.71C96.15 164.63 97.52 164.66 97.52 164.66L97.62 164.78C95.82 165.3 94.99 166.09 94.99 166.09C94.99 166.09 95.21 165.97 95.58 165.8C96.65 165.33 97.5 165.2 97.85 165.17C97.91 165.16 97.96 165.15 98.02 165.15C98.63 165.07 99.32 165.05 100.04 165.13C100.99 165.24 102.01 165.52 103.05 166.09C103.05 166.09 102.26 165.34 100.56 164.82L100.7 164.66C100.7 164.66 102.07 164.63 103.51 165.71C103.51 165.71 104.95 168.32 104.95 171.54C104.95 171.54 104.1 172.99 101.89 173.06V173.06Z" fill="black"/>
<defs>
<clipPath id="clip0_551_1125">
<rect width="20" height="20" fill="white" transform="translate(0 160)"/>
</clipPath>
<clipPath id="clip1_551_1125">
<rect width="20" height="20" fill="white" transform="translate(60 160)"/>
</clipPath>
<clipPath id="clip2_551_1125">
<rect width="20" height="20" fill="white" transform="translate(120 160)"/>
</clipPath>
<clipPath id="clip3_551_1125">
<rect width="20" height="20" fill="white" transform="translate(30 160)"/>
</clipPath>
</defs>
</svg>
