<svg width="300" height="300" viewBox="0 0 300 300" fill="none" xmlns="http://www.w3.org/2000/svg">
<path d="M28.9035 0L30 1.13028L2.2575 28.1398L30 55.1494L28.9035 56.2797L0 28.1398L28.9035 0Z" fill="white"/>
<path d="M41.0965 56.2797L40 55.1494L67.7425 28.1398L40 1.13028L41.0965 1.28787e-06L70 28.1398L41.0965 56.2797Z" fill="white"/>
<circle cx="7" cy="78" r="7" fill="#f1f1f1"/>
<circle cx="27" cy="78" r="5" stroke="#f1f1f1" stroke-width="4"/>
<path d="M52 78L40 84.9282L40 71.0718L52 78Z" fill="#f1f1f1"/>
<path d="M70.389 71H66.611C66.2736 71 66 71.2394 66 71.5346V84.4654C66 84.7606 66.2736 85 66.611 85H70.389C70.7264 85 71 84.7606 71 84.4654V71.5346C71 71.2394 70.7264 71 70.389 71Z" fill="#f1f1f1"/>
<path d="M64.389 71H60.611C60.2736 71 60 71.2394 60 71.5346V84.4654C60 84.7606 60.2736 85 60.611 85H64.389C64.7264 85 65 84.7606 65 84.4654V71.5346C65 71.2394 64.7264 71 64.389 71Z" fill="#f1f1f1"/>
</svg>
