<svg width="134" height="32" viewBox="0 0 134 32" fill="none" xmlns="http://www.w3.org/2000/svg">
<rect width="134" height="32" rx="16" fill="#F5F5F5"/>
<path d="M45.036 11H46.224V16.016H45.036V11ZM40.032 15.884C39.408 15.884 38.856 15.784 38.376 15.584C37.896 15.376 37.52 15.092 37.248 14.732C36.984 14.372 36.852 13.96 36.852 13.496C36.852 13.032 36.984 12.62 37.248 12.26C37.52 11.9 37.896 11.62 38.376 11.42C38.856 11.212 39.408 11.108 40.032 11.108C40.656 11.108 41.208 11.212 41.688 11.42C42.168 11.62 42.54 11.9 42.804 12.26C43.068 12.62 43.2 13.032 43.2 13.496C43.2 13.96 43.068 14.372 42.804 14.732C42.54 15.092 42.168 15.376 41.688 15.584C41.208 15.784 40.656 15.884 40.032 15.884ZM40.032 14.924C40.624 14.924 41.104 14.796 41.472 14.54C41.84 14.276 42.024 13.928 42.024 13.496C42.024 13.064 41.84 12.72 41.472 12.464C41.104 12.2 40.624 12.068 40.032 12.068C39.44 12.068 38.956 12.2 38.58 12.464C38.212 12.72 38.028 13.064 38.028 13.496C38.028 13.928 38.212 14.276 38.58 14.54C38.956 14.796 39.44 14.924 40.032 14.924ZM37.668 18.404H45.048V17.516H37.644V16.58H46.224V19.292H38.844V20.18H46.476V21.116H37.668V18.404ZM58.919 13.472V14.612H57.479V18.608H56.291V11H57.479V13.472H58.919ZM54.551 16.952H48.563V11.18H49.727V12.968H53.387V11.18H54.551V16.952ZM53.387 15.932V13.976H49.727V15.932H53.387ZM50.111 20.036H57.755V21.116H48.911V17.84H50.111V20.036ZM71.4852 11H72.6852V21.248H71.4852V11ZM66.6492 20.768C66.0252 20.768 65.4812 20.592 65.0172 20.24C64.5532 19.896 64.1892 19.368 63.9252 18.656C63.6692 17.944 63.5412 17.06 63.5412 16.004C63.5412 14.948 63.6692 14.064 63.9252 13.352C64.1892 12.64 64.5532 12.112 65.0172 11.768C65.4812 11.416 66.0252 11.24 66.6492 11.24C67.2652 11.24 67.8052 11.416 68.2692 11.768C68.7332 12.112 69.0932 12.64 69.3492 13.352C69.6132 14.064 69.7452 14.948 69.7452 16.004C69.7452 17.06 69.6132 17.944 69.3492 18.656C69.0932 19.368 68.7332 19.896 68.2692 20.24C67.8052 20.592 67.2652 20.768 66.6492 20.768ZM66.6492 19.676C67.2172 19.676 67.6772 19.376 68.0292 18.776C68.3812 18.168 68.5572 17.244 68.5572 16.004C68.5572 14.772 68.3812 13.852 68.0292 13.244C67.6772 12.636 67.2172 12.332 66.6492 12.332C66.0732 12.332 65.6092 12.636 65.2572 13.244C64.9052 13.844 64.7292 14.764 64.7292 16.004C64.7292 17.244 64.9012 18.168 65.2452 18.776C65.5972 19.376 66.0652 19.676 66.6492 19.676ZM83.0282 11H84.2162V21.248H83.0282V11ZM75.2402 11.372H81.0482V20.636H75.2402V11.372ZM79.8602 19.52V12.488H76.4282V19.52H79.8602ZM95.7592 11V21.248H94.5712V11H95.7592ZM90.5752 12.464C90.5672 13.6 90.4592 14.68 90.2512 15.704L93.5992 19.844L92.6632 20.552L89.9032 17.036C89.5512 18.108 89.0752 18.956 88.4752 19.58C87.8832 20.196 87.1992 20.548 86.4232 20.636V19.46C87.0232 19.348 87.5392 18.98 87.9712 18.356C88.4112 17.732 88.7512 16.912 88.9912 15.896C89.2312 14.88 89.3592 13.736 89.3752 12.464H86.6632V11.372H93.2032V12.464H90.5752ZM104.593 14.888C104.233 15.432 103.769 15.876 103.201 16.22C102.633 16.564 102.001 16.776 101.305 16.856V15.824C102.073 15.712 102.705 15.396 103.201 14.876C103.697 14.348 104.001 13.708 104.113 12.956H101.413V11.96H104.125V10.82H105.325V11.96H108.001V12.956H105.325C105.277 13.3 105.193 13.64 105.073 13.976L108.181 15.908L107.617 16.796L104.593 14.888ZM110.749 11V17H109.561V14.54H107.593V13.484H109.561V11H110.749ZM102.025 17.564H110.749V21.116H102.025V17.564ZM103.213 20.144H109.561V18.536H103.213V20.144ZM122.16 16.436H113.352V11.18H114.528V12.62H120.984V11.18H122.16V16.436ZM120.984 15.38V13.676H114.528V15.38H120.984ZM122.88 18.632H118.368V21.488H117.144V18.632H112.644V17.528H122.88V18.632Z" fill="#888888"/>
<path d="M19.6609 20.1766L18.0445 18.5738C17.3016 17.837 16.9302 17.4687 16.5025 17.3305C16.1263 17.209 15.7214 17.209 15.3452 17.3305C14.9175 17.4687 14.546 17.837 13.8031 18.5738L10.0395 22.3644M19.6609 20.1766L19.9822 19.858C20.7407 19.1058 21.1199 18.7297 21.5551 18.5924C21.9378 18.4717 22.349 18.4764 22.7288 18.6059C23.1607 18.7532 23.5312 19.1379 24.2722 19.9073L25.0588 20.706M19.6609 20.1766L23.3835 23.965M23.3835 23.965C23.0544 24 22.6318 24 22.0471 24H13.0118C11.9575 24 11.4304 24 11.0278 23.7948C10.6736 23.6144 10.3856 23.3264 10.2052 22.9722C10.1184 22.802 10.0684 22.6095 10.0395 22.3644M23.3835 23.965C23.6478 23.9369 23.8517 23.8862 24.031 23.7948C24.3852 23.6144 24.6732 23.3264 24.8537 22.9722C25.0588 22.5696 25.0588 22.0425 25.0588 20.9882V17.4118M16.5882 8.94118H13.0118C11.9575 8.94118 11.4304 8.94118 11.0278 9.14634C10.6736 9.32681 10.3856 9.61477 10.2052 9.96896C10 10.3716 10 10.8987 10 11.9529V20.9882C10 21.5968 10 22.0297 10.0395 22.3644M23.1765 13.6471V10.8235M23.1765 10.8235V8M23.1765 10.8235H26M23.1765 10.8235H20.3529" stroke="#888888" stroke-width="2" stroke-linecap="round" stroke-linejoin="round"/>
</svg>
