<svg width="20" height="20" viewBox="0 0 20 20" fill="none" xmlns="http://www.w3.org/2000/svg">
<g clip-path="url(#clip0_605_285)">
<path d="M12.7413 3.65L5.83294 7.61667C5.30808 7.91663 4.91316 8.40063 4.72461 8.975V3.375C4.72461 3.02982 4.44479 2.75 4.09961 2.75C3.75443 2.75 3.47461 3.02982 3.47461 3.375V16.6667C3.47461 17.0118 3.75443 17.2917 4.09961 17.2917C4.44479 17.2917 4.72461 17.0118 4.72461 16.6667V10.5917C4.91316 11.166 5.30808 11.65 5.83294 11.95L12.7079 15.9167C13.4817 16.3634 14.435 16.3632 15.2086 15.9163C15.9822 15.4693 16.4585 14.6435 16.4579 13.75V5.83333C16.4577 4.94713 15.9883 4.12727 15.2242 3.67839C14.4601 3.22951 13.5155 3.21871 12.7413 3.65V3.65Z" fill="#888888"/>
</g>
<defs>
<clipPath id="clip0_605_285">
<rect width="20" height="20" fill="white"/>
</clipPath>
</defs>
</svg>
