<svg width="20" height="20" viewBox="0 0 20 20" fill="none" xmlns="http://www.w3.org/2000/svg">
<g clip-path="url(#clip0_624_115)">
<path d="M7.25872 3.65L14.1671 7.61667C14.6919 7.91663 15.0868 8.40063 15.2754 8.975V3.375C15.2754 3.02982 15.5552 2.75 15.9004 2.75C16.2456 2.75 16.5254 3.02982 16.5254 3.375V16.6667C16.5254 17.0118 16.2456 17.2917 15.9004 17.2917C15.5552 17.2917 15.2754 17.0118 15.2754 16.6667V10.5917C15.0868 11.166 14.6919 11.65 14.1671 11.95L7.29206 15.9167C6.51831 16.3634 5.56497 16.3632 4.79136 15.9163C4.01775 15.4693 3.54148 14.6435 3.54206 13.75V5.83333C3.54228 4.94713 4.01166 4.12727 4.77577 3.67839C5.53989 3.22951 6.48454 3.21871 7.25872 3.65V3.65Z" fill="#888888"/>
</g>
<defs>
<clipPath id="clip0_624_115">
<rect width="20" height="20" fill="white"/>
</clipPath>
</defs>
</svg>
