<svg width="157" height="32" viewBox="0 0 157 32" fill="none" xmlns="http://www.w3.org/2000/svg">
<rect width="157" height="32" rx="16" fill="#1363DF"/>
<path d="M46.512 11V21.248H45.384V16.244H43.716V21.068H42.588V11.06H43.716V15.128H45.384V11H46.512ZM40.26 11.3H41.364V20.636H36.972V11.3H38.076V14.852H40.26V11.3ZM40.26 19.556V15.92H38.076V19.556H40.26ZM56.663 15.548H54.479V14.504H56.663V13.148H54.875V12.104H56.663V11H57.851V16.664H56.663V15.548ZM54.371 12.368C54.371 13.712 53.855 14.712 52.823 15.368C51.799 16.016 50.367 16.34 48.527 16.34V15.308C49.999 15.3 51.139 15.068 51.947 14.612C52.763 14.148 53.171 13.468 53.171 12.572V12.26H48.527V11.252H54.371V12.368ZM53.531 17C54.867 17 55.943 17.172 56.759 17.516C57.583 17.852 57.995 18.388 57.995 19.124C57.995 19.852 57.583 20.388 56.759 20.732C55.935 21.076 54.859 21.248 53.531 21.248C52.203 21.248 51.127 21.076 50.303 20.732C49.479 20.388 49.067 19.852 49.067 19.124C49.067 18.388 49.475 17.852 50.291 17.516C51.115 17.172 52.195 17 53.531 17ZM53.531 20.264C54.467 20.264 55.235 20.172 55.835 19.988C56.435 19.796 56.735 19.508 56.735 19.124C56.735 18.74 56.435 18.456 55.835 18.272C55.235 18.08 54.467 17.984 53.531 17.984C52.595 17.984 51.827 18.08 51.227 18.272C50.627 18.456 50.327 18.74 50.327 19.124C50.327 19.508 50.627 19.796 51.227 19.988C51.827 20.172 52.595 20.264 53.531 20.264ZM66.6459 13.232H59.6979V12.188H62.5659V10.892H63.7779V12.188H66.6459V13.232ZM70.4619 16.196H69.0459V21.248H67.8579V11H69.0459V15.056H70.4619V16.196ZM63.7659 19.58C65.2939 19.564 66.3739 19.412 67.0059 19.124V20.204C66.6859 20.348 66.2299 20.456 65.6379 20.528C65.0539 20.6 64.3939 20.636 63.6579 20.636H59.7459V19.58H62.5779V18.056C61.8499 17.976 61.2739 17.756 60.8499 17.396C60.4339 17.028 60.2259 16.556 60.2259 15.98C60.2259 15.324 60.4939 14.808 61.0299 14.432C61.5659 14.048 62.2859 13.856 63.1899 13.856C64.0939 13.856 64.8139 14.048 65.3499 14.432C65.8859 14.808 66.1539 15.324 66.1539 15.98C66.1539 16.556 65.9419 17.028 65.5179 17.396C65.0939 17.764 64.5099 17.988 63.7659 18.068V19.58ZM61.3539 15.98C61.3539 16.316 61.5139 16.592 61.8339 16.808C62.1539 17.016 62.6059 17.12 63.1899 17.12C63.7739 17.12 64.2259 17.016 64.5459 16.808C64.8659 16.592 65.0259 16.316 65.0259 15.98C65.0259 15.644 64.8659 15.368 64.5459 15.152C64.2259 14.936 63.7739 14.828 63.1899 14.828C62.6059 14.828 62.1539 14.936 61.8339 15.152C61.5139 15.368 61.3539 15.644 61.3539 15.98ZM79.7609 15.692H78.0809V14.636H79.7609V13.196H78.0809V12.14H79.7609V11H80.9369V18.62H79.7609V15.692ZM77.4809 16.796H71.7209V11.252H77.4809V16.796ZM76.3049 12.284H72.8849V15.764H76.3049V12.284ZM81.1529 20.048V21.116H72.2129V17.792H73.4249V20.048H81.1529ZM94.5712 11H95.7712V21.248H94.5712V11ZM89.7352 20.768C89.1112 20.768 88.5672 20.592 88.1032 20.24C87.6392 19.896 87.2752 19.368 87.0112 18.656C86.7552 17.944 86.6272 17.06 86.6272 16.004C86.6272 14.948 86.7552 14.064 87.0112 13.352C87.2752 12.64 87.6392 12.112 88.1032 11.768C88.5672 11.416 89.1112 11.24 89.7352 11.24C90.3512 11.24 90.8912 11.416 91.3552 11.768C91.8192 12.112 92.1792 12.64 92.4352 13.352C92.6992 14.064 92.8312 14.948 92.8312 16.004C92.8312 17.06 92.6992 17.944 92.4352 18.656C92.1792 19.368 91.8192 19.896 91.3552 20.24C90.8912 20.592 90.3512 20.768 89.7352 20.768ZM89.7352 19.676C90.3032 19.676 90.7632 19.376 91.1152 18.776C91.4672 18.168 91.6432 17.244 91.6432 16.004C91.6432 14.772 91.4672 13.852 91.1152 13.244C90.7632 12.636 90.3032 12.332 89.7352 12.332C89.1592 12.332 88.6952 12.636 88.3432 13.244C87.9912 13.844 87.8152 14.764 87.8152 16.004C87.8152 17.244 87.9872 18.168 88.3312 18.776C88.6832 19.376 89.1512 19.676 89.7352 19.676ZM106.114 11H107.302V21.248H106.114V11ZM98.3261 11.372H104.134V20.636H98.3261V11.372ZM102.946 19.52V12.488H99.5141V19.52H102.946ZM118.845 11V21.248H117.657V11H118.845ZM113.661 12.464C113.653 13.6 113.545 14.68 113.337 15.704L116.685 19.844L115.749 20.552L112.989 17.036C112.637 18.108 112.161 18.956 111.561 19.58C110.969 20.196 110.285 20.548 109.509 20.636V19.46C110.109 19.348 110.625 18.98 111.057 18.356C111.497 17.732 111.837 16.912 112.077 15.896C112.317 14.88 112.445 13.736 112.461 12.464H109.749V11.372H116.289V12.464H113.661ZM127.679 14.888C127.319 15.432 126.855 15.876 126.287 16.22C125.719 16.564 125.087 16.776 124.391 16.856V15.824C125.159 15.712 125.791 15.396 126.287 14.876C126.783 14.348 127.087 13.708 127.199 12.956H124.499V11.96H127.211V10.82H128.411V11.96H131.087V12.956H128.411C128.363 13.3 128.279 13.64 128.159 13.976L131.267 15.908L130.703 16.796L127.679 14.888ZM133.835 11V17H132.647V14.54H130.679V13.484H132.647V11H133.835ZM125.111 17.564H133.835V21.116H125.111V17.564ZM126.299 20.144H132.647V18.536H126.299V20.144ZM145.246 16.436H136.438V11.18H137.614V12.62H144.07V11.18H145.246V16.436ZM144.07 15.38V13.676H137.614V15.38H144.07ZM145.966 18.632H141.454V21.488H140.23V18.632H135.73V17.528H145.966V18.632Z" fill="white"/>
<path d="M19.6609 20.1766L18.0445 18.5738C17.3016 17.837 16.9302 17.4687 16.5025 17.3305C16.1263 17.209 15.7214 17.209 15.3452 17.3305C14.9175 17.4687 14.546 17.837 13.8031 18.5738L10.0395 22.3644M19.6609 20.1766L19.9822 19.858C20.7407 19.1058 21.1199 18.7297 21.5551 18.5924C21.9378 18.4717 22.349 18.4764 22.7288 18.6059C23.1607 18.7532 23.5312 19.1379 24.2722 19.9073L25.0588 20.706M19.6609 20.1766L23.3835 23.965M23.3835 23.965C23.0544 24 22.6318 24 22.0471 24H13.0118C11.9575 24 11.4304 24 11.0278 23.7948C10.6736 23.6144 10.3856 23.3264 10.2052 22.9722C10.1184 22.802 10.0684 22.6095 10.0395 22.3644M23.3835 23.965C23.6478 23.9369 23.8517 23.8862 24.031 23.7948C24.3852 23.6144 24.6732 23.3264 24.8537 22.9722C25.0588 22.5696 25.0588 22.0425 25.0588 20.9882V17.4118M16.5882 8.94118H13.0118C11.9575 8.94118 11.4304 8.94118 11.0278 9.14634C10.6736 9.32681 10.3856 9.61477 10.2052 9.96896C10 10.3716 10 10.8987 10 11.9529V20.9882C10 21.5968 10 22.0297 10.0395 22.3644M23.1765 13.6471V10.8235M23.1765 10.8235V8M23.1765 10.8235H26M23.1765 10.8235H20.3529" stroke="white" stroke-width="2" stroke-linecap="round" stroke-linejoin="round"/>
</svg>
