<svg width="15" height="15" viewBox="0 0 15 15" fill="none" xmlns="http://www.w3.org/2000/svg">
<circle cx="7.5" cy="7.5" r="7.5" fill="#FF9E89"/>
<path fill-rule="evenodd" clip-rule="evenodd" d="M7.5 4.98435C6.60029 3.93584 5.09689 3.6118 3.96961 4.57192C2.84234 5.53204 2.68364 7.13732 3.56889 8.27285C4.30492 9.21698 6.5324 11.2082 7.26244 11.8527C7.34412 11.9248 7.38496 11.9608 7.4326 11.975C7.47417 11.9874 7.51966 11.9874 7.56124 11.975C7.60888 11.9608 7.64971 11.9248 7.73139 11.8527C8.46144 11.2082 10.6889 9.21698 11.4249 8.27285C12.3102 7.13732 12.1709 5.52194 11.0242 4.57192C9.87757 3.6219 8.39971 3.93584 7.5 4.98435Z" stroke="white" stroke-width="2" stroke-linecap="round" stroke-linejoin="round"/>
</svg>
