<svg width="15" height="15" viewBox="0 0 15 15" fill="none" xmlns="http://www.w3.org/2000/svg">
<circle cx="7.5" cy="7.5" r="7.5" fill="#999999"/>
<path fill-rule="evenodd" clip-rule="evenodd" d="M7.57505 4.91324C6.67535 3.86267 5.17194 3.53799 4.04467 4.5C2.91739 5.46201 2.75869 7.07044 3.64394 8.20822C4.37997 9.1542 6.60745 11.1493 7.3375 11.7951C7.41918 11.8673 7.46001 11.9035 7.50765 11.9177C7.54923 11.93 7.59472 11.93 7.63629 11.9177C7.68393 11.9035 7.72477 11.8673 7.80645 11.7951C8.53649 11.1493 10.764 9.1542 11.5 8.20822C12.3853 7.07044 12.2459 5.45189 11.0993 4.5C9.95263 3.54811 8.47476 3.86267 7.57505 4.91324Z" stroke="white" stroke-width="2" stroke-linecap="round" stroke-linejoin="round"/>
</svg>
