<svg width="50" height="50" viewBox="0 0 50 50" fill="none" xmlns="http://www.w3.org/2000/svg">
<circle cx="25" cy="25" r="25" fill="#868686"/>
<path d="M32.0887 36.8526H17.9109C16.3666 36.8044 14.928 36.1667 13.9881 35.1138C13.0482 34.0608 12.7051 32.7026 13.0526 31.41L13.4192 29.9149C13.841 27.891 15.8677 26.4037 18.2623 26.3608H31.7373C34.1319 26.4037 36.1586 27.891 36.5804 29.9149L36.947 31.41C37.2945 32.7026 36.9514 34.0608 36.0115 35.1138C35.0716 36.1667 33.633 36.8044 32.0887 36.8526Z" fill="#DCDCDC"/>
<path d="M25.7639 23.7377H24.2361C20.8611 23.7377 18.125 21.3891 18.125 18.4919V15.0296C18.1209 13.8598 18.6605 12.737 19.624 11.9098C20.5876 11.0827 21.8957 10.6196 23.2584 10.6231H26.7417C28.1044 10.6196 29.4124 11.0827 30.376 11.9098C31.3396 12.737 31.8791 13.8598 31.875 15.0296V18.4919C31.875 19.8832 31.2312 21.2175 30.0851 22.2013C28.9391 23.1851 27.3847 23.7377 25.7639 23.7377Z" fill="#DCDCDC"/>
</svg>
