<svg width="30" height="30" viewBox="0 0 30 30" fill="none" xmlns="http://www.w3.org/2000/svg">
<path fill-rule="evenodd" clip-rule="evenodd" d="M17.9353 17.9354L21.9489 21.949L17.9353 17.9354ZM17.8871 9.72612C18.4229 10.2619 18.8479 10.898 19.1379 11.598C19.4278 12.2981 19.5771 13.0484 19.5771 13.8061C19.5771 14.5639 19.4278 15.3142 19.1379 16.0142C18.8479 16.7143 18.4229 17.3503 17.8871 17.8861C17.3513 18.4219 16.7152 18.8469 16.0152 19.1369C15.3151 19.4269 14.5648 19.5761 13.8071 19.5761C13.0494 19.5761 12.2991 19.4269 11.599 19.1369C10.899 18.8469 10.2629 18.4219 9.7271 17.8861C8.64502 16.804 8.03711 15.3364 8.03711 13.8061C8.03711 12.2758 8.64502 10.8082 9.7271 9.72612C10.8092 8.64404 12.2768 8.03613 13.8071 8.03613C15.3374 8.03613 16.805 8.64404 17.8871 9.72612V9.72612Z" stroke="black" stroke-width="1.5"/>
</svg>
