<svg width="299" height="310" viewBox="0 0 299 310" fill="none" xmlns="http://www.w3.org/2000/svg">
<path d="M101.724 236.68C104.444 235.717 107.23 234.953 110.061 234.396L110.404 235.652C110.442 235.8 110.532 235.93 110.658 236.016C110.784 236.103 110.937 236.142 111.089 236.125L122.297 234.82C125.38 227.789 131.042 217.135 131.123 216.972C131.042 214.313 131.123 212.077 131.123 209.532C124.712 211.914 112.851 216.433 106.651 219.321C106.511 219.412 106.403 219.543 106.341 219.699C106.28 219.854 106.268 220.024 106.309 220.186C106.309 220.186 106.423 220.594 106.57 221.181C103.535 221.181 94.4477 220.741 92.2615 222.813C91.9216 223.286 91.7546 223.862 91.7884 224.444C91.6579 226.695 92.7836 244.185 94.5782 249.324C95.5082 252.016 97.4659 251.722 98.8037 249.145C100.352 245.263 101.346 241.182 101.757 237.023C101.757 236.811 101.708 236.827 101.724 236.68V236.68ZM99.8479 222.078C101.838 221.915 102.458 221.948 106.733 221.817C107.5 224.721 109.082 230.693 109.898 233.743C107.019 234.189 104.178 234.849 101.398 235.717C100.531 231.218 100.013 226.658 99.8479 222.078Z" fill="black"/>
<path d="M251.885 79.2915C252.293 78.7205 251.771 77.9863 251.33 77.4153C252.578 76.1318 253.962 74.9885 255.458 74.0055C257.982 72.7475 260.29 71.0953 262.294 69.1111C263.126 68.2464 264.692 66.4681 264.105 65.4239C263.518 64.3798 262.473 64.3145 261.054 64.9182C261.669 64.2725 262.171 63.528 262.539 62.7157C262.995 61.4431 261.919 60.4153 259.586 61.3616C260.434 60.0074 260.63 58.5881 259.194 57.9028C258.036 57.3481 256.339 58.6696 255.36 59.5343C253.438 61.2138 251.634 63.0236 249.96 64.9508C248.932 62.7973 247.301 60.3174 245.261 61.1005C243.222 61.8836 244.805 65.3913 245.849 67.3001L242.145 69.8616C241.586 69.5594 240.953 69.4182 240.318 69.4537C236.109 70.1715 216.776 84.8875 214.818 84.8875C213.317 84.8875 191.879 74.6092 173.346 71.6399C173.31 71.5287 173.244 71.4299 173.154 71.3549C173.065 71.2798 172.956 71.2316 172.84 71.2157C169.607 70.6641 166.33 70.4183 163.051 70.4815C162.952 70.4882 162.855 70.5165 162.768 70.5644C162.68 70.6123 162.605 70.6787 162.545 70.7589H161.175C160.849 69.4374 159.641 66.3865 159.217 65.2118C160.327 64.2493 161.86 63.7598 162.66 62.2099C164.128 59.3385 164.063 54.3462 163.655 51.1485C165.498 49.7454 165.547 47.494 165.123 45.1936C164.96 44.2637 164.454 42.1591 163.671 41.637C163.231 41.3433 162.301 41.637 161.501 41.9307C160.702 40.0708 160.702 40.9192 161.028 40.1687C161.18 39.8228 161.268 39.4526 161.289 39.0756C162.154 39.3366 163.949 37.6073 163.329 35.3232C163.004 34.5055 162.605 33.7192 162.138 32.9739C162.366 32.4192 162.855 31.7503 161.322 29.7109C160.661 28.9984 159.804 28.4987 158.858 28.2752H158.108C157.567 27.4893 156.772 26.9133 155.856 26.6437C154.475 26.2914 153.01 26.4965 151.778 27.2147C151.451 27.4595 151.19 27.7858 150.864 28.0142C150.126 27.5662 149.28 27.3293 148.417 27.3293C147.554 27.3293 146.707 27.5662 145.97 28.0142C145.538 28.1836 145.145 28.4386 144.814 28.7638C144.483 29.0891 144.221 29.4778 144.045 29.9067C143.245 29.6309 142.397 29.5247 141.554 29.5949C140.712 29.6651 139.893 29.9102 139.15 30.3146C136.332 31.8428 134.224 34.4136 133.277 37.4767C133.25 37.9386 133.25 38.4016 133.277 38.8635H133.097C130.65 38.5046 127.534 44.3126 130.03 48.8318C130.324 49.3702 130.699 49.876 131.058 50.4633C132.102 52.0948 131.694 52.5842 134.027 54.5746C134.712 55.1619 134.827 55.113 135.251 55.4719C135.675 55.8309 135.512 55.6514 135.757 56.565C135.89 57.1032 136.129 57.6096 136.459 58.0549C136.79 58.5002 137.205 58.8755 137.682 59.1591C137.855 60.7549 138.536 62.253 139.623 63.4335C139.968 63.819 140.369 64.1491 140.814 64.4124C140.934 64.48 141.068 64.5191 141.206 64.5266C141.695 67.5612 142.299 71.5093 142.56 73.1898L141.108 73.9729C139.208 74.7373 137.361 75.6256 135.577 76.6322C135.437 76.729 135.338 76.8744 135.3 77.0401C133.57 77.9537 131.939 78.8184 131.009 79.3731C118.055 87.0573 81.2653 137.715 80.89 140.031C80.8486 140.164 80.8486 140.306 80.89 140.439C81.4174 141.281 82.0599 142.044 82.7989 142.707C82.5712 143.122 82.2975 143.511 81.9831 143.865C78.7202 146.003 73.8257 149.184 71.1991 152.023C71.0148 152.187 70.8766 152.396 70.7981 152.63C70.7195 152.864 70.7033 153.115 70.7511 153.357C70.7989 153.599 70.9089 153.825 71.0705 154.011C71.232 154.198 71.4394 154.339 71.6722 154.421C72.1616 154.584 72.2432 154.535 75.4246 152.79C74.5503 153.556 73.8352 154.488 73.32 155.53C73.1079 156.428 73.9236 156.95 74.9515 156.787C75.5298 156.635 76.0804 156.393 76.5829 156.069C76.2887 156.523 76.1321 157.053 76.1321 157.594C76.1321 158.136 76.2887 158.665 76.5829 159.12C78.2144 161.175 82.4889 154.698 84.7403 153.1C85.654 154.258 86.8939 156.966 88.868 156.248C90.581 155.612 88.7048 151.843 88.868 150.75C89.5318 150.113 90.2406 149.524 90.9889 148.988C92.2474 149.922 93.6864 150.583 95.2144 150.93C97.9063 150.93 126 122.575 128.138 120.307C127.371 127.518 123.504 158.467 124.32 164.487C124.695 167.212 131.237 167.603 133.995 167.75C133.163 187.328 132.608 216.988 132.461 217.298C128.138 226.614 126.963 229.159 125.511 231.981C122.868 237.039 111.741 255.703 110.485 259.945C110.306 260.614 110.289 260.875 110.991 262.115C108.888 264.325 106.937 266.674 105.15 269.146C104.253 270.778 108.103 285.983 110.828 291.367C111.448 292.574 112.459 294.434 113.813 294.385C117.892 294.239 117.876 279.588 117.761 275.493C117.761 275.367 117.714 275.245 117.631 275.15C118.37 274.047 119.177 272.99 120.045 271.985C120.564 272.342 121.11 272.659 121.677 272.932C122.232 273.176 122.852 272.752 123.308 272.377C128.741 268.102 158.043 231.59 164.324 214.361C167.179 206.498 170.98 195.632 172.057 187.932C172.715 183.063 172.776 178.132 172.236 173.248C172.236 173.179 172.264 173.113 172.313 173.064C172.362 173.015 172.428 172.987 172.497 172.987C172.567 172.987 172.633 173.015 172.682 173.064C172.731 173.113 172.759 173.179 172.759 173.248C173.576 178.16 173.735 183.158 173.232 188.111C172.024 198.797 163.59 221.067 159.087 229.257C162.97 228.539 170.866 226.973 174.684 225.831C187.409 221.964 199.156 210.43 200.184 197.476C200.516 191.373 200.516 185.257 200.184 179.154C200.074 170.729 198.978 162.347 196.921 154.176C200.379 152.3 203.544 150.098 204.572 148.075C206.775 143.751 200.95 118.871 199.678 111.888C206.644 112.655 218.505 114.042 224.036 109.719C230.366 104.628 244.038 90.304 251.885 79.2915V79.2915ZM116.88 274.596C113.944 272.817 109.832 268.592 109.212 265.28C109.881 264.432 110.583 263.648 111.236 262.767C113.447 266.141 116.203 269.124 119.393 271.594C118.497 272.544 117.658 273.546 116.88 274.596V274.596ZM246.583 67.757C246.667 67.7031 246.728 67.619 246.752 67.5219C246.776 67.4248 246.762 67.3221 246.713 67.2349C246.142 66.1744 244.429 62.4383 245.62 62.0142C246.305 61.7531 246.909 62.1773 247.415 62.7483C248.187 63.7281 248.788 64.8312 249.193 66.0113C249.223 66.1072 249.279 66.1931 249.354 66.2598C249.43 66.3265 249.522 66.3715 249.621 66.3899C249.72 66.4084 249.822 66.3996 249.916 66.3645C250.01 66.3294 250.093 66.2693 250.156 66.1907C251.787 64.3798 255.605 60.2522 257.758 59.1428C259.39 58.2944 259.781 59.8606 255.784 63.5151C254.866 64.2151 253.984 64.9611 253.141 65.7502C253.095 65.8143 253.07 65.8914 253.07 65.9705C253.07 66.0496 253.095 66.1267 253.141 66.1907C253.141 66.6149 253.484 67.088 254.071 66.6475C255.49 65.4027 256.988 64.2527 258.558 63.2051C259.359 62.636 260.29 62.277 261.266 62.161C260.777 63.6619 256.225 67.7406 255.833 68.1975C255.709 68.3088 255.634 68.4644 255.623 68.6308C255.612 68.7972 255.668 68.9611 255.777 69.0873C255.886 69.2134 256.04 69.2917 256.206 69.3053C256.372 69.3189 256.537 69.2668 256.665 69.16C258.476 67.9854 261.641 65.2445 262.734 65.6523C263.828 66.0602 260.581 69.0948 259.765 69.8126C255.083 73.875 256.29 71.2646 250.874 76.779C248.516 74.1963 245.809 71.9558 242.83 70.1226L246.583 67.757ZM175.695 145.79C175.418 143.539 175.075 141.108 174.651 138.579L175.353 137.649C178.616 133.457 179.594 126.784 179.284 121.547C181.03 129.198 182.417 136.719 183.477 144.192L175.695 145.79ZM151.435 89.9287C147.144 86.6658 140.243 81.0372 136.23 77.1869L142.756 73.9239C148.748 79.5213 153.878 85.9759 157.977 93.0775C164.246 104.593 168.896 116.918 171.796 129.704L148.531 96.7972L151.566 90.4997C151.606 90.4028 151.615 90.2957 151.591 90.1934C151.568 90.0911 151.513 89.9986 151.435 89.9287ZM162.464 71.4278C162.562 71.6072 163.688 74.0055 165.401 78.1984C165.401 78.3779 165.091 82.4566 164.944 83.8923C162.861 83.0669 160.898 81.9697 159.103 80.6293C159.462 79.2099 161.077 72.7656 161.191 71.3136L162.464 71.4278ZM156.672 88.9498C156.786 88.6562 156.901 88.2646 157.031 87.8078L158.124 88.3788C158.744 88.7867 158.499 87.5468 159.054 91.136C159.054 91.7397 159.217 92.4086 159.25 93.1427C158.499 91.7886 157.569 90.3366 156.688 88.9498H156.672ZM155.759 87.5794C152.676 83.2076 149.168 79.1526 145.284 75.4738L157.569 80.8088C157.096 81.9345 156.411 85.3769 155.775 87.5794H155.759ZM168.305 97.1398C166.673 92.6859 165.417 87.7099 164.797 86.4047C164.834 85.9977 164.834 85.5882 164.797 85.1811C165.033 85.269 165.28 85.3239 165.531 85.3443C165.688 85.346 165.841 85.2909 165.961 85.189C166.081 85.087 166.16 84.9452 166.184 84.7896C166.314 84.2512 166.526 81.5266 166.559 80.923C171.305 92.9054 175.267 105.184 178.42 117.68C169.202 98.0698 170.621 103.747 168.321 97.1398H168.305ZM181.797 128.285C178.077 110.453 171.535 88.2157 164.095 71.7378C166.827 71.7393 169.555 71.9575 172.253 72.3903C173.64 84.7896 172.481 84.3654 173.411 84.8548C174.341 85.3443 179.937 87.5957 180.769 87.9383C180.687 89.1946 181.862 125.12 181.813 128.285H181.797ZM163.019 42.6811C163.869 44.5372 164.169 46.5982 163.883 48.6197C163.75 49.1342 163.477 49.6018 163.095 49.9703C162.712 50.3389 162.234 50.594 161.715 50.7073C161.196 50.8206 160.656 50.7876 160.154 50.6121C159.653 50.4365 159.21 50.1252 158.875 49.7128C158.096 48.073 157.51 46.3484 157.129 44.5737C157.569 44.0026 162.268 42.8606 163.019 42.6811V42.6811ZM140.569 58.9959C139.973 58.7246 139.364 58.485 138.742 58.2781C138.325 58.1067 137.953 57.842 137.654 57.5045C137.355 57.167 137.137 56.7654 137.018 56.3308C136.898 55.8961 136.88 55.4397 136.964 54.9968C137.047 54.5538 137.232 54.1359 137.502 53.7752C138.53 52.9105 139.46 52.9595 140.308 54.2483C140.847 55.2435 140.831 55.3251 141.075 55.423C141.145 55.4539 141.221 55.4695 141.298 55.4687C141.375 55.4678 141.45 55.4506 141.52 55.4182C141.59 55.3858 141.651 55.3388 141.701 55.2806C141.751 55.2223 141.788 55.1541 141.809 55.0804C142.051 54.0592 142.09 53.0004 141.924 51.9643C141.728 50.8385 141.695 45.8462 141.728 45.6831C142.204 45.9343 142.74 46.0526 143.278 46.0257C146.231 45.9115 146.818 44.3942 147.993 43.1543C149.347 43.2848 149.624 43.9374 151.158 43.1543C151.876 42.7458 152.535 42.2408 153.116 41.6533C153.584 41.8453 154.037 42.0744 154.47 42.3385C155.447 42.8087 156.55 42.9531 157.616 42.7505C158.682 42.5479 159.655 42.009 160.392 41.2128C160.571 41.5554 160.735 41.898 160.881 42.257C159.382 42.7222 157.971 43.4334 156.705 44.3616C156.427 44.7042 156.835 46.5641 156.933 47.0046C155.566 47.1765 154.244 47.6026 153.034 48.2608C152.789 47.4124 152.251 45.8299 151.402 45.3894C151.147 45.3113 150.875 45.3113 150.619 45.3894C149.151 45.6178 143.881 47.2003 143.245 48.065C142.69 48.6687 144.273 53.3347 144.762 54.1015C146.639 57.0055 152.137 56.1571 153.164 52.7637C153.419 51.6248 153.419 50.4438 153.164 49.3049C153.638 49.3049 155.057 48.7992 155.22 48.7502C156.346 51.279 156.672 51.4259 157.977 54.1504C157.798 54.2973 157.504 54.542 157.259 54.7051C156.101 55.4719 155.856 55.3414 155.922 55.6677C155.941 55.7325 155.983 55.7881 156.04 55.8241C156.097 55.8602 156.165 55.8742 156.232 55.8635C156.916 55.7656 157.585 55.5792 158.222 55.3088C158.603 55.1667 158.917 54.8874 159.103 54.5257C159.56 53.4978 157.031 49.6312 156.036 48.4729C156.232 48.4729 156.688 48.1466 157.031 47.9671C157.488 49.7944 157.798 51.2301 159.56 51.9479C160.069 52.1402 160.612 52.2277 161.156 52.2053C161.7 52.1829 162.233 52.051 162.725 51.8174C162.986 54.6888 162.937 59.3548 161.567 61.9C160.865 63.2214 159.136 63.7272 158.026 64.8203C157.7 65.1303 157.912 65.5708 158.026 66.0439C159.837 71.0852 159.87 71.0689 159.772 71.7214C159.292 74.43 158.621 77.1014 157.765 79.7157C157.357 79.5362 152.773 77.1053 143.8 73.614C143.522 71.7704 142.038 61.9326 141.565 60.1216C141.597 59.4854 141.516 59.3385 140.569 58.9143V58.9959ZM151.99 52.3395C151.468 54.1178 149.004 54.8846 147.242 54.3952C145.48 53.9057 145.366 53.0084 144.534 50.8875C144.144 50.0772 143.875 49.2143 143.735 48.3261C144.273 47.7387 150.163 46.5314 150.897 46.4172C151.926 48.1788 152.313 50.2432 151.99 52.2579V52.3395ZM88.1501 150.293C87.5302 150.897 88.3622 152.871 88.4927 154.584C88.4927 154.731 88.4927 155.367 88.3948 155.416C87.4975 155.71 86.6655 154.356 86.1597 153.54C85.654 152.724 85.1482 151.615 84.3488 151.909C82.7173 152.675 78.9323 157.7 77.4476 158.222C76.6971 156.787 80.9879 152.692 81.1348 152.463C81.1977 152.358 81.2307 152.238 81.2301 152.116C81.2296 151.994 81.1955 151.874 81.1315 151.769C81.0676 151.665 80.9763 151.58 80.8676 151.524C80.7588 151.468 80.6368 151.443 80.5148 151.452C80.2211 151.452 80.0254 151.713 79.5685 152.121C78.1791 153.477 76.5887 154.61 74.8536 155.481C76.4268 153.677 78.1104 151.971 79.8948 150.375C79.983 150.284 80.045 150.172 80.0743 150.049C80.0743 150.049 79.7317 149.184 79.0628 149.527C78.1165 150.049 73.5158 152.708 72.0638 153.393C71.868 153.263 71.9822 153.067 72.0638 152.871C74.3641 150.049 79.4217 146.623 82.5215 144.453C82.8853 144.078 83.1881 143.649 83.4188 143.18C85.5656 145.178 87.8558 147.015 90.271 148.678C89.527 149.166 88.8182 149.706 88.1501 150.293V150.293ZM126.115 165.123C125.756 164.895 125.495 164.683 125.446 164.389C124.548 157.733 129.541 120.013 129.459 118.529C129.459 118.441 129.442 118.355 129.408 118.275C129.374 118.195 129.325 118.122 129.262 118.061C129.2 118 129.126 117.953 129.045 117.921C128.964 117.889 128.877 117.874 128.79 117.876C127.958 117.876 129.426 117.876 108.641 137.78C107.271 139.069 96.7969 149.086 95.0513 149.755C92.653 149.576 83.6309 142.381 82.1626 140.113C85.0014 134.37 119.426 87.1226 131.335 79.8951C132.249 79.3404 133.815 78.4758 135.528 77.5621C136.121 78.1208 136.759 78.6284 137.437 79.0794C141.222 82.6686 146.492 87.1389 150.489 90.4997L147.373 96.683C147.325 96.7649 147.301 96.8577 147.301 96.9522C147.301 97.0467 147.325 97.1396 147.373 97.2214C172.677 133.522 172.302 133.114 172.465 133.114C174.087 141.502 175.096 149.997 175.483 158.532C175.483 160.833 175.483 160.637 175.581 160.474C175.679 160.311 175.581 160.588 175.581 160.588C171.633 164.895 132.559 168.909 126.115 165.123V165.123ZM216.303 111.073C208.912 112.1 200.559 110.567 198.944 110.502C198.046 106.152 196.257 102.036 193.69 98.4124C193.651 98.3596 193.593 98.3235 193.529 98.3114C193.464 98.2993 193.397 98.312 193.342 98.3471C193.286 98.3821 193.246 98.4369 193.229 98.5004C193.212 98.564 193.219 98.6316 193.25 98.6897C194.196 100.615 197.361 108.919 198.144 110.942C197.9 111.725 205.519 143.229 203.365 147.471C201.44 151.305 190.232 156.134 186.186 157.521C185.386 148.438 184.078 139.408 182.27 130.471C182.825 125.772 182.107 97.8414 181.895 87.5141C181.889 87.3941 181.848 87.2784 181.779 87.1802C181.71 87.082 181.614 87.0055 181.503 86.9594L174.178 83.8759C174.145 79.9989 173.9 76.1265 173.444 72.2761C191.733 75.4412 213.04 85.899 214.818 85.9153C217.396 85.9153 236.549 71.232 240.514 70.6447C242.276 70.3673 249.846 76.9748 250.727 78.8021C242.994 89.6024 229.403 103.796 223.106 108.707C221.077 110.063 218.735 110.878 216.303 111.073V111.073Z" fill="black"/>
<path d="M150.309 49.0765C150.289 48.9694 150.248 48.8673 150.188 48.7762C150.128 48.685 150.051 48.6065 149.961 48.5451C149.871 48.4838 149.769 48.4408 149.663 48.4186C149.556 48.3964 149.446 48.3954 149.339 48.4158C149.232 48.4361 149.13 48.4774 149.038 48.5372C148.947 48.597 148.869 48.6742 148.807 48.7643C148.746 48.8544 148.703 48.9558 148.681 49.0625C148.659 49.1693 148.658 49.2794 148.678 49.3865C149.004 51.018 149.07 51.3932 149.787 51.3932C149.923 51.3937 150.057 51.3603 150.176 51.2961C150.296 51.2319 150.397 51.1389 150.472 51.0255C150.546 50.9121 150.591 50.7819 150.603 50.6467C150.615 50.5115 150.592 50.3756 150.538 50.2512C150.489 49.9902 150.342 49.2234 150.309 49.0765V49.0765ZM155.302 59.8769C156.362 60.1869 157.374 59.6811 157.341 59.4201C157.308 59.1591 157.341 59.2896 155.905 58.7512C154.943 58.3923 153.882 57.1197 153.507 57.3155C153.132 57.5113 153.703 58.5554 153.833 58.7512C154.182 59.2808 154.7 59.6773 155.302 59.8769V59.8769ZM185.141 44.3779C183.004 53.3347 181.438 60.9374 181.177 62.4546C181.004 63.1148 180.97 63.8039 181.079 64.4777C181.944 66.3212 193.119 69.9594 194.539 69.2416C195.958 68.5237 199.645 60.2195 203.936 51.6543C206.565 51.7383 209.195 51.5469 211.783 51.0832C214.509 50.5832 217.162 49.7446 219.68 48.5871C225.194 46.042 231.231 35.1437 232.046 29.662C232.658 23.7104 231.398 17.7163 228.441 12.5151C214.753 -11.2229 174.602 1.55161 177.865 27.9163C178.797 33.949 181.307 39.6281 185.141 44.3779V44.3779ZM195.093 63.8088C195.093 64.0698 194.8 64.0372 193.462 63.8088C190.726 63.4649 188.076 62.6186 185.647 61.3126C184.505 60.6927 184.195 60.5621 184.309 60.2848C184.424 60.0074 184.668 60.1053 186.43 60.5948C186.593 60.5948 191.651 62.2262 193.103 62.732C194.979 63.5804 195.093 63.5804 195.093 63.8088V63.8088ZM194.8 37.2646C196.542 37.355 198.278 36.9954 199.841 36.2205C201.294 36.9243 202.865 37.3503 204.474 37.4767C201.734 42.5833 196.17 52.9921 194.376 58.5391L187.458 56.6303C189.09 52.6168 192.695 43.2195 194.767 37.2646H194.8ZM194.229 35.9105C193.011 35.7265 191.887 35.1481 191.029 34.264C190.172 33.3799 189.628 32.239 189.481 31.0161C189.024 27.7531 191.113 24.0986 194.261 24.9633C196.236 25.5017 196.48 27.0679 196.138 29.042C195.844 30.4777 194.783 34.0833 194.196 35.8453L194.229 35.9105ZM198.666 31.995C198.841 30.9274 199.241 29.9094 199.841 29.0094C200.127 28.5187 200.544 28.118 201.046 27.8526C201.547 27.5873 202.114 27.468 202.68 27.5084C203.887 27.8673 204.409 30.1514 203.414 31.5871C202.458 32.8564 201.267 33.9307 199.906 34.7522C199.438 34.4774 199.065 34.0659 198.838 33.5731C198.61 33.0802 198.539 32.5295 198.634 31.995H198.666ZM183.673 11.2589C190.982 2.46524 204.735 -1.02613 214.671 2.59575C220.069 4.44852 224.609 8.19998 227.446 13.1514C230.259 18.1006 231.462 23.8024 230.888 29.4662C230.138 34.5401 224.362 45.0794 219.288 47.4124C214.649 49.5285 209.588 50.5553 204.491 50.4143C203.936 50.4143 203.349 50.4143 203.137 50.8059C202.174 52.7637 200.412 56.5487 198.683 60.1053C197.489 59.5287 196.25 59.0486 194.979 58.6696C196.872 53.2531 202.843 42.6159 205.682 37.4604C208.141 37.6711 210.614 37.2441 212.86 36.2205C213.467 35.901 213.97 35.415 214.311 34.8196C214.651 34.2242 214.815 33.544 214.782 32.8589C214.75 32.1738 214.522 31.5121 214.127 30.9517C213.732 30.3912 213.185 29.9551 212.55 29.6946C210.021 28.4547 207.754 31.424 206.432 33.9201C206.073 34.5727 205.665 35.3395 205.209 36.2042C203.889 36.1175 202.588 35.8484 201.342 35.4048C202.583 34.5328 203.683 33.4765 204.605 32.2723C205.122 31.4923 205.383 30.5711 205.354 29.636C205.325 28.7009 205.006 27.7979 204.442 27.0516C203.999 26.5369 203.383 26.2015 202.71 26.1084C202.037 26.0153 201.354 26.1708 200.787 26.5458C199.645 27.2479 198.729 28.2648 198.15 29.4745C197.572 30.6842 197.354 32.0352 197.524 33.3654C197.702 34.1163 198.106 34.7942 198.683 35.3069C197.613 35.7501 196.464 35.9721 195.306 35.9595C195.958 34.0343 197.019 30.5593 197.296 29.1399C197.47 28.3307 197.509 27.4982 197.41 26.6764C197.284 25.9708 196.957 25.3168 196.467 24.7929C195.978 24.269 195.348 23.8976 194.653 23.7234C190.688 22.5977 187.768 26.9863 188.339 31.0813C188.5 32.5488 189.13 33.9253 190.135 35.0067C191.14 36.0882 192.467 36.817 193.919 37.0852C191.831 42.9585 188.568 52.4374 186.936 56.4834L183.347 55.5535C185.647 44.0026 185.925 44.28 185.598 44.1332C181.891 39.4068 179.519 33.7729 178.73 27.8184C178.345 24.8658 178.587 21.8654 179.438 19.0123C180.29 16.1592 181.733 13.5175 183.673 11.2589V11.2589ZM206.318 36.3021C207.46 34.2301 209.744 29.6946 211.963 30.804C212.407 30.9828 212.793 31.2794 213.081 31.6618C213.368 32.0442 213.546 32.4979 213.594 32.9739C213.562 35.8453 209.092 36.351 206.253 36.3021H206.318ZM268.771 43.4969C270.737 42.3406 273.059 41.9459 275.297 42.3875C277.755 42.4315 280.103 43.4143 281.859 45.1343C283.616 46.8544 284.648 49.1814 284.743 51.638C283.265 50.7803 281.537 50.4577 279.849 50.7243C275.754 51.0832 270.402 53.3021 271.12 57.2502C271.708 60.5132 276.015 60.0727 279.278 59.1917C282.541 58.3107 285.135 56.7118 285.804 53.5631C289.768 56.4508 290.698 61.5084 290.861 66.4518C290.861 66.521 290.889 66.5874 290.938 66.6363C290.987 66.6853 291.053 66.7128 291.122 66.7128C291.191 66.7128 291.258 66.6853 291.307 66.6363C291.356 66.5874 291.383 66.521 291.383 66.4518C291.497 60.9211 290.502 55.5046 285.983 52.3558C286.03 50.9393 285.788 49.5281 285.273 48.2077C284.759 46.8872 283.981 45.685 282.988 44.6737C281.995 43.6625 280.807 42.8633 279.497 42.3245C278.186 41.7857 276.779 41.5185 275.362 41.5391C273.097 41.2084 270.788 41.6818 268.836 42.8769C268.233 43.1706 268.51 43.6111 268.771 43.4969V43.4969ZM283.65 55.1946C281.806 57.6092 276.586 58.8654 274.171 58.4575C273.274 58.3107 272.54 57.9355 272.344 57.0055C271.757 53.7426 277.385 51.9642 280.746 51.85C282.115 51.7451 283.48 52.095 284.629 52.8452C284.505 53.6982 284.169 54.5063 283.65 55.1946V55.1946ZM261.299 24.4249C263.044 22.2714 261.87 18.519 256.992 18.5027C255.099 18.5027 254.186 20.4278 254.316 22.2714C254.61 26.66 259.553 26.5295 261.299 24.4249V24.4249ZM255.458 22.1898C255.458 21.113 255.964 19.7099 257.09 19.7263C259.716 19.7263 260.924 20.9499 260.924 22.304C260.858 25.3875 255.246 26.9863 255.458 22.1898V22.1898ZM254.789 207.15C240.449 201.424 233.792 229.143 222.078 252.962C222.004 253.963 222.037 254.97 222.176 255.964C222.176 258.46 222.453 274.987 223.905 276.863C224.297 277.614 225.945 276.863 226.711 276.39C233.224 272.359 239.361 267.75 245.049 262.621C245.098 262.565 245.134 262.5 245.157 262.43C245.179 262.36 245.187 262.286 245.18 262.213C248.214 257.889 259.586 235.375 262.343 224.085C264.268 216.091 262.359 210.136 254.789 207.15V207.15ZM259.912 227.87C252.235 226.886 244.812 224.462 238.034 220.724C241.852 213.497 246.567 205.258 254.349 208.358C263.012 211.8 262.832 218.93 259.912 227.821V227.87ZM232.764 270.288C232.263 269.868 231.716 269.507 231.133 269.212C228.928 268.091 226.381 267.846 224.003 268.526C223.84 266.585 222.91 253.957 222.91 253.843C235.13 258.313 231.361 256.372 243.467 262.392C242.194 263.599 237.414 266.944 232.764 270.256V270.288ZM241.183 223.074C242.774 223.943 244.407 224.732 246.077 225.439C242.338 231.313 239.033 237.453 236.19 243.81C233.449 249.536 233.547 249.503 230.758 255.752C229.126 255.23 227.495 254.741 225.863 254.251C227.625 250.743 240.155 225.097 241.183 223.041V223.074ZM231.394 255.915C236.696 246.404 242.096 234.575 246.73 225.651C248.361 226.336 249.993 226.891 251.624 227.381C250.759 229.012 248.231 233.352 247.562 234.608C246.893 235.864 240.188 249.079 239.714 250.091C238.964 251.722 236.908 256.274 236.272 257.726C234.608 256.992 233.009 256.437 231.329 255.883L231.394 255.915ZM236.859 257.938C237.854 256.127 241.949 248.525 242.455 247.546C243.222 246.028 251.771 228.555 252.244 227.544C253.745 227.968 255.328 228.327 256.339 228.523C253.354 236.68 244.756 252.391 241.656 260.141C238.833 258.819 238.197 258.493 236.794 257.906L236.859 257.938ZM237.854 221.197L240.775 222.829C234.89 232.851 229.763 243.3 225.439 254.088L222.992 253.337C232.471 233.14 232.911 230.497 237.789 221.165L237.854 221.197ZM244.576 261.56L242.113 260.385C244.772 255.165 253.092 241.77 256.894 228.637C257.807 228.8 258.705 228.947 259.569 229.061C255.377 240.248 250.343 251.101 244.511 261.527L244.576 261.56ZM193.462 272.148C194.112 271.61 194.577 270.881 194.791 270.064C195.004 269.248 194.956 268.384 194.653 267.597C194.515 266.46 193.993 265.404 193.175 264.603C192.356 263.802 191.29 263.304 190.15 263.19C189.011 263.076 187.867 263.353 186.906 263.976C185.945 264.599 185.225 265.531 184.864 266.618C182.776 265.264 180.508 263.828 178.338 262.457C179.97 260.288 184.766 261.25 185.256 263.028C185.266 263.098 185.304 263.16 185.361 263.201C185.418 263.242 185.488 263.259 185.557 263.249C185.627 263.238 185.689 263.2 185.73 263.143C185.771 263.087 185.789 263.016 185.778 262.947C185.533 260.108 179.627 258.444 177.245 261.789C175.141 260.5 172.53 258.933 170.344 257.742C172.22 256.111 176.413 257.025 176.87 258.721C176.891 258.779 176.933 258.828 176.987 258.858C177.041 258.889 177.104 258.899 177.164 258.887C177.225 258.875 177.28 258.842 177.318 258.794C177.357 258.746 177.377 258.685 177.376 258.623C177.164 255.98 171.698 254.202 169.218 257.106C168.179 256.524 167.087 256.043 165.955 255.67C165.749 255.585 165.522 255.561 165.302 255.601C165.081 255.642 164.878 255.745 164.715 255.899C160.588 261.038 146.671 274.384 140.243 275.933C140.082 275.958 139.929 276.024 139.802 276.126C139.674 276.228 139.575 276.362 139.516 276.514C139.456 276.666 139.438 276.831 139.462 276.993C139.487 277.155 139.554 277.307 139.656 277.434C141.067 278.867 142.684 280.082 144.452 281.04C142.821 282.671 141.548 284.14 140.602 285.2C140.113 285.722 139.852 295.707 140.276 297.909C140.339 298.125 140.478 298.31 140.667 298.431C142.723 299.835 169.202 311.288 171.91 309.754C173.721 308.726 195.338 286.228 195.681 285.543C196.203 284.466 196.023 277.288 195.991 274.416C195.86 273.551 194.245 272.621 193.462 272.148V272.148ZM141.255 293.7V290.062C148.025 293.325 163.524 299.981 169.398 301.841C170.899 302.331 171.029 302.265 171.812 301.841C176.299 298.97 192.141 281.121 195.045 278.397V281.839C186.235 290.666 171.274 306.132 170.997 305.251C169.381 305.153 142.658 294.353 141.255 293.7ZM193.054 266.65C193.641 267.639 193.956 268.764 193.968 269.913C193.962 270.279 193.872 270.638 193.705 270.964C193.538 271.289 193.299 271.572 193.005 271.789C191.635 270.876 189.041 269.179 185.974 267.189C187.654 263.877 191.39 263.828 192.989 266.65H193.054ZM140.847 277.092C147.797 275.036 160.996 262.311 165.433 256.796C166.501 257.093 167.531 257.515 168.5 258.052C166.869 261.087 168.615 264.415 169.235 263.942C169.577 263.681 168.957 263.583 168.859 261.984C168.818 260.816 169.082 259.658 169.626 258.623C171.878 259.798 174.521 261.332 176.756 262.621C175.385 265.671 177.033 268.69 177.604 268.249C178.175 267.809 177.343 267.907 177.245 266.308C177.205 265.259 177.406 264.216 177.832 263.257C180.133 264.611 182.482 266.014 184.636 267.336C184.304 268.148 184.172 269.029 184.252 269.904C184.331 270.778 184.62 271.621 185.093 272.36C185.114 272.388 185.141 272.412 185.171 272.429C185.202 272.447 185.235 272.458 185.27 272.463C185.305 272.467 185.34 272.465 185.374 272.456C185.408 272.447 185.44 272.431 185.468 272.409C185.496 272.388 185.519 272.361 185.537 272.331C185.554 272.3 185.565 272.267 185.57 272.232C185.574 272.197 185.572 272.162 185.563 272.128C185.554 272.094 185.538 272.062 185.517 272.034C185.224 271.386 185.079 270.681 185.093 269.969C185.107 269.258 185.28 268.559 185.598 267.923C189.4 270.24 192.467 272.181 193.413 272.817C193.234 272.98 176.217 288.121 170.426 292.623C166.624 291.628 146.671 281.725 140.847 277.092ZM141.467 286.179C148.857 289.442 165.645 297.012 169.512 297.746C170.181 297.877 170.442 297.926 171.714 296.914C177.147 292.558 194.816 274.074 194.979 274.269C194.987 274.318 194.987 274.367 194.979 274.416V277.679C191.341 280.599 171.111 301.841 170.784 300.83C169.153 300.83 142.641 290.013 141.287 289.409C141.255 288.724 141.402 286.897 141.467 286.179V286.179ZM171.176 308.661C169.545 309.591 144.697 299.492 141.369 297.436C141.244 296.397 141.184 295.351 141.189 294.304C148.335 297.828 169.12 306.605 171.029 306.524C173.819 306.377 193.544 284.172 194.947 282.622C194.963 283.456 194.881 284.288 194.702 285.102C194.425 285.641 172.253 308.057 171.176 308.661V308.661ZM36.0081 216.694C36.1223 218.44 36.2039 219.957 36.2039 221.377C36.2039 221.593 36.2899 221.801 36.4428 221.954C36.5958 222.107 36.8033 222.193 37.0197 222.193C37.236 222.193 37.4435 222.107 37.5965 221.954C37.7495 221.801 37.8354 221.593 37.8354 221.377C37.8354 219.86 37.7538 218.359 37.6396 216.58C37.6245 216.364 37.524 216.162 37.3603 216.02C37.1966 215.878 36.9831 215.806 36.7668 215.822C36.5504 215.837 36.349 215.937 36.2067 216.101C36.0644 216.265 35.993 216.478 36.0081 216.694V216.694ZM284.596 183.983C284.49 183.99 284.386 184.017 284.29 184.064C284.194 184.111 284.109 184.177 284.039 184.257C283.969 184.338 283.916 184.432 283.883 184.533C283.849 184.635 283.837 184.742 283.846 184.848C283.944 186.349 284.042 187.964 284.042 189.53C284.042 189.747 284.128 189.954 284.281 190.107C284.433 190.26 284.641 190.346 284.857 190.346C285.074 190.346 285.281 190.26 285.434 190.107C285.587 189.954 285.673 189.747 285.673 189.53C285.673 187.899 285.575 186.267 285.461 184.734C285.455 184.627 285.427 184.523 285.38 184.427C285.333 184.332 285.267 184.246 285.187 184.176C285.106 184.106 285.013 184.053 284.911 184.02C284.81 183.987 284.703 183.974 284.596 183.983V183.983ZM31.7826 212.632C31.999 212.632 32.2064 212.546 32.3594 212.393C32.5124 212.24 32.5984 212.033 32.5984 211.816C32.5984 211.6 32.5124 211.393 32.3594 211.24C32.2064 211.087 31.999 211.001 31.7826 211.001C29.8085 211.001 28.1607 211.147 26.5293 211.115C26.3114 211.115 26.1022 211.2 25.9466 211.353C25.791 211.505 25.7015 211.713 25.6972 211.931C25.6972 212.147 25.7831 212.354 25.9361 212.507C26.0891 212.66 26.2966 212.746 26.5129 212.746C28.1934 212.779 30.0369 212.714 31.7826 212.632ZM279.539 179.154C277.581 179.154 275.933 179.268 274.285 179.285C274.069 179.285 273.862 179.371 273.709 179.524C273.556 179.677 273.47 179.884 273.47 180.1C273.47 180.317 273.556 180.524 273.709 180.677C273.862 180.83 274.069 180.916 274.285 180.916C276.047 180.916 277.875 180.916 279.637 180.786C279.853 180.773 280.055 180.674 280.199 180.512C280.343 180.35 280.416 180.137 280.403 179.921C280.39 179.705 280.292 179.502 280.13 179.359C279.968 179.215 279.755 179.141 279.539 179.154V179.154ZM35.5676 202.55C35.6655 204.051 35.7634 205.666 35.7634 207.232C35.7676 207.447 35.8549 207.652 36.007 207.804C36.159 207.956 36.3641 208.043 36.5792 208.048C36.7955 208.048 37.003 207.962 37.156 207.809C37.309 207.656 37.3949 207.448 37.3949 207.232C37.3949 205.6 37.297 203.969 37.1991 202.435C37.184 202.219 37.0835 202.018 36.9198 201.875C36.7561 201.733 36.5426 201.662 36.3263 201.677C36.1099 201.692 35.9085 201.792 35.7662 201.956C35.6239 202.12 35.5525 202.333 35.5676 202.55V202.55ZM285.233 175.385C285.233 173.754 285.135 172.123 285.02 170.589C285.005 170.373 284.905 170.171 284.741 170.029C284.577 169.887 284.364 169.815 284.148 169.83C283.931 169.845 283.73 169.946 283.588 170.11C283.445 170.273 283.374 170.487 283.389 170.703C283.487 172.204 283.585 173.819 283.585 175.385C283.585 175.602 283.671 175.809 283.824 175.962C283.977 176.115 284.184 176.201 284.401 176.201C284.618 176.201 284.828 176.116 284.983 175.963C285.139 175.811 285.228 175.603 285.233 175.385V175.385ZM47.6079 212.42C47.7151 212.416 47.8204 212.391 47.9177 212.346C48.0151 212.301 48.1027 212.237 48.1754 212.158C48.2481 212.079 48.3046 211.987 48.3416 211.886C48.3786 211.786 48.3954 211.679 48.3911 211.572C48.3746 211.358 48.278 211.159 48.1206 211.014C47.9633 210.868 47.7568 210.788 47.5427 210.789C45.5686 210.87 43.9208 210.935 42.273 210.903C42.0567 210.903 41.8492 210.989 41.6962 211.142C41.5432 211.295 41.4573 211.502 41.4573 211.718C41.4573 211.935 41.5432 212.142 41.6962 212.295C41.8492 212.448 42.0567 212.534 42.273 212.534C44.0187 212.567 45.8459 212.502 47.6079 212.42ZM295.364 178.942C293.733 179.024 291.922 179.073 290.111 179.073C290.003 179.068 289.896 179.086 289.795 179.124C289.694 179.162 289.602 179.22 289.524 179.295C289.446 179.37 289.385 179.459 289.342 179.558C289.3 179.658 289.279 179.764 289.279 179.872C289.279 180.09 289.364 180.299 289.517 180.455C289.669 180.61 289.877 180.7 290.094 180.704C291.954 180.704 293.455 180.704 295.429 180.574C295.536 180.569 295.642 180.544 295.739 180.499C295.836 180.454 295.924 180.391 295.997 180.312C296.07 180.233 296.126 180.141 296.163 180.04C296.2 179.939 296.217 179.832 296.212 179.725C296.192 179.513 296.095 179.316 295.938 179.171C295.782 179.027 295.577 178.945 295.364 178.942V178.942ZM10.1166 164.079C10.3287 164.242 56.3363 157.423 58.3104 156.216C58.4197 156.136 58.507 156.03 58.5641 155.907C58.6212 155.784 58.6462 155.649 58.6367 155.514C58.6367 153.409 55.8795 133.652 54.558 128.725C54.3949 128.122 54.2317 127.518 53.8565 127.306C51.3603 125.805 7.37572 134.093 4.74904 135.79C4.67785 135.832 4.61635 135.888 4.56855 135.956C4.52076 136.023 4.48775 136.1 4.47169 136.181C3.91699 138.155 8.69721 163.1 10.1166 164.079V164.079ZM5.46689 136.573C8.59933 135.153 48.5216 127.844 53.0897 128.415C54.1991 131.27 57.1684 152.186 57.3642 155.253C55.0964 155.922 10.7366 163.541 10.5734 163.574C10.4103 163.606 10.3939 163.802 10.0513 162.774C8.61564 158.467 5.38532 140.26 5.46689 136.573V136.573Z" fill="black"/>
<path d="M61.8997 157.668C61.9885 157.503 62.0281 157.316 62.0139 157.129C62.0139 154.535 58.2941 125.74 56.9726 123.439C56.8691 123.27 56.7224 123.131 56.5476 123.036C56.3728 122.941 56.1761 122.895 55.9774 122.901C50.512 122.232 4.40645 131.238 1.37191 133.342C0.947723 133.636 1.01298 134.37 1.06193 135.153C1.32296 139.444 5.95636 167.669 7.58783 167.505C7.7673 167.505 7.70204 167.375 7.27785 168.24C4.73275 173.477 -0.0964229 190.248 0.00146575 193.625C0.00146575 195.045 0.32776 196.888 1.73083 196.79C11.797 195.551 61.1492 187.719 75.3431 184.799C75.8978 184.685 76.2567 184.179 76.2404 183.347C76.0729 181.961 75.6527 180.617 75.0005 179.383C73.0101 175.647 64.7548 160.849 61.8997 157.668ZM7.68572 167C6.41317 165.368 1.73083 137.258 2.08976 134.142C5.67901 132.282 51.1646 123.488 55.9285 124.206C57.2337 127.795 60.6108 153.719 60.8229 156.836C55.0475 158.826 15.06 165.287 7.68572 167ZM8.40357 167.489C9.77401 167.147 56.4506 159.332 60.725 158.206C63.0581 160.376 73.5974 179.122 74.2826 180.72C64.9179 182.352 9.36614 191.635 1.19244 192.875C1.30665 187.932 6.38054 170.654 8.40357 167.489V167.489Z" fill="black"/>
<path d="M14.538 184.408C15.9573 184.195 46.0744 180.574 56.9564 177.621C57.0234 177.603 57.0809 177.56 57.1161 177.5C57.1512 177.441 57.1613 177.37 57.144 177.302C57.1267 177.235 57.0834 177.178 57.0238 177.143C56.9641 177.108 56.8929 177.098 56.8258 177.115C54.6886 177.555 28.6176 181.03 14.5053 183.902C14.4663 183.895 14.4263 183.897 14.3881 183.907C14.35 183.918 14.3149 183.938 14.2853 183.964C14.2557 183.99 14.2326 184.023 14.2176 184.06C14.2025 184.096 14.1961 184.136 14.1986 184.175C14.2012 184.215 14.2127 184.253 14.2323 184.288C14.2519 184.322 14.2791 184.352 14.3118 184.374C14.3445 184.397 14.3818 184.411 14.421 184.417C14.4602 184.423 14.5002 184.419 14.538 184.408V184.408ZM36.5466 70.8894C35.9371 72.2658 35.4247 73.6832 35.013 75.1312C34.9887 75.3636 35.0528 75.5965 35.1925 75.7838C36.8402 78.2636 53.726 97.303 58.131 99.9786C58.7347 100.354 59.4525 100.615 59.893 100.076C63.0929 96.0948 67.269 93.0091 72.0149 91.1197C75.8776 89.753 79.9275 88.9882 84.0226 88.8519C87.2855 88.5583 87.8565 88.232 89.1128 86.0947C90.5946 83.2821 92.5607 80.7526 94.9208 78.6226C97.9301 75.9914 101.27 73.7646 104.857 71.9988C105.018 71.9073 105.144 71.7645 105.215 71.593C105.286 71.4216 105.298 71.2313 105.248 71.0525C104.697 69.6491 103.967 68.3222 103.078 67.1043C103.666 66.9086 104.318 66.7291 104.318 66.1418C104.318 64.5103 90.0917 43.9211 86.1435 40.0381C85.7356 39.6303 85.1483 39.0919 84.6099 39.1245C76.4525 39.5813 68.5072 47.2819 63.9064 54.0036C58.6368 53.8078 55.227 53.3347 49.2232 55.8635C44.9847 57.6626 41.1634 60.3175 37.9986 63.6619C37.5091 64.1677 34.1809 67.6917 34.132 67.969C34.083 68.2464 34.1809 68.2464 36.5466 70.8894V70.8894ZM101.806 70.4326C95.0024 71.5909 90.6627 77.2521 87.465 83.4028C86.0456 86.1437 86.1761 86.2742 84.6752 86.2416C82.0505 86.0929 79.4177 86.1912 76.8114 86.5352C74.8998 86.821 73.0203 87.2908 71.1992 87.9383C67.0552 89.4066 62.3076 94.1053 59.7788 97.5966C59.7251 97.6685 59.6568 97.7281 59.5784 97.7717C59.5 97.8152 59.4133 97.8417 59.324 97.8494C59.2346 97.8571 59.1446 97.8459 59.06 97.8164C58.9753 97.7869 58.8978 97.7398 58.8326 97.6782C53.5303 92.2128 44.1493 82.6197 39.4343 77.1053C39.2059 76.8606 39.5974 76.5017 39.8259 76.7627C42.8767 80.0256 50.7567 87.8404 59.2078 96.3404C62.0629 92.7022 66.4679 88.2972 70.8239 86.7636C73.1993 85.9163 75.671 85.3683 78.1819 85.1322C80.5333 84.9536 82.8948 84.9536 85.2462 85.1322C86.2087 84.0228 90.9727 71.4278 101.773 70.0247C101.805 70.0479 101.831 70.0779 101.849 70.1125C101.867 70.1472 101.878 70.1855 101.879 70.2247C101.881 70.2639 101.874 70.3029 101.858 70.3389C101.843 70.3749 101.819 70.4069 101.789 70.4326H101.806ZM84.5936 40.446C87.8565 42.7301 101.137 62.3894 102.866 65.8318C99.8653 66.7826 96.9683 68.0343 94.2193 69.5679C91.6161 70.8729 89.3367 72.7422 87.5473 75.0396C85.758 77.337 84.5036 80.0046 83.8757 82.8481C78.0187 73.3203 69.845 62.8299 64.4122 55.113C64.7385 54.9009 73.9074 41.0823 84.5936 40.446V40.446ZM49.5821 56.7608C55.537 54.3625 58.8326 54.9172 63.7596 55.1293C68.654 63.4825 77.4477 75.2617 83.2394 82.9786C77.8939 81.7137 72.2687 82.4874 67.4631 85.1485C64.5754 86.78 61.0514 90.6955 58.8815 93.1264C55.7491 90.6139 37.6723 71.3625 34.7683 68.0995C39.2385 63.042 43.3662 59.2406 49.5821 56.6955V56.7608ZM19.7261 98.2492C19.3228 97.9663 18.8461 97.8064 18.3538 97.789C17.8615 97.7716 17.3747 97.8975 16.9525 98.1514C16.6451 98.2885 16.3677 98.4848 16.1361 98.7291C15.9045 98.9735 15.7233 99.261 15.6029 99.5754C15.4825 99.8897 15.4251 100.225 15.4342 100.561C15.4432 100.898 15.5184 101.229 15.6555 101.537C15.7926 101.844 15.989 102.122 16.2333 102.353C16.4776 102.585 16.7652 102.766 17.0796 102.886C17.3939 103.007 17.7289 103.064 18.0654 103.055C18.4019 103.046 18.7334 102.971 19.0408 102.834C19.532 102.726 19.9789 102.472 20.3223 102.105C20.6657 101.738 20.8894 101.275 20.9637 100.778C21.038 100.28 20.9595 99.7724 20.7384 99.3208C20.5174 98.8692 20.1643 98.4955 19.7261 98.2492V98.2492ZM18.6493 101.512C17.5072 101.871 16.822 101.512 16.5447 100.957C16.0226 99.7991 16.6752 98.0208 18.3719 98.5429C19.5629 98.9834 20.5255 100.99 18.6493 101.594V101.512ZM102.687 23.5929C103.16 24.5554 105.362 24.1965 106.325 23.8865C106.831 23.7234 107.157 23.5439 107.206 23.0545C107.353 21.8309 107.516 11.2263 106.961 10.1984C106.904 10.0906 106.816 10.0022 106.709 9.94415C106.601 9.8861 106.479 9.86105 106.357 9.87213C104.617 9.8673 102.885 10.1202 101.218 10.6226C100.549 11.0305 102.099 22.5161 102.687 23.5929ZM101.561 11.0142C103.068 10.7986 104.592 10.7275 106.113 10.8021C106.211 12.0094 105.95 22.4671 105.933 22.6303C105.244 22.8773 104.508 22.9665 103.78 22.8913C103.666 22.5161 103.47 21.5046 103.225 20.232C102.506 17.1913 101.951 14.1143 101.561 11.0142V11.0142ZM18.1435 84.4796C18.3001 84.5598 18.4734 84.6016 18.6493 84.6016C18.8252 84.6016 18.9985 84.5598 19.155 84.4796C19.7853 84.0908 20.2852 83.5227 20.5907 82.8481C20.6322 82.7401 20.645 82.6233 20.6279 82.5089C20.6107 82.3945 20.5642 82.2865 20.4928 82.1955C19.7097 81.2656 11.1608 71.3625 10.1167 71.9825C8.83466 72.8124 7.61835 73.7396 6.47846 74.756C6.43252 74.7971 6.39571 74.8473 6.37042 74.9035C6.34513 74.9597 6.33191 75.0206 6.33163 75.0823C6.299 75.9306 15.7942 83.5333 18.1435 84.4796V84.4796ZM10.3124 72.4066C11.5034 73.2713 15.5168 78.231 19.2366 82.6197C19.0766 82.8717 18.8785 83.0973 18.6493 83.2886C14.7384 80.7855 11.0044 78.0164 7.47366 75.0007C8.35876 74.0714 9.3073 73.2046 10.3124 72.4066V72.4066ZM35.9429 36.4163C36.3019 30.0861 39.989 27.1495 43.8393 26.399C42.7462 30.4124 42.9257 35.6332 46.8901 36.3021C48.7827 36.612 49.7126 35.6332 51.083 34.4911C56.94 29.5967 52.2088 24.7023 45.6013 25.0449C48.0648 18.2905 53.7587 12.7925 61.3124 12.613C61.3816 12.613 61.448 12.5855 61.497 12.5366C61.5459 12.4876 61.5734 12.4212 61.5734 12.352C61.5734 12.2827 61.5459 12.2163 61.497 12.1674C61.448 12.1184 61.3816 12.0909 61.3124 12.0909C53.155 11.9278 46.7433 17.8011 44.2145 25.1428C39.8585 25.8932 35.5351 29.1562 35.4209 36.3184C35.4144 36.3527 35.4148 36.3879 35.422 36.422C35.4292 36.4561 35.443 36.4885 35.4627 36.5173C35.4824 36.5461 35.5076 36.5707 35.5368 36.5898C35.566 36.6088 35.5987 36.6219 35.633 36.6284C35.6672 36.6348 35.7024 36.6344 35.7366 36.6272C35.7707 36.62 35.8031 36.6062 35.8319 36.5865C35.8607 36.5668 35.8853 36.5416 35.9043 36.5124C35.9234 36.4832 35.9365 36.4505 35.9429 36.4163V36.4163ZM45.226 26.2032C47.6569 26.0401 51.2788 26.7905 52.274 28.993C52.845 30.2493 52.274 31.7992 50.251 33.4959C49.7018 34.0461 49.0752 34.5133 48.3911 34.8827C45.9439 35.9268 43.2356 32.9086 45.226 26.2032ZM49.8921 256.943C48.3158 256.521 46.6711 256.418 45.0546 256.641C43.4381 256.864 41.8825 257.408 40.4794 258.241C39.0763 259.074 37.8539 260.179 36.8843 261.492C35.9147 262.804 35.2175 264.298 34.8335 265.883C34.1088 269.178 34.7226 272.626 36.54 275.469C38.3574 278.311 41.2295 280.315 44.5245 281.04C47.8195 281.765 51.2674 281.151 54.1098 279.333C56.9522 277.516 58.9562 274.644 59.6809 271.349C59.9905 269.76 59.9825 268.125 59.6573 266.539C59.3321 264.953 58.6962 263.447 57.7863 262.108C56.8763 260.768 55.7103 259.623 54.3554 258.736C53.0005 257.85 51.4836 257.24 49.8921 256.943V256.943ZM54.9333 270.24C54.2787 272.85 52.7116 275.141 50.5153 276.697C48.319 278.253 45.6384 278.972 42.9583 278.723C40.498 277.762 38.4555 275.964 37.1903 273.645C35.925 271.326 35.518 268.636 36.0408 266.047C36.6513 263.372 38.2039 261.007 40.4147 259.384C42.6255 257.76 45.3468 256.986 48.0811 257.204C50.5657 258.231 52.6085 260.101 53.85 262.485C55.0914 264.869 55.452 267.615 54.8681 270.24H54.9333Z" fill="black"/>
<path d="M71.6233 261.593C70.203 261.103 68.6808 260.985 67.202 261.25C66.5891 259.845 65.8347 258.506 64.9506 257.253C66.011 256.29 68.9151 253.615 68.2135 252.359C65.7168 249.372 62.7526 246.81 59.4362 244.772C58.0513 243.996 56.5264 243.503 54.9496 243.32C53.9055 243.467 51.4256 247.529 50.8709 248.443C50.512 248.443 49.2394 248.035 49.1416 247.986C49.1416 246.812 48.7989 242.57 47.7385 242.08C46.5526 241.644 45.3212 241.343 44.0677 241.183C42.9093 241.003 32.4842 242.912 31.7174 244.315C31.2116 245.262 32.3863 248.835 32.7289 249.83C31.849 250.314 31.004 250.859 30.2001 251.461C28.5686 252.62 29.0091 252.571 28.7155 252.44C28.3605 252.271 27.9803 252.16 27.5897 252.114C26.2865 251.35 24.7584 251.061 23.2663 251.298C21.7654 251.788 18.2251 259.847 17.6541 261.919C17.4672 262.442 17.4166 263.003 17.5072 263.551C17.8988 264.627 20.5091 265.492 21.6022 265.835C21.3004 267.934 21.3004 270.065 21.6022 272.165C20.1665 272.556 17.1809 273.437 17.3441 274.906C17.5072 276.374 21.3249 286.065 22.9074 286.832C23.7743 287.316 24.733 287.615 25.7219 287.708C26.7109 287.8 27.7083 287.685 28.6502 287.37C29.1807 287.105 29.693 286.805 30.1838 286.473C30.8364 286.962 31.5216 287.403 32.2231 287.827C31.7174 289.083 30.5917 291.889 30.9506 293.162C31.1301 293.831 31.6684 294.043 32.4189 294.32C34.4909 295.071 45.6502 297.746 47.3469 297.453C47.9832 297.355 48.3258 296.686 48.5216 296.05C48.8841 294.601 49.0973 293.12 49.1579 291.628C49.9957 291.546 50.8289 291.42 51.654 291.253C52.158 292.14 52.8026 292.939 53.5629 293.619C54.3949 294.206 55.0964 293.912 56.0427 293.309C56.4995 293.896 57.1847 294.712 57.9189 294.793C59.7625 295.005 67.3815 287.827 68.1646 286.359C68.8172 285.135 66.4352 282.949 65.3748 281.986C66.5219 280.26 67.4225 278.382 68.0504 276.407C69.2271 276.584 70.4179 276.649 71.607 276.602C72.1454 276.602 72.7653 276.407 72.9938 275.901C73.989 273.633 73.6953 265.035 72.9938 262.849C72.8959 262.213 72.1617 261.788 71.6233 261.593V261.593ZM72.0149 263.094C72.5696 265.215 72.749 273.225 71.9333 275.297C70.5227 275.436 69.0994 275.37 67.7078 275.101C67.5592 275.076 67.4065 275.107 67.2797 275.189C67.1528 275.27 67.0611 275.396 67.0225 275.542C66.3728 277.748 65.3641 279.831 64.0369 281.709C63.9424 281.833 63.8998 281.989 63.918 282.145C63.9363 282.3 64.014 282.442 64.1348 282.541C65.2795 283.448 66.2521 284.553 67.0062 285.804C66.1905 287.142 59.8114 292.982 58.0494 293.472C57.7884 293.472 57.0705 292.493 56.8911 292.232C56.2884 291.326 55.7435 290.384 55.2596 289.409C55.189 289.267 55.0678 289.157 54.9199 289.1C54.7721 289.042 54.6081 289.042 54.4602 289.099C49.7289 290.878 47.9343 289.834 47.9343 291.008C47.9364 292.767 47.6498 294.514 47.0859 296.18C43.2518 295.763 39.4762 294.92 35.8287 293.668C36.0049 291.926 36.4911 290.23 37.2644 288.659C37.7538 287.566 35.7961 287.876 32.1416 284.156C32.0239 284.047 31.8695 283.987 31.7092 283.987C31.5489 283.987 31.3945 284.047 31.2769 284.156C29.6454 285.494 27.5245 286.799 27.1003 286.587C26.2683 286.179 22.4343 277.483 22.2059 275.721C23.3663 274.913 24.6836 274.357 26.0725 274.09C26.2206 274.048 26.3485 273.954 26.4325 273.825C26.5165 273.696 26.5509 273.541 26.5293 273.388C26.1295 271.078 26.1295 268.716 26.5293 266.406C26.5542 266.263 26.5243 266.117 26.4456 265.996C26.3669 265.875 26.2452 265.788 26.1051 265.753C24.8752 265.431 23.6911 264.954 22.5811 264.334C22.2222 264.073 22.2548 264.089 22.2874 263.812C23.3434 260.003 25.0369 256.401 27.2961 253.158C28.1771 252.913 30.559 254.659 31.3748 255.279C31.46 255.362 31.5741 255.408 31.6929 255.408C31.8117 255.408 31.9258 255.362 32.0111 255.279C32.7607 254.501 33.5678 253.782 34.4256 253.125C36.9055 251.249 37.5744 251.494 37.3623 250.841C36.6123 249.204 36.191 247.436 36.1224 245.637C36.3752 245.427 36.6621 245.261 36.9707 245.147C38.4939 244.545 40.0588 244.054 41.6531 243.679C43.5856 243.141 45.5718 242.818 47.5753 242.717C47.918 242.863 48.2279 244.348 48.3095 244.805C48.9131 248.068 48.5053 248.737 48.9784 248.786C53.6281 249.242 54.5744 250.531 54.9007 249.96C55.8054 248.378 56.8598 246.887 58.0494 245.506C58.392 245.164 58.3757 245.001 59.4036 245.588C62.4742 247.594 65.2243 250.053 67.5609 252.881C67.8057 253.305 65.6847 255.556 64.1348 256.878C63.5964 257.351 64.3632 257.563 65.7663 260.239C67.1694 262.914 66.8431 263.665 67.5936 263.502C69.0403 263.155 70.5292 263.018 72.0149 263.094V263.094ZM298.448 126.767C295.028 125.371 291.441 124.422 287.778 123.945C285.102 123.521 281.953 123.097 279.294 122.754C281.855 119.132 289.442 109.963 290.714 107.728C291.073 107.124 290.388 106.276 289.882 105.77C287.044 102.736 281.562 101.594 277.353 100.941C274.938 100.55 264.855 99.3097 263.142 100.125C261.087 101.104 245.881 123.945 245.425 127.42C245.425 128.007 245.62 128.236 246.191 128.448C248.59 129.329 259.406 130.699 261.821 131.27C258.558 136.981 244.054 156.281 242.635 159.005C242.292 159.691 242.504 160.099 242.912 160.229C244.38 160.812 245.891 161.281 247.431 161.632C248.019 161.812 249.307 161.012 251.184 159.87C259.602 154.813 295.723 130.96 298.497 127.877C298.573 127.805 298.633 127.717 298.673 127.619C298.712 127.521 298.73 127.416 298.726 127.311C298.721 127.206 298.694 127.103 298.646 127.009C298.598 126.915 298.53 126.833 298.448 126.767V126.767ZM263.387 146.345C249.52 155.498 244.837 158.173 244.674 158.288C246.909 154.878 260.793 135.855 263.175 131.303C263.216 131.215 263.238 131.119 263.237 131.022C263.237 130.925 263.215 130.829 263.173 130.741C263.13 130.654 263.069 130.577 262.993 130.516C262.918 130.455 262.829 130.412 262.735 130.389C261.103 129.802 249.226 128.529 246.42 127.534C246.779 124.5 261.592 101.561 263.387 100.648C265.182 99.7339 282.59 101.806 285.853 104.139C284.14 107.483 274.677 119.197 273.143 121.922C272.833 122.477 272.735 123.015 273.339 123.162C273.943 123.309 289.279 125.103 292.623 126.196C288.544 129.606 267.955 143.278 263.387 146.28V146.345ZM158.728 46.5967C158.728 46.7435 158.826 46.923 159.07 47.8692C159.135 48.0745 159.276 48.2469 159.464 48.3503C159.653 48.4538 159.874 48.4801 160.082 48.4239C160.29 48.3634 160.465 48.2228 160.569 48.0331C160.673 47.8434 160.697 47.6201 160.637 47.4124C160.474 46.7761 160.327 46.2377 160.229 45.9767C160.134 45.7976 159.975 45.6602 159.785 45.5915C159.594 45.5228 159.384 45.5276 159.197 45.6051C159.009 45.6825 158.857 45.8269 158.771 46.0103C158.684 46.1936 158.669 46.4027 158.728 46.5967V46.5967Z" fill="black"/>
</svg>
