<?xml version="1.0" ?><svg width="512px" height="512px" viewBox="0 0 512 512" enable-background="new 0 0 512 512" id="flat" version="1.1" xml:space="preserve" xmlns="http://www.w3.org/2000/svg" xmlns:xlink="http://www.w3.org/1999/xlink"><g><path d="M472.617,302.983c-29.796,0.002-54.158-17.627-70.297-33.897c-20.102-20.265-40.802-30.017-61.548-29.014   c-32.031,1.564-54.337,28.502-54.559,28.774c-2.787,3.42-7.821,3.945-11.247,1.167c-3.426-2.779-3.961-7.8-1.19-11.232   c1.077-1.333,26.822-32.679,66.047-34.682c25.516-1.297,50.371,10.042,73.857,33.719c23.688,23.88,48.095,33.176,72.548,27.614   c4.31-0.979,8.595,1.72,9.574,6.028c0.979,4.308-1.72,8.595-6.028,9.574C483.88,302.374,478.152,302.983,472.617,302.983z" fill="#2F323E"/></g><g><path d="M432,392c-4.418,0-8-3.582-8-8V160c0-4.418,3.582-8,8-8s8,3.582,8,8v224C440,388.418,436.418,392,432,392z" fill="#2F323E"/></g><g><path d="M392,392c-4.418,0-8-3.582-8-8V128c0-4.418,3.582-8,8-8s8,3.582,8,8v256C400,388.418,396.418,392,392,392z" fill="#2F323E"/></g><g><path d="M352,392c-4.418,0-8-3.582-8-8V96c0-4.418,3.582-8,8-8s8,3.582,8,8v288C360,388.418,356.418,392,352,392z" fill="#2F323E"/></g><g><path d="M312,392c-4.418,0-8-3.582-8-8V112c0-4.418,3.582-8,8-8s8,3.582,8,8v272C320,388.418,316.418,392,312,392z" fill="#2F323E"/></g><g><path d="M320,136h-16c-4.418,0-8-3.582-8-8s3.582-8,8-8h16c4.418,0,8,3.582,8,8S324.418,136,320,136z" fill="#2F323E"/></g><g><path d="M360,120h-16c-4.418,0-8-3.582-8-8s3.582-8,8-8h16c4.418,0,8,3.582,8,8S364.418,120,360,120z" fill="#2F323E"/></g><g><path d="M400,152h-16c-4.418,0-8-3.582-8-8s3.582-8,8-8h16c4.418,0,8,3.582,8,8S404.418,152,400,152z" fill="#2F323E"/></g><rect fill="#959DC5" height="72" transform="matrix(-1 -4.489132e-11 4.489132e-11 -1 744 840)" width="184" x="280" y="384"/><g><path d="M39.383,302.983c-5.538,0-11.262-0.608-17.156-1.948c-4.309-0.979-7.007-5.266-6.028-9.574   c0.979-4.308,5.268-7.005,9.574-6.028c24.453,5.562,48.86-3.734,72.548-27.614c23.485-23.677,48.328-35.017,73.857-33.719   c39.225,2.003,64.97,33.348,66.047,34.682c2.776,3.437,2.239,8.474-1.198,11.25c-3.432,2.772-8.46,2.241-11.239-1.185l0,0   c-0.222-0.272-22.528-27.21-54.559-28.774c-20.747-1.006-41.447,8.75-61.548,29.014C93.542,285.355,69.177,302.983,39.383,302.983z   " fill="#2F323E"/></g><g><path d="M80,392c-4.418,0-8-3.582-8-8V160c0-4.418,3.582-8,8-8s8,3.582,8,8v224C88,388.418,84.418,392,80,392z" fill="#2F323E"/></g><g><path d="M120,392c-4.418,0-8-3.582-8-8V128c0-4.418,3.582-8,8-8s8,3.582,8,8v256C128,388.418,124.418,392,120,392z" fill="#2F323E"/></g><g><path d="M160,392c-4.418,0-8-3.582-8-8V96c0-4.418,3.582-8,8-8s8,3.582,8,8v288C168,388.418,164.418,392,160,392z" fill="#2F323E"/></g><g><path d="M200,392c-4.418,0-8-3.582-8-8V112c0-4.418,3.582-8,8-8s8,3.582,8,8v272C208,388.418,204.418,392,200,392z" fill="#2F323E"/></g><g><path d="M208,136h-16c-4.418,0-8-3.582-8-8s3.582-8,8-8h16c4.418,0,8,3.582,8,8S212.418,136,208,136z" fill="#2F323E"/></g><g><path d="M168,120h-16c-4.418,0-8-3.582-8-8s3.582-8,8-8h16c4.418,0,8,3.582,8,8S172.418,120,168,120z" fill="#2F323E"/></g><g><path d="M128,152h-16c-4.418,0-8-3.582-8-8s3.582-8,8-8h16c4.418,0,8,3.582,8,8S132.418,152,128,152z" fill="#2F323E"/></g><rect fill="#959DC5" height="72" width="184" x="48" y="384"/><g><path d="M232,464H24c-4.418,0-8-3.582-8-8V214.21c0-2.438,1.112-4.743,3.02-6.261   c1.908-1.519,4.404-2.083,6.78-1.534c24.414,5.638,48.799-3.8,72.477-28.05c23.471-24.039,48.323-35.565,73.84-34.267   c39.295,2.002,65.069,33.882,66.147,35.238c1.125,1.416,1.737,3.17,1.737,4.978L240,456C240,460.418,236.419,464,232,464z M32,448   h192l0-260.689c-5.839-6.362-25.906-25.927-52.828-27.24c-20.688-1.015-41.369,8.906-61.448,29.472   c-16.142,16.532-40.52,34.444-70.338,34.445c-2.426,0-4.89-0.119-7.387-0.366V448z" fill="#2F323E"/></g><g><path d="M232,216c-4.418,0-8-3.582-8-8V56c0-4.418,3.582-8,8-8s8,3.582,8,8v152C240,212.418,236.418,216,232,216z" fill="#2F323E"/></g><g><path d="M488,464H280c-4.418,0-8-3.582-8-8l0-271.687c0-1.808,0.612-3.562,1.737-4.978   c1.078-1.356,26.852-33.235,66.147-35.238c25.528-1.293,50.369,10.228,73.84,34.267c23.677,24.25,48.065,33.691,72.477,28.05   c2.374-0.548,4.872,0.016,6.78,1.534c1.908,1.518,3.02,3.823,3.02,6.261V456C496,460.418,492.418,464,488,464z M288,448h192   V223.604c-20.401,1.972-48.103-3.723-77.725-34.062c-20.079-20.566-40.749-30.486-61.448-29.472   c-26.912,1.312-46.974,20.864-52.828,27.241L288,448z" fill="#2F323E"/></g><g><path d="M280,216c-4.418,0-8-3.582-8-8V56c0-4.418,3.582-8,8-8s8,3.582,8,8v152C288,212.418,284.418,216,280,216z" fill="#2F323E"/></g><g><path d="M240,80h-16c-4.418,0-8-3.582-8-8s3.582-8,8-8h16c4.418,0,8,3.582,8,8S244.418,80,240,80z" fill="#2F323E"/></g><g><path d="M288,80h-16c-4.418,0-8-3.582-8-8s3.582-8,8-8h16c4.418,0,8,3.582,8,8S292.418,80,288,80z" fill="#2F323E"/></g><g><path d="M32,168c-4.418,0-8-3.582-8-8V40c0-4.418,3.582-8,8-8s8,3.582,8,8v120C40,164.418,36.418,168,32,168z" fill="#2F323E"/></g><path d="M56,472H8V166.735c0-4.128,2.332-7.901,6.024-9.747l7.987-3.994c1.308-0.654,2.751-0.995,4.213-0.995h11.552  c1.463,0,2.905,0.341,4.213,0.995l7.987,3.994c3.692,1.846,6.024,5.619,6.024,9.747V472z" fill="#727897"/><polygon fill="#E6C067" points="8,104 32,56 56,104 32,128 "/><path d="M32,184c-4.418,0-8,3.582-8,8s3.582,8,8,8h24v-16H32z" fill="#2F323E"/><path d="M32,248c-4.418,0-8,3.582-8,8s3.582,8,8,8h24v-16H32z" fill="#2F323E"/><path d="M32,216H8v16h24c4.418,0,8-3.582,8-8S36.418,216,32,216z" fill="#2F323E"/><path d="M32,312c-4.418,0-8,3.582-8,8s3.582,8,8,8h24v-16H32z" fill="#2F323E"/><path d="M32,280H8v16h24c4.418,0,8-3.582,8-8S36.418,280,32,280z" fill="#2F323E"/><path d="M32,376c-4.418,0-8,3.582-8,8s3.582,8,8,8h24v-16H32z" fill="#2F323E"/><path d="M32,344H8v16h24c4.418,0,8-3.582,8-8S36.418,344,32,344z" fill="#2F323E"/><path d="M32,440c-4.418,0-8,3.582-8,8s3.582,8,8,8h24v-16H32z" fill="#2F323E"/><path d="M32,408H8v16h24c4.418,0,8-3.582,8-8S36.418,408,32,408z" fill="#2F323E"/><g><path d="M480,168c-4.418,0-8-3.582-8-8V40c0-4.418,3.582-8,8-8s8,3.582,8,8v120C488,164.418,484.418,168,480,168z" fill="#2F323E"/></g><path d="M456,472h48V166.735c0-4.128-2.332-7.901-6.024-9.747l-7.987-3.994c-1.308-0.654-2.751-0.995-4.213-0.995  h-11.552c-1.462,0-2.905,0.341-4.213,0.995l-7.987,3.994c-3.692,1.846-6.024,5.619-6.024,9.747V472z" fill="#727897"/><polygon fill="#E6C067" points="504,104 480,56 456,104 480,128 "/><path d="M480,184h-24v16h24c4.418,0,8-3.582,8-8S484.418,184,480,184z" fill="#2F323E"/><path d="M480,248h-24v16h24c4.418,0,8-3.582,8-8S484.418,248,480,248z" fill="#2F323E"/><path d="M480,216c-4.418,0-8,3.582-8,8s3.582,8,8,8h24v-16H480z" fill="#2F323E"/><path d="M480,312h-24v16h24c4.418,0,8-3.582,8-8S484.418,312,480,312z" fill="#2F323E"/><path d="M480,280c-4.418,0-8,3.582-8,8s3.582,8,8,8h24v-16H480z" fill="#2F323E"/><path d="M480,376h-24v16h24c4.418,0,8-3.582,8-8S484.418,376,480,376z" fill="#2F323E"/><path d="M480,344c-4.418,0-8,3.582-8,8s3.582,8,8,8h24v-16H480z" fill="#2F323E"/><path d="M480,440h-24v16h24c4.418,0,8-3.582,8-8S484.418,440,480,440z" fill="#2F323E"/><path d="M480,408c-4.418,0-8,3.582-8,8s3.582,8,8,8h24v-16H480z" fill="#2F323E"/></svg>