<?xml version="1.0" ?><svg width="512px" height="512px" viewBox="0 0 512 512" enable-background="new 0 0 512 512" id="flat" version="1.1" xml:space="preserve" xmlns="http://www.w3.org/2000/svg" xmlns:xlink="http://www.w3.org/1999/xlink"><path d="M349.24,504H162.76c-20.631,0-38.82-13.533-44.748-33.294L73.241,321.47  c-9.652-32.175,7.662-66.259,39.339-77.439l45.072-15.908c20.826-7.35,35.243-26.435,36.62-48.477L200,88h112l5.728,91.646  c1.378,22.042,15.795,41.127,36.62,48.477l45.072,15.908c31.676,11.18,48.991,45.264,39.339,77.439l-44.771,149.236  C388.06,490.467,369.871,504,349.24,504z" fill="#BAC4F7"/><path d="M438.76,321.47l-44.77,149.24c-5.93,19.76-24.12,33.29-44.75,33.29H162.76c-20.63,0-38.82-13.53-44.75-33.29  L73.24,321.47c-4.17-13.91-3.3-28.18,1.58-40.8c33.92-8.81,98.08-17.34,181.18,9.11c86.5,27.53,152.46,17.16,185.18,8.03  C441.87,305.57,441.13,313.58,438.76,321.47z" fill="#E65C64"/><g><path d="M320,464c-2.047,0-4.095-0.781-5.657-2.343l-128-128c-3.125-3.124-3.125-8.189,0-11.313   c3.124-3.124,8.189-3.124,11.313,0l128,128c3.125,3.124,3.125,8.189,0,11.313C324.095,463.219,322.047,464,320,464z" fill="#64282B"/></g><g><path d="M192,464c-2.047,0-4.095-0.781-5.657-2.343c-3.125-3.124-3.125-8.189,0-11.313l128-128   c3.124-3.124,8.189-3.124,11.313,0c3.125,3.124,3.125,8.189,0,11.313l-128,128C196.095,463.219,194.047,464,192,464z" fill="#64282B"/></g><path d="M314.893,104H197.107C185.45,104,176,94.55,176,82.893V29.107C176,17.45,185.45,8,197.107,8h117.786  C326.55,8,336,17.45,336,29.107v53.786C336,94.55,326.55,104,314.893,104z" fill="#4D5166"/><circle cx="224" cy="240" fill="#E65C64" r="16"/><circle cx="304" cy="248" fill="#E65C64" r="16"/><circle cx="368" cy="160" fill="#E65C64" r="16"/><circle cx="472" cy="40" fill="#E65C64" r="16"/><circle cx="472" cy="240" fill="#E65C64" r="16"/><circle cx="152" cy="456" fill="#64282B" r="16"/><circle cx="376" cy="368" fill="#64282B" r="16"/><circle cx="128" cy="320" fill="#64282B" r="16"/><g><path d="M232.02,192c-4.418,0-8.005-3.582-8.005-8s3.577-8,7.995-8h0.01c4.418,0,8,3.582,8,8   S236.438,192,232.02,192z" fill="#64282B"/></g><g><rect fill="#64282B" height="0" transform="matrix(0.7071 -0.7071 0.7071 0.7071 -186.0387 222.8629)" width="0" x="176" y="336"/><path d="M176.02,344c-4.418,0-8.005-3.582-8.005-8s3.577-8,7.995-8h0.01c4.418,0,8,3.582,8,8   S180.438,344,176.02,344z" fill="#64282B"/></g><g><path d="M232.02,144c-4.418,0-8.005-3.582-8.005-8s3.577-8,7.995-8h0.01c4.418,0,8,3.582,8,8   S236.438,144,232.02,144z" fill="#64282B"/></g><g><path d="M288.02,176c-4.418,0-8.005-3.582-8.005-8s3.577-8,7.995-8h0.01c4.418,0,8,3.582,8,8   S292.438,176,288.02,176z" fill="#64282B"/></g><g><rect fill="#64282B" height="0" transform="matrix(0.7071 -0.7071 0.7071 0.7071 -175.46 344.402)" width="0" x="328" y="384"/><path d="M328.02,392c-4.418,0-8.005-3.582-8.005-8s3.577-8,7.995-8h0.01c4.418,0,8,3.582,8,8   S332.438,392,328.02,392z" fill="#64282B"/></g><circle cx="264" cy="200" fill="#64282B" r="8"/><circle cx="352" cy="432" fill="#64282B" r="8"/><circle cx="160" cy="392" fill="#64282B" r="8"/><circle cx="264" cy="136" fill="#64282B" r="8"/><path d="M256,320L256,320c-30.928,0-56,25.072-56,56v9.963c0,7.752,6.284,14.037,14.037,14.037H216v27.3  c0,7.014,5.686,12.7,12.7,12.7h54.6c7.014,0,12.7-5.686,12.7-12.7V400h1.963c7.752,0,14.037-6.284,14.037-14.037V376  C312,345.072,286.928,320,256,320z" fill="#4D5166"/><g><path d="M272,448c-4.418,0-8-3.582-8-8v-24c0-4.418,3.582-8,8-8s8,3.582,8,8v24C280,444.418,276.418,448,272,448z" fill="#2C2F3B"/></g><g><path d="M240,448c-4.418,0-8-3.582-8-8v-24c0-4.418,3.582-8,8-8s8,3.582,8,8v24C248,444.418,244.418,448,240,448z" fill="#2C2F3B"/></g><g><path d="M232,384c-8.822,0-16-7.178-16-16s7.178-16,16-16s16,7.178,16,16S240.822,384,232,384z M232,367.99l0,0.01   C232,367.993,232,367.99,232,367.99z" fill="#2C2F3B"/></g><g><path d="M280,384c-8.822,0-16-7.178-16-16s7.178-16,16-16s16,7.178,16,16S288.822,384,280,384z M280,367.99l0,0.01   C280,367.993,280,367.99,280,367.99z" fill="#2C2F3B"/></g><g><path d="M400,96c-4.418,0-8-3.582-8-8V56c0-4.418,3.582-8,8-8s8,3.582,8,8v32C408,92.418,404.418,96,400,96z" fill="#64282B"/></g><g><path d="M416,80h-32c-4.418,0-8-3.582-8-8s3.582-8,8-8h32c4.418,0,8,3.582,8,8S420.418,80,416,80z" fill="#64282B"/></g><g><path d="M464,168c-4.418,0-8-3.582-8-8v-32c0-4.418,3.582-8,8-8s8,3.582,8,8v32C472,164.418,468.418,168,464,168z" fill="#64282B"/></g><g><path d="M480,152h-32c-4.418,0-8-3.582-8-8s3.582-8,8-8h32c4.418,0,8,3.582,8,8S484.418,152,480,152z" fill="#64282B"/></g><circle cx="144" cy="160" fill="#E65C64" r="16"/><circle cx="40" cy="40" fill="#E65C64" r="16"/><circle cx="40" cy="240" fill="#E65C64" r="16"/><g><path d="M112,96c-4.418,0-8-3.582-8-8V56c0-4.418,3.582-8,8-8s8,3.582,8,8v32C120,92.418,116.418,96,112,96z" fill="#64282B"/></g><g><path d="M128,80H96c-4.418,0-8-3.582-8-8s3.582-8,8-8h32c4.418,0,8,3.582,8,8S132.418,80,128,80z" fill="#64282B"/></g><g><path d="M48,168c-4.418,0-8-3.582-8-8v-32c0-4.418,3.582-8,8-8s8,3.582,8,8v32C56,164.418,52.418,168,48,168z" fill="#64282B"/></g><g><path d="M64,152H32c-4.418,0-8-3.582-8-8s3.582-8,8-8h32c4.418,0,8,3.582,8,8S68.418,152,64,152z" fill="#64282B"/></g></svg>