<?xml version="1.0" ?><svg width="512px" height="512px" viewBox="0 0 512 512" enable-background="new 0 0 512 512" id="flat" version="1.1" xml:space="preserve" xmlns="http://www.w3.org/2000/svg" xmlns:xlink="http://www.w3.org/1999/xlink"><g><path d="M407.98,511.986c-2.622,0-5.186-1.289-6.71-3.661c-0.835-1.3-20.234-32.286-0.426-71.903   c15.61-31.222,1.03-55.132,0.401-56.134c-2.337-3.729-1.236-8.664,2.479-11.022c3.713-2.358,8.625-1.293,11.004,2.408   c0.835,1.3,20.234,32.286,0.426,71.904c-15.61,31.221-1.03,55.131-0.401,56.134c2.337,3.729,1.236,8.664-2.479,11.022   C410.94,511.581,409.451,511.986,407.98,511.986z" fill="#4D5166"/></g><polygon fill="#BDBDBD" points="448,384 368,384 398,336 418,336 "/><path d="M504,228.343C504,288.431,461.019,344,408,344s-96-55.569-96-115.657S354.981,126.4,408,126.4  S504,168.254,504,228.343z" fill="#E2E2E2"/><ellipse cx="368" cy="200" fill="#4D5166" rx="16" ry="24"/><ellipse cx="456" cy="200" fill="#4D5166" rx="16" ry="24"/><circle cx="408" cy="280" fill="#4D5166" r="32"/><g><path d="M119.998,512c-1.941,0-3.888-0.702-5.426-2.123c-0.43-0.397-10.581-9.896-15.67-25.342   c-4.744-14.395-5.995-36.782,14.979-61.688c13.021-15.462,17.065-31.065,12.021-46.374c-3.747-11.371-11.256-18.527-11.33-18.596   c-3.246-2.998-3.447-8.059-0.449-11.305c2.998-3.247,8.06-3.448,11.305-0.449c0.43,0.397,10.581,9.896,15.67,25.342   c4.744,14.395,5.995,36.782-14.979,61.688c-13.021,15.462-17.065,31.065-12.021,46.374c3.747,11.371,11.256,18.527,11.33,18.596   c3.246,2.998,3.447,8.059,0.449,11.305C124.3,511.135,122.152,512,119.998,512z" fill="#4D5166"/></g><polygon fill="#C18749" points="152,368.372 88,368.372 112,320.372 128,320.372 "/><path d="M194.667,184c-6.802,0-13.174,3.535-18.667,9.681c-5.492-6.146-11.864-9.681-18.667-9.681  c-6.802,0-13.174,3.535-18.667,9.681C133.174,187.535,126.802,184,120,184s-13.174,3.535-18.667,9.681  C95.841,187.535,89.469,184,82.667,184c-6.802,0-13.174,3.535-18.667,9.681C58.508,187.535,52.136,184,45.333,184  C24.715,184,8,216.319,8,256.186c0,39.867,16.715,72.186,37.333,72.186c6.802,0,13.174-3.535,18.667-9.681  c5.492,6.146,11.864,9.681,18.667,9.681c6.802,0,13.174-3.535,18.667-9.681c5.492,6.146,11.864,9.681,18.667,9.681  s13.174-3.535,18.667-9.681c5.492,6.146,11.864,9.681,18.667,9.681c6.802,0,13.174-3.535,18.667-9.681  c5.492,6.146,11.864,9.681,18.667,9.681c20.619,0,37.333-32.319,37.333-72.186C232,216.319,215.285,184,194.667,184z" fill="#ECA559"/><g><path d="M144.006,248.374c-2.935,0-5.76-1.621-7.161-4.424c-1.976-3.952-0.374-8.757,3.577-10.733l32-16   c3.951-1.976,8.758-0.375,10.733,3.578c1.976,3.952,0.374,8.757-3.577,10.733l-32,16   C146.43,248.102,145.208,248.374,144.006,248.374z" fill="#553C20"/></g><g><path d="M95.994,248.374c-1.203,0-2.423-0.272-3.572-0.847l-32-16c-3.951-1.976-5.553-6.781-3.577-10.733   c1.976-3.953,6.78-5.552,10.733-3.578l32,16c3.951,1.976,5.553,6.781,3.577,10.733C101.754,246.753,98.929,248.374,95.994,248.374z   " fill="#553C20"/></g><g><path d="M120,299.761c-24.537,0-47.25-11.108-62.314-30.477c-2.713-3.488-2.085-8.514,1.403-11.227   c3.486-2.713,8.513-2.084,11.226,1.403c12.012,15.443,30.121,24.3,49.686,24.3s37.674-8.857,49.686-24.3   c2.712-3.487,7.739-4.114,11.226-1.403c3.488,2.713,4.116,7.739,1.403,11.227C167.25,288.652,144.537,299.761,120,299.761z" fill="#553C20"/></g><g><path d="M120,312.372c-4.418,0-8-3.582-8-8v-24c0-4.418,3.582-8,8-8s8,3.582,8,8v24   C128,308.791,124.418,312.372,120,312.372z" fill="#553C20"/></g><g><path d="M151.999,304.374c-3.35,0-6.471-2.12-7.589-5.472l-8-24c-1.396-4.191,0.868-8.722,5.06-10.119   c4.195-1.398,8.722,0.868,10.12,5.06l8,24c1.396,4.191-0.868,8.722-5.06,10.119C153.69,304.241,152.837,304.374,151.999,304.374z" fill="#553C20"/></g><g><path d="M184,288.372c-2.048,0-4.095-0.781-5.657-2.343l-16-16c-3.124-3.124-3.124-8.189,0-11.313   c3.125-3.124,8.189-3.124,11.314,0l16,16c3.124,3.124,3.124,8.189,0,11.313C188.095,287.591,186.048,288.372,184,288.372z" fill="#553C20"/></g><g><path d="M88.001,304.374c-0.839,0-1.691-0.133-2.531-0.413c-4.191-1.397-6.456-5.928-5.06-10.119l8-24   c1.398-4.191,5.927-6.456,10.12-5.06c4.191,1.397,6.456,5.928,5.06,10.119l-8,24C94.472,302.254,91.351,304.374,88.001,304.374z" fill="#553C20"/></g><g><path d="M56,288.372c-2.048,0-4.095-0.781-5.657-2.343c-3.124-3.124-3.124-8.189,0-11.313l16-16   c3.125-3.124,8.189-3.124,11.314,0c3.124,3.124,3.124,8.189,0,11.313l-16,16C60.095,287.591,58.048,288.372,56,288.372z" fill="#553C20"/></g><g><path d="M255.988,511.993c-2.355,0-4.686-1.037-6.262-3.029c-0.412-0.521-10.148-12.987-15.004-33.153   c-4.461-18.525-5.573-47.443,14.464-80.003c32.476-52.772,1.842-93.172,0.521-94.866c-2.708-3.476-2.105-8.5,1.36-11.221   c3.466-2.721,8.471-2.139,11.205,1.316c0.412,0.521,10.148,12.987,15.004,33.153c4.461,18.525,5.573,47.443-14.464,80.003   c-32.476,52.772-1.842,93.172-0.521,94.866c2.708,3.476,2.105,8.5-1.36,11.221C259.464,511.433,257.719,511.993,255.988,511.993z" fill="#4D5166"/></g><polygon fill="#BF4C53" points="296,304 216,304 246,256 266,256 "/><path d="M368,128c0,70.103-50.144,134.933-112,134.933S144,198.103,144,128S194.144,9.067,256,9.067  S368,57.897,368,128z" fill="#E65C64"/><polygon fill="#4C1E21" points="272,112 328,64 320,104 "/><polygon fill="#4C1E21" points="240,112 184,64 192,104 "/><path d="M256,224L256,224c-32.248,0-60.879-18.343-71.076-45.537L184,176l0,0c45.325,20.144,98.675,20.144,144,0l0,0  l-0.924,2.463C316.878,205.657,288.248,224,256,224z" fill="#E2E2E2"/><polygon fill="#4C1E21" points="232,160 256,128 280,160 "/><g><path d="M240,192v8c0,4.42-3.58,8-8,8s-8-3.58-8-8v-8c0-1.3,0.31-2.52,0.86-3.6c4.96,0.87,9.96,1.53,14.98,1.98   C239.94,190.9,240,191.44,240,192z" fill="#4D5166"/></g><g><path d="M288,192v8c0,4.42-3.58,8-8,8s-8-3.58-8-8v-8c0-0.56,0.06-1.1,0.16-1.62c5.02-0.45,10.02-1.11,14.98-1.98   C287.69,189.48,288,190.7,288,192z" fill="#4D5166"/></g></svg>