<?xml version="1.0" ?><svg width="512px" height="512px" viewBox="0 0 512 512" enable-background="new 0 0 512 512" id="flat" version="1.1" xml:space="preserve" xmlns="http://www.w3.org/2000/svg" xmlns:xlink="http://www.w3.org/1999/xlink"><g><path d="M406.002,291.046c-13.732,0-27.605-3.913-39.859-12.091c-15.997-10.676-26.878-26.943-30.64-45.803   s0.045-38.057,10.721-54.053l39.969-59.887c2.454-3.676,7.421-4.666,11.095-2.213c3.675,2.453,4.666,7.42,2.213,11.095   l-39.969,59.887c-17.142,25.684-10.192,60.524,15.492,77.666c25.686,17.143,60.525,10.191,77.666-15.492l39.969-59.887   c2.453-3.676,7.42-4.666,11.095-2.213c3.675,2.453,4.666,7.42,2.213,11.095l-39.969,59.887   C452.138,279.804,429.274,291.046,406.002,291.046z" fill="#4D5166"/></g><g><path d="M263.993,440.001c-1.526,0-3.069-0.436-4.434-1.347c-3.675-2.453-4.666-7.42-2.213-11.095l182.081-272.82   c2.453-3.676,7.42-4.665,11.095-2.213c3.675,2.453,4.666,7.42,2.213,11.095l-182.081,272.82   C269.112,438.751,266.576,440.001,263.993,440.001z" fill="#4D5166"/></g><g><path d="M397.266,153.844c-3.737,0-7.078-2.632-7.837-6.437l-2.861-14.345l-14.345,2.861   c-4.334,0.865-8.546-1.948-9.41-6.28c-0.865-4.333,1.947-8.546,6.28-9.41l22.19-4.426c4.332-0.864,8.546,1.947,9.41,6.28   l4.426,22.19c0.865,4.333-1.947,8.546-6.28,9.41C398.311,153.793,397.784,153.844,397.266,153.844z" fill="#4D5166"/></g><g><path d="M450.499,189.372c-3.737,0-7.078-2.632-7.837-6.437L439.8,168.59l-14.345,2.861   c-4.33,0.867-8.546-1.947-9.41-6.28c-0.865-4.333,1.947-8.546,6.28-9.41l22.19-4.426c4.337-0.865,8.546,1.948,9.41,6.28   l4.426,22.19c0.865,4.333-1.947,8.546-6.28,9.41C451.543,189.321,451.017,189.372,450.499,189.372z" fill="#4D5166"/></g><g><path d="M503.732,224.9c-3.737,0-7.078-2.632-7.837-6.437l-2.862-14.345l-14.345,2.861   c-4.331,0.864-8.546-1.947-9.41-6.28c-0.865-4.333,1.947-8.546,6.28-9.41l22.19-4.426c4.334-0.868,8.546,1.947,9.41,6.28   l4.426,22.19c0.865,4.333-1.947,8.546-6.28,9.41C504.777,224.849,504.25,224.9,503.732,224.9z" fill="#4D5166"/></g><path d="M269.55,188.612L256,192v-56l40-16l-5.641,45.129C288.937,176.503,280.67,185.832,269.55,188.612z" fill="#D8565E"/><path d="M98.45,188.612L112,192v-56l-40-16l5.641,45.129C79.063,176.503,87.33,185.832,98.45,188.612z" fill="#D8565E"/><path d="M269.737,287.246L224,272v-48h-80v48l-45.737,15.246C53.914,302.029,24,343.532,24,390.28V504h320V390.28  C344,343.532,314.086,302.029,269.737,287.246z" fill="#D8565E"/><path d="M227.518,234.059L227.518,234.059C214.819,243.126,199.605,248,184.002,248H184  c-15.603,0-30.816-4.873-43.515-13.939l-0.015-0.01C117.584,217.711,104,191.323,104,163.202V128c0-44.183,35.817-80,80-80h0  c44.183,0,80,35.817,80,80v35.182C264,191.313,250.412,217.712,227.518,234.059z" fill="#EC5F67"/><path d="M280.824,8L280.824,8l-0.05,0.497c-2.932,29.392-24.831,53.228-53.583,58.323l-1.264,0.224  c-3.91,0.693-6.157,4.899-4.587,8.588l9.917,23.312c1.3,3.055,4.745,4.532,7.819,3.353l6.836-2.622  C282.223,85.749,298.515,42.967,280.824,8z" fill="#4D5166"/><path d="M87.176,8L87.176,8l0.05,0.497c2.932,29.392,24.831,53.228,53.583,58.323l1.264,0.224  c3.91,0.693,6.157,4.899,4.587,8.588l-9.917,23.312c-1.3,3.055-4.745,4.532-7.819,3.353l-6.836-2.622  C85.777,85.749,69.485,42.967,87.176,8z" fill="#4D5166"/><path d="M225.519,167.604L225.519,167.604c-10.009,2.002-19.941-3.763-23.169-13.446l-2.35-7.051l40-8l0.75,2.251  C244.6,152.908,237.456,165.217,225.519,167.604z" fill="#62272B"/><path d="M142.481,167.604L142.481,167.604c10.009,2.002,19.941-3.763,23.169-13.446l2.35-7.051l-40-8l-0.75,2.251  C123.4,152.908,130.544,165.217,142.481,167.604z" fill="#62272B"/><g><path d="M184,218.588c-12.983,0-25.966-4.062-36.8-12.188c-3.535-2.651-4.251-7.665-1.6-11.2   c2.65-3.535,7.665-4.252,11.2-1.6c16.016,12.011,38.385,12.011,54.4,0c3.535-2.651,8.549-1.934,11.2,1.6   c2.651,3.535,1.935,8.549-1.6,11.2C209.966,214.525,196.983,218.588,184,218.588z" fill="#62272B"/></g><g><path d="M208,224c-4.418,0-8-3.582-8-8v-8c0-4.418,3.582-8,8-8s8,3.582,8,8v8C216,220.418,212.418,224,208,224z" fill="#2B2D39"/></g><g><path d="M160,224c-4.418,0-8-3.582-8-8v-8c0-4.418,3.582-8,8-8s8,3.582,8,8v8C168,220.418,164.418,224,160,224z" fill="#2B2D39"/></g><g><path d="M184,368c-2.047,0-4.095-0.781-5.657-2.343l-6.157-6.157c-5.026-5.026-11.693-8.149-18.773-8.792   l-74.137-6.74c-4.4-0.4-7.643-4.292-7.243-8.691c0.4-4.4,4.291-7.646,8.691-7.243l74.138,6.74   c10.8,0.982,20.97,5.746,28.638,13.414l0.5,0.5l0.5-0.5c7.667-7.668,17.838-12.432,28.637-13.414l74.138-6.74   c4.396-0.399,8.291,2.843,8.691,7.243c0.4,4.4-2.843,8.291-7.243,8.691l-74.138,6.74c-7.079,0.644-13.746,3.766-18.772,8.792   l-6.157,6.157C188.095,367.219,186.047,368,184,368z" fill="#973C42"/></g><g><path d="M184,135.736c-17.119,0-34.237-2.716-50.53-8.146c-4.191-1.397-6.457-5.928-5.06-10.119   c1.396-4.191,5.926-6.458,10.119-5.06c29.322,9.773,61.618,9.773,90.94,0c4.19-1.398,8.722,0.868,10.119,5.06   c1.397,4.191-0.868,8.722-5.06,10.119C218.237,133.02,201.119,135.736,184,135.736z" fill="#62272B"/></g><path d="M80,368c-4.418,0-8,3.582-8,8v128h16V376C88,371.582,84.418,368,80,368z" fill="#973C42"/><path d="M288,368c-4.418,0-8,3.582-8,8v128h16V376C296,371.582,292.418,368,288,368z" fill="#973C42"/><g><path d="M184,464c-4.418,0-8-3.582-8-8v-72c0-4.418,3.582-8,8-8s8,3.582,8,8v72C192,460.418,188.418,464,184,464z" fill="#973C42"/></g><g><path d="M207.99,464.001c-3.917,0-7.339-2.879-7.909-6.87c-0.625-4.374,2.414-8.426,6.788-9.051l56-8   c4.371-0.625,8.426,2.414,9.051,6.788c0.625,4.374-2.414,8.426-6.788,9.051l-56,8C208.748,463.975,208.367,464.001,207.99,464.001z   " fill="#973C42"/></g><g><path d="M160.01,464.001c-0.377,0-0.758-0.026-1.142-0.082l-56-8c-4.374-0.625-7.413-4.677-6.788-9.051   c0.625-4.375,4.677-7.418,9.051-6.788l56,8c4.374,0.625,7.413,4.677,6.788,9.051C167.35,461.122,163.927,464.001,160.01,464.001z" fill="#973C42"/></g></svg>