<?xml version="1.0" ?><svg width="512px" height="512px" viewBox="0 0 512 512" enable-background="new 0 0 512 512" id="flat" version="1.1" xml:space="preserve" xmlns="http://www.w3.org/2000/svg" xmlns:xlink="http://www.w3.org/1999/xlink"><g><path d="M336,128c-2.048,0-4.095-0.781-5.657-2.343c-3.124-3.125-3.124-8.189,0-11.314l72-72   c3.125-3.123,8.189-3.123,11.314,0c3.124,3.125,3.124,8.189,0,11.314l-72,72C340.095,127.219,338.048,128,336,128z" fill="#E6C067"/></g><path d="M392.331,498.81L392.331,498.81c-23.431,13.671-55.5-2.428-64.284-32.272l-2.265-7.695  c-2.672-9.077-7.258-17.61-13.378-24.887l0,0c-14.983-17.817-12.681-43.939,4.769-54.12l0,0c11.307-6.597,26.126-4.558,37.418,5.148  l7.195,6.185c14.032,12.061,26.876,25.71,38.261,40.657l0,0C417.437,454.657,413.794,486.287,392.331,498.81z" fill="#4D5166"/><path d="M119.669,498.81L119.669,498.81c23.431,13.671,55.5-2.428,64.284-32.272l2.265-7.695  c2.672-9.077,7.258-17.61,13.378-24.887l0,0c14.983-17.817,12.681-43.939-4.769-54.12l0,0c-11.307-6.597-26.126-4.558-37.418,5.148  l-7.195,6.185c-14.032,12.061-26.876,25.71-38.261,40.657l0,0C94.563,454.657,98.206,486.287,119.669,498.81z" fill="#4D5166"/><path d="M495.286,331.934L495.286,331.934c-16.855,22.226-50.109,22.695-67.584,0.953l0,0  c-22.836-28.412-50.187-52.876-80.961-72.413l-14.377-9.128c-15.893-10.09-19.768-31.609-8.393-46.609l0,0  c9.505-12.534,26.678-16.359,40.603-9.044l15.129,7.947c37.593,19.747,73.491,42.565,107.326,68.223l0,0  C505.897,286.171,509.594,313.066,495.286,331.934z" fill="#4D5166"/><path d="M16.714,331.934L16.714,331.934c16.855,22.226,50.109,22.695,67.584,0.953l0,0  c22.836-28.412,50.187-52.876,80.961-72.413l14.377-9.128c15.893-10.09,19.768-31.609,8.393-46.609l0,0  c-9.505-12.534-26.678-16.359-40.603-9.044l-15.129,7.947c-37.593,19.747-73.491,42.565-107.326,68.223l0,0  C6.103,286.171,2.406,313.066,16.714,331.934z" fill="#4D5166"/><ellipse cx="256" cy="288" fill="#747A99" rx="120" ry="144"/><circle cx="256" cy="112" fill="#4D5166" r="104"/><circle cx="216" cy="88" fill="#E6C067" r="24"/><circle cx="296" cy="88" fill="#E6C067" r="24"/><g><path d="M312,176H200c-4.418,0-8-3.582-8-8s3.582-8,8-8h112c4.418,0,8,3.582,8,8S316.418,176,312,176z" fill="#FF666F"/></g><g><path d="M256,192c-4.418,0-8-3.582-8-8v-32c0-4.418,3.582-8,8-8s8,3.582,8,8v32C264,188.418,260.418,192,256,192z" fill="#FF666F"/></g><g><path d="M280,192c-4.418,0-8-3.582-8-8v-32c0-4.418,3.582-8,8-8s8,3.582,8,8v32C288,188.418,284.418,192,280,192z" fill="#FF666F"/></g><g><path d="M304,192c-4.418,0-8-3.582-8-8v-32c0-4.418,3.582-8,8-8s8,3.582,8,8v32C312,188.418,308.418,192,304,192z" fill="#FF666F"/></g><g><path d="M232,192c-4.418,0-8-3.582-8-8v-32c0-4.418,3.582-8,8-8s8,3.582,8,8v32C240,188.418,236.418,192,232,192z" fill="#FF666F"/></g><g><path d="M208,192c-4.418,0-8-3.582-8-8v-32c0-4.418,3.582-8,8-8s8,3.582,8,8v32C216,188.418,212.418,192,208,192z" fill="#FF666F"/></g><g><path d="M256,408c-4.418,0-8-3.582-8-8V272c0-4.418,3.582-8,8-8s8,3.582,8,8v128C264,404.418,260.418,408,256,408z" fill="#FF666F"/></g><g><path d="M272,296h-32c-4.418,0-8-3.582-8-8s3.582-8,8-8h32c4.418,0,8,3.582,8,8S276.418,296,272,296z" fill="#FF666F"/></g><g><path d="M272,320h-32c-4.418,0-8-3.582-8-8s3.582-8,8-8h32c4.418,0,8,3.582,8,8S276.418,320,272,320z" fill="#FF666F"/></g><g><path d="M272,344h-32c-4.418,0-8-3.582-8-8s3.582-8,8-8h32c4.418,0,8,3.582,8,8S276.418,344,272,344z" fill="#FF666F"/></g><g><path d="M272,368h-32c-4.418,0-8-3.582-8-8s3.582-8,8-8h32c4.418,0,8,3.582,8,8S276.418,368,272,368z" fill="#FF666F"/></g><g><path d="M272,392h-32c-4.418,0-8-3.582-8-8s3.582-8,8-8h32c4.418,0,8,3.582,8,8S276.418,392,272,392z" fill="#FF666F"/></g><g><path d="M303.996,296c-1.807,0-3.622-0.607-5.117-1.854c-3.395-2.828-3.854-7.873-1.024-11.267l40-48   c2.828-3.395,7.875-3.854,11.267-1.024c3.395,2.828,3.854,7.873,1.024,11.267l-40,48C308.563,295.02,306.288,296,303.996,296z" fill="#E6C067"/></g><g><path d="M344,272c-2.048,0-4.095-0.781-5.657-2.343l-24-24c-3.124-3.125-3.124-8.189,0-11.314   c3.125-3.123,8.189-3.123,11.314,0l24,24c3.124,3.125,3.124,8.189,0,11.314C348.095,271.219,346.048,272,344,272z" fill="#E6C067"/></g><g><path d="M328,288c-2.048,0-4.095-0.781-5.657-2.343l-24-24c-3.124-3.125-3.124-8.189,0-11.314   c3.125-3.123,8.189-3.123,11.314,0l24,24c3.124,3.125,3.124,8.189,0,11.314C332.095,287.219,330.048,288,328,288z" fill="#E6C067"/></g><g><path d="M71.997,280.002c-3.42,0-6.585-2.21-7.644-5.649l-32-104c-1.299-4.223,1.071-8.699,5.294-9.999   c4.221-1.301,8.699,1.07,9.999,5.294l32,104c1.299,4.223-1.071,8.699-5.294,9.999C73.569,279.888,72.776,280.002,71.997,280.002z" fill="#E6C067"/></g><circle cx="40" cy="160" fill="#E65C64" r="24"/><g><path d="M383.997,464c-1.87,0-3.747-0.651-5.265-1.979c-3.325-2.909-3.662-7.964-0.753-11.288l56-64   c2.909-3.326,7.964-3.662,11.288-0.753c3.325,2.909,3.662,7.964,0.753,11.288l-56,64C388.439,463.075,386.224,464,383.997,464z" fill="#E6C067"/></g><circle cx="440" cy="392" fill="#E65C64" r="16"/><g><path d="M215.994,304c-1.671,0-3.354-0.521-4.794-1.6l-32-24c-3.535-2.651-4.251-7.666-1.601-11.2   c2.652-3.535,7.666-4.249,11.2-1.601l32,24c3.535,2.651,4.251,7.666,1.601,11.2C220.828,302.896,218.426,304,215.994,304z" fill="#E6C067"/></g><g><path d="M191.994,312.002c-1.203,0-2.423-0.272-3.572-0.847c-3.951-1.976-5.553-6.781-3.577-10.733l16-32   c1.976-3.951,6.779-5.552,10.733-3.577c3.951,1.976,5.553,6.781,3.577,10.733l-16,32   C197.754,310.381,194.929,312.002,191.994,312.002z" fill="#E6C067"/></g><circle cx="408" cy="48" fill="#E65C64" r="24"/></svg>