<?xml version="1.0" ?><svg width="512px" height="512px" viewBox="0 0 512 512" enable-background="new 0 0 512 512" id="flat" version="1.1" xml:space="preserve" xmlns="http://www.w3.org/2000/svg" xmlns:xlink="http://www.w3.org/1999/xlink"><circle cx="312" cy="192" fill="#E6C067" r="120"/><path d="M450.096,247.895c-14.646-17.901-40.718-21.26-59.424-7.656h0c-17.457,12.696-36.409,23.016-56.353,30.769  c-12.844,4.993-27.021-3.223-29.287-16.816L296,200l-17.584,17.584c-12.38,12.38-32.452,12.38-44.832,0L216,200l-9.032,54.189  c-2.288,13.726-16.632,21.758-29.595,16.699c-19.832-7.74-38.678-18.018-56.045-30.649h0c-18.706-13.604-44.777-10.245-59.424,7.656  L16,304h0c39.764,0,72,32.235,72,72v16h8c26.51,0,48,21.49,48,48l0,0h48c35.346,0,64,28.654,64,64c0-35.346,28.654-64,64-64h48l0,0  c0-26.51,21.49-48,48-48h8v-16c0-39.764,32.235-72,72-72h0L450.096,247.895z" fill="#4D5166"/><path d="M181.449,10.068c-9.722-4.741-21.455-1.071-26.742,8.366l0,0c-4.934,8.807-10.968,16.897-17.925,24.09  c-4.48,4.633-12.11,3.914-15.73-1.418L106.619,19.85l-4.032,10.908c-2.839,7.68-11.366,11.605-19.046,8.766l-10.908-4.032  l6.758,24.787c1.712,6.279-2.812,12.495-9.308,12.881c-9.938,0.59-19.955-0.092-29.803-2.063l0,0  C29.673,68.975,19.254,75.5,16.532,85.969L8,118.78l0,0c16.893-7.775,36.891-0.383,44.666,16.51l3.128,6.797l3.399-1.564  c11.262-5.183,24.594-0.255,29.777,11.007l0,0l20.392-9.385c15.016-6.911,32.792-0.34,39.703,14.676  c-6.911-15.016-0.34-32.792,14.676-39.703l20.392-9.385l0,0c-5.183-11.262-0.255-24.594,11.007-29.777l3.399-1.564l-3.128-6.797  c-7.775-16.893-0.383-36.891,16.51-44.666l0,0L181.449,10.068z" fill="#4D5166"/><path d="M494.822,134.447c-2.272-6.978-9.595-10.971-16.692-9.1l0,0c-6.623,1.746-13.414,2.618-20.204,2.616  c-4.373-0.001-7.62-4.061-6.726-8.342l3.563-17.064l-7.223,3.177c-5.085,2.237-11.021-0.072-13.257-5.157l-3.177-7.223  l-8.904,14.986c-2.256,3.796-7.421,4.521-10.673,1.533c-4.974-4.57-9.365-9.778-13.047-15.511l0,0  c-3.967-6.175-12.063-8.181-18.453-4.572L360,101.101l0,0c11.759,4.574,17.583,17.815,13.009,29.574l-1.841,4.731l2.366,0.92  c7.839,3.05,11.722,11.877,8.673,19.716l0,0l14.194,5.522c10.452,4.066,15.629,15.836,11.563,26.288  c4.066-10.452,15.836-15.629,26.288-11.563l14.194,5.522l0,0c3.05-7.839,11.877-11.722,19.716-8.673l2.366,0.92l1.841-4.731  c4.574-11.759,17.815-17.583,29.574-13.009l0,0L494.822,134.447z" fill="#4D5166"/><g><path d="M272,272c-2.047,0-4.095-0.781-5.657-2.343c-3.125-3.125-3.125-8.189,0-11.314l8-8   c3.124-3.123,8.189-3.123,11.313,0c3.125,3.125,3.125,8.189,0,11.314l-8,8C276.095,271.219,274.047,272,272,272z" fill="#E65C64"/></g><g><path d="M240,272c-2.047,0-4.095-0.781-5.657-2.343l-8-8c-3.125-3.125-3.125-8.189,0-11.314   c3.124-3.123,8.189-3.123,11.313,0l8,8c3.125,3.125,3.125,8.189,0,11.314C244.095,271.219,242.047,272,240,272z" fill="#E65C64"/></g><g><path d="M280,304h-48c-4.418,0-8-3.582-8-8s3.582-8,8-8h48c4.418,0,8,3.582,8,8S284.418,304,280,304z" fill="#E65C64"/></g><g><path d="M272,320c-4.418,0-8-3.582-8-8v-16c0-4.418,3.582-8,8-8s8,3.582,8,8v16C280,316.418,276.418,320,272,320z" fill="#64282B"/></g><g><path d="M240,320c-4.418,0-8-3.582-8-8v-16c0-4.418,3.582-8,8-8s8,3.582,8,8v16C248,316.418,244.418,320,240,320z" fill="#64282B"/></g><g><path d="M88.007,400c-0.576,0-1.16-0.062-1.746-0.193c-4.311-0.96-7.029-5.23-6.071-9.542   c0.684-3.077,17.234-75.648,59.693-101.125c3.79-2.273,8.703-1.044,10.976,2.744c2.273,3.789,1.045,8.703-2.744,10.977   c-36.549,21.929-52.154,90.191-52.308,90.879C94.977,397.465,91.672,400,88.007,400z" fill="#363948"/></g><g><path d="M143.99,448.001c-4.06,0-7.538-3.079-7.951-7.205c-0.086-0.866-2.062-21.51,3.128-46.428   c7.023-33.709,23.919-59.061,48.863-73.314c3.836-2.189,8.724-0.859,10.915,2.978c2.192,3.836,0.859,8.723-2.977,10.915   c-50.903,29.087-44.084,103.51-44.009,104.258c0.439,4.396-2.768,8.316-7.165,8.756   C144.525,447.987,144.256,448.001,143.99,448.001z" fill="#363948"/></g><g><path d="M423.993,400.002c-3.667,0-6.974-2.538-7.802-6.267c-0.202-0.899-15.815-68.98-52.307-90.875   c-3.789-2.273-5.017-7.188-2.744-10.977c2.273-3.789,7.185-5.017,10.976-2.744c42.459,25.477,59.01,98.048,59.693,101.125   c0.958,4.312-1.761,8.586-6.074,9.545C425.151,399.939,424.567,400.002,423.993,400.002z" fill="#363948"/></g><g><path d="M368.01,448.001c-0.267,0-0.535-0.014-0.806-0.041c-4.394-0.439-7.6-4.354-7.166-8.747l0,0   c0.073-0.749,6.735-75.271-44.008-104.267c-3.836-2.192-5.169-7.079-2.977-10.915s7.078-5.167,10.915-2.978   c24.943,14.254,41.84,39.605,48.863,73.314c5.191,24.918,3.215,45.562,3.128,46.428   C375.548,444.922,372.069,448.001,368.01,448.001z" fill="#363948"/></g><path d="M296,408c0,14.72-2.46,28.41-6.67,39.81c-12.74,6.97-22.85,18.15-28.46,31.66c-1.6,0.35-3.22,0.53-4.87,0.53  s-3.27-0.18-4.87-0.53c-5.61-13.51-15.72-24.69-28.46-31.66c-4.21-11.4-6.67-25.09-6.67-39.81c0-39.76,17.91-72,40-72  S296,368.24,296,408z" fill="#E65C64"/><g><path d="M448.007,304.001c-2.585,0-5.122-1.251-6.664-3.563c-13.356-20.034-41.089-20.436-41.368-20.438   c-4.408-0.027-7.977-3.616-7.963-8.024c0.013-4.409,3.579-7.976,7.987-7.976c1.481,0,36.49,0.313,54.656,27.562   c2.451,3.676,1.458,8.644-2.219,11.094C451.074,303.565,449.532,304.001,448.007,304.001z" fill="#363948"/></g><g><path d="M63.993,304.001c-1.525,0-3.066-0.436-4.43-1.345c-3.676-2.45-4.67-7.418-2.219-11.094   C75.51,264.313,110.519,264,112,264c4.418,0,8,3.582,8,8c0,4.411-3.57,7.988-7.979,8c-0.421,0.004-28.044,0.456-41.365,20.438   C69.115,302.75,66.578,304.001,63.993,304.001z" fill="#363948"/></g></svg>