<?xml version="1.0" ?><svg width="512px" height="512px" viewBox="0 0 512 512" enable-background="new 0 0 512 512" id="flat" version="1.1" xml:space="preserve" xmlns="http://www.w3.org/2000/svg" xmlns:xlink="http://www.w3.org/1999/xlink"><g><path d="M256,176c-4.418,0-8-3.582-8-8v-64c0-4.418,3.582-8,8-8s8,3.582,8,8v64C264,172.418,260.418,176,256,176z" fill="#333644"/></g><polygon fill="#E65C64" points="336,144 176,168 176,368 336,368 "/><rect fill="#939BC3" height="64" width="48" x="232" y="376"/><path d="M308.383,432H203.617C192.783,432,184,440.783,184,451.617V472h144v-20.383  C328,440.783,319.217,432,308.383,432z" fill="#4D5166"/><path d="M376,504H136l9.419-23.547c3.975-9.937,13.599-16.453,24.302-16.453h172.559  c10.703,0,20.327,6.516,24.302,16.453L376,504z" fill="#939BC3"/><path d="M279.079,328h-46.159c-9.944,0-18.613-6.768-21.024-16.415L208,296h96l-3.896,15.585  C297.692,321.232,289.024,328,279.079,328z" fill="#4D5166"/><polygon fill="#4D5166" points="240,256 208,224 200,264 "/><polygon fill="#4D5166" points="272,256 304,224 312,264 "/><g><path d="M264,280h-16c-4.418,0-8-3.582-8-8s3.582-8,8-8h16c4.418,0,8,3.582,8,8S268.418,280,264,280z" fill="#4D5166"/></g><path d="M224,296v8c0,4.418,3.582,8,8,8s8-3.582,8-8v-8H224z" fill="#323542"/><path d="M272,296v8c0,4.418,3.582,8,8,8s8-3.582,8-8v-8H272z" fill="#323542"/><path d="M256,312c-4.418,0-8,3.582-8,8v8h16v-8C264,315.582,260.418,312,256,312z" fill="#323542"/><path d="M304,148.8V192c0,8.84-7.16,16-16,16s-16-7.16-16-16v24c0,8.84-7.16,16-16,16c-8.84,0-16-7.16-16-16v-40  c0,8.84-7.16,16-16,16s-16-7.16-16-16v-12.8L304,148.8z" fill="#973D42"/><path d="M257.17,8.365c2.069-2.239,19.493,21.396,20.843,23.266c6.598,9.138,12.227,19.472,15.525,31.051  c2.265,7.952,3.186,16.52,1.829,24.839c-6.6,40.463-39.59,40.479-39.616,40.479c-10.72,0.003-22.632-3.007-32.377-8.66  c-6.203-3.598-12.022-10.035-14.467-18.051c-4.555-14.935,9.18-27.627,16.3-37.288c5.799-7.867,11.499-16.229,16.875-24.54  c5.064-7.83,10.208-15.913,12.875-24.928C255.535,12.576,255.737,9.925,257.17,8.365z" fill="#E6C067"/><g><path d="M400,80h-40c-4.418,0-8-3.582-8-8s3.582-8,8-8h40c4.418,0,8,3.582,8,8S404.418,80,400,80z" fill="#E6C067"/></g><g><path d="M360.008,40.001c-2.718,0-5.368-1.385-6.868-3.885c-2.273-3.789-1.045-8.703,2.744-10.977l40-24   c3.789-2.272,8.703-1.045,10.976,2.744c2.273,3.789,1.045,8.703-2.744,10.977l-40,24C362.828,39.633,361.408,40.001,360.008,40.001   z" fill="#E6C067"/></g><g><path d="M399.992,144.001c-1.401,0-2.819-0.368-4.108-1.141l-40-24c-3.789-2.273-5.017-7.188-2.744-10.977   c2.273-3.789,7.185-5.017,10.976-2.744l40,24c3.789,2.273,5.017,7.188,2.744,10.977C405.36,142.616,402.71,144.001,399.992,144.001   z" fill="#E6C067"/></g><g><path d="M152,80h-40c-4.418,0-8-3.582-8-8s3.582-8,8-8h40c4.418,0,8,3.582,8,8S156.418,80,152,80z" fill="#E6C067"/></g><g><path d="M151.992,40.001c-1.401,0-2.819-0.368-4.108-1.141l-40-24c-3.789-2.273-5.017-7.188-2.744-10.977   s7.186-5.017,10.976-2.744l40,24c3.789,2.273,5.017,7.188,2.744,10.977C157.36,38.616,154.71,40.001,151.992,40.001z" fill="#E6C067"/></g><g><path d="M112.008,144.001c-2.718,0-5.368-1.385-6.868-3.885c-2.273-3.789-1.045-8.703,2.744-10.977l40-24   c3.789-2.272,8.703-1.045,10.976,2.744s1.045,8.703-2.744,10.977l-40,24C114.828,143.633,113.408,144.001,112.008,144.001z" fill="#E6C067"/></g><path d="M432,128L432,128c17.673,0,32,14.327,32,32v0v0c0-17.673,14.327-32,32-32h0h0c-17.673,0-32-14.327-32-32v0v0  C464,113.673,449.673,128,432,128L432,128z" fill="#E6C067"/><path d="M368,224L368,224c17.673,0,32,14.327,32,32v0v0c0-17.673,14.327-32,32-32h0h0c-17.673,0-32-14.327-32-32v0v0  C400,209.673,385.673,224,368,224L368,224z" fill="#E6C067"/><path d="M440,328L440,328c17.673,0,32,14.327,32,32v0v0c0-17.673,14.327-32,32-32h0h0c-17.673,0-32-14.327-32-32v0v0  C472,313.673,457.673,328,440,328L440,328z" fill="#E6C067"/><path d="M80,128L80,128c-17.673,0-32,14.327-32,32v0v0c0-17.673-14.327-32-32-32h0h0c17.673,0,32-14.327,32-32v0v0  C48,113.673,62.327,128,80,128L80,128z" fill="#E6C067"/><path d="M144,224L144,224c-17.673,0-32,14.327-32,32v0v0c0-17.673-14.327-32-32-32h0h0c17.673,0,32-14.327,32-32v0v0  C112,209.673,126.327,224,144,224L144,224z" fill="#E6C067"/><path d="M72,328L72,328c-17.673,0-32,14.327-32,32v0v0c0-17.673-14.327-32-32-32h0h0c17.673,0,32-14.327,32-32v0v0  C40,313.673,54.327,328,72,328L72,328z" fill="#E6C067"/><path d="M392,328c-19.351,0-35.492,13.742-39.198,32H144c9.806,19.612,29.851,32,51.777,32h120.446  c13.844,0,26.934-4.942,37.174-13.519C358.003,395.487,373.536,408,392,408c22.091,0,40-17.909,40-40S414.091,328,392,328z" fill="#4D5166"/><circle cx="392" cy="368" fill="#939BC3" r="16"/></svg>