<?xml version="1.0" ?><svg width="512px" height="512px" viewBox="0 0 512 512" enable-background="new 0 0 512 512" id="flat" version="1.1" xml:space="preserve" xmlns="http://www.w3.org/2000/svg" xmlns:xlink="http://www.w3.org/1999/xlink"><rect fill="#99A1CB" height="224" width="368" x="120" y="280"/><rect fill="#C7A659" height="48" width="368" x="120" y="376"/><rect fill="#FFD572" height="224" width="80" x="264" y="280"/><rect fill="#4D5166" height="64" width="400" x="104" y="224"/><path d="M295.133,352l-32-24l-16,24l0,0c-23.082-32.315-19.419-76.581,8.662-104.662l7.338-7.338h48l-7.338,7.338  C275.714,275.419,272.051,319.685,295.133,352L295.133,352z" fill="#BF4C53"/><path d="M312.867,352l32-24l16,24l0,0c23.082-32.315,19.419-76.581-8.662-104.662L344.867,240h-48l7.338,7.338  C332.286,275.419,335.949,319.685,312.867,352L312.867,352z" fill="#BF4C53"/><path d="M386.628,260.114L320,248v-64l66.628-12.114c11.128-2.023,21.372,6.526,21.372,17.837v52.555  C408,253.588,397.756,262.138,386.628,260.114z" fill="#E65C64"/><path d="M221.372,260.114L288,248v-64l-66.628-12.114C210.244,169.862,200,178.412,200,189.722v52.555  C200,253.588,210.244,262.138,221.372,260.114z" fill="#E65C64"/><path d="M317.29,256h-26.58c-5.915,0-10.71-4.795-10.71-10.71v-58.58c0-5.915,4.795-10.71,10.71-10.71h26.58  c5.915,0,10.71,4.795,10.71,10.71v58.58C328,251.205,323.205,256,317.29,256z" fill="#592427"/><path d="M94.652,412.284l22.074-9.421l0,0c9.317-23.192-1.931-49.546-25.123-58.863l0,0l-29.431,12.561l5.573,2.239  c20.898,8.395,32.442,30.88,27.086,52.755L94.652,412.284z" fill="#77AB38"/><path d="M168,392c-5.831,0-11.292,2.743-16,7.51c-4.708-4.768-10.169-7.51-16-7.51s-11.292,2.743-16,7.51  c-4.708-4.768-10.169-7.51-16-7.51s-11.292,2.743-16,7.51c-4.708-4.768-10.169-7.51-16-7.51s-11.292,2.743-16,7.51  c-4.708-4.768-10.169-7.51-16-7.51c-17.673,0-32,25.072-32,56s14.327,56,32,56c5.831,0,11.292-2.742,16-7.51  c4.708,4.768,10.169,7.51,16,7.51s11.292-2.742,16-7.51c4.708,4.768,10.169,7.51,16,7.51s11.292-2.742,16-7.51  c4.708,4.768,10.169,7.51,16,7.51s11.292-2.742,16-7.51c4.708,4.768,10.169,7.51,16,7.51c17.673,0,32-25.072,32-56  S185.673,392,168,392z" fill="#ECA559"/><g><path d="M136.006,440.002c-2.935,0-5.76-1.621-7.161-4.424c-1.976-3.952-0.374-8.757,3.577-10.733l16-8   c3.952-1.977,8.758-0.374,10.733,3.578s0.374,8.757-3.577,10.733l-16,8C138.43,439.729,137.208,440.002,136.006,440.002z" fill="#74512C"/></g><g><path d="M71.994,440.002c-1.203,0-2.423-0.272-3.572-0.847l-16-8c-3.951-1.976-5.553-6.781-3.577-10.733   c1.977-3.953,6.78-5.553,10.733-3.578l16,8c3.951,1.976,5.553,6.781,3.577,10.733C77.754,438.381,74.929,440.002,71.994,440.002z" fill="#74512C"/></g><g><path d="M136,464H72c-4.418,0-8-3.582-8-8s3.582-8,8-8h64c4.418,0,8,3.582,8,8S140.418,464,136,464z" fill="#74512C"/></g><g><path d="M88,480c-4.418,0-8-3.582-8-8v-16c0-4.418,3.582-8,8-8s8,3.582,8,8v16C96,476.418,92.418,480,88,480z" fill="#74512C"/></g><g><path d="M120,480c-4.418,0-8-3.582-8-8v-16c0-4.418,3.582-8,8-8s8,3.582,8,8v16C128,476.418,124.418,480,120,480z" fill="#74512C"/></g><path d="M178.652,16.414c-19.511-10.309-42.651-11.19-62.89-2.395l0,0l0.141,0.848  c1.483,8.907-0.477,17.739-5.045,24.972c-1.691,2.677-5.666,2.416-6.927-0.487L96.55,22.369  C92.55,32.517,81.081,37.501,70.933,33.501l7.381,16.984c1.262,2.904-1.26,5.987-4.37,5.397  c-8.405-1.595-16.199-6.188-21.699-13.349l-0.524-0.682l0,0c-20.239,8.796-35.382,26.314-41.157,47.612L8,98.919l12.808-5.566  c14.148-6.148,30.601,0.336,36.749,14.484l0,0l19.212-8.349c17.684-7.685,38.251,0.42,45.936,18.105  c-7.685-17.684,0.42-38.251,18.105-45.936l19.212-8.349l0,0c-6.148-14.148,0.336-30.6,14.484-36.749l12.808-5.566L178.652,16.414z" fill="#4D5166"/><path d="M500.184,93.346c-8.595-23.777-27.532-42.357-51.467-50.499l0,0l-0.534,0.828  c-5.608,8.694-14.075,14.67-23.523,17.281c-3.496,0.966-6.665-2.318-5.497-5.752l6.832-20.086  c-11.211,5.52-24.775,0.906-30.295-10.305L388.868,44.9c-1.168,3.434-5.682,4.105-7.864,1.207c-5.896-7.83-8.964-17.73-8.107-28.04  l0.082-0.981l0,0c-23.936-8.142-50.274-4.962-71.584,8.643l-9.461,6.04l15.148,5.152c16.732,5.691,25.682,23.869,19.99,40.6l0,0  l22.722,7.729c20.914,7.114,32.102,29.836,24.988,50.75c7.114-20.915,29.836-32.102,50.75-24.988l22.721,7.729l0,0  c5.691-16.732,23.868-25.682,40.6-19.99L504,103.903L500.184,93.346z" fill="#4D5166"/><path d="M325.285,121.655c-6.115-16.915-19.587-30.134-36.615-35.926l0,0l-0.38,0.589  c-3.989,6.185-10.014,10.436-16.735,12.294c-2.487,0.687-4.742-1.649-3.911-4.092l4.861-14.29  c-7.976,3.927-17.626,0.645-21.553-7.331l-4.861,14.29c-0.831,2.443-4.043,2.92-5.595,0.859c-4.194-5.571-6.377-12.614-5.767-19.948  l0.058-0.698l0,0c-17.029-5.792-35.767-3.53-50.927,6.149l-6.731,4.297l10.776,3.666c11.903,4.049,18.271,16.981,14.222,28.884l0,0  l16.165,5.498c14.879,5.061,22.838,21.226,17.777,36.105c5.061-14.879,21.226-22.838,36.105-17.777l16.165,5.498l0,0  c4.049-11.903,16.981-18.271,28.884-14.222L328,129.165L325.285,121.655z" fill="#4D5166"/></svg>