<svg width="25" height="25" viewBox="0 0 25 25" fill="none" xmlns="http://www.w3.org/2000/svg">
<rect width="25" height="25" rx="12.5" fill="black"/>
<path d="M22.9166 6.17142C22.1504 6.5109 21.3274 6.74028 20.4622 6.84397C21.3449 6.31547 22.022 5.47685 22.3413 4.47858C21.5155 4.96854 20.6007 5.32454 19.6273 5.51539C18.8474 4.68595 17.7372 4.16663 16.5077 4.16663C14.1478 4.16663 12.2338 6.08058 12.2338 8.44229C12.2338 8.77627 12.2724 9.10108 12.3439 9.41487C8.79036 9.23595 5.64233 7.53394 3.53386 4.94836C3.16685 5.58145 2.95582 6.31547 2.95582 7.0972C2.95582 8.57992 3.71094 9.88923 4.85693 10.6554C4.15594 10.6324 3.49716 10.4407 2.92095 10.1204V10.1755C2.92095 12.2464 4.39358 13.9741 6.34974 14.3668C5.99007 14.464 5.61297 14.5154 5.22394 14.5154C4.94868 14.5154 4.67985 14.4897 4.41927 14.4402C4.96336 16.1376 6.54151 17.3744 8.41234 17.4074C6.94889 18.5543 5.10558 19.2379 3.10354 19.2379C2.75855 19.2379 2.41815 19.2177 2.08325 19.1783C3.97519 20.3921 6.22129 21.0986 8.63438 21.0986C16.4976 21.0986 20.7962 14.586 20.7962 8.93776C20.7962 8.75425 20.7916 8.56891 20.7833 8.38541C21.6183 7.78168 22.3431 7.03022 22.9147 6.17417L22.9166 6.17142Z" stroke="white" stroke-width="2.07951" stroke-linejoin="round"/>
</svg>
