<svg width="25" height="25" viewBox="0 0 25 25" fill="none" xmlns="http://www.w3.org/2000/svg">
<rect width="25" height="25" rx="12.5" fill="black"/>
<path d="M9.72204 2.08331C8.57145 2.08331 7.63885 3.01801 7.63885 4.17069C7.63857 4.44454 7.69224 4.71575 7.79678 4.96886C7.90132 5.22196 8.05469 5.45199 8.24813 5.64583C8.44157 5.83966 8.6713 5.99349 8.92419 6.09854C9.17709 6.20359 9.4482 6.2578 9.72204 6.25807H11.8056V4.17069C11.806 3.61761 11.5868 3.08699 11.1961 2.69554C10.8053 2.30409 10.2751 2.08387 9.72204 2.08331ZM9.72204 7.64966H4.16651C3.01592 7.64966 2.08331 8.58436 2.08331 9.73738C2.08331 10.8901 3.01592 11.8248 4.16651 11.8248H9.72239C10.8726 11.8248 11.8056 10.8901 11.8056 9.73738C11.8056 8.58436 10.8726 7.64966 9.72204 7.64966Z" stroke="white" stroke-width="2.07951" stroke-linejoin="round"/>
<path d="M22.9166 9.73738C22.9166 8.58436 21.9837 7.64966 20.8331 7.64966C19.6825 7.64966 18.7499 8.58436 18.7499 9.73738V11.8248H20.8331C21.3862 11.8242 21.9164 11.604 22.3071 11.2125C22.6979 10.8211 22.9171 10.2905 22.9166 9.73738ZM17.3611 9.73738V4.17069C17.3616 3.61761 17.1423 3.08699 16.7516 2.69554C16.3609 2.30409 15.8307 2.08387 15.2776 2.08331C14.127 2.08331 13.1944 3.01801 13.1944 4.17069V9.73703C13.1944 10.8904 14.127 11.8251 15.2776 11.8251C15.8307 11.8246 16.3609 11.6043 16.7516 11.2129C17.1423 10.8214 17.3616 10.2905 17.3611 9.73738Z" stroke="white" stroke-width="2.07951" stroke-linejoin="round"/>
<path d="M15.2776 22.9578C15.8307 22.9572 16.3609 22.737 16.7516 22.3456C17.1423 21.9541 17.3616 21.4235 17.3611 20.8704C17.3616 20.3173 17.1423 19.7867 16.7516 19.3953C16.3609 19.0038 15.8307 18.7836 15.2776 18.783H13.1944V20.8704C13.1944 22.0231 14.127 22.9578 15.2776 22.9578ZM15.2776 17.3915H20.8334C21.9837 17.3915 22.9166 16.4568 22.9166 15.3037C22.9171 14.7506 22.6979 14.22 22.3071 13.8286C21.9164 13.4371 21.3862 13.2169 20.8331 13.2163H15.2776C14.127 13.2163 13.1944 14.151 13.1944 15.3037C13.1941 15.5776 13.2478 15.8488 13.3523 16.1019C13.4568 16.355 13.6102 16.585 13.8037 16.7789C13.9971 16.9727 14.2268 17.1265 14.4797 17.2316C14.7326 17.3366 15.0037 17.3912 15.2776 17.3915Z" stroke="white" stroke-width="2.07951" stroke-linejoin="round"/>
<path d="M2.08331 15.3037C2.08304 15.5776 2.1367 15.8488 2.24125 16.1019C2.34579 16.355 2.49916 16.585 2.6926 16.7789C2.88604 16.9727 3.11577 17.1265 3.36866 17.2316C3.62156 17.3366 3.89266 17.3908 4.16651 17.3911C4.71959 17.3906 5.24981 17.1703 5.64054 16.7789C6.03127 16.3874 6.25051 15.8568 6.25005 15.3037V13.2163H4.16651C3.01592 13.2163 2.08331 14.151 2.08331 15.3037ZM7.63884 15.3037V20.8701C7.63884 22.0231 8.57145 22.9578 9.72204 22.9578C10.2751 22.9572 10.8053 22.737 11.1961 22.3456C11.5868 21.9541 11.806 21.4235 11.8056 20.8704V15.3037C11.8059 15.0299 11.7522 14.7586 11.6476 14.5055C11.5431 14.2524 11.3896 14.0223 11.1962 13.8285C11.0027 13.6346 10.7729 13.4808 10.52 13.3758C10.2671 13.2708 9.99591 13.2166 9.72204 13.2163C8.57145 13.2163 7.63884 14.151 7.63884 15.3037Z" stroke="white" stroke-width="2.07951" stroke-linejoin="round"/>
</svg>
