<svg width="25" height="25" viewBox="0 0 25 25" fill="none" xmlns="http://www.w3.org/2000/svg">
<rect width="25" height="25" rx="12.5" fill="black"/>
<path d="M22.9166 12.5C22.9166 6.74701 18.2529 2.08331 12.5 2.08331C6.74701 2.08331 2.08331 6.74701 2.08331 12.5C2.08331 17.6992 5.89254 22.0086 10.8724 22.7901V15.511H8.22752V12.5H10.8724V10.2051C10.8724 7.59438 12.4275 6.15232 14.8069 6.15232C15.9466 6.15232 17.1386 6.35577 17.1386 6.35577V8.91925H15.8251C14.5311 8.91925 14.1276 9.72221 14.1276 10.546V12.5H17.0166L16.5547 15.511H14.1276V22.7901C19.1074 22.0086 22.9166 17.6992 22.9166 12.5Z" stroke="white" stroke-width="2.07951" stroke-linejoin="round"/>
</svg>
