<svg width="96px" height="96px" viewBox="-0.04 0 96 96" xmlns="http://www.w3.org/2000/svg">
  <g id="Group_7" data-name="Group 7" transform="translate(-111 -696)">
    <rect id="Rectangle_54" data-name="Rectangle 54" width="14" height="36" transform="translate(181 707)" fill="#5aade0" stroke="#2d4d68" stroke-linecap="round" stroke-linejoin="round" stroke-width="4"/>
    <path id="Path_54" data-name="Path 54" d="M159,709l-36,33v48h72V741Z" fill="#5aade0" stroke="#2d4d68" stroke-linecap="round" stroke-linejoin="round" stroke-width="4"/>
    <rect id="Rectangle_55" data-name="Rectangle 55" width="22" height="25" transform="translate(148 765)" fill="#ebf4f7" stroke="#2d4d68" stroke-linecap="round" stroke-linejoin="round" stroke-width="4"/>
    <rect id="Rectangle_60" data-name="Rectangle 60" width="30" height="10" rx="5" transform="translate(144 755)" fill="#fff" stroke="#2d4d68" stroke-linejoin="round" stroke-width="4"/>
    <rect id="Rectangle_61" data-name="Rectangle 61" width="22" height="10" rx="5" transform="translate(177 698)" fill="#fff" stroke="#2d4d68" stroke-linejoin="round" stroke-width="4"/>
    <path id="Path_58" data-name="Path 58" d="M202,736.858l-35.929-35.929a10,10,0,0,0-14.142,0L116,736.858a9.978,9.978,0,0,0-2.878,8.067A5.009,5.009,0,0,0,113,746v20a5,5,0,0,0,10,0v-8a5,5,0,0,0,10,0v-9.858l26-26L187.858,751A10,10,0,0,0,202,736.858Z" fill="#fff" stroke="#2d4d68" stroke-linejoin="round" stroke-width="4"/>
    <line id="Line_15" data-name="Line 15" y1="7" transform="translate(123 751)" fill="#fff" stroke="#2d4d68" stroke-linecap="round" stroke-linejoin="round" stroke-width="4"/>
  </g>
</svg>
