<?xml version="1.0" ?><svg width="512px" height="512px" viewBox="0 0 512 512" baseProfile="tiny" overflow="visible" version="1.1" xml:space="preserve" xmlns="http://www.w3.org/2000/svg" xmlns:xlink="http://www.w3.org/1999/xlink"><g id="Layer_1"/><g id="Layer_2"/><g id="Layer_3"/><g id="Layer_4"/><g id="Layer_5"/><g id="Layer_6"/><g id="Layer_7"/><g id="Layer_8"/><g id="Layer_9"/><g id="Layer_10"/><g id="Layer_11"/><g id="Layer_12"/><g id="Layer_13"/><g id="Layer_14"/><g id="Layer_15"/><g id="Layer_16"/><g id="Layer_17"/><g id="Layer_18"/><g id="Layer_19"/><g id="Layer_20"/><g id="Layer_21"/><g id="Layer_22"/><g id="Layer_23"/><g id="Layer_24"/><g id="Layer_25"/><g id="Layer_26"/><g id="Layer_27"/><g id="Layer_28"/><g id="Layer_29"/><g id="Layer_30"/><g id="Layer_31"/><g id="Layer_32"/><g id="Layer_33"/><g id="Layer_34"/><g id="Layer_35"/><g id="Layer_36"/><g id="Layer_37"/><g id="Layer_38"/><g id="Layer_39"/><g id="Layer_40"/><g id="Layer_41"/><g id="Layer_42"/><g id="Layer_43"/><g id="Layer_44"/><g id="Layer_45"/><g id="Layer_46"/><g id="Layer_47"/><g id="Layer_48"/><g id="Layer_49"/><g id="Layer_50"><g><g><path d="M335.749,421.347l-226.027,80.758c-3.271,1.169-6.712-1.256-6.712-4.728V93.28     c0-2.122,1.334-4.014,3.332-4.728L332.368,7.794c3.271-1.169,6.712,1.256,6.712,4.728v404.097     C339.081,418.74,337.747,420.633,335.749,421.347z" fill="#FFAAA1"/><path d="M332.368,7.794l-13.288,4.748v404.077c0,2.122-1.334,4.014-3.332,4.728l-212.739,76.011v0.019     c0,3.473,3.441,5.897,6.713,4.728l226.027-80.758c1.998-0.714,3.332-2.607,3.332-4.728V12.522     C339.081,9.049,335.639,6.625,332.368,7.794z" fill="#FF938A"/><path d="M403.991,504.504H108.009c-2.761,0-5-2.239-5-5V94.742c0-2.761,2.239-5,5-5h295.982c2.761,0,5,2.239,5,5     v404.761C408.991,502.265,406.752,504.504,403.991,504.504z" fill="#FFAAA1"/><path d="M403.991,89.742h-20c2.761,0,5,2.239,5,5v404.761c0,2.762-2.239,5-5,5h20c2.761,0,5-2.239,5-5V94.742     C408.991,91.981,406.752,89.742,403.991,89.742z" fill="#FF938A"/></g><g><g><path d="M256,410.004c-4.143,0-7.5-3.358-7.5-7.5v-63.339c0-4.142,3.357-7.5,7.5-7.5s7.5,3.358,7.5,7.5v63.339      C263.5,406.646,260.143,410.004,256,410.004z" fill="#FF9000"/></g><path d="M335.617,307.216l25.596-21.275c3.268-2.716,1.895-8.009-2.281-8.796l-32.711-6.158     c-2.4-0.452-4.127-2.564-4.092-5.006l0.173-12.16c0.06-4.259-4.877-6.654-8.186-3.971l-16.166,13.112     c-4.12,3.342-9.935-1.156-7.734-5.983l8.694-19.063c1.768-3.876-1.791-8.053-5.899-6.925l-11.73,3.219     c-2.355,0.646-4.834-0.495-5.874-2.704l-14.173-30.112c-1.809-3.844-7.279-3.844-9.088,0l-14.173,30.111     c-1.04,2.209-3.519,3.35-5.874,2.704l-11.73-3.219c-4.108-1.128-7.667,3.05-5.899,6.925l9.504,20.837     c2.201,4.827-3.613,9.325-7.734,5.983l-18.354-14.887c-3.309-2.684-8.246-0.289-8.186,3.971l0.172,12.16     c0.035,2.441-1.692,4.554-4.092,5.006l-32.711,6.158c-4.176,0.786-5.549,6.08-2.281,8.796l25.596,21.275     c1.878,1.561,2.361,4.246,1.144,6.363l-6.061,10.544c-2.123,3.693,1.028,8.185,5.224,7.447l32.708-5.752     c4.128-0.726,7.276,3.624,5.296,7.318l-5.725,10.678c-2.099,3.914,1.545,8.425,5.814,7.198l39.83-11.449     c0.907-0.261,1.869-0.261,2.776,0l39.83,11.449c4.269,1.227,7.913-3.284,5.814-7.198l-5.725-10.678     c-1.98-3.693,1.169-8.043,5.296-7.318l32.708,5.752c4.196,0.738,7.347-3.754,5.224-7.447l-6.061-10.544     C333.257,311.463,333.739,308.777,335.617,307.216z" fill="#FF9000"/><g><path d="M206.239,264.738c2.845,2.307,6.494,0.876,7.758-1.818l-16.112-13.068      c-2.699-2.189-6.479-0.998-7.749,1.826L206.239,264.738z" fill="#F88000"/><path d="M222.098,234.212c1.822,0.5,3.71-0.078,4.956-1.384l-6.686-1.835c-1.948-0.535-3.765,0.131-4.956,1.384      L222.098,234.212z" fill="#F88000"/><path d="M288.909,237.918l-8.694,19.063c-2.201,4.826,3.613,9.325,7.734,5.983l2.241-1.818      c-0.567-1.209-0.657-2.67,0.025-4.165l8.694-19.063c1.768-3.876-1.791-8.053-5.899-6.925l-5.044,1.384      C289.288,233.766,289.839,235.88,288.909,237.918z" fill="#F88000"/><path d="M265.406,231.508c1.04,2.209,3.519,3.35,5.874,2.704l5.044-1.384c-0.365-0.382-0.682-0.819-0.918-1.32      l-14.173-30.112c-1.81-3.844-7.279-3.844-9.089,0l-0.456,0.968L265.406,231.508z" fill="#F88000"/><path d="M247.388,339.564c-0.907-0.261-1.869-0.261-2.775,0l-34.892,10.03c1.199,1.299,3.057,1.996,5.062,1.419      L251,340.602L247.388,339.564z" fill="#F88000"/><path d="M358.932,277.146l-32.711-6.158c-2.4-0.452-4.127-2.564-4.093-5.006l0.173-12.16      c0.061-4.259-4.877-6.654-8.186-3.971l-2.251,1.826c0.287,0.639,0.448,1.359,0.437,2.145l-0.173,12.16      c-0.034,2.441,1.692,4.554,4.093,5.006l32.711,6.158c4.176,0.786,5.549,6.079,2.282,8.796l-25.596,21.275      c-1.878,1.561-2.361,4.246-1.144,6.363l6.061,10.544c1.33,2.314,0.589,4.941-1.182,6.4l5.958,1.048      c4.196,0.738,7.347-3.754,5.224-7.447l-6.061-10.544c-1.217-2.117-0.734-4.802,1.144-6.363l25.596-21.275      C364.481,283.225,363.108,277.932,358.932,277.146z" fill="#F88000"/><path d="M297.307,333.137c-1.231-2.295-0.479-4.843,1.257-6.269l-5.961-1.048      c-4.128-0.726-7.276,3.624-5.296,7.317l5.725,10.678c1.113,2.076,0.602,4.312-0.752,5.778l4.938,1.419      c4.269,1.227,7.913-3.284,5.814-7.198L297.307,333.137z" fill="#F88000"/><path d="M199.397,325.82l-26.75,4.704c1.055,0.869,2.475,1.323,4.042,1.048l26.747-4.703      C202.38,325.999,200.959,325.545,199.397,325.82z" fill="#F88000"/></g></g><path d="M405.991,160.515H106.009c-1.657,0-3-1.343-3-3V92.742c0-1.657,1.343-3,3-3h299.982c1.657,0,3,1.343,3,3    v64.772C408.991,159.172,407.648,160.515,405.991,160.515z" fill="#F54432"/><path d="M405.991,504.504H106.009c-1.657,0-3-1.343-3-3v-64.772c0-1.657,1.343-3,3-3h299.982c1.657,0,3,1.343,3,3    v64.772C408.991,503.16,407.648,504.504,405.991,504.504z" fill="#F54432"/><path d="M405.991,89.742h-20c1.657,0,3,1.343,3,3v64.772c0,1.657-1.343,3-3,3h20c1.657,0,3-1.343,3-3V92.742    C408.991,91.086,407.648,89.742,405.991,89.742z" fill="#E83826"/><path d="M405.991,433.731h-20c1.657,0,3,1.343,3,3v64.772c0,1.657-1.343,3-3,3h20c1.657,0,3-1.343,3-3v-64.772    C408.991,435.074,407.648,433.731,405.991,433.731z" fill="#E83826"/></g><g><g><g><path d="M103.002,504.874c-4.143,0-7.5-3.358-7.5-7.5V93.277c0-3.271,1.322-6.484,3.628-8.815      c1.275-1.298,2.891-2.332,4.651-2.969L329.842,0.733c3.825-1.369,8.097-0.79,11.423,1.552c3.325,2.342,5.311,6.17,5.311,10.241      v77.212c0,4.142-3.357,7.5-7.5,7.5s-7.5-3.358-7.5-7.5V16.043L110.502,95.022v402.351      C110.502,501.516,107.145,504.874,103.002,504.874z"/></g><g><path d="M403.987,512.004H108.002c-6.893,0-12.5-5.608-12.5-12.5V94.738c0-6.893,5.607-12.5,12.5-12.5h295.985      c6.893,0,12.5,5.607,12.5,12.5v404.766C416.487,506.396,410.88,512.004,403.987,512.004z M110.502,497.003h290.985V97.238      H110.502V497.003z M403.987,97.238h0.01H403.987z M213.371,358.711c-3.716,0-7.303-1.659-9.721-4.651      c-3.173-3.925-3.683-9.339-1.298-13.79l3.313-6.179l-27.682,4.866c-4.841,0.854-9.603-1.117-12.424-5.141      c-2.822-4.025-3.05-9.174-0.596-13.437l5.015-8.722l-23.991-19.95c-3.773-3.138-5.351-8.036-4.115-12.782      c1.234-4.743,4.995-8.248,9.816-9.147l30.648-5.772l-0.141-10.081c-0.07-4.908,2.631-9.291,7.048-11.436      c4.423-2.148,9.542-1.56,13.361,1.533l10.159,8.244l-5.123-11.233c-2.037-4.467-1.328-9.565,1.851-13.304      c3.182-3.744,8.105-5.266,12.846-3.974l9.732,2.671l13.28-28.219c2.086-4.437,6.429-7.194,11.332-7.194      c4.902,0,9.244,2.757,11.332,7.196l13.288,28.217l9.719-2.668c4.758-1.296,9.678,0.227,12.86,3.97      c3.179,3.739,3.888,8.838,1.851,13.304l-4.317,9.458l7.969-6.464c3.823-3.098,8.941-3.687,13.365-1.537      c4.417,2.146,7.118,6.528,7.048,11.438l-0.141,10.079l10.809,2.034c4.071,0.766,6.75,4.687,5.984,8.757      c-0.768,4.072-4.693,6.751-8.758,5.984l-12.861-2.42c-6.011-1.127-10.303-6.387-10.202-12.504l0.096-6.849l-12.052,9.777      c-4.541,3.682-10.939,3.753-15.559,0.178c-4.617-3.572-6.151-9.778-3.732-15.091l6.503-14.247l-6.622,1.818      c-5.881,1.618-12.042-1.214-14.642-6.74l-11.939-25.35l-11.93,25.35c-2.602,5.532-8.762,8.364-14.655,6.736l-6.61-1.815      l7.304,16.014c2.423,5.32,0.888,11.53-3.732,15.105c-4.617,3.573-11.009,3.499-15.544-0.176l-14.244-11.558l0.096,6.867      c0.101,6.099-4.191,11.359-10.206,12.487l-27.524,5.183l21.536,17.909c4.681,3.883,5.89,10.549,2.868,15.844l-3.432,5.968      l27.49-4.833c4.751-0.84,9.467,1.066,12.302,4.977c2.839,3.916,3.184,9,0.9,13.268l-2.949,5.501l34.184-9.827      c2.252-0.651,4.661-0.654,6.935,0.003l34.173,9.824l-2.946-5.495c-2.286-4.274-1.941-9.359,0.897-13.275      c2.834-3.909,7.549-5.817,12.309-4.975l27.482,4.831l-3.419-5.947c-3.033-5.315-1.824-11.981,2.863-15.87l3.45-2.872      c3.183-2.65,7.912-2.219,10.563,0.966c2.65,3.183,2.218,7.912-0.965,10.563l-1.864,1.552l3.567,6.207      c1.557,2.707,1.236,5.979-0.554,8.31c0.052,0.067,0.103,0.135,0.151,0.205c2.41,3.369,1.633,8.053-1.736,10.464      c-2.727,1.951-6.071,2.703-9.425,2.118l-27.69-4.868l3.312,6.176c2.386,4.455,1.876,9.868-1.297,13.793      c-3.17,3.923-8.357,5.554-13.2,4.157l-39.144-11.252l-39.148,11.254C215.697,358.55,214.527,358.711,213.371,358.711z       M340.421,312.98l-0.006,0.005C340.417,312.983,340.419,312.982,340.421,312.98z M182.365,266.092c0,0.004,0,0.007,0,0.011      V266.092z M329.625,266.074v0.011C329.625,266.081,329.625,266.078,329.625,266.074z"/></g></g><g><g><path d="M339.082,338.242c-2.337,0-4.64-1.089-6.105-3.135c-1.956-2.732-1.814-6.332,0.107-8.88l-0.51-0.885      c-2.065-3.59-0.83-8.175,2.76-10.241c3.592-2.066,8.176-0.83,10.241,2.76l1.45,2.52c3.223,5.619,1.68,12.691-3.584,16.459      C342.119,337.786,340.593,338.242,339.082,338.242z M334.02,327.853h0.01H334.02z M339.08,311.841      c-2.151,0-4.287-0.921-5.771-2.705c-2.648-3.185-2.214-7.914,0.972-10.562l18.075-15.029l-14.669-2.764      c-4.07-0.767-6.749-4.688-5.982-8.759c0.768-4.071,4.689-6.751,8.759-5.982l19.85,3.74c4.808,0.897,8.568,4.402,9.803,9.145      c1.235,4.746-0.342,9.644-4.115,12.782l-22.131,18.401C342.469,311.272,340.77,311.841,339.08,311.841z M357.544,284.522      c0.002,0,0.004,0.001,0.006,0.001L357.544,284.522z"/></g><g><path d="M255.995,410.004c-4.143,0-7.5-3.358-7.5-7.5v-63.339c0-4.142,3.357-7.5,7.5-7.5s7.5,3.358,7.5,7.5v63.339      C263.495,406.646,260.137,410.004,255.995,410.004z"/></g></g><g><path d="M408.985,168.015H103.004c-4.143,0-7.5-3.358-7.5-7.5V89.742c0-4.142,3.357-7.5,7.5-7.5h305.981     c4.143,0,7.5,3.358,7.5,7.5v70.772C416.485,164.657,413.128,168.015,408.985,168.015z M110.504,153.015h290.981V97.242H110.504     V153.015z"/></g><g><path d="M408.985,512.004H103.004c-4.143,0-7.5-3.358-7.5-7.5v-70.772c0-4.142,3.357-7.5,7.5-7.5h305.981     c4.143,0,7.5,3.358,7.5,7.5v70.772C416.485,508.646,413.128,512.004,408.985,512.004z M110.504,497.003h290.981v-55.772H110.504     V497.003z"/></g></g></g></svg>