<?xml version="1.0" encoding="utf-8"?>
<!-- Generator: Adobe Illustrator 19.0.0, SVG Export Plug-In . SVG Version: 6.00 Build 0)  -->
<svg version="1.1" xmlns="http://www.w3.org/2000/svg" xmlns:xlink="http://www.w3.org/1999/xlink" x="0px" y="0px"
	 viewBox="0 0 227.2 168.8" style="enable-background:new 0 0 227.2 168.8;" xml:space="preserve">
<style type="text/css">
	.st0{fill:#FFE3CC;}
	.st1{fill:#030E00;}
	.st2{fill:none;stroke:#D60541;stroke-width:2;stroke-linecap:round;stroke-miterlimit:10;}
	.st3{fill:none;stroke:#000000;stroke-width:2;stroke-linecap:round;stroke-miterlimit:10;}
	.st4{fill:#FF9292;}
	.st5{fill:#F93F4D;}
	.st6{fill:#FFFFFF;}
</style>
<g id="Layer_3">
	<path id="XMLID_4_" class="st0" d="M217.3,107.2c0.4-0.8,6.2,4.4,6.4,4.7c4.8,6.1,4.6,13.8-0.3,19.7c-4.8,5.8-12.1,7.5-19.3,6.1
		C204.1,137.8,217.3,107.3,217.3,107.2z"/>
	<path id="XMLID_5_" class="st0" d="M61,111.2c-0.4-0.8-6.2,4.4-6.4,4.7c-4.8,6.1-4.6,13.8,0.3,19.7c4.8,5.8,12.1,7.5,19.3,6.1
		C74.2,141.8,61.1,111.3,61,111.2z"/>
</g>
<g id="Layer_2">
	<path id="XMLID_54_" class="st0" d="M189.9,98.5c-5.3,7.1-11.4,4.1-11.4,4.1c-9.9-2-5.9-19.1-5.9-19.1c-4.8,13.2-11.2,14-11.2,14
		c-8.9-0.3-10.9-14-10.9-14c-3.1,8.4-8.9,12-8.9,12c-10.7,3.1-8.9-12-8.9-12L124.8,94c-12.7,15-17.8-3.8-17.8-3.8
		c0.2,0.8-1.5,3.6-1.8,4.4c-0.8,1.9-1.8,3.7-3.1,5.4c-2.5,3.4-6.4,7.6-11.1,6.4c-0.7-0.2-6.2-3.6-5.3-4.7
		c-16.2,20.6-5,44.4-3.1,48.1c14.6,11.9,33.8,19.2,54.8,19.2c23.8,0,45.3-9.3,60.5-24.2C206.5,119.4,189.9,98.5,189.9,98.5z"/>
	<path id="XMLID_50_" class="st1" d="M127.9,20.4c0,0-10.4-15.8-1.9-19.4c0,0,7.3-3.8,14.2,5.2l9,17.2L127.9,20.4z"/>
	<path id="XMLID_46_" class="st1" d="M157.9,23.9c0,0,16.5-12,11.3-19c0,0-4.1-6.8-14.3-0.5l-16,13.9L157.9,23.9z"/>
	<circle id="XMLID_45_" class="st1" cx="106.9" cy="121.1" r="6"/>
	<circle id="XMLID_44_" class="st1" cx="168.9" cy="121.1" r="6"/>
	<path id="XMLID_43_" class="st2" d="M127.9,146.5c0,0,10.8,12.7,22.7,0"/>
	<path id="XMLID_42_" class="st3" d="M134.5,132.5c-0.2-2.4,2.3-4.5,4.7-4.2c2.4,0.3,4.2,2.6,4.4,5"/>
	<ellipse id="XMLID_41_" class="st4" cx="191.6" cy="130" rx="12.5" ry="3.3"/>
	<ellipse id="XMLID_40_" class="st4" cx="84.6" cy="130" rx="12.5" ry="3.3"/>
</g>
<g id="Layer_4">
	<path id="XMLID_24_" class="st1" d="M220.5,91.8c0-42.6-37.2-77.1-83.1-77.1S54.3,49.2,54.3,91.8c0,23.1,11,43.8,28.3,57.9
		c-1.9-3.7-13.1-27.5,3.1-48.1c-0.8,1.1,4.7,4.5,5.3,4.7c4.7,1.3,8.7-2.9,11.1-6.4c1.2-1.7,2.2-3.5,3.1-5.4c0.3-0.8,2-3.5,1.8-4.4
		c0,0,5.1,18.8,17.8,3.8l7.9-10.4c0,0-1.8,15,8.9,12c0,0,5.9-3.6,8.9-12c0,0,2,13.7,10.9,14c0,0,6.4-0.8,11.2-14
		c0,0-4.1,17,5.9,19.1c0,0,6.1,3.1,11.4-4.1c0,0,16.5,20.9,8,46.1C211.9,130.8,220.5,112.2,220.5,91.8z"/>
	<path id="XMLID_8_" class="st5" d="M195.7,147.1c-4.2-2.9-7.2,1.3-7.2,1.3s-3-4.3-7.2-1.3c0,0-3.3,2.3-1.3,6.6
		c0.6,1.2,1.6,2.1,2.6,3.1c0.8,0.8,1.6,1.6,2.5,2.5c1.2,1.2,2.3,2.3,3.5,3.5c1.2-1.2,2.3-2.3,3.4-3.5c0.8-0.8,1.6-1.6,2.5-2.5
		c0.9-1,2-1.9,2.6-3.1C198.9,149.5,195.7,147.1,195.7,147.1z"/>
	<g id="Layer_3_1_">
		<path id="XMLID_62_" class="st6" d="M54.3,40c-5.6-5.2-3.9-13.4-3.9-13.4l0,0c0.2-0.9,0.3-1.8,0.3-2.7c0-10.3-11.2-18.7-25.1-18.7
			S0.6,13.6,0.6,23.9c0,10.3,11.2,18.7,25.1,18.7c5.2,0,10.1-1.1,14.1-3.2c8.1-1.2,14.1,1.1,14.1,1.1C54.4,40.7,54.3,40,54.3,40z"/>
		<g id="XMLID_55_">
			<path id="XMLID_61_" d="M23.1,22.8c-0.2,0-0.3,0.1-0.6,0.2l-2.7,1.7v5.4c0,0.7-0.1,1.2-0.9,1.2c-0.8,0-0.9-0.7-0.9-1.2V18.5
				c0-0.7,0.1-1.2,0.9-1.2c0.8,0,0.9,0.7,0.9,1.2v4.2l1.5-1c0.5-0.3,1-0.6,1.7-0.6h1.2c0.3,0,1,0,1.8,0.7c0.8,0.7,0.8,1.5,0.8,2.5
				l0.2,5.9c0,0.7-0.1,1.4-0.9,1.4c-0.8,0-0.9-0.7-0.9-1.2L25,24.5c0-0.9,0-1.6-1-1.6h-0.9V22.8z"/>
			<path id="XMLID_56_" d="M33,29.5h1.4c0.6,0,1.2,0.1,1.2,0.9c0,0.8-0.7,0.9-1.2,0.9h-4.8c-0.6,0-1.2-0.1-1.2-0.9
				c0-0.8,0.7-0.9,1.2-0.9h1.5v-6.7h-1.5c-0.6,0-1.2-0.1-1.2-0.9s0.7-0.9,1.2-0.9h1.9c1,0,1.4,0.2,1.4,1.2v7.3H33z M30.2,17.1
				c0-0.7,0.3-0.9,0.9-0.9h1c0.5,0,0.9,0.2,0.9,0.9V18c0,0.7-0.3,0.9-0.9,0.9h-1c-0.5,0-0.9-0.2-0.9-0.9V17.1z"/>
		</g>
	</g>
</g>
</svg>
