<svg width="96px" height="96px" viewBox="0 -6 96 96" xmlns="http://www.w3.org/2000/svg">
  <g id="Group_9" data-name="Group 9" transform="translate(-434 -708)">
    <path id="Path_51" data-name="Path 51" d="M449,730v19a15,15,0,0,0,9,13.744V780a10,10,0,0,0,10,10h28a10,10,0,0,0,10-10V762.744A15,15,0,0,0,515,749V730Z" fill="#ffeecd" stroke="#2d4d68" stroke-linejoin="round" stroke-width="4"/>
    <path id="Path_52" data-name="Path 52" d="M459,764h-1v16a10,10,0,0,0,10,10h1V774A10,10,0,0,0,459,764Z" fill="#c17a61" stroke="#2d4d68" stroke-linejoin="round" stroke-width="4"/>
    <path id="Path_53" data-name="Path 53" d="M505,764h1v16a10,10,0,0,1-10,10h-1V774A10,10,0,0,1,505,764Z" fill="#c17a61" stroke="#2d4d68" stroke-linejoin="round" stroke-width="4"/>
    <circle id="Ellipse_12" data-name="Ellipse 12" cx="11" cy="11" r="11" transform="translate(482 731)" fill="#fff" stroke="#2d4d68" stroke-linecap="round" stroke-linejoin="round" stroke-width="4"/>
    <circle id="Ellipse_13" data-name="Ellipse 13" cx="11" cy="11" r="11" transform="translate(460 731)" fill="#fff" stroke="#2d4d68" stroke-linecap="round" stroke-linejoin="round" stroke-width="4"/>
    <path id="Path_66" data-name="Path 66" d="M523,710H504v2a9.973,9.973,0,0,1-4.016,8l.016,0h-.018a9.942,9.942,0,0,1-5.64,1.983l-.015.017H469.673l-.015-.017a9.942,9.942,0,0,1-5.64-1.983H464l.016,0A9.973,9.973,0,0,1,460,712v-2H441a5,5,0,0,0,0,10h6a5,5,0,0,0,0,10h11.222a26.6,26.6,0,0,0,3.278,0A15.5,15.5,0,0,1,477,745.5c0,.506-.028,1.006-.076,1.5H477v13.7a5,5,0,0,0,10,0V747h.076c-.048-.494-.076-.994-.076-1.5A15.5,15.5,0,0,1,502.5,730a26.6,26.6,0,0,0,3.278,0H517a5,5,0,0,0,0-10h6a5,5,0,0,0,0-10Z" fill="#9b8772" stroke="#2d4d68" stroke-linejoin="round" stroke-width="4"/>
    <rect id="Rectangle_64" data-name="Rectangle 64" width="10" height="21" rx="5" transform="translate(477 744)" fill="#fbb141" stroke="#2d4d68" stroke-linejoin="round" stroke-width="4"/>
  </g>
</svg>
