<svg xmlns="http://www.w3.org/2000/svg" viewBox="0 0 90 90"><defs><style>.cls-1{fill:#eaa74e;}.cls-2{fill:#edb469;}.cls-3{fill:#f47cc3;}.cls-4{fill:#ff99d6;}.cls-5{fill:#d45c9e;}.cls-6{fill:#ffce54;}.cls-7{fill:#27aae1;}.cls-8{fill:#ef4136;}</style></defs><title>donut</title><g id="donut"><g id="donut-2" data-name="donut"><path class="cls-1" d="M87.42,44.14A42.46,42.46,0,0,0,2.51,45c0,.18,0,.36,0,.53v0c0,.13,0,.27,0,.4,0,.32,0,.65,0,1s0,.63.07,1,0,.63.07.94h0c0,.4.06.8.11,1.2a42.46,42.46,0,0,0,83.74,3.57,44.64,44.64,0,0,0,.79-6c0-.49,0-1,0-1.47h0c0-.18.06-.36.06-.54v0c0-.17,0-.35,0-.55S87.43,44.42,87.42,44.14ZM45,63.15A18.14,18.14,0,0,1,26.85,45c0-.3,0-.6,0-.9A18.13,18.13,0,1,1,45,63.15Z"/><path class="cls-2" d="M81.18,44.46v-.2A36.19,36.19,0,0,0,8.79,45v.62l0,.21c0,.27,0,.54,0,.8l0,.72L9,48.69c0,.2,0,.4.06.62a36.2,36.2,0,0,0,71.39,3,35.58,35.58,0,0,0,.67-5.12c0-.38,0-.76,0-1.14,0,0,0-.57,0-.67v-1ZM45,69.4A24.42,24.42,0,0,1,20.6,45c0-.39,0-.79,0-1.18A24.39,24.39,0,1,1,45,69.4Z"/><path class="cls-3" d="M87.43,45.55V45c0-.29,0-.58,0-.86A42.44,42.44,0,0,0,2.54,45v.57a4,4,0,0,0,0,.4c0,.32,0,.65,0,1s0,.63.06,1,0,.63.07.94a10.61,10.61,0,0,0,7.59,2,1.86,1.86,0,0,1,.24.92V62A2.74,2.74,0,0,0,16,62V60.47h.06V57.24a2,2,0,0,1,3.91,0l0,6.34a2.72,2.72,0,0,0,2.71,2.71h0a2.72,2.72,0,0,0,2.72-2.71V43.93c.5-.34,1-.68,1.52-1,0-.28.07-.56.11-.83.1-.56.21-1.11.35-1.64.07-.28.15-.54.24-.8s.17-.53.26-.79a7.69,7.69,0,0,1,.29-.77,6.6,6.6,0,0,1,.32-.73v0c.07-.16.14-.31.22-.47s.14-.25.2-.37l.28-.5.08-.15c.11-.17.21-.33.31-.49l.14-.22.42-.6c.13-.2.28-.4.42-.58l.17-.2.4-.5A18.81,18.81,0,0,1,34.78,30l.06,0q.65-.44,1.34-.81c.24-.14.47-.26.72-.39l.74-.34a5.11,5.11,0,0,1,.62-.26,9.23,9.23,0,0,1,1.06-.39,4.86,4.86,0,0,1,.47-.15l.46-.13.32-.08.45-.1a4.17,4.17,0,0,1,.51-.1c.24-.06.47-.1.71-.13l.88-.12h0l.58,0c.42,0,.84,0,1.26,0l.93,0c.36,0,.74,0,1.1.1l.71.09h.07l.69.13a2.89,2.89,0,0,1,.35.08l.57.12.24.06.46.13c.19,0,.37.11.57.17a15.58,15.58,0,0,1,1.53.58c.48.21,1,.44,1.42.69h0c.47.26.92.52,1.35.81a18.5,18.5,0,0,1,3,2.52A18.26,18.26,0,0,1,62.9,42.3h0a29,29,0,0,1,5.84,1.82V53a2.32,2.32,0,0,0,2.32,2.34h0A2.33,2.33,0,0,0,73.45,53V49.83a2.31,2.31,0,0,1,1.79-2.1,2.08,2.08,0,0,1,.5-.06h.06A2.27,2.27,0,0,1,77.86,49a2.22,2.22,0,0,1,.26,1v2.84h0v7.43a2.31,2.31,0,0,0,2.31,2.33h.06a2.33,2.33,0,0,0,2.32-2.33V58.34h.06V55.5a2.32,2.32,0,0,1,2.32-2.32h0a2.28,2.28,0,0,1,1.35.43,44.64,44.64,0,0,0,.79-6,3.26,3.26,0,0,0,0-.38c0-.37,0-.72,0-1.1v-.58Z"/><path class="cls-4" d="M87.43,45.55V45c0-.29,0-.58,0-.86A42.44,42.44,0,0,0,2.54,45v.57a4,4,0,0,0,0,.4c0,.23,0,.46,0,.68a42.44,42.44,0,0,1,84.83.47c0-.33,0-.66,0-1v-.58Z"/><path class="cls-5" d="M22.74,63.94h0A2.72,2.72,0,0,1,20,61.23l0-6.34a2,2,0,0,0-3.91,0v2.35a2,2,0,0,1,3.91,0l0,6.34a2.72,2.72,0,0,0,2.71,2.71h0a2.72,2.72,0,0,0,2.72-2.71V61.23A2.72,2.72,0,0,1,22.74,63.94Z"/><path class="cls-5" d="M16,59.67a2.74,2.74,0,0,1-5.47,0V49.39a1.88,1.88,0,0,0-.24-.92,10.62,10.62,0,0,1-7.59-2c0-.31,0-.63-.07-.94s0-.63-.06-1,0-.42,0-.62c0,.35,0,.69,0,1v.57a4,4,0,0,0,0,.4c0,.32,0,.65,0,1s0,.63.06,1,0,.63.07.94a10.61,10.61,0,0,0,7.59,2,1.86,1.86,0,0,1,.24.92V62A2.74,2.74,0,0,0,16,62V60.47h.06V58.13H16Z"/><path class="cls-5" d="M71.12,53h0a2.32,2.32,0,0,1-2.32-2.33V53a2.32,2.32,0,0,0,2.32,2.34h0A2.33,2.33,0,0,0,73.45,53V50.63A2.33,2.33,0,0,1,71.12,53Z"/><path class="cls-5" d="M27,40.57s-1,.67-1.52,1v2.34c.5-.34,1-.68,1.52-1,0-.28.07-.56.11-.83.1-.56.21-1.11.35-1.64l0-.13Z"/><path class="cls-5" d="M62.41,40s.41,1.76.49,2.34h0a29,29,0,0,1,5.84,1.82V41.78A34.75,34.75,0,0,0,62.41,40Z"/><path class="cls-5" d="M82.8,57.93a2.32,2.32,0,0,1-2.32,2.32h-.06a2.31,2.31,0,0,1-2.31-2.32v2.34a2.31,2.31,0,0,0,2.31,2.33h.06a2.33,2.33,0,0,0,2.32-2.33V58.34h.06V56H82.8Z"/><path class="cls-5" d="M87.43,45c0-.22,0-.44,0-.67,0,.18,0,.36,0,.54a3.24,3.24,0,0,1,0,.38,44.36,44.36,0,0,1-.79,6,2.35,2.35,0,0,0-1.35-.43h0a2.32,2.32,0,0,0-2.32,2.32V55.5a2.32,2.32,0,0,1,2.32-2.32h0a2.28,2.28,0,0,1,1.35.43,44.64,44.64,0,0,0,.79-6,3.26,3.26,0,0,0,0-.38c0-.37,0-.72,0-1.1V45Z"/><path class="cls-5" d="M78.12,47.65a2.19,2.19,0,0,0-.26-1,2.27,2.27,0,0,0-2.06-1.29h-.06a2,2,0,0,0-.5.06,2.3,2.3,0,0,0-1.79,2.1v2.34a2.31,2.31,0,0,1,1.79-2.1,2.08,2.08,0,0,1,.5-.06h.06A2.27,2.27,0,0,1,77.86,49a2.22,2.22,0,0,1,.26,1Z"/><path class="cls-6" d="M59,24.61a1.08,1.08,0,0,1-1.43.5L52,22.46a1.07,1.07,0,0,1,.93-1.93l5.5,2.66A1.07,1.07,0,0,1,59,24.61Z"/><path class="cls-7" d="M39.1,14a1.09,1.09,0,0,1-.47,1.44l-5.45,2.8a1.07,1.07,0,0,1-1-1.9l5.45-2.8A1.08,1.08,0,0,1,39.1,14Z"/><path class="cls-6" d="M23.18,30.91a1.07,1.07,0,0,1-1.51-.07l-4.12-4.52a1.07,1.07,0,0,1,.07-1.52,1.08,1.08,0,0,1,1.52.07l4.11,4.53A1.06,1.06,0,0,1,23.18,30.91Z"/><path class="cls-8" d="M22.62,17.81a1.06,1.06,0,0,1-.48,1.43l-5.53,2.65A1.07,1.07,0,1,1,15.69,20l5.52-2.65A1.05,1.05,0,0,1,22.62,17.81Z"/><path class="cls-8" d="M14.77,39.23A1.07,1.07,0,0,1,13.7,40.3H7.57a1.07,1.07,0,0,1-1.05-1.07,1.06,1.06,0,0,1,1.05-1.07H13.7A1.06,1.06,0,0,1,14.77,39.23Z"/><path class="cls-8" d="M69.8,22.52A1.08,1.08,0,0,1,70.25,24L67.4,29.38a1.07,1.07,0,1,1-1.89-1L68.35,23A1.08,1.08,0,0,1,69.8,22.52Z"/><path class="cls-7" d="M64.53,11.38a1.06,1.06,0,0,1-1.07,1.07H57.34a1.07,1.07,0,1,1,0-2.14h6.11A1.06,1.06,0,0,1,64.53,11.38Z"/></g></g></svg>