<svg xmlns="http://www.w3.org/2000/svg" viewBox="0 0 90 90"><defs><style>.cls-1{fill:#c4832b;}.cls-2{fill:#eaa74e;}.cls-3{fill:#bc7030;}.cls-4{fill:#82c60a;}.cls-5{fill:#51b224;}.cls-6{fill:#fffbed;}.cls-7{fill:#febc10;}.cls-8{fill:#ffec59;}</style></defs><title>bread-egg</title><g id="bread-egg"><g id="bread-egg-2" data-name="bread-egg"><path class="cls-1" d="M71.2,5.08l-1.28-.61a19.81,19.81,0,0,0-8.62-2,20.13,20.13,0,0,0-15.76,7.68A20.13,20.13,0,0,0,29.78,2.5a19.81,19.81,0,0,0-8.62,2l-1.28.61a20,20,0,0,0-2.41,34.72V84.57A2.93,2.93,0,0,0,20.4,87.5H70.68a2.93,2.93,0,0,0,2.93-2.93V39.79A20,20,0,0,0,71.2,5.08"/><path class="cls-2" d="M69.94,7.72l-1.28-.61a17.07,17.07,0,0,0-22.76,8c-.12.26-.24.52-.35.78-.11-.26-.23-.52-.35-.78a17.07,17.07,0,0,0-22.76-8l-1.28.61a17.06,17.06,0,0,0-.74,30.41V84.57H70.68V38.13a17.06,17.06,0,0,0-.74-30.41"/><path class="cls-3" d="M50.15,55.43a3.66,3.66,0,1,0-6.52,3.22l2.84-3.26Z"/><path class="cls-3" d="M63.31,43.29a3.39,3.39,0,1,0-3-6.06l3,2.65Z"/><path class="cls-4" d="M24.13,59.19A5.2,5.2,0,0,0,23.24,56a5.66,5.66,0,0,0-5.59-2.5,5.54,5.54,0,0,0-4.54,4.66,4.31,4.31,0,0,0-3.12,5v0a2.64,2.64,0,0,0-1,.29,2.8,2.8,0,0,0-1.51,2.66,2.77,2.77,0,0,0,1.2,2.1,3.07,3.07,0,0,0,3.21,4.61h0a4,4,0,0,0,4.62,2.87,4.07,4.07,0,0,0,.9-.29,4.61,4.61,0,0,0,7.52,2.42,3.39,3.39,0,0,0,5.51-2.11c5.95-1,9-3.77,12.94-8.76l.21-.27,0-.06c1.58-2.07-.62-5.62-2.88-4.32-12.06,6.9-12.82-7-12.82-7s-4,.37-3.48,3.9l-.3,0v0"/><path class="cls-5" d="M43.62,66.62l0,.06-.21.27c-3.91,5-7,7.78-12.94,8.76a3.39,3.39,0,0,1-5.51,2.11,4.61,4.61,0,0,1-7.52-2.42,4,4,0,0,1-5-1.45,6,6,0,0,0-.87.56c-1.41,1.09-2.13,2.68-1.68,3.91a2.79,2.79,0,0,0,2.58,1.67,3.13,3.13,0,0,0,0,2.83c1,1.76,3.86,1.83,6.16.26l0,0C20,85,23,85,25.37,83.19a7.17,7.17,0,0,0,.93-.85c1.37,2.08,4.32,2.12,6.53.22a6.38,6.38,0,0,0,1.6-2.11A2.94,2.94,0,0,0,37,79.69a3.81,3.81,0,0,0,1.24-3.52c3.73-2.91,4.84-5.81,5.74-10L44,66a2.56,2.56,0,0,1-.34.62"/><path class="cls-5" d="M24.2,68.79a.64.64,0,0,0-.26,0,14.27,14.27,0,0,1-3.25-1A9.49,9.49,0,0,1,20,62.6a.64.64,0,0,0,0-.27.65.65,0,0,0-1.28,0A10.25,10.25,0,0,0,19,66.84a10.42,10.42,0,0,1-2.45-2.12,3.5,3.5,0,0,1-.14-2.82.64.64,0,0,0,0-.34.65.65,0,0,0-1.26-.1A5.57,5.57,0,0,0,15,64.6a3.68,3.68,0,0,1-1.29-.32.65.65,0,0,0-.58,1.17,4.62,4.62,0,0,0,2.63.41,14.16,14.16,0,0,0,6.76,3.91l.64.15A3.74,3.74,0,0,1,20,72a.65.65,0,0,0,0,1.31,5,5,0,0,0,4.42-3.18,19.31,19.31,0,0,0,5.25,0,.6.6,0,0,0,.19,0A26.3,26.3,0,0,0,34.51,69a3.25,3.25,0,0,1-.91,1.43.65.65,0,0,0,.82,1,4.64,4.64,0,0,0,1.53-3A42.73,42.73,0,0,0,44,64.17,3.35,3.35,0,0,0,43.46,63h0a41.84,41.84,0,0,1-8.34,4.41h0a25.49,25.49,0,0,1-5.19,1.4c-1.71-.6-2.28-3.23-2.29-3.26a.65.65,0,0,0-1.28.26h0A7.45,7.45,0,0,0,27.92,69a16.76,16.76,0,0,1-3.56-.18.6.6,0,0,0-.16-.07"/><ellipse class="cls-6" cx="44.98" cy="44.02" rx="30.4" ry="29.31"/><circle class="cls-7" cx="48.98" cy="40.39" r="15.04"/><path class="cls-8" d="M53.17,51.29a2,2,0,0,1-.69-3.82,7.33,7.33,0,0,0,4.74-6.83,7.23,7.23,0,0,0-1.42-4.32A2,2,0,0,1,59,34a11.16,11.16,0,0,1,2.19,6.66,11.3,11.3,0,0,1-7.3,10.53A2,2,0,0,1,53.17,51.29Z"/></g></g></svg>