<svg xmlns="http://www.w3.org/2000/svg" viewBox="0 0 90 90"><defs><style>.cls-1{fill:#f4e6d0;}.cls-2{fill:#f4e0c1;}.cls-3{fill:#f5c476;}.cls-4{fill:#f0b85f;}.cls-5{fill:#eeaf4b;}</style></defs><title>soft-ice-cream</title><g id="soft-ice-cream"><g id="soft-ice-cream-2" data-name="soft-ice-cream"><path class="cls-1" d="M70.42,33.49c-1.33-3.64-4.36-6.22-7.45-8.1l-.33,0c1-6.07-3.33-9.07-7.54-11.51l-.21.08c-.55-1.57-1.89-3.22-4.58-4.6-3.6-1.83-7.8-3.47-10.51-6.4,2.25,4,4.45,8.47-.88,10.74-2.28,1-5.64.41-7.42,2.46-1.31,1.49-2.42,5-1.78,7.09-4.42.13-6.59,1.67-7.43,4.08-.8,2.25-.71,5.57.66,6.6,0,0-6.21,3.34-3,8.6,3.67,6,15,6.55,21.39,6.63C49.69,49.23,75.1,46.29,70.42,33.49Z"/><path class="cls-2" d="M70.81,33.32c-1.39-3.78-4.51-6.41-7.63-8.32l-.07,0a10.92,10.92,0,0,0,.08-1.31,8.9,8.9,0,0,0-2.54-6.24,22.58,22.58,0,0,0-5.36-3.95.38.38,0,0,0-.16-.06,9.33,9.33,0,0,0-4.66-4.47C46.87,7.11,42.7,5.46,40.09,2.63a.4.4,0,0,0-.56,0,.45.45,0,0,0-.1.58c1.21,2.18,2.37,4.45,2.36,6.27,0,1.53-.7,2.8-3,3.83a18.7,18.7,0,0,1-3.81.8,6,6,0,0,0-3.77,1.77,10.25,10.25,0,0,0-2.08,6,6.35,6.35,0,0,0,.06.9c-.21,0-.41,0-.61,0A6.46,6.46,0,0,0,23,25.42a9.16,9.16,0,0,0-1.56,5.2,7.23,7.23,0,0,0,.32,2.24,3.47,3.47,0,0,0,.47,1,9.78,9.78,0,0,0-1.54,1.24,6.35,6.35,0,0,0-2.11,4.45,6.17,6.17,0,0,0,1,3.23c2,3.18,5.83,4.82,10,5.73a60.83,60.83,0,0,0,11.76,1.1h.41A68.15,68.15,0,0,0,59.47,47a25.6,25.6,0,0,0,8.32-3.95,8.35,8.35,0,0,0,3.62-6.6A9.23,9.23,0,0,0,70.81,33.32Zm-39-16.88A5.27,5.27,0,0,1,35.08,15a18.85,18.85,0,0,0,4-.85c2.54-1.05,3.58-2.77,3.57-4.66A11,11,0,0,0,41.31,4.9c2.64,2,6,3.39,8.81,4.85C52.75,11.1,54,12.66,54.5,14.1a5.31,5.31,0,0,1-.64,4.76c-2.5,3.46-7.44,4.22-12.79,4.21-3.44,0-7-.3-10.17-.3H30a4.84,4.84,0,0,1-.09-.95A9.45,9.45,0,0,1,31.79,16.45ZM29.47,23.6ZM23.69,26a5.62,5.62,0,0,1,4.86-2.37l2.36.06c3.1,0,6.69.3,10.17.3,5.39,0,10.6-.69,13.45-4.56a6.16,6.16,0,0,0,1-4.78A20.36,20.36,0,0,1,60.07,18a8,8,0,0,1,2.29,5.62,10.06,10.06,0,0,1-.13,1.63,1,1,0,0,1,0,.24c-.52,3-3.59,5.56-8.13,7.37a46,46,0,0,1-16.45,2.83,45.53,45.53,0,0,1-14.48-2.21,1.93,1.93,0,0,1-.56-.94,6.47,6.47,0,0,1-.27-1.95A8.14,8.14,0,0,1,23.69,26Zm43.6,16.4c-6.16,4.87-19.64,6.35-25.56,6.34h-.4a59,59,0,0,1-11.61-1.07c-4.05-.88-7.71-2.51-9.43-5.34a5.25,5.25,0,0,1-.85-2.74,5.46,5.46,0,0,1,1.83-3.8,9.82,9.82,0,0,1,1.3-1.06A4.64,4.64,0,0,1,23,34.4h0a46.41,46.41,0,0,0,14.61,2.21,46.75,46.75,0,0,0,16.75-2.88C58.88,31.91,62.2,29.3,63,25.9c3,1.84,5.83,4.34,7.07,7.75a8.22,8.22,0,0,1,.54,2.83C70.57,38.83,69.35,40.74,67.29,42.36Z"/><path class="cls-3" d="M57.12,87.5H32.88a3,3,0,0,1-2.94-2.6L25.84,50.69H64.16L60.05,84.9A3,3,0,0,1,57.12,87.5Z"/><path class="cls-4" d="M60.77,78.6l0,0v.09Zm-13.16,0,3.95,3.95,3.95-3.95-3.95-3.95ZM45,81.23,41,85.17l2.33,2.33H46.6l2.33-2.33ZM34.45,78.6l3.95,3.95,3.95-3.95L38.4,74.65ZM54.19,72,58.14,76l3.4-3.4.12-1-3.52-3.52Zm-2.63-2.63,3.95-3.95-3.95-3.95-3.95,3.95ZM45,68.07,41,72,45,76,48.93,72ZM38.4,69.39l3.95-3.95L38.4,61.49l-3.95,3.95ZM35.77,72l-3.95-3.95-3.48,3.48.13,1.06L31.82,76ZM63.63,55.14l.54-4.46h-1.8l-1.6,1.6Zm-1.54,3.72-3.95-3.95-3.95,3.95,3.95,3.95ZM51.56,56.23l3.95-3.95-1.6-1.6h-4.7l-1.6,1.6Zm-2.63,2.63L45,54.91,41,58.86,45,62.81ZM38.4,56.23l3.95-3.95-1.6-1.6h-4.7l-1.6,1.6Zm-6.58,6.58,3.95-3.95-3.95-3.95-3.95,3.95ZM27.6,50.69H25.84l.53,4.42,2.82-2.82Zm1.59,27.91h0Z"/><path class="cls-5" d="M64.86,50.69H25.14a5.11,5.11,0,0,1-5.2-5l-1.47-7.79H71.53l-1.47,7.79A5.11,5.11,0,0,1,64.86,50.69Z"/></g></g></svg>