<svg xmlns="http://www.w3.org/2000/svg" viewBox="0 0 90 90"><defs><style>.cls-1{fill:#ffd10a;}.cls-2{fill:#ffe540;}.cls-3{fill:#ffce1f;}</style></defs><title>lemon</title><g id="fried-chicken"><g id="lemon"><circle class="cls-1" cx="45" cy="45" r="42.5"/><circle class="cls-2" cx="45" cy="45" r="34.16"/><path class="cls-3" d="M39.75,25l0,0L45,37.44,50.27,25l0,0a5.76,5.76,0,1,0-10.49,0Z"/><path class="cls-3" d="M27.93,35.17v0l12.51,5-5.05-12.5h0a5.76,5.76,0,1,0-7.42,7.42Z"/><path class="cls-3" d="M56.51,27.14h0l-5,12.51,12.5-5.05v0a5.76,5.76,0,1,0-6.1-9.47A5.69,5.69,0,0,0,56.51,27.14Z"/><path class="cls-3" d="M63.27,55.66v0l-12.51-5,5.05,12.5h0A5.76,5.76,0,1,0,65.31,57,5.7,5.7,0,0,0,63.27,55.66Z"/><path class="cls-3" d="M50.25,65l0,0L45,52.56,39.73,65l0,0a5.76,5.76,0,1,0,11,2.38A5.83,5.83,0,0,0,50.25,65Z"/><path class="cls-3" d="M65,39.76l0,0L52.56,45,65,50.27l0,0a5.76,5.76,0,1,0,2.38-11A5.65,5.65,0,0,0,65,39.76Z"/><path class="cls-3" d="M25,50.26h0L37.43,45,25,39.73l0,0a5.65,5.65,0,0,0-2.38-.51,5.76,5.76,0,1,0,0,11.52A5.88,5.88,0,0,0,25,50.26Z"/><path class="cls-3" d="M34.58,62.86h0l5.05-12.5-12.51,5v0a5.88,5.88,0,0,0-2,1.32,5.76,5.76,0,0,0,8.15,8.15A5.93,5.93,0,0,0,34.58,62.86Z"/></g></g></svg>