<svg xmlns="http://www.w3.org/2000/svg" viewBox="0 0 90 90"><defs><style>.cls-1{fill:#eaa74e;}.cls-2{fill:#a64b23;}.cls-3{fill:#741e13;}.cls-4{fill:#febc10;}.cls-5{fill:#ffd53d;}</style></defs><title>hotdog</title><g id="hotdog"><g id="hotdog-2" data-name="hotdog"><path class="cls-1" d="M76.92,5.49a10.2,10.2,0,0,0-14.42,0l-57,57a10.2,10.2,0,0,0,0,14.42l7.6,7.6a10.2,10.2,0,0,0,14.42,0l57-57a10.2,10.2,0,0,0,0-14.42Z"/><path class="cls-2" d="M74.54,5.15,4.77,74.92c-2,2-1.24,6,1.73,9s7,3.74,9,1.73L85.29,15.9c2-2,1.84-6.65-1.13-9.62S76.56,3.14,74.54,5.15Z"/><path class="cls-3" d="M80.37,17.51a2.12,2.12,0,0,0-3,0,9.4,9.4,0,0,1-6.27,2.92l-.57.07-.34,0c-.62.07-1.26.14-1.92.25a13.25,13.25,0,0,0-7.79,4,13.8,13.8,0,0,0-3.07,4.43l-.17.41a13.32,13.32,0,0,0-.46,1.48,25.22,25.22,0,0,0-.55,3.38c-.3,2.62-.53,4.69-3,7.18a9.66,9.66,0,0,1-3,2.12l-.41.16a9.7,9.7,0,0,1-1.48.42c-.74.15-1.5.24-2.31.33-2.89.33-6.16.7-9.7,4.24a16,16,0,0,0-1.56,1.8l-.25.36c-.19.28-.37.55-.53.82a15.77,15.77,0,0,0-1.9,6.73c-.3,2.62-.53,4.69-3,7.18l-.39.38-.35.31a10.06,10.06,0,0,1-.8.62,11,11,0,0,1-5.63,1.72c-2.7.31-5.73.65-9,3.58l-.38.35-.31.31-.16.18a2.12,2.12,0,0,0,3.15,2.84l0,0A11.78,11.78,0,0,1,16.49,75l.4-.28a11.24,11.24,0,0,1,5.47-1.61c2.89-.33,6.16-.7,9.7-4.24S36,62,36.31,59.12a13.85,13.85,0,0,1,.93-4.24,8.55,8.55,0,0,1,.95-1.61l.31-.4a12.4,12.4,0,0,1,.84-.92c2.49-2.49,4.56-2.73,7.18-3,2.89-.33,6.16-.7,9.7-4.24s3.92-6.82,4.24-9.71V34.9c.07-.6.13-1.16.22-1.72,0-.29.1-.57.17-.85a9,9,0,0,1,2.63-4.55c2.49-2.49,4.56-2.73,7.18-3,2.89-.33,6.16-.7,9.7-4.24A2.12,2.12,0,0,0,80.37,17.51Z"/><path class="cls-4" d="M76.41,16.55c-2.5,2.5-4.56,2.73-7.18,3-2.89.33-6.16.7-9.7,4.24s-3.92,6.82-4.24,9.7c-.3,2.62-.53,4.69-3,7.18s-4.56,2.73-7.18,3c-2.89.33-6.16.7-9.7,4.24s-3.92,6.82-4.24,9.7c-.3,2.62-.53,4.69-3,7.18s-4.56,2.73-7.18,3c-2.89.33-6.16.7-9.7,4.24a2.12,2.12,0,0,0,3,3c2.49-2.49,4.56-2.73,7.18-3,2.89-.33,6.16-.7,9.7-4.24S35,61,35.35,58.16c.3-2.62.53-4.69,3-7.18s4.56-2.73,7.18-3c2.89-.33,6.16-.7,9.7-4.24S59.17,36.89,59.5,34c.3-2.62.53-4.69,3-7.18s4.56-2.73,7.18-3c2.89-.33,6.16-.7,9.7-4.24a2.12,2.12,0,1,0-3-3Z"/><path class="cls-5" d="M77,17.15c-2.71,2.71-5,3-7.69,3.27-2.88.33-5.86.67-9.2,4s-3.67,6.32-4,9.2c-.3,2.67-.57,5-3.27,7.68s-5,3-7.69,3.27c-2.88.33-5.86.67-9.2,4s-3.67,6.32-4,9.2c-.3,2.67-.57,5-3.27,7.68s-5,3-7.69,3.27c-2.88.33-5.86.67-9.2,4a1.27,1.27,0,0,0,1.8,1.8c2.7-2.7,5-3,7.68-3.27,2.88-.33,5.86-.66,9.2-4s3.67-6.32,4-9.2c.3-2.67.57-5,3.27-7.68s5-3,7.69-3.27c2.88-.33,5.86-.67,9.2-4s3.67-6.32,4-9.2c.3-2.67.57-5,3.27-7.69s5-3,7.69-3.27c2.88-.33,5.87-.67,9.2-4a1.27,1.27,0,0,0-1.8-1.8Z"/></g></g></svg>