<svg xmlns="http://www.w3.org/2000/svg" viewBox="0 0 90 90"><defs><style>.cls-1{fill:#bd3b30;}.cls-2{fill:#ffc326;}.cls-3{fill:#fea705;}.cls-4{fill:#ffcd4d;}.cls-5{fill:#ffc42e;}.cls-6{fill:#e6e7e8;}.cls-7{fill:#f04b3e;}.cls-8{fill:#c93f34;}.cls-9{fill:#ffcf00;}</style></defs><title>french-fries</title><g id="french-fries"><g id="french-fries-2" data-name="french-fries"><path class="cls-1" d="M58.6,27.93c-.17,4.57-6.18,8.25-13.6,8.25S31.57,32.5,31.4,27.93H17a1.82,1.82,0,0,0-1.82,1.82V78.56a3.63,3.63,0,0,0,3.63,3.63H71.19a3.63,3.63,0,0,0,3.63-3.63V29.75A1.82,1.82,0,0,0,73,27.93Z"/><rect class="cls-2" x="60.56" y="7.19" width="7.78" height="32.45"/><rect class="cls-3" x="60.56" y="7.19" width="3.89" height="32.45"/><rect class="cls-2" x="52.78" y="2.5" width="7.78" height="32.45"/><rect class="cls-3" x="52.78" y="2.5" width="3.89" height="32.45"/><rect class="cls-2" x="45" y="5.58" width="7.78" height="32.45"/><rect class="cls-3" x="45" y="5.58" width="3.89" height="32.45"/><rect class="cls-2" x="37.22" y="8.39" width="7.78" height="32.45"/><rect class="cls-3" x="37.22" y="8.39" width="3.89" height="32.45"/><rect class="cls-4" x="64.45" y="16.38" width="7.78" height="32.45"/><rect class="cls-3" x="64.45" y="16.38" width="3.89" height="32.45"/><rect class="cls-4" x="56.67" y="18.16" width="7.78" height="32.45"/><rect class="cls-3" x="56.67" y="18.16" width="3.89" height="32.45"/><rect class="cls-4" x="48.89" y="14.29" width="7.78" height="32.45"/><rect class="cls-3" x="48.89" y="14.29" width="3.89" height="32.45"/><rect class="cls-4" x="41.11" y="18.16" width="7.78" height="32.45"/><rect class="cls-3" x="41.11" y="18.16" width="3.89" height="32.45"/><rect class="cls-5" x="29.44" y="2.5" width="7.78" height="32.45"/><rect class="cls-3" x="29.44" y="2.5" width="3.89" height="32.45"/><rect class="cls-2" x="21.66" y="5.58" width="7.78" height="32.45"/><rect class="cls-3" x="21.66" y="5.58" width="3.89" height="32.45"/><rect class="cls-4" x="33.33" y="10.82" width="7.78" height="32.45"/><rect class="cls-3" x="33.33" y="10.82" width="3.89" height="32.45"/><rect class="cls-4" x="25.55" y="18.16" width="7.78" height="32.45"/><rect class="cls-3" x="25.55" y="18.16" width="3.89" height="32.45"/><rect class="cls-4" x="17.77" y="14.29" width="7.78" height="32.45"/><rect class="cls-3" x="17.77" y="14.29" width="3.89" height="32.45"/><polygon class="cls-6" points="74.24 50.14 15.64 50.14 15.49 46.38 74.4 46.38 74.24 50.14"/><path class="cls-7" d="M58.6,33.24c-.17,4.57-6.18,8.25-13.6,8.25s-13.43-3.67-13.6-8.25H17a1.82,1.82,0,0,0-1.82,1.82V83.87a3.63,3.63,0,0,0,3.63,3.63H71.19a3.63,3.63,0,0,0,3.63-3.63V35.06A1.82,1.82,0,0,0,73,33.24Z"/><path class="cls-8" d="M45,49.92c-11,0-19.58,5.74-19.58,13.07S34,76.07,45,76.07,64.58,70.33,64.58,63,56,49.92,45,49.92Z"/><rect class="cls-9" x="33.33" y="60.93" width="23.34" height="4.32" rx="2.16" ry="2.16"/></g></g></svg>