<svg xmlns="http://www.w3.org/2000/svg" viewBox="0 0 90 90"><defs><style>.cls-1{fill:#a35a2d;}.cls-2{fill:#f04b3e;}.cls-3{fill:#82c60a;}.cls-4{fill:#6a3311;}.cls-5{fill:#febc10;}.cls-6{fill:#de912a;}.cls-7{fill:#f2b933;}</style></defs><title>cheeseburger</title><g id="cheeseburger"><g id="cheeseburger-2" data-name="cheeseburger"><rect class="cls-1" x="3.3" y="49.81" width="83.4" height="7.35" rx="3.43" ry="3.43"/><rect class="cls-1" x="3.3" y="33.31" width="83.4" height="7.35" rx="3.43" ry="3.43"/><path class="cls-2" d="M84.13,41.69a3.31,3.31,0,0,1,1,.17,4.08,4.08,0,0,0-.58-.75,4,4,0,0,0-2.85-1.19H8.31A4,4,0,0,0,5,41.71s0,.1-.07.15a3.31,3.31,0,0,1,1-.16Z"/><path class="cls-3" d="M5.87,48.78a3.31,3.31,0,0,1-1-.17,4,4,0,0,0,3.43,1.94H81.69a4,4,0,0,0,3.43-1.94,3.31,3.31,0,0,1-1,.17Z"/><path class="cls-4" d="M85.12,41.86a3.31,3.31,0,0,0-1-.17H5.87a3.31,3.31,0,0,0-1,.16A3.37,3.37,0,0,0,2.5,45.06v.34a3.37,3.37,0,0,0,2.38,3.2,3.31,3.31,0,0,0,1,.17H84.13a3.31,3.31,0,0,0,1-.17,3.37,3.37,0,0,0,2.38-3.2v-.34A3.37,3.37,0,0,0,85.12,41.86Z"/><path class="cls-5" d="M9.63,29.38v6.55A1.83,1.83,0,0,0,12,37.7a13.63,13.63,0,0,0,3.89-2.28C17.5,34.2,19,33,21.47,33s4,1.18,5.6,2.41,3.54,2.65,6.24,2.65,4.59-1.41,6.24-2.65S42.74,33,45.16,33s4,1.18,5.6,2.41S54.3,38.07,57,38.07s4.59-1.41,6.24-2.65S66.43,33,68.86,33s4,1.18,5.6,2.41a13.63,13.63,0,0,0,3.89,2.28,1.83,1.83,0,0,0,2.35-1.77V29.38Z"/><path class="cls-5" d="M9.63,60.12V53.58A1.83,1.83,0,0,1,12,51.81a13.63,13.63,0,0,1,3.89,2.28c1.63,1.23,3.18,2.38,5.6,2.41s4-1.18,5.6-2.41,3.54-2.65,6.24-2.65,4.59,1.41,6.24,2.65,3.18,2.38,5.6,2.41,4-1.18,5.6-2.41S54.3,51.43,57,51.43s4.59,1.41,6.24,2.65,3.18,2.38,5.6,2.41,4-1.18,5.6-2.41a13.63,13.63,0,0,1,3.89-2.28,1.83,1.83,0,0,1,2.35,1.77v6.55Z"/><path class="cls-6" d="M62.55,12.69c13.21,0,19.15,9.62,21.36,14.65A4.39,4.39,0,0,1,80.7,33.5a4.11,4.11,0,0,1-.56,0H9.68a4.11,4.11,0,0,1-.56,0,4.39,4.39,0,0,1-3.21-6.16c2.21-5,8.15-14.65,21.36-14.65Z"/><path class="cls-6" d="M79.48,56.46H9a3.22,3.22,0,0,0-3.21,3.21s2.9,17.64,20.79,17.64H61.89c17.89,0,20.79-17.64,20.79-17.64A3.22,3.22,0,0,0,79.48,56.46Z"/><circle class="cls-7" cx="22.54" cy="20.35" r="1.45"/><circle class="cls-7" cx="28.96" cy="20.35" r="1.45"/><circle class="cls-7" cx="35.38" cy="20.35" r="1.45"/><circle class="cls-7" cx="41.79" cy="20.35" r="1.45"/><circle class="cls-7" cx="48.21" cy="20.35" r="1.45"/><circle class="cls-7" cx="54.62" cy="20.35" r="1.45"/><circle class="cls-7" cx="61.04" cy="20.35" r="1.45"/><circle class="cls-7" cx="67.46" cy="20.35" r="1.45"/><circle class="cls-7" cx="25.75" cy="16.49" r="1.45"/><circle class="cls-7" cx="32.17" cy="16.49" r="1.45"/><circle class="cls-7" cx="38.58" cy="16.49" r="1.45"/><circle class="cls-7" cx="45" cy="16.49" r="1.45"/><circle class="cls-7" cx="51.42" cy="16.49" r="1.45"/><circle class="cls-7" cx="57.83" cy="16.49" r="1.45"/><circle class="cls-7" cx="64.25" cy="16.49" r="1.45"/></g></g></svg>