<svg xmlns="http://www.w3.org/2000/svg" viewBox="0 0 90 90"><defs><style>.cls-1{fill:#f04b3e;}.cls-2{fill:#f57564;opacity:0.7;}.cls-3{fill:#824b3d;}.cls-4{fill:#51b224;}.cls-5{fill:#82c60a;}</style></defs><title>cherries</title><g id="cherries"><g id="cherries-2" data-name="cherries"><path class="cls-1" d="M12.8,79.48c-5.89-8.89-4.49-20.17,3.13-25.21l2.3-1.52c7.62-5,18.55-1.94,24.44,6.94A17.91,17.91,0,0,1,12.8,79.48Z"/><path class="cls-1" d="M48,67.73c-5.89-8.89-4.49-20.17,3.13-25.21L53.42,41C61,35.94,72,39,77.86,47.94A17.91,17.91,0,0,1,48,67.73Z"/><path class="cls-2" d="M63.86,50.76A8.28,8.28,0,0,1,52.4,48.44a1.38,1.38,0,1,1,2.3-1.52,5.52,5.52,0,0,0,7.64,1.55,1.38,1.38,0,1,1,1.52,2.3Z"/><path class="cls-2" d="M30.38,63.88a8.28,8.28,0,0,1-11.46-2.32A1.38,1.38,0,1,1,21.22,60a5.52,5.52,0,0,0,7.64,1.55,1.38,1.38,0,1,1,1.52,2.3Z"/><path class="cls-3" d="M61.43,45.6a1.38,1.38,0,0,1-2.13-1c-.94-12-6.61-18.79-22-25.84,6.56,13.85,2,31.57-7.34,37.79a1.38,1.38,0,0,1-1.52-2.3c9-6,12.95-24.9,4.5-37.65a1.38,1.38,0,0,1,1.68-2C51,21.44,60.8,28.53,62,44.34A1.38,1.38,0,0,1,61.43,45.6Z"/><path class="cls-4" d="M33.21,15.5c6.85.32,12.71-6.14,13-13C39.4,2.19,33.54,8.65,33.21,15.5Z"/><path class="cls-5" d="M15.27,15.85c4.61,5.07,13.33,4.64,18.4,0C29,10.81,20.34,11.24,15.27,15.85Z"/></g></g></svg>