<svg xmlns="http://www.w3.org/2000/svg" viewBox="0 0 90 90"><defs><style>.cls-1{fill:#ffe799;}.cls-2{fill:#ffc859;}.cls-3{fill:#f04b3e;}.cls-4{fill:#e6e7e8;}</style></defs><title>popcorn</title><g id="popcorn"><g id="popcorn-2" data-name="popcorn"><path class="cls-1" d="M46.85,16.71c0,4.68-9,8.48-13.65,8.48s-3.3-3.79-3.3-8.48a8.47,8.47,0,0,1,16.95,0Z"/><circle class="cls-2" cx="46.18" cy="14.4" r="6.73"/><circle class="cls-1" cx="22.95" cy="30.42" r="8.48"/><circle class="cls-1" cx="26.57" cy="20.64" r="6.73"/><circle class="cls-1" cx="36.35" cy="29.11" r="6.73"/><circle class="cls-1" cx="53.49" cy="9.23" r="6.73"/><circle class="cls-1" cx="46.76" cy="18.33" r="6.73"/><path class="cls-1" d="M60.22,16.9a6.73,6.73,0,1,1-6.73-6.73A6.73,6.73,0,0,1,60.22,16.9Z"/><circle class="cls-2" cx="36.35" cy="27.9" r="6.73"/><circle class="cls-2" cx="54.24" cy="21.69" r="6.73"/><circle class="cls-2" cx="27.71" cy="27.37" r="6.73"/><circle class="cls-1" cx="46.76" cy="27.9" r="8.48"/><circle class="cls-1" cx="59.07" cy="28.43" r="8.48"/><circle class="cls-1" cx="62.25" cy="19.95" r="6.73" transform="translate(-1.99 7.85) rotate(-7.11)"/><circle class="cls-1" cx="68.79" cy="28.43" r="6.73"/><polygon class="cls-3" points="65.22 87.5 25.58 87.5 16.07 33.59 74.73 33.59 65.22 87.5"/><rect class="cls-4" x="25.58" y="33.59" width="7.93" height="53.91"/><rect class="cls-4" x="41.43" y="33.59" width="7.93" height="53.91"/><rect class="cls-4" x="57.29" y="33.59" width="7.93" height="53.91"/></g></g></svg>