<svg id="apple" xmlns="http://www.w3.org/2000/svg" viewBox="0 0 90 90"><defs><style>.cls-1{fill:#51b224;}.cls-1,.cls-2,.cls-4,.cls-5{fill-rule:evenodd;}.cls-2{fill:#805d47;}.cls-3{fill:#743727;}.cls-4{fill:#82c60a;}.cls-5{fill:#8cd60b;opacity:0.7;}</style></defs><title>apple</title><g id="apple-2" data-name="apple"><path class="cls-1" d="M43.61,24.12A23.47,23.47,0,0,1,77.11,4.78,23.48,23.48,0,0,1,43.61,24.12Z"/><path class="cls-2" d="M76,49.2l2.17-.58,1,3.85a1.12,1.12,0,0,1-2.17.59L76,49.2Z"/><path class="cls-3" d="M46.16,80.34a1.33,1.33,0,0,1,1,.8l1.31,3.24a1.32,1.32,0,0,1-2.06,1.52v.27a1.32,1.32,0,1,1-2.65,0v-.27a1.32,1.32,0,0,1-2.06-1.52L43,81.14a1.33,1.33,0,0,1,1-.8,1.32,1.32,0,0,1,2.18,0Z"/><path class="cls-3" d="M36.44,17.74A1.93,1.93,0,1,1,39.17,15a26.61,26.61,0,0,1,5.75,8.6l.05.14a26.36,26.36,0,0,1,2,10,1.93,1.93,0,1,1-3.85,0,22.66,22.66,0,0,0-1.66-8.55l-.05-.11A22.69,22.69,0,0,0,36.44,17.74Z"/><path class="cls-4" d="M59.06,28.51c13.21,0,23.86,10.71,22.64,26.59S68.78,86,55.57,86a14,14,0,0,1-7.82-2.17,5,5,0,0,0-5.51,0A14,14,0,0,1,34.43,86C21.22,86,9.52,71,8.3,55.1s9.44-26.59,22.64-26.59a16.17,16.17,0,0,1,10.8,3.66,5,5,0,0,0,6.52,0A16.17,16.17,0,0,1,59.06,28.51Z"/><path class="cls-5" d="M57.35,32a20,20,0,0,1,9.29,2.24,21.81,21.81,0,0,0-3.87-.35A14.73,14.73,0,0,0,53,37.21a4.56,4.56,0,0,1-5.93,0,14.13,14.13,0,0,0-1.34-1,4.42,4.42,0,0,0,2.18-1A14.23,14.23,0,0,1,57.35,32ZM12.68,53.44C12.57,40.55,21.59,32,32.65,32a14.64,14.64,0,0,1,8.18,2.24,18,18,0,0,0-3.62-.35c-10.34,0-19,7.22-20.45,18.45Z"/></g></svg>