<svg xmlns="http://www.w3.org/2000/svg" viewBox="0 0 90 90"><defs><style>.cls-1{fill:#eaa74e;}.cls-2{fill:#ffe27d;}.cls-3{fill:#51b224;}.cls-4{fill:#e03f00;}.cls-5{fill:#ff794a;}.cls-6{fill:#c21111;}.cls-7{fill:#fa9a00;}.cls-8{fill:#c52525;}.cls-9{fill:#d44a4a;}.cls-10{fill:#b8a35a;}</style></defs><title>pizza</title><g id="pizza"><g id="pizza-2" data-name="pizza"><circle class="cls-1" cx="45" cy="45" r="42.5"/><circle class="cls-2" cx="45" cy="45" r="35.42"/><path class="cls-3" d="M59.12,47.89a6,6,0,0,0-.48-1.23,2.64,2.64,0,0,1,0-3.31,6,6,0,0,0,.48-1.23A3.7,3.7,0,0,0,59,40.48h0l0-.06h0a3.62,3.62,0,0,0-2-2.09,3.43,3.43,0,0,1-1.46-1,3.64,3.64,0,0,1-.49-1.68,3.88,3.88,0,0,0-.34-1.27,3,3,0,0,0-1-1.27h0l-.05,0h0a3.52,3.52,0,0,0-2.84-.52,3.39,3.39,0,0,1-1.75,0,3.19,3.19,0,0,1-1.39-1.07A3.68,3.68,0,0,0,45,30.26H45a3.68,3.68,0,0,0-2.61,1.25A3.19,3.19,0,0,1,41,32.59a3.39,3.39,0,0,1-1.75,0,3.52,3.52,0,0,0-2.84.52h0l-.05,0h0a3,3,0,0,0-1,1.27,3.88,3.88,0,0,0-.34,1.27,3.64,3.64,0,0,1-.49,1.68,3.43,3.43,0,0,1-1.46,1,3.62,3.62,0,0,0-2,2.09h0l0,.06h0a3.7,3.7,0,0,0-.09,1.63,6,6,0,0,0,.48,1.23,2.64,2.64,0,0,1,0,3.31,6,6,0,0,0-.48,1.23A3.7,3.7,0,0,0,31,49.52h0l0,.06h0a3.62,3.62,0,0,0,2,2.09,3.43,3.43,0,0,1,1.46,1,3.64,3.64,0,0,1,.49,1.68,3.88,3.88,0,0,0,.34,1.27,3,3,0,0,0,1,1.27h0l.05,0h0a3.52,3.52,0,0,0,2.84.52,3.39,3.39,0,0,1,1.75,0,3.19,3.19,0,0,1,1.39,1.07A3.68,3.68,0,0,0,45,59.74H45a3.68,3.68,0,0,0,2.61-1.25A3.19,3.19,0,0,1,49,57.41a3.39,3.39,0,0,1,1.75,0,3.52,3.52,0,0,0,2.84-.52h0l.05,0h0a3,3,0,0,0,1-1.27,3.88,3.88,0,0,0,.34-1.27,3.64,3.64,0,0,1,.49-1.68,3.43,3.43,0,0,1,1.46-1,3.62,3.62,0,0,0,2-2.09h0l0-.06h0A3.7,3.7,0,0,0,59.12,47.89Z"/><circle class="cls-4" cx="45" cy="45" r="10.62"/><circle class="cls-5" cx="45" cy="45" r="8.45"/><circle class="cls-6" cx="45" cy="45" r="6.79"/><path class="cls-6" d="M45,38.21a6.79,6.79,0,1,1,0,13.59"/><polygon class="cls-5" points="45 37.66 43.52 37.66 43.52 52.11 45 52.11 46.48 52.11 46.48 37.66 45 37.66"/><circle class="cls-5" cx="45" cy="45" r="2.61"/><path class="cls-7" d="M41.18,41.82h0l1.31.69L42.12,41h0s-.06-.11-.11-.19a.64.64,0,0,0-.9-.1.66.66,0,0,0-.13.92A.69.69,0,0,0,41.18,41.82Z"/><path class="cls-7" d="M40.24,44.1h0l1.51,0L40.67,43h0a.63.63,0,0,0-.23-.15.64.64,0,0,0-.47,1.2A.65.65,0,0,0,40.24,44.1Z"/><path class="cls-7" d="M40.66,46.74h0l1.1-1-1.51-.07h0a.63.63,0,0,0-.27,0,.64.64,0,1,0,.67,1.06Z"/><path class="cls-7" d="M42.11,48.89h0l.37-1.46-1.31.75h0a.63.63,0,0,0-.21.18.64.64,0,0,0,1,.78A.63.63,0,0,0,42.11,48.89Z"/><path class="cls-7" d="M48.82,41.82h0l-1.31.69L47.88,41h0s.06-.11.11-.19a.64.64,0,0,1,.9-.1.66.66,0,0,1,.13.92A.69.69,0,0,1,48.82,41.82Z"/><path class="cls-7" d="M49.76,44.1h0l-1.51,0L49.33,43h0a.64.64,0,0,1,.23-.15.64.64,0,0,1,.47,1.2A.65.65,0,0,1,49.76,44.1Z"/><path class="cls-7" d="M49.34,46.74h0l-1.1-1,1.51-.07h0a.63.63,0,0,1,.27,0,.64.64,0,1,1-.67,1.06Z"/><path class="cls-7" d="M47.89,48.89h0l-.37-1.46,1.31.75h0a.63.63,0,0,1,.21.18.64.64,0,0,1-1,.78A.63.63,0,0,1,47.89,48.89Z"/><circle class="cls-8" cx="45" cy="21.54" r="7.22"/><circle class="cls-9" cx="45" cy="18.58" r="1.69"/><circle class="cls-9" cx="47.82" cy="23.23" r="1.69"/><circle class="cls-9" cx="42.5" cy="23.23" r="1.69"/><circle class="cls-8" cx="45" cy="68.46" r="7.22"/><circle class="cls-9" cx="45" cy="65.5" r="1.69"/><circle class="cls-9" cx="47.82" cy="70.16" r="1.69"/><circle class="cls-9" cx="42.5" cy="70.16" r="1.69"/><circle class="cls-8" cx="67" cy="33.11" r="7.22"/><circle class="cls-9" cx="67" cy="30.15" r="1.69"/><circle class="cls-9" cx="69.82" cy="34.81" r="1.69"/><circle class="cls-9" cx="64.5" cy="34.81" r="1.69"/><circle class="cls-8" cx="23" cy="33.44" r="7.22"/><circle class="cls-9" cx="23" cy="30.49" r="1.69"/><circle class="cls-9" cx="25.83" cy="35.14" r="1.69"/><circle class="cls-9" cx="20.51" cy="35.14" r="1.69"/><circle class="cls-8" cx="67" cy="56.58" r="7.22"/><circle class="cls-9" cx="67" cy="53.62" r="1.69"/><circle class="cls-9" cx="69.82" cy="58.27" r="1.69"/><circle class="cls-9" cx="64.5" cy="58.27" r="1.69"/><circle class="cls-8" cx="23" cy="56.91" r="7.22"/><circle class="cls-9" cx="23" cy="53.95" r="1.69"/><circle class="cls-9" cx="25.83" cy="58.6" r="1.69"/><circle class="cls-9" cx="20.51" cy="58.6" r="1.69"/><path class="cls-10" d="M64.94,47.19A1.61,1.61,0,0,1,65.55,44a1.61,1.61,0,1,1-.61,3.16Z"/><path class="cls-10" d="M56,62.13a1.61,1.61,0,0,1,2.62-1.88A1.61,1.61,0,1,1,56,62.13Z"/><path class="cls-10" d="M58.25,69.41a1.64,1.64,0,0,1,.92-2,1.66,1.66,0,0,1,2.07.84,1.61,1.61,0,1,1-3,1.2Z"/><path class="cls-10" d="M32.91,63.51A1.66,1.66,0,0,1,35,62.67a1.64,1.64,0,0,1,.92,2,1.61,1.61,0,1,1-3-1.2Z"/><path class="cls-10" d="M29.75,69.94a1.61,1.61,0,0,1,2.62,1.88,1.61,1.61,0,1,1-2.62-1.88Z"/><path class="cls-10" d="M25.56,44.68a1.61,1.61,0,0,1,.61,3.16,1.61,1.61,0,1,1-.61-3.16Z"/><path class="cls-10" d="M15.92,44a1.69,1.69,0,0,1,1.46,1.7,1.67,1.67,0,0,1-1.68,1.51A1.61,1.61,0,1,1,15.92,44Z"/><path class="cls-10" d="M30.23,18.64a1.61,1.61,0,0,1-2.33,2.22,1.61,1.61,0,1,1,2.33-2.22Z"/><path class="cls-10" d="M35.69,26.47a1.61,1.61,0,1,1-2.22-.69A1.61,1.61,0,0,1,35.69,26.47Z"/><path class="cls-10" d="M60.29,20.53a1.61,1.61,0,1,1-.61-2.24A1.61,1.61,0,0,1,60.29,20.53Z"/><path class="cls-10" d="M56.74,30a1.61,1.61,0,0,1-2.33-2.22A1.61,1.61,0,1,1,56.74,30Z"/><path class="cls-10" d="M74.3,45a1.67,1.67,0,0,1-1.68-1.51,1.69,1.69,0,0,1,1.46-1.7A1.61,1.61,0,1,1,74.3,45Z"/></g></g></svg>