<svg xmlns="http://www.w3.org/2000/svg" viewBox="0 0 90 90"><defs><style>.cls-1{fill:#ffe470;}.cls-2{fill:#ffdd47;}.cls-3{fill:#824b3d;}.cls-4{fill:#fff194;}</style></defs><title>vanilla-cupcake</title><g id="vanilla-cupcake"><g id="vanilla-cupcake-2" data-name="vanilla-cupcake"><path class="cls-1" d="M82.77,48.55c-2-5.41-6.47-9.24-11.07-12l-.5,0c1.48-9-4.95-13.48-11.2-17.1l-.32.12c-.81-2.34-2.81-4.78-6.81-6.84C47.54,9.95,41.3,7.52,37.26,3.16c3.34,6,6.61,12.59-1.31,16-3.39,1.45-8.38.61-11,3.66C23,25,21.32,30.2,22.28,33.31c-6.57.19-9.79,2.48-11,6.06-1.18,3.34-1.06,8.27,1,9.82,0,0-9.23,5-4.45,12.78,5.45,8.94,22.36,9.74,31.78,9.85C52,71.95,89.74,67.57,82.77,48.55Z"/><path class="cls-2" d="M83.36,48.31c-2.07-5.62-6.7-9.53-11.33-12.36l-.1,0A16.22,16.22,0,0,0,72,33.95a13.23,13.23,0,0,0-3.77-9.27,33.55,33.55,0,0,0-8-5.86.57.57,0,0,0-.24-.09c-1-2.35-3.11-4.7-6.92-6.65C47.77,9.35,41.58,6.9,37.71,2.7a.59.59,0,0,0-.83-.06.67.67,0,0,0-.15.86c1.8,3.23,3.52,6.61,3.51,9.32,0,2.27-1,4.17-4.52,5.69a27.79,27.79,0,0,1-5.66,1.19,9,9,0,0,0-5.6,2.63,15.24,15.24,0,0,0-3.09,8.89,9.44,9.44,0,0,0,.09,1.34c-.31,0-.6,0-.9,0a9.6,9.6,0,0,0-8.23,4A13.61,13.61,0,0,0,10,44.29a10.75,10.75,0,0,0,.47,3.32,5.16,5.16,0,0,0,.69,1.45,14.53,14.53,0,0,0-2.29,1.85,9.44,9.44,0,0,0-3.13,6.61,9.17,9.17,0,0,0,1.47,4.8C10.14,67,15.9,69.48,22,70.84a90.39,90.39,0,0,0,17.48,1.63h.61A101.28,101.28,0,0,0,66.5,68.67,38,38,0,0,0,78.87,62.8C82.11,60.27,84.25,57,84.25,53A13.72,13.72,0,0,0,83.36,48.31Zm-58-25.08c1.16-1.35,2.91-1.88,4.88-2.22a28,28,0,0,0,5.93-1.27c3.77-1.56,5.32-4.11,5.3-6.92a16.3,16.3,0,0,0-2-6.75c3.93,3,8.85,5,13.09,7.21,3.91,2,5.76,4.32,6.52,6.47a7.89,7.89,0,0,1-1,7.07c-3.72,5.14-11.06,6.27-19,6.25-5.11,0-10.42-.44-15.11-.44l-1.32,0a7.19,7.19,0,0,1-.13-1.41A14,14,0,0,1,25.37,23.23ZM21.92,33.86h0Zm-8.59,3.51a8.35,8.35,0,0,1,7.23-3.52c.47,0,3,.09,3.5.09,4.6,0,9.94.44,15.11.44,8,0,15.76-1,20-6.77a9.15,9.15,0,0,0,1.45-7.11,30.26,30.26,0,0,1,6.78,5.1,11.85,11.85,0,0,1,3.4,8.35,15,15,0,0,1-.2,2.42,1.53,1.53,0,0,1-.07.36c-.78,4.4-5.34,8.27-12.08,10.95S42.93,51.87,34,51.87a67.67,67.67,0,0,1-21.52-3.29,2.87,2.87,0,0,1-.83-1.39,9.62,9.62,0,0,1-.39-2.89A12.09,12.09,0,0,1,13.33,37.37ZM78.12,61.74C69,69,48.94,71.17,40.14,71.16c-.21,0-.4,0-.6,0a87.7,87.7,0,0,1-17.25-1.6c-6-1.3-11.46-3.74-14-7.94A7.8,7.8,0,0,1,7,57.53a8.12,8.12,0,0,1,2.72-5.64,14.59,14.59,0,0,1,1.93-1.57,6.89,6.89,0,0,1,.63-.4h0A69,69,0,0,0,34,53.19c9.07,0,18-1.53,24.89-4.28,6.75-2.71,11.68-6.59,12.81-11.64,4.43,2.73,8.66,6.45,10.5,11.51A12.21,12.21,0,0,1,83,53C83,56.48,81.18,59.33,78.12,61.74Z"/><path class="cls-3" d="M5.63,54a3,3,0,0,0-1.32,3.39l.2.74A62.06,62.06,0,0,0,12.73,76.6,26,26,0,0,0,26.44,87.09a7.11,7.11,0,0,0,1.86.41H61.7a7.19,7.19,0,0,0,1.89-.42A26.07,26.07,0,0,0,77.27,76.6a62.06,62.06,0,0,0,8.22-18.41l.2-.76A3,3,0,0,0,84.38,54a11.92,11.92,0,0,0-12.45.3,3.44,3.44,0,0,1-3.72,0,11.8,11.8,0,0,0-13,0,3.26,3.26,0,0,1-3.64,0,11.8,11.8,0,0,0-13,0,3.25,3.25,0,0,1-3.63,0,12,12,0,0,0-13.19,0,3.19,3.19,0,0,1-3.56,0A12,12,0,0,0,5.63,54Z"/><path class="cls-4" d="M48.44,39.12a.83.83,0,0,1-1.1.38l-4.23-2A.82.82,0,0,1,43.83,36l4.22,2A.82.82,0,0,1,48.44,39.12Z"/><path class="cls-4" d="M42.47,22.4a.83.83,0,0,1-.36,1.11l-4.18,2.15a.82.82,0,0,1-.75-1.46L41.36,22A.83.83,0,0,1,42.47,22.4Z"/><path class="cls-4" d="M32.77,44.92a.82.82,0,0,1-1.16-.05L28.46,41.4a.82.82,0,0,1,.05-1.16.83.83,0,0,1,1.16.05l3.15,3.47A.81.81,0,0,1,32.77,44.92Z"/><path class="cls-4" d="M21.36,40.31A.81.81,0,0,1,21,41.4l-4.24,2A.82.82,0,1,1,16,42l4.23-2A.81.81,0,0,1,21.36,40.31Z"/><path class="cls-4" d="M49.34,14.65a.82.82,0,0,1-.82.82h-4.7a.82.82,0,0,1-.81-.82.81.81,0,0,1,.81-.82h4.7A.81.81,0,0,1,49.34,14.65Z"/><path class="cls-4" d="M64.2,35a.83.83,0,0,1,.35,1.11l-2.19,4.16a.82.82,0,1,1-1.45-.76l2.17-4.16A.83.83,0,0,1,64.2,35Z"/><path class="cls-4" d="M57,20.7a.82.82,0,0,1-.82.82H51.48a.82.82,0,1,1,0-1.64h4.69A.81.81,0,0,1,57,20.7Z"/></g></g></svg>