<svg xmlns="http://www.w3.org/2000/svg" viewBox="0 0 90 90"><defs><style>.cls-1{fill:#f47cc3;}.cls-2{fill:#e6c284;}.cls-3{fill:#ffe794;}</style></defs><title>strawberry-magnum</title><g id="strawberry-magnum"><g id="magnum"><path class="cls-1" d="M64.61,21.59A19,19,0,0,0,45.78,2.5H44.22A19,19,0,0,0,25.39,21.59v42A5.66,5.66,0,0,0,31,69.31H59a5.66,5.66,0,0,0,5.62-5.7Z"/><path class="cls-2" d="M39.87,70.23V83.07A4.44,4.44,0,0,0,44.3,87.5h1.4a4.44,4.44,0,0,0,4.43-4.43V70.23Z"/><path class="cls-3" d="M25.39,63.33v3A5.62,5.62,0,0,0,31,71.95H59a5.62,5.62,0,0,0,5.62-5.62v-3Z"/></g></g></svg>