<svg xmlns="http://www.w3.org/2000/svg" viewBox="0 0 90 90"><defs><style>.cls-1{fill:#824b3d;}.cls-2{fill:#fff7de;}.cls-3{fill:#9e5c4b;}.cls-4{fill:#ff99d6;}.cls-5{fill:#f47cc3;}.cls-6{fill:#82c60a;}.cls-7{fill:#51b224;}</style></defs><title>macaron-cookies</title><g id="macaron-cookies"><g id="macaron-cookies-2" data-name="macaron-cookies"><path class="cls-1" d="M45.47,44.9h0c17.92,0,22.18-5.3,22.18-11.26H23.29C23.29,39.6,27.54,44.9,45.47,44.9Z"/><path class="cls-2" d="M68.76,27.54a2.4,2.4,0,0,1-2.2,2.56H24.39a2.4,2.4,0,0,1-2.2-2.56h0A2.4,2.4,0,0,1,24.39,25H66.55a2.4,2.4,0,0,1,2.2,2.56Z"/><path class="cls-1" d="M45.47,10.18h0c-17.92,0-22.18,5.3-22.18,11.25H67.65C67.65,15.48,63.39,10.18,45.47,10.18Z"/><path class="cls-3" d="M69.61,23.33A1.8,1.8,0,0,0,68,21.41H23a1.8,1.8,0,0,0-1.65,1.92h0A1.8,1.8,0,0,0,23,25.25H68a1.8,1.8,0,0,0,1.65-1.92Z"/><path class="cls-3" d="M21.33,31.76A1.8,1.8,0,0,0,23,33.68H68a1.8,1.8,0,0,0,1.65-1.92h0A1.8,1.8,0,0,0,68,29.83H23a1.8,1.8,0,0,0-1.65,1.92Z"/><path class="cls-4" d="M26.64,75.75h0c17.92,0,22.18-5.3,22.18-11.26H4.46C4.46,70.45,8.72,75.75,26.64,75.75Z"/><path class="cls-2" d="M49.93,58.39A2.4,2.4,0,0,1,47.72,61H5.56a2.4,2.4,0,0,1-2.2-2.56h0a2.4,2.4,0,0,1,2.2-2.56H47.72a2.4,2.4,0,0,1,2.2,2.56Z"/><path class="cls-4" d="M26.64,41h0C8.72,41,4.46,46.33,4.46,52.29H48.82C48.82,46.33,44.56,41,26.64,41Z"/><path class="cls-5" d="M50.78,54.18a1.8,1.8,0,0,0-1.65-1.92h-45A1.8,1.8,0,0,0,2.5,54.18h0A1.8,1.8,0,0,0,4.15,56.1h45a1.8,1.8,0,0,0,1.65-1.92Z"/><path class="cls-5" d="M2.5,62.6a1.8,1.8,0,0,0,1.65,1.92h45a1.8,1.8,0,0,0,1.65-1.92h0a1.8,1.8,0,0,0-1.65-1.92h-45A1.8,1.8,0,0,0,2.5,62.6Z"/><path class="cls-6" d="M53.42,71.25h0C67.41,82.46,74,81,77.77,76.33L43.15,48.6C39.43,53.25,39.43,60,53.42,71.25Z"/><path class="cls-2" d="M82.45,72.26a2.4,2.4,0,0,1-3.32.62L46.22,46.52a2.4,2.4,0,0,1-.12-3.38h0a2.4,2.4,0,0,1,3.32-.62L82.33,68.89a2.4,2.4,0,0,1,.12,3.38Z"/><path class="cls-6" d="M75.13,44.16h0C61.14,33,54.5,34.43,50.78,39.08L85.4,66.8C89.12,62.16,89.12,55.36,75.13,44.16Z"/><path class="cls-7" d="M85.75,69.51A1.8,1.8,0,0,0,85.66,67L50.56,38.86a1.8,1.8,0,0,0-2.49.47h0a1.8,1.8,0,0,0,.09,2.53L83.26,70a1.8,1.8,0,0,0,2.49-.47Z"/><path class="cls-7" d="M42.8,45.9a1.8,1.8,0,0,0,.09,2.53L78,76.55a1.8,1.8,0,0,0,2.49-.47h0a1.8,1.8,0,0,0-.09-2.53L45.29,45.43a1.8,1.8,0,0,0-2.49.47Z"/></g></g></svg>