<svg xmlns="http://www.w3.org/2000/svg" viewBox="0 0 90 90"><defs><style>.cls-1{fill:#824b3d;}.cls-2{fill:#82c60a;}.cls-3{fill:#51b224;}.cls-4{fill:#8cd60b;}</style></defs><title>grapes</title><g id="grapes"><g id="grapes-2" data-name="grapes"><polygon class="cls-1" points="55.45 17.13 46.33 11.18 46.33 2.5 43.66 2.5 43.66 11.18 34.55 17.13 35.46 18.52 43.66 13.17 43.66 27.16 46.33 27.16 46.33 13.17 54.54 18.52 55.45 17.13"/><path class="cls-2" d="M37.24,69c-1.5,5.88-7.18,9.51-12.68,8.1s-8.74-7.31-7.24-13.19S24.5,54.4,30,55.81,38.74,63.12,37.24,69Z"/><ellipse class="cls-2" cx="62.71" cy="66.46" rx="10.28" ry="10.99" transform="translate(-16.6 21.08) rotate(-16.89)"/><ellipse class="cls-3" cx="27.28" cy="44.73" rx="10.99" ry="10.28" transform="translate(-22.82 60.08) rotate(-75.66)"/><ellipse class="cls-3" cx="62.71" cy="44.73" rx="10.28" ry="10.99" transform="translate(-10.29 20.14) rotate(-16.89)"/><ellipse class="cls-3" cx="44.94" cy="76.51" rx="10.28" ry="10.99"/><ellipse class="cls-2" cx="44.94" cy="54.68" rx="10.28" ry="10.99"/><ellipse class="cls-2" cx="27.28" cy="22.8" rx="10.99" ry="10.28" transform="translate(-1.57 43.59) rotate(-75.67)"/><ellipse class="cls-2" cx="62.71" cy="22.8" rx="10.28" ry="10.99" transform="translate(-3.92 19.2) rotate(-16.89)"/><ellipse class="cls-3" cx="44.94" cy="32.75" rx="10.28" ry="10.99"/><circle class="cls-4" cx="28.9" cy="59.5" r="1.52" transform="translate(-35.89 72.83) rotate(-75.72)"/><circle class="cls-4" cx="61.1" cy="61.86" r="1.52" transform="translate(-15.34 20.42) rotate(-16.89)"/><circle class="cls-4" cx="28.9" cy="37.77" r="1.52" transform="translate(-14.85 56.42) rotate(-75.66)"/><circle class="cls-4" cx="61.1" cy="40.13" r="1.52" transform="translate(-9.02 19.47) rotate(-16.88)"/><circle class="cls-4" cx="44.92" cy="70.41" r="1.52"/><circle class="cls-4" cx="44.92" cy="48.58" r="1.52"/><circle class="cls-4" cx="28.9" cy="15.84" r="1.52" transform="translate(6.39 39.92) rotate(-75.66)"/><circle class="cls-4" cx="61.1" cy="18.2" r="1.52" transform="translate(-2.65 18.55) rotate(-16.9)"/><circle class="cls-4" cx="44.92" cy="26.65" r="1.52"/></g></g></svg>