<svg xmlns="http://www.w3.org/2000/svg" viewBox="0 0 90 90"><defs><style>.cls-1{fill:#743727;}.cls-2{fill:#824b3d;}.cls-3{fill:#ffd10a;}.cls-4{fill:#ffe11f;}</style></defs><title>pear</title><g id="pear"><g id="pear-2" data-name="pear"><path class="cls-1" d="M45.85,81.9a1,1,0,0,1,.77.63l1,2.54A1,1,0,0,1,46,86.25v.21a1,1,0,1,1-2.07,0v-.21a1,1,0,0,1-1.61-1.19l1-2.54a1,1,0,0,1,.77-.63,1,1,0,0,1,1.71,0Z"/><path class="cls-2" d="M44.59,15.11A1.42,1.42,0,0,1,43.2,14c-.79-4.24-2.69-7.68-4.85-8.77a1.42,1.42,0,0,1,1.27-2.53c4.47,2.24,6,8.82,6.37,10.78a1.42,1.42,0,0,1-1.13,1.65Z"/><path class="cls-3" d="M45,10.44a8.79,8.79,0,0,1,7.85,4.62c1.33,2.53,2,5.58,2.82,8.29,1.19,3.82,2.06,7.75,3.28,11.56s3.56,7.63,5.53,11.25c1.71,3.14,3.86,6.28,5,9.7a21.37,21.37,0,0,1-.38,13.72C66.18,77.65,58.73,83,50.42,84.38a31.15,31.15,0,0,1-5.37.43H45a31.15,31.15,0,0,1-5.37-.43C31.27,83,23.82,77.65,20.9,69.57a21.37,21.37,0,0,1-.38-13.72c1.1-3.41,3.25-6.56,5-9.7,2-3.62,4.27-7.31,5.53-11.25s2.09-7.74,3.28-11.56c.85-2.71,1.49-5.76,2.82-8.29A8.79,8.79,0,0,1,45,10.44"/><path class="cls-4" d="M38.1,74.16a10.52,10.52,0,0,1-7.38-5.93,1.42,1.42,0,1,0-2.59,1.14,13.33,13.33,0,0,0,9.32,7.55,1.39,1.39,0,0,0,.33,0,1.42,1.42,0,0,0,.32-2.79Z"/><path class="cls-4" d="M28.29,62.4a1.42,1.42,0,0,0,1.41-1.3,24.06,24.06,0,0,1,.66-4,1.42,1.42,0,0,0-2.75-.69,27,27,0,0,0-.74,4.45,1.42,1.42,0,0,0,1.3,1.52Z"/></g></g></svg>