<svg width="13" height="12" viewBox="0 0 13 12" fill="none" xmlns="http://www.w3.org/2000/svg">
<path d="M3.5 4.125H9.75M3.5 6.625H9.75M12.25 11L10.1723 9.96115C10.0148 9.8824 9.93605 9.84302 9.85352 9.81526C9.78023 9.7906 9.70481 9.77279 9.62822 9.76207C9.54199 9.75 9.45395 9.75 9.27786 9.75H4C2.9499 9.75 2.42485 9.75 2.02377 9.54564C1.67096 9.36587 1.38413 9.07904 1.20436 8.72623C1 8.32515 1 7.8001 1 6.75V4C1 2.9499 1 2.42485 1.20436 2.02377C1.38413 1.67096 1.67096 1.38413 2.02377 1.20436C2.42485 1 2.9499 1 4 1H9.25C10.3001 1 10.8251 1 11.2262 1.20436C11.579 1.38413 11.8659 1.67096 12.0456 2.02377C12.25 2.42485 12.25 2.9499 12.25 4V11Z" stroke="#999999" stroke-linecap="round" stroke-linejoin="round"/>
</svg>
