<svg width="30" height="30" viewBox="0 0 30 30" fill="none" xmlns="http://www.w3.org/2000/svg">
<circle cx="15" cy="15" r="15" fill="#FF9E89"/>
<path fill-rule="evenodd" clip-rule="evenodd" d="M15 9.9687C13.2006 7.87168 10.1938 7.2236 7.93923 9.14384C5.68468 11.0641 5.36727 14.2746 7.13778 16.5457C8.60984 18.434 13.0648 22.4164 14.5249 23.7054C14.6882 23.8496 14.7699 23.9217 14.8652 23.95C14.9483 23.9747 15.0393 23.9747 15.1225 23.95C15.2178 23.9217 15.2994 23.8496 15.4628 23.7054C16.9229 22.4164 21.3778 18.434 22.8499 16.5457C24.6204 14.2746 24.3417 11.0439 22.0484 9.14384C19.7551 7.2438 16.7994 7.87168 15 9.9687Z" stroke="white" stroke-width="2" stroke-linecap="round" stroke-linejoin="round"/>
</svg>
