<svg width="24" height="24" viewBox="0 0 24 24" fill="none" xmlns="http://www.w3.org/2000/svg">
<path fill-rule="evenodd" clip-rule="evenodd" d="M3 3H5.57143V5.57143H3V3ZM5.57168 5.57168H8.14311V8.1427H10.7141V10.7141H8.1427V8.14311H5.57168V5.57168ZM5.57127 18.4283H3V20.9997H5.57143V18.4287H8.1427V15.8573H5.57127V18.4283ZM15.8573 18.4287H18.4283V20.9997H20.9997V18.4283H18.4287V15.8573H15.8573V18.4287ZM10.7142 10.7142H13.2856V13.2856H10.7142V10.7142ZM15.8573 13.2858H13.2858V15.8573H15.8573V13.2858ZM15.8569 5.57168H18.4283V8.14311H15.8573V10.7141H13.2859V8.1427H15.8569V5.57168ZM21 3H18.4286V5.57143H21V3ZM10.7142 13.2858H8.14273V15.8573H10.7142V13.2858Z" fill="black"/>
</svg>
