<svg width="384" height="48" viewBox="0 0 384 48" fill="none" xmlns="http://www.w3.org/2000/svg">
<g clip-path="url(#clip0_215_22796)">
<path d="M36 22V20H34V18H30V14H26V10H22V6H10V42H22V40V38H26V34H30V30H34V28H36V26H38V22H36ZM26 26V30H22V34H18V38H14V10H18V14H22V18H26V22H30V26H26Z" fill="black"/>
<path fill-rule="evenodd" clip-rule="evenodd" d="M62 40V8H68V40H62ZM76 40V8H82V40H76Z" fill="black"/>
<path fill-rule="evenodd" clip-rule="evenodd" d="M104 6H108V42H104V6ZM120 10H124V6H136V42H124V38H120V34H116V30H112V28H110V20H112V18H116V14H120V10ZM116 22V26H120V30H124V34H128V38H132V10H128V14H124V18H120V22H116Z" fill="black"/>
<path fill-rule="evenodd" clip-rule="evenodd" d="M152 6H164V10H168V14H172V18H176V20H178V28H176V30H172V34H168V38H164V42H152V6ZM168 30V26H172V22H168V18H164V14H160V10H156V38H160V34H164V30H168ZM180 6H184V42H180V6Z" fill="black"/>
<path fill-rule="evenodd" clip-rule="evenodd" d="M200 12H232V16H200V12ZM200 22.0001H232V26.0001H200V22.0001ZM232 32.0001H200V36.0001H232V32.0001Z" fill="black"/>
<line x1="252" y1="8" x2="281" y2="8" stroke="black" stroke-width="4"/>
<line x1="298" y1="8" x2="327" y2="8" stroke="black" stroke-width="4"/>
<line x1="276" y1="40" x2="247" y2="40" stroke="black" stroke-width="4"/>
<line x1="326" y1="40" x2="297" y2="40" stroke="black" stroke-width="4"/>
<rect x="252" y="10" width="4" height="4" fill="black"/>
<rect x="298" y="10" width="4" height="4" fill="black"/>
<rect x="252" y="13" width="4" height="4" fill="black"/>
<rect x="298" y="13" width="4" height="4" fill="black"/>
<rect x="252" y="17" width="4" height="4" fill="black"/>
<rect x="298" y="17" width="4" height="4" fill="black"/>
<rect x="276" y="31" width="4" height="4" transform="rotate(-180 276 31)" fill="black"/>
<rect x="326" y="31" width="4" height="4" transform="rotate(-180 326 31)" fill="black"/>
<rect x="276" y="35" width="4" height="4" transform="rotate(-180 276 35)" fill="black"/>
<rect x="326" y="35" width="4" height="4" transform="rotate(-180 326 35)" fill="black"/>
<rect x="276" y="38" width="4" height="4" transform="rotate(-180 276 38)" fill="black"/>
<rect x="326" y="38" width="4" height="4" transform="rotate(-180 326 38)" fill="black"/>
<rect x="249" y="14" width="4" height="4" fill="black"/>
<rect x="295" y="14" width="4" height="4" fill="black"/>
<rect x="279" y="34" width="4" height="4" transform="rotate(-180 279 34)" fill="black"/>
<rect x="329" y="34" width="4" height="4" transform="rotate(-180 329 34)" fill="black"/>
<rect x="332" y="36" width="4" height="4" transform="rotate(-180 332 36)" fill="black"/>
<rect x="315" y="35" width="4" height="4" transform="rotate(-180 315 35)" fill="black"/>
<rect x="315" y="32" width="4" height="4" transform="rotate(-180 315 32)" fill="black"/>
<rect x="315" y="28" width="4" height="4" transform="rotate(-180 315 28)" fill="black"/>
<rect x="315" y="25" width="4" height="4" transform="rotate(-180 315 25)" fill="black"/>
<rect x="315" y="21" width="4" height="4" transform="rotate(-180 315 21)" fill="black"/>
<rect x="315" y="18" width="4" height="4" transform="rotate(-180 315 18)" fill="black"/>
<rect x="313" y="20" width="4" height="4" transform="rotate(-180 313 20)" fill="black"/>
<rect x="311" y="22" width="4" height="4" transform="rotate(-180 311 22)" fill="black"/>
<rect x="246" y="12" width="4" height="4" fill="black"/>
<rect x="282" y="36" width="4" height="4" transform="rotate(-180 282 36)" fill="black"/>
<rect x="255" y="14" width="4" height="4" fill="black"/>
<rect x="301" y="14" width="4" height="4" fill="black"/>
<rect x="273" y="34" width="4" height="4" transform="rotate(-180 273 34)" fill="black"/>
<rect x="323" y="34" width="4" height="4" transform="rotate(-180 323 34)" fill="black"/>
<rect x="258" y="12" width="4" height="4" fill="black"/>
<rect x="304" y="12" width="4" height="4" fill="black"/>
<rect x="292" y="12" width="4" height="4" fill="black"/>
<rect x="368.87" y="37.6985" width="4" height="4" transform="rotate(-45 368.87 37.6985)" fill="black"/>
<rect x="366.042" y="34.8701" width="4" height="4" transform="rotate(-45 366.042 34.8701)" fill="black"/>
<rect x="363.213" y="32.0417" width="4" height="4" transform="rotate(-45 363.213 32.0417)" fill="black"/>
<rect x="360.385" y="29.2131" width="4" height="4" transform="rotate(-45 360.385 29.2131)" fill="black"/>
<rect x="358.263" y="27.0918" width="4" height="4" transform="rotate(-45 358.263 27.0918)" fill="black"/>
<rect x="356.142" y="24.9705" width="4" height="4" transform="rotate(-45 356.142 24.9705)" fill="black"/>
<rect x="353.314" y="22.1421" width="4" height="4" transform="rotate(-45 353.314 22.1421)" fill="black"/>
<rect x="350.485" y="19.3137" width="4" height="4" transform="rotate(-45 350.485 19.3137)" fill="black"/>
<rect x="348.364" y="17.1924" width="4" height="4" transform="rotate(-45 348.364 17.1924)" fill="black"/>
<rect x="346" y="14.8284" width="4" height="4" transform="rotate(-45 346 14.8284)" fill="black"/>
<rect x="344" y="12.8284" width="4" height="4" transform="rotate(-45 344 12.8284)" fill="black"/>
<rect x="342" y="10.8284" width="4" height="4" transform="rotate(-45 342 10.8284)" fill="black"/>
<rect x="364.627" y="37.6985" width="4" height="4" transform="rotate(-45 364.627 37.6985)" fill="black"/>
<rect x="368.87" y="33.4558" width="4" height="4" transform="rotate(-45 368.87 33.4558)" fill="black"/>
<rect x="369.577" y="29.9204" width="4" height="4" transform="rotate(-45 369.577 29.9204)" fill="black"/>
<rect x="361.092" y="38.4055" width="4" height="4" transform="rotate(-45 361.092 38.4055)" fill="black"/>
<rect x="370.698" y="12.8994" width="4" height="4" transform="rotate(-135 370.698 12.8994)" fill="black"/>
<rect x="367.87" y="15.7278" width="4" height="4" transform="rotate(-135 367.87 15.7278)" fill="black"/>
<rect x="365.042" y="18.5564" width="4" height="4" transform="rotate(-135 365.042 18.5564)" fill="black"/>
<rect x="362.213" y="21.3848" width="4" height="4" transform="rotate(-135 362.213 21.3848)" fill="black"/>
<rect x="360.092" y="23.5061" width="4" height="4" transform="rotate(-135 360.092 23.5061)" fill="black"/>
<rect x="357.97" y="25.6274" width="4" height="4" transform="rotate(-135 357.97 25.6274)" fill="black"/>
<rect x="355.142" y="28.4558" width="4" height="4" transform="rotate(-135 355.142 28.4558)" fill="black"/>
<rect x="352.314" y="31.2842" width="4" height="4" transform="rotate(-135 352.314 31.2842)" fill="black"/>
<rect x="350.192" y="33.4055" width="4" height="4" transform="rotate(-135 350.192 33.4055)" fill="black"/>
<rect x="348.071" y="35.5269" width="4" height="4" transform="rotate(-135 348.071 35.5269)" fill="black"/>
<rect x="345.828" y="37.6567" width="4" height="4" transform="rotate(-135 345.828 37.6567)" fill="black"/>
<rect x="344.828" y="38.6567" width="4" height="4" transform="rotate(-135 344.828 38.6567)" fill="black"/>
<rect x="370.698" y="17.1421" width="4" height="4" transform="rotate(-135 370.698 17.1421)" fill="black"/>
<rect x="366.456" y="12.8994" width="4" height="4" transform="rotate(-135 366.456 12.8994)" fill="black"/>
<rect x="362.92" y="12.1924" width="4" height="4" transform="rotate(-135 362.92 12.1924)" fill="black"/>
<rect x="371.406" y="20.6777" width="4" height="4" transform="rotate(-135 371.406 20.6777)" fill="black"/>
<rect x="270" y="36" width="4" height="4" transform="rotate(-180 270 36)" fill="black"/>
<rect x="320" y="36" width="4" height="4" transform="rotate(-180 320 36)" fill="black"/>
</g>
<defs>
<clipPath id="clip0_215_22796">
<rect width="384" height="48" fill="white"/>
</clipPath>
</defs>
</svg>
