<svg width="275" height="25" viewBox="0 0 275 25" fill="none" xmlns="http://www.w3.org/2000/svg">
<g clip-path="url(#clip0_225_17184)">
<path d="M20.5181 13.3479C21.1448 12.9563 21.1448 12.0436 20.5181 11.6519L6.73825 3.03953C6.0722 2.62325 5.20825 3.10209 5.20825 3.88753V21.1124C5.20825 21.8978 6.0722 22.3766 6.73825 21.9604L20.5181 13.3479Z" fill="#071739"/>
<rect x="29.1667" y="3.125" width="6.25" height="18.75" rx="2" fill="#071739"/>
<rect x="39.5833" y="3.125" width="6.25" height="18.75" rx="2" fill="#071739"/>
<path d="M65.3408 13.3438C65.9583 12.9508 65.9583 12.0494 65.3408 11.6564L56.7451 6.18644C56.0794 5.7628 55.2083 6.24101 55.2083 7.0301V17.9701C55.2083 18.7592 56.0794 19.2374 56.7451 18.8138L65.3408 13.3438Z" fill="#071739"/>
<rect x="67.7083" y="5.20825" width="2.08333" height="14.5833" rx="1" fill="#071739"/>
<path d="M84.6592 13.3435C84.0417 12.9506 84.0417 12.0491 84.6592 11.6562L93.2549 6.1862C93.9206 5.76256 94.7917 6.24077 94.7917 7.02986V17.9698C94.7917 18.7589 93.9206 19.2372 93.2549 18.8135L84.6592 13.3435Z" fill="#071739"/>
<rect width="2.08333" height="14.5833" rx="1" transform="matrix(-1 0 0 1 82.2917 5.20825)" fill="#071739"/>
<path d="M122.602 6.26046C123.228 5.86879 123.228 4.95613 122.602 4.56446L117.155 1.16038C116.489 0.7441 115.625 1.22294 115.625 2.00838V8.81655C115.625 9.60198 116.489 10.0808 117.155 9.66455L122.602 6.26046Z" fill="#071739"/>
<path d="M102.517 19.802C101.89 19.4103 101.89 18.4976 102.517 18.106L107.963 14.7019C108.629 14.2856 109.493 14.7644 109.493 15.5499V22.3581C109.493 23.1435 108.629 23.6223 107.963 23.2061L102.517 19.802Z" fill="#071739"/>
<path d="M104.167 11.4583V11.4583C104.167 8.00647 106.965 5.20825 110.417 5.20825V5.20825H115.625" stroke="#071739" stroke-width="2" stroke-linecap="round" stroke-linejoin="round"/>
<path d="M119.792 12.5V12.5C119.792 15.9518 116.994 18.75 113.542 18.75V18.75H108.333" stroke="#071739" stroke-width="2" stroke-linecap="round" stroke-linejoin="round"/>
<path d="M166.667 18.7499C165.024 18.7499 163.486 18.1068 162.345 17.0151" stroke="#071739" stroke-width="2" stroke-linecap="round" stroke-linejoin="round"/>
<path d="M157.453 8.38746C156.03 7.04175 154.121 6.25 152.083 6.25" stroke="#071739" stroke-width="2" stroke-linecap="round" stroke-linejoin="round"/>
<path d="M173.643 19.802C174.27 19.4103 174.27 18.4976 173.643 18.106L168.197 14.7019C167.53 14.2856 166.667 14.7644 166.667 15.5499V22.3581C166.667 23.1435 167.53 23.6223 168.197 23.2061L173.643 19.802Z" fill="#071739"/>
<path d="M166.667 6.25V6.25C164.143 6.25 161.868 7.76711 160.897 10.0962L159.295 13.9423C158.082 16.8536 155.237 18.75 152.083 18.75V18.75" stroke="#071739" stroke-width="2" stroke-linecap="round" stroke-linejoin="round"/>
<path d="M172.602 7.30197C173.228 6.9103 173.228 5.99764 172.602 5.60597L167.155 2.20188C166.489 1.7856 165.625 2.26445 165.625 3.04988V9.85805C165.625 10.6435 166.489 11.1223 167.155 10.7061L172.602 7.30197Z" fill="#071739"/>
<path d="M183.333 11.4584C186.21 11.4584 188.542 9.12656 188.542 6.25008C188.542 3.3736 186.21 1.04175 183.333 1.04175C180.457 1.04175 178.125 3.3736 178.125 6.25008C178.125 9.12656 180.457 11.4584 183.333 11.4584Z" fill="#071739"/>
<path d="M175 21.5417C175 17.1235 178.582 13.5417 183 13.5417H183.667C188.085 13.5417 191.667 17.1235 191.667 21.5417V21.9584C191.667 23.063 190.771 23.9584 189.667 23.9584H177C175.895 23.9584 175 23.063 175 21.9584V21.5417Z" fill="#071739"/>
<path d="M192.708 13.5417C194.434 13.5417 195.833 12.1426 195.833 10.4167C195.833 8.69086 194.434 7.29175 192.708 7.29175C190.982 7.29175 189.583 8.69086 189.583 10.4167C189.583 12.1426 190.982 13.5417 192.708 13.5417Z" fill="#071739"/>
<path d="M194.792 10.4166V2.08325L197.917 3.12492" stroke="#071739" stroke-width="2" stroke-linecap="round" stroke-linejoin="round"/>
<path d="M211.961 3.21272C212.622 2.73996 213.542 3.21308 213.542 4.02646V20.9734C213.542 21.7868 212.622 22.2599 211.961 21.7871L206.25 17.7083H203.042C201.937 17.7083 201.042 16.8128 201.042 15.7083V9.2916C201.042 8.18703 201.937 7.2916 203.042 7.2916H206.25L211.961 3.21272Z" fill="#071739"/>
<path d="M216.66 17.6098C217.953 16.294 218.75 14.4902 218.75 12.5001C218.75 10.5016 217.946 8.6909 216.644 7.37378" stroke="#071739" stroke-width="2" stroke-linecap="round" stroke-linejoin="round"/>
<path d="M219.561 4.39771C221.634 6.47126 222.917 9.33584 222.917 12.5C222.917 15.6641 221.634 18.5287 219.561 20.6022" stroke="#071739" stroke-width="2" stroke-linecap="round" stroke-linejoin="round"/>
<path fill-rule="evenodd" clip-rule="evenodd" d="M245.084 4.91632C245.389 5.22142 245.389 5.71608 245.084 6.02118L231.021 20.0837C230.716 20.3888 230.221 20.3888 229.916 20.0837C229.611 19.7786 229.611 19.2839 229.916 18.9788L243.979 4.91632C244.284 4.61123 244.779 4.61123 245.084 4.91632Z" fill="#071739"/>
<path fill-rule="evenodd" clip-rule="evenodd" d="M229.916 4.91632C230.221 4.61123 230.716 4.61123 231.021 4.91632L245.084 18.9788C245.389 19.2839 245.389 19.7786 245.084 20.0837C244.779 20.3888 244.284 20.3888 243.979 20.0837L229.916 6.02118C229.611 5.71608 229.611 5.22142 229.916 4.91632Z" fill="#071739"/>
<path d="M147.602 6.26046C148.228 5.86879 148.228 4.95613 147.602 4.56446L142.155 1.16038C141.489 0.7441 140.625 1.22294 140.625 2.00838V8.81655C140.625 9.60198 141.489 10.0808 142.155 9.66455L147.602 6.26046Z" fill="#071739"/>
<path d="M127.517 19.802C126.89 19.4103 126.89 18.4976 127.517 18.106L132.963 14.7019C133.629 14.2856 134.493 14.7644 134.493 15.5499V22.3581C134.493 23.1435 133.629 23.6223 132.963 23.2061L127.517 19.802Z" fill="#071739"/>
<path d="M129.167 11.4583V11.4583C129.167 8.00647 131.965 5.20825 135.417 5.20825V5.20825H140.625" stroke="#071739" stroke-width="2" stroke-linecap="round" stroke-linejoin="round"/>
<path d="M144.792 12.5V12.5C144.792 15.9518 141.994 18.75 138.542 18.75V18.75H133.333" stroke="#071739" stroke-width="2" stroke-linecap="round" stroke-linejoin="round"/>
<path d="M138.217 15.1967H136.877V9.13675L135.367 9.65675V8.60675L137.537 7.63675H138.217V15.1967Z" fill="#071739"/>
<path d="M258.333 11.4584C261.21 11.4584 263.542 9.12656 263.542 6.25008C263.542 3.3736 261.21 1.04175 258.333 1.04175C255.457 1.04175 253.125 3.3736 253.125 6.25008C253.125 9.12656 255.457 11.4584 258.333 11.4584Z" fill="white"/>
<path d="M250 21.5417C250 17.1235 253.582 13.5417 258 13.5417H258.667C263.085 13.5417 266.667 17.1235 266.667 21.5417V21.9584C266.667 23.063 265.771 23.9584 264.667 23.9584H252C250.895 23.9584 250 23.063 250 21.9584V21.5417Z" fill="white"/>
<path d="M267.708 13.5417C269.434 13.5417 270.833 12.1426 270.833 10.4167C270.833 8.69086 269.434 7.29175 267.708 7.29175C265.982 7.29175 264.583 8.69086 264.583 10.4167C264.583 12.1426 265.982 13.5417 267.708 13.5417Z" fill="white"/>
<path d="M269.792 10.4166V2.08325L272.917 3.12492" stroke="white" stroke-width="2" stroke-linecap="round" stroke-linejoin="round"/>
</g>
<defs>
<clipPath id="clip0_225_17184">
<rect width="275" height="25" fill="white"/>
</clipPath>
</defs>
</svg>