<svg width="225" height="45" viewBox="0 0 225 45" fill="none" xmlns="http://www.w3.org/2000/svg">
<path d="M32 22C32 16.4771 27.5229 12 22 12C16.4771 12 12 16.4771 12 22C12 26.9912 15.6568 31.1283 20.4375 31.8785V24.8906H17.8984V22H20.4375V19.7969C20.4375 17.2906 21.9305 15.9063 24.2146 15.9063C25.3084 15.9063 26.4531 16.1016 26.4531 16.1016V18.5625H25.1922C23.95 18.5625 23.5625 19.3334 23.5625 20.125V22H26.3359L25.8926 24.8906H23.5625V31.8785C28.3432 31.1283 32 26.9912 32 22Z" fill="black"/>
<path d="M67 13.8008C69.6719 13.8008 69.9883 13.8125 71.0391 13.8594C72.0156 13.9023 72.543 14.0664 72.8945 14.2031C73.3594 14.3828 73.6953 14.6016 74.043 14.9492C74.3945 15.3008 74.6094 15.6328 74.7891 16.0977C74.9258 16.4492 75.0898 16.9805 75.1328 17.9531C75.1797 19.0078 75.1914 19.3242 75.1914 21.9922C75.1914 24.6641 75.1797 24.9805 75.1328 26.0313C75.0898 27.0078 74.9258 27.5352 74.7891 27.8867C74.6094 28.3516 74.3906 28.6875 74.043 29.0352C73.6914 29.3867 73.3594 29.6016 72.8945 29.7813C72.543 29.918 72.0117 30.082 71.0391 30.125C69.9844 30.1719 69.668 30.1836 67 30.1836C64.3281 30.1836 64.0117 30.1719 62.9609 30.125C61.9844 30.082 61.457 29.918 61.1055 29.7813C60.6406 29.6016 60.3047 29.3828 59.957 29.0352C59.6055 28.6836 59.3906 28.3516 59.2109 27.8867C59.0742 27.5352 58.9102 27.0039 58.8672 26.0313C58.8203 24.9766 58.8086 24.6602 58.8086 21.9922C58.8086 19.3203 58.8203 19.0039 58.8672 17.9531C58.9102 16.9766 59.0742 16.4492 59.2109 16.0977C59.3906 15.6328 59.6094 15.2969 59.957 14.9492C60.3086 14.5977 60.6406 14.3828 61.1055 14.2031C61.457 14.0664 61.9883 13.9023 62.9609 13.8594C64.0117 13.8125 64.3281 13.8008 67 13.8008ZM67 12C64.2852 12 63.9453 12.0117 62.8789 12.0586C61.8164 12.1055 61.0859 12.2773 60.4531 12.5234C59.793 12.7812 59.2344 13.1211 58.6797 13.6797C58.1211 14.2344 57.7813 14.793 57.5234 15.4492C57.2773 16.0859 57.1055 16.8125 57.0586 17.875C57.0117 18.9453 57 19.2852 57 22C57 24.7148 57.0117 25.0547 57.0586 26.1211C57.1055 27.1836 57.2773 27.9141 57.5234 28.5469C57.7813 29.207 58.1211 29.7656 58.6797 30.3203C59.2344 30.875 59.793 31.2188 60.4492 31.4727C61.0859 31.7188 61.8125 31.8906 62.875 31.9375C63.9414 31.9844 64.2813 31.9961 66.9961 31.9961C69.7109 31.9961 70.0508 31.9844 71.1172 31.9375C72.1797 31.8906 72.9102 31.7188 73.543 31.4727C74.1992 31.2188 74.7578 30.875 75.3125 30.3203C75.8672 29.7656 76.2109 29.207 76.4648 28.5508C76.7109 27.9141 76.8828 27.1875 76.9297 26.125C76.9766 25.0586 76.9883 24.7188 76.9883 22.0039C76.9883 19.2891 76.9766 18.9492 76.9297 17.8828C76.8828 16.8203 76.7109 16.0898 76.4648 15.457C76.2188 14.793 75.8789 14.2344 75.3203 13.6797C74.7656 13.125 74.207 12.7813 73.5508 12.5273C72.9141 12.2812 72.1875 12.1094 71.125 12.0625C70.0547 12.0117 69.7148 12 67 12Z" fill="black"/>
<path d="M67 16.8633C64.1641 16.8633 61.8633 19.1641 61.8633 22C61.8633 24.8359 64.1641 27.1367 67 27.1367C69.8359 27.1367 72.1367 24.8359 72.1367 22C72.1367 19.1641 69.8359 16.8633 67 16.8633ZM67 25.332C65.1602 25.332 63.668 23.8398 63.668 22C63.668 20.1602 65.1602 18.668 67 18.668C68.8398 18.668 70.332 20.1602 70.332 22C70.332 23.8398 68.8398 25.332 67 25.332Z" fill="black"/>
<path d="M73.5391 16.6602C73.5391 17.3242 73 17.8594 72.3398 17.8594C71.6758 17.8594 71.1406 17.3203 71.1406 16.6602C71.1406 15.9961 71.6797 15.4609 72.3398 15.4609C73 15.4609 73.5391 16 73.5391 16.6602Z" fill="black"/>
<g clip-path="url(#clip0_18230_808)">
<path d="M122.601 18.1546C122.488 17.7291 122.265 17.3408 121.955 17.0285C121.645 16.7162 121.258 16.4908 120.833 16.375C119.27 15.9546 113.02 15.9546 113.02 15.9546C113.02 15.9546 106.77 15.9546 105.206 16.375C104.781 16.4908 104.394 16.7162 104.084 17.0285C103.774 17.3408 103.551 17.7291 103.438 18.1546C103.02 19.725 103.02 23 103.02 23C103.02 23 103.02 26.275 103.438 27.8455C103.551 28.271 103.774 28.6593 104.084 28.9716C104.394 29.2839 104.781 29.5092 105.206 29.625C106.77 30.0455 113.02 30.0455 113.02 30.0455C113.02 30.0455 119.27 30.0455 120.833 29.625C121.258 29.5092 121.645 29.2839 121.955 28.9716C122.265 28.6593 122.488 28.271 122.601 27.8455C123.02 26.275 123.02 23 123.02 23C123.02 23 123.02 19.725 122.601 18.1546Z" fill="black"/>
<path d="M110.975 25.9739V20.0261L116.202 23L110.975 25.9739Z" fill="#FEFEFE"/>
</g>
<g clip-path="url(#clip1_18230_808)">
<path fill-rule="evenodd" clip-rule="evenodd" d="M157 12.4166C154.626 12.4179 152.33 13.2587 150.523 14.7887C148.715 16.3188 147.513 18.4383 147.133 20.7683C146.753 23.0983 147.218 25.4868 148.447 27.5068C149.675 29.5267 151.586 31.0464 153.838 31.7941C154.334 31.8863 154.521 31.5784 154.521 31.3166C154.521 31.0548 154.512 30.2958 154.508 29.466C151.726 30.0669 151.138 28.292 151.138 28.292C150.685 27.1395 150.029 26.8365 150.029 26.8365C149.122 26.2208 150.097 26.2323 150.097 26.2323C151.102 26.3031 151.63 27.258 151.63 27.258C152.521 28.7777 153.97 28.3381 154.54 28.0813C154.629 27.4375 154.889 26.9995 155.176 26.7509C152.953 26.5007 150.619 25.6478 150.619 21.8378C150.605 20.8497 150.973 19.8942 151.648 19.1689C151.546 18.9186 151.203 17.9077 151.746 16.5345C151.746 16.5345 152.586 16.2678 154.497 17.5537C156.136 17.108 157.865 17.108 159.504 17.5537C161.413 16.2678 162.251 16.5345 162.251 16.5345C162.796 17.9044 162.453 18.9153 162.351 19.1689C163.028 19.8943 163.397 20.8515 163.382 21.8411C163.382 25.6593 161.042 26.5007 158.817 26.746C159.175 27.0555 159.494 27.6598 159.494 28.5884C159.494 29.9188 159.483 30.989 159.483 31.3166C159.483 31.5817 159.663 31.8912 160.17 31.7941C162.422 31.0463 164.333 29.5264 165.561 27.5061C166.789 25.4858 167.255 23.0969 166.874 20.7667C166.493 18.4365 165.291 16.3169 163.483 14.7871C161.675 13.2573 159.378 12.4171 157.004 12.4166H157Z" fill="black"/>
<path d="M150.786 26.6933C150.765 26.7427 150.685 26.7575 150.621 26.7229C150.556 26.6883 150.508 26.6241 150.531 26.5731C150.554 26.522 150.632 26.5089 150.697 26.5434C150.761 26.578 150.811 26.6439 150.786 26.6933Z" fill="black"/>
<path d="M151.193 27.1428C151.159 27.16 151.12 27.1648 151.082 27.1563C151.045 27.1479 151.012 27.1268 150.988 27.0967C150.923 27.0275 150.91 26.932 150.96 26.8892C151.01 26.8464 151.099 26.8662 151.164 26.9353C151.228 27.0045 151.243 27.1 151.193 27.1428Z" fill="black"/>
<path d="M151.587 27.7142C151.525 27.757 151.421 27.7142 151.363 27.6286C151.347 27.6132 151.334 27.5948 151.326 27.5744C151.317 27.5541 151.312 27.5322 151.312 27.51C151.312 27.4879 151.317 27.466 151.326 27.4456C151.334 27.4253 151.347 27.4068 151.363 27.3915C151.424 27.3503 151.529 27.3915 151.587 27.4755C151.645 27.5594 151.646 27.6714 151.587 27.7142V27.7142Z" fill="black"/>
<path d="M152.122 28.2674C152.067 28.3283 151.956 28.3118 151.865 28.2295C151.774 28.1472 151.752 28.0352 151.807 27.9759C151.862 27.9167 151.973 27.9331 152.067 28.0138C152.161 28.0945 152.18 28.2081 152.122 28.2674V28.2674Z" fill="black"/>
<path d="M152.872 28.5901C152.848 28.6675 152.735 28.702 152.622 28.6691C152.51 28.6362 152.435 28.544 152.457 28.4649C152.478 28.3859 152.593 28.3497 152.707 28.3859C152.821 28.4221 152.894 28.5094 152.872 28.5901Z" fill="black"/>
<path d="M153.691 28.646C153.691 28.7267 153.598 28.7959 153.479 28.7975C153.359 28.7991 153.262 28.7333 153.262 28.6526C153.262 28.5719 153.354 28.5028 153.474 28.5011C153.593 28.4995 153.691 28.5637 153.691 28.646Z" fill="black"/>
<path d="M154.451 28.5193C154.466 28.6 154.383 28.684 154.264 28.7037C154.144 28.7235 154.04 28.6757 154.025 28.5967C154.01 28.5177 154.096 28.432 154.212 28.4106C154.328 28.3892 154.436 28.4386 154.451 28.5193Z" fill="black"/>
</g>
<path d="M200.241 20.39C199.671 20.39 199.221 20.89 199.221 21.5C199.221 22.11 199.681 22.61 200.241 22.61C200.811 22.61 201.261 22.11 201.261 21.5C201.271 20.89 200.811 20.39 200.241 20.39ZM203.891 20.39C203.321 20.39 202.871 20.89 202.871 21.5C202.871 22.11 203.331 22.61 203.891 22.61C204.461 22.61 204.911 22.11 204.911 21.5C204.911 20.89 204.461 20.39 203.891 20.39Z" fill="black"/>
<path d="M208.751 12H195.351C194.221 12 193.301 12.92 193.301 14.06V27.58C193.301 28.72 194.221 29.64 195.351 29.64H206.691L206.161 27.79L207.441 28.98L208.651 30.1L210.801 32V14.06C210.801 12.92 209.881 12 208.751 12ZM204.891 25.06C204.891 25.06 204.531 24.63 204.231 24.25C205.541 23.88 206.041 23.06 206.041 23.06C205.631 23.33 205.241 23.52 204.891 23.65C204.391 23.86 203.911 24 203.441 24.08C202.481 24.26 201.601 24.21 200.851 24.07C200.281 23.96 199.791 23.8 199.381 23.64C199.151 23.55 198.901 23.44 198.651 23.3C198.621 23.28 198.591 23.27 198.561 23.25C198.541 23.24 198.531 23.23 198.521 23.22C198.341 23.12 198.241 23.05 198.241 23.05C198.241 23.05 198.721 23.85 199.991 24.23C199.691 24.61 199.321 25.06 199.321 25.06C197.111 24.99 196.271 23.54 196.271 23.54C196.271 20.32 197.711 17.71 197.711 17.71C199.151 16.63 200.521 16.66 200.521 16.66L200.621 16.78C198.821 17.3 197.991 18.09 197.991 18.09C197.991 18.09 198.211 17.97 198.581 17.8C199.651 17.33 200.501 17.2 200.851 17.17C200.911 17.16 200.961 17.15 201.021 17.15C201.631 17.07 202.321 17.05 203.041 17.13C203.991 17.24 205.011 17.52 206.051 18.09C206.051 18.09 205.261 17.34 203.561 16.82L203.701 16.66C203.701 16.66 205.071 16.63 206.511 17.71C206.511 17.71 207.951 20.32 207.951 23.54C207.951 23.54 207.101 24.99 204.891 25.06V25.06Z" fill="black"/>
<defs>
<clipPath id="clip0_18230_808">
<rect width="20" height="20" fill="white" transform="translate(103 13)"/>
</clipPath>
<clipPath id="clip1_18230_808">
<rect width="20" height="20" fill="white" transform="translate(147 12)"/>
</clipPath>
</defs>
</svg>
