<svg width="500" height="500" viewBox="0 0 500 500" fill="none" xmlns="http://www.w3.org/2000/svg">
<path d="M30 15.0917C30 6.75677 23.2843 0 15 0C6.71572 0 0 6.75677 0 15.0917C0 22.6242 5.48525 28.8678 12.6562 30V19.4541H8.84766V15.0917H12.6562V11.7668C12.6562 7.98444 14.8957 5.89518 18.322 5.89518C19.9626 5.89518 21.6797 6.18994 21.6797 6.18994V9.90391H19.7883C17.925 9.90391 17.3438 11.0673 17.3438 12.262V15.0917H21.5039L20.8389 19.4541H17.3438V30C24.5147 28.8678 30 22.6242 30 15.0917Z" fill="black"/>
<path d="M65 2.70117C69.0078 2.70117 69.4824 2.71875 71.0586 2.78906C72.5234 2.85352 73.3145 3.09961 73.8418 3.30469C74.5391 3.57422 75.043 3.90234 75.5645 4.42383C76.0918 4.95117 76.4141 5.44922 76.6836 6.14648C76.8887 6.67383 77.1348 7.4707 77.1992 8.92969C77.2695 10.5117 77.2871 10.9863 77.2871 14.9883C77.2871 18.9961 77.2695 19.4707 77.1992 21.0469C77.1348 22.5117 76.8887 23.3027 76.6836 23.8301C76.4141 24.5273 76.0859 25.0313 75.5645 25.5527C75.0371 26.0801 74.5391 26.4023 73.8418 26.6719C73.3145 26.877 72.5176 27.123 71.0586 27.1875C69.4766 27.2578 69.002 27.2754 65 27.2754C60.9922 27.2754 60.5176 27.2578 58.9414 27.1875C57.4766 27.123 56.6855 26.877 56.1582 26.6719C55.4609 26.4023 54.957 26.0742 54.4355 25.5527C53.9082 25.0254 53.5859 24.5273 53.3164 23.8301C53.1113 23.3027 52.8652 22.5059 52.8008 21.0469C52.7305 19.4648 52.7129 18.9902 52.7129 14.9883C52.7129 10.9805 52.7305 10.5059 52.8008 8.92969C52.8652 7.46484 53.1113 6.67383 53.3164 6.14648C53.5859 5.44922 53.9141 4.94531 54.4355 4.42383C54.9629 3.89648 55.4609 3.57422 56.1582 3.30469C56.6855 3.09961 57.4824 2.85352 58.9414 2.78906C60.5176 2.71875 60.9922 2.70117 65 2.70117ZM65 0C60.9277 0 60.418 0.0175781 58.8184 0.0878906C57.2246 0.158203 56.1289 0.416016 55.1797 0.785156C54.1895 1.17187 53.3516 1.68164 52.5195 2.51953C51.6816 3.35156 51.1719 4.18945 50.7852 5.17383C50.416 6.12891 50.1582 7.21875 50.0879 8.8125C50.0176 10.418 50 10.9277 50 15C50 19.0723 50.0176 19.582 50.0879 21.1816C50.1582 22.7754 50.416 23.8711 50.7852 24.8203C51.1719 25.8105 51.6816 26.6484 52.5195 27.4805C53.3516 28.3125 54.1895 28.8281 55.1738 29.209C56.1289 29.5781 57.2188 29.8359 58.8125 29.9062C60.4121 29.9766 60.9219 29.9941 64.9941 29.9941C69.0664 29.9941 69.5762 29.9766 71.1758 29.9062C72.7695 29.8359 73.8652 29.5781 74.8145 29.209C75.7988 28.8281 76.6367 28.3125 77.4688 27.4805C78.3008 26.6484 78.8164 25.8105 79.1973 24.8262C79.5664 23.8711 79.8242 22.7813 79.8945 21.1875C79.9648 19.5879 79.9824 19.0781 79.9824 15.0059C79.9824 10.9336 79.9648 10.4238 79.8945 8.82422C79.8242 7.23047 79.5664 6.13477 79.1973 5.18555C78.8281 4.18945 78.3184 3.35156 77.4805 2.51953C76.6484 1.6875 75.8105 1.17188 74.8262 0.791016C73.8711 0.421875 72.7813 0.164062 71.1875 0.09375C69.582 0.0175781 69.0723 0 65 0Z" fill="black"/>
<path d="M65 7.29492C60.7461 7.29492 57.2949 10.7461 57.2949 15C57.2949 19.2539 60.7461 22.7051 65 22.7051C69.2539 22.7051 72.7051 19.2539 72.7051 15C72.7051 10.7461 69.2539 7.29492 65 7.29492ZM65 19.998C62.2402 19.998 60.002 17.7598 60.002 15C60.002 12.2402 62.2402 10.002 65 10.002C67.7598 10.002 69.998 12.2402 69.998 15C69.998 17.7598 67.7598 19.998 65 19.998Z" fill="black"/>
<path d="M74.8086 6.99024C74.8086 7.98633 74 8.78907 73.0098 8.78907C72.0137 8.78907 71.2109 7.98047 71.2109 6.99024C71.2109 5.99414 72.0195 5.19141 73.0098 5.19141C74 5.19141 74.8086 6 74.8086 6.99024Z" fill="black"/>
<g clip-path="url(#clip0_49_2)">
<path fill-rule="evenodd" clip-rule="evenodd" d="M115 0.625C111.439 0.626848 107.995 1.88807 105.284 4.18315C102.572 6.47823 100.77 9.65751 100.199 13.1525C99.629 16.6475 100.327 20.2303 102.17 23.2602C104.012 26.2902 106.879 28.5697 110.256 29.6912C111.001 29.8295 111.282 29.3677 111.282 28.975C111.282 28.5823 111.267 27.4438 111.262 26.199C107.089 27.1005 106.207 24.4381 106.207 24.4381C105.527 22.7093 104.543 22.2549 104.543 22.2549C103.182 21.3312 104.645 21.3485 104.645 21.3485C106.153 21.4547 106.945 22.8871 106.945 22.8871C108.281 25.1667 110.455 24.5073 111.309 24.122C111.443 23.1563 111.833 22.4994 112.263 22.1264C108.93 21.751 105.428 20.4717 105.428 14.7568C105.407 13.2746 105.96 11.8413 106.972 10.7534C106.818 10.378 106.304 8.86154 107.119 6.80179C107.119 6.80179 108.378 6.40169 111.245 8.33055C113.703 7.66203 116.297 7.66203 118.756 8.33055C121.62 6.40169 122.877 6.80179 122.877 6.80179C123.694 8.8566 123.18 10.373 123.026 10.7534C124.041 11.8415 124.596 13.2773 124.573 14.7617C124.573 20.489 121.063 21.751 117.725 22.119C118.262 22.5833 118.741 23.4897 118.741 24.8827C118.741 26.8782 118.724 28.4835 118.724 28.975C118.724 29.3726 118.994 29.8369 119.754 29.6912C123.132 28.5696 125.999 26.2896 127.841 23.2592C129.684 20.2287 130.382 16.6454 129.811 13.1501C129.24 9.65475 127.437 6.47544 124.724 4.18076C122.012 1.88607 118.567 0.625676 115.005 0.625H115Z" fill="black"/>
<path d="M105.681 22.04C105.648 22.1141 105.529 22.1364 105.432 22.0845C105.335 22.0326 105.263 21.9363 105.298 21.8597C105.333 21.7832 105.45 21.7634 105.546 21.8153C105.643 21.8672 105.718 21.9659 105.681 22.04Z" fill="black"/>
<path d="M106.289 22.7142C106.238 22.74 106.179 22.7472 106.123 22.7346C106.066 22.722 106.016 22.6903 105.981 22.6451C105.884 22.5414 105.864 22.3981 105.939 22.3339C106.013 22.2697 106.148 22.2993 106.244 22.4031C106.341 22.5068 106.364 22.65 106.289 22.7142Z" fill="black"/>
<path d="M106.88 23.5712C106.788 23.6354 106.632 23.5712 106.545 23.4428C106.521 23.4198 106.502 23.3921 106.489 23.3616C106.476 23.331 106.469 23.2982 106.469 23.265C106.469 23.2318 106.476 23.1989 106.489 23.1684C106.502 23.1378 106.521 23.1102 106.545 23.0872C106.637 23.0254 106.793 23.0872 106.88 23.2131C106.967 23.3391 106.97 23.507 106.88 23.5712Z" fill="black"/>
<path d="M107.683 24.4011C107.601 24.4924 107.434 24.4677 107.298 24.3443C107.161 24.2208 107.129 24.0528 107.211 23.9639C107.293 23.875 107.459 23.8997 107.601 24.0207C107.742 24.1417 107.769 24.3121 107.683 24.4011Z" fill="black"/>
<path d="M108.808 24.8851C108.77 25.0012 108.602 25.0531 108.433 25.0037C108.264 24.9543 108.152 24.816 108.184 24.6974C108.217 24.5789 108.388 24.5245 108.559 24.5789C108.731 24.6332 108.84 24.7641 108.808 24.8851Z" fill="black"/>
<path d="M110.035 24.9691C110.035 25.0901 109.896 25.1938 109.717 25.1963C109.538 25.1988 109.391 25.1 109.391 24.979C109.391 24.858 109.531 24.7542 109.709 24.7518C109.888 24.7493 110.035 24.8456 110.035 24.9691Z" fill="black"/>
<path d="M111.177 24.7789C111.2 24.8999 111.076 25.0259 110.897 25.0555C110.718 25.0851 110.561 25.0135 110.539 24.895C110.517 24.7764 110.646 24.648 110.82 24.6159C110.994 24.5838 111.155 24.6579 111.177 24.7789Z" fill="black"/>
</g>
<path fill-rule="evenodd" clip-rule="evenodd" d="M165 0C156.719 0 150 6.71909 150 15C150 23.2809 156.719 30 165 30C173.265 30 180 23.2809 180 15C180 6.71909 173.265 0 165 0ZM174.908 6.91432C176.697 9.09436 177.771 11.8763 177.804 14.8861C177.381 14.8048 173.151 13.9425 168.888 14.4794C168.791 14.2679 168.709 14.0401 168.612 13.8124C168.351 13.1942 168.059 12.5597 167.766 11.9577C172.484 10.038 174.631 7.27223 174.908 6.91432ZM165 2.21258C168.254 2.21258 171.231 3.43276 173.492 5.43384C173.265 5.75922 171.329 8.34599 166.773 10.0542C164.675 6.19848 162.348 3.0423 161.99 2.55423C162.95 2.32646 163.959 2.21258 165 2.21258ZM159.55 3.41648C159.892 3.87202 162.169 7.04447 164.3 10.8188C158.313 12.4132 153.026 12.3807 152.457 12.3807C153.286 8.41106 155.971 5.10846 159.55 3.41648ZM152.18 15.0163C152.18 14.8861 152.18 14.756 152.18 14.6258C152.733 14.6421 158.948 14.7234 165.342 12.8037C165.716 13.5195 166.057 14.2516 166.383 14.9837C166.22 15.0325 166.041 15.0814 165.879 15.1301C159.273 17.2613 155.759 23.0857 155.466 23.5737C153.433 21.3124 152.18 18.3026 152.18 15.0163ZM165 27.8199C162.039 27.8199 159.306 26.8113 157.142 25.1193C157.37 24.6475 159.973 19.6367 167.196 17.115C167.229 17.0987 167.245 17.0987 167.278 17.0825C169.083 21.7516 169.816 25.6724 170.011 26.795C168.465 27.462 166.773 27.8199 165 27.8199ZM172.142 25.6237C172.012 24.8427 171.329 21.1009 169.653 16.4967C173.671 15.8622 177.185 16.9035 177.625 17.0499C177.072 20.6128 175.022 23.6876 172.142 25.6237Z" fill="black"/>
<path d="M19.269 50L20 50.7431L1.505 68.5L20 86.2569L19.269 87L0 68.5L19.269 50Z" fill="white"/>
<path d="M19.269 50L20 50.7431L1.505 68.5L20 86.2569L19.269 87L0 68.5L19.269 50Z" stroke="white"/>
<path d="M30.731 87L30 86.2569L48.495 68.5L30 50.7431L30.731 50L50 68.5L30.731 87Z" fill="white"/>
<path d="M30.731 87L30 86.2569L48.495 68.5L30 50.7431L30.731 50L50 68.5L30.731 87Z" stroke="white"/>
<path d="M120.44 50H116.977C116.667 50 116.417 50.2495 116.417 50.5572V64.0339C116.417 64.3416 116.667 64.5911 116.977 64.5911H120.44C120.749 64.5911 121 64.3416 121 64.0339V50.5572C121 50.2495 120.749 50 120.44 50Z" fill="white"/>
<path d="M114.023 50H110.56C110.251 50 110 50.2495 110 50.5572V64.0339C110 64.3416 110.251 64.5911 110.56 64.5911H114.023C114.333 64.5911 114.583 64.3416 114.583 64.0339V50.5572C114.583 50.2495 114.333 50 114.023 50Z" fill="white"/>
<path fill-rule="evenodd" clip-rule="evenodd" d="M90.2564 64.5651C90.1735 64.6198 90.0685 64.5852 90.022 64.4876C90.0076 64.4574 90.0001 64.424 90 64.39V50.2006C90 50.0912 90.077 50 90.1718 50C90.2014 50 90.231 50.0091 90.2564 50.0255L100.824 56.9442C100.878 56.9825 100.923 57.0346 100.953 57.0959C100.984 57.1572 101 57.2257 101 57.2953C101 57.3649 100.984 57.4335 100.953 57.4947C100.923 57.556 100.878 57.6081 100.824 57.6464L90.2555 64.5651H90.2564Z" fill="white"/>
<circle cx="57" cy="57" r="7" fill="white"/>
<circle cx="77" cy="57" r="5" stroke="white" stroke-width="4"/>
<defs>
<clipPath id="clip0_49_2">
<rect width="30" height="30" fill="white" transform="translate(100)"/>
</clipPath>
</defs>
</svg>
