<svg width="200" height="200" viewBox="0 0 200 200" fill="none" xmlns="http://www.w3.org/2000/svg">
<path d="M8 27.0044H43M21.125 34.2062L19.6667 39.6075L17.7222 41.408H33.2778L31.3333 39.6075L29.875 34.2062H21.125ZM11.8889 34.2062H39.1111C40.1425 34.2062 41.1317 33.8268 41.861 33.1515C42.5903 32.4762 43 31.5603 43 30.6053V12.6009C43 11.6459 42.5903 10.73 41.861 10.0547C41.1317 9.37938 40.1425 9 39.1111 9H11.8889C10.8575 9 9.86834 9.37938 9.13903 10.0547C8.40972 10.73 8 11.6459 8 12.6009V30.6053C8 31.5603 8.40972 32.4762 9.13903 33.1515C9.86834 33.8268 10.8575 34.2062 11.8889 34.2062Z" stroke="#4857EC" stroke-width="3" stroke-linecap="round" stroke-linejoin="round"/>
<path d="M79.3889 21.603H88.6523C89.315 21.6031 89.9668 21.7599 90.5458 22.0588C91.1247 22.3576 91.6115 22.7885 91.96 23.3105C92.3085 23.8325 92.5071 24.4284 92.5371 25.0415C92.567 25.6545 92.4271 26.2645 92.1309 26.8135L85.3253 39.4166C85.0023 40.0151 84.5055 40.5185 83.8907 40.8703C83.2759 41.222 82.5674 41.4081 81.8447 41.4078H74.0339C73.717 41.4078 73.4 41.3718 73.0908 41.2998L65.7778 39.6074M79.3889 21.603V12.6009C79.3889 11.6459 78.9792 10.73 78.2499 10.0547C77.5206 9.37938 76.5314 9 75.5 9H75.3153C74.3431 9 73.5556 9.72918 73.5556 10.6294C73.5556 11.9149 73.1453 13.1716 72.3733 14.2411L65.7778 23.4035V39.6074M79.3889 21.603H75.5M65.7778 39.6074H61.8889C60.8575 39.6074 59.8683 39.228 59.139 38.5527C58.4097 37.8774 58 36.9615 58 36.0065V25.2039C58 24.2489 58.4097 23.333 59.139 22.6577C59.8683 21.9824 60.8575 21.603 61.8889 21.603H66.75" stroke="#2FEFB1" stroke-width="3" stroke-linecap="round" stroke-linejoin="round"/>
<path d="M118.778 34.2062V30.6053M124.611 34.2062V27.0044M130.444 34.2062V23.4035M134.333 41.408H114.889C113.857 41.408 112.868 41.0286 112.139 40.3533C111.41 39.678 111 38.7621 111 37.8071V12.6009C111 11.6459 111.41 10.73 112.139 10.0547C112.868 9.37938 113.857 9 114.889 9H125.751C126.266 9.0001 126.761 9.18986 127.125 9.52753L137.653 19.2751C138.017 19.6127 138.222 20.0706 138.222 20.548V37.8071C138.222 38.7621 137.813 39.678 137.083 40.3533C136.354 41.0286 135.365 41.408 134.333 41.408Z" stroke="#F9C94E" stroke-width="3" stroke-linecap="round" stroke-linejoin="round"/>
<path d="M179.675 18.1372C178.992 18.1372 178.324 18.3248 177.756 18.6764C177.187 19.0279 176.745 19.5275 176.483 20.112C176.222 20.6965 176.153 21.3397 176.287 21.9603C176.42 22.5808 176.749 23.1508 177.232 23.5982V23.5982C177.634 23.9702 178.128 24.2447 178.672 24.3974C179.216 24.5501 179.792 24.5763 180.349 24.4737C180.906 24.3711 181.428 24.1428 181.867 23.809C182.306 23.4753 182.649 23.0464 182.867 22.5604C183.084 22.0743 183.169 21.5461 183.113 21.0226C183.058 20.4991 182.863 19.9963 182.548 19.5589C182.232 19.1215 181.805 18.7629 181.304 18.5149C180.803 18.2669 180.243 18.1372 179.675 18.1372V18.1372ZM180.847 22.43C180.694 22.5821 180.51 22.7041 180.305 22.7887C180.1 22.8733 179.878 22.9188 179.654 22.9224C179.429 22.9261 179.206 22.8879 178.998 22.81C178.79 22.7322 178.601 22.6163 178.442 22.4693C178.284 22.3223 178.158 22.1472 178.074 21.9545C177.99 21.7618 177.949 21.5553 177.953 21.3475C177.957 21.1396 178.006 20.9347 178.097 20.7448C178.189 20.5549 178.32 20.384 178.485 20.2423C178.804 19.9623 179.228 19.807 179.668 19.8085C180.108 19.8101 180.53 19.9684 180.847 20.2506C181.16 20.5408 181.336 20.9342 181.336 21.3444C181.336 21.7546 181.16 22.148 180.847 22.4383V22.43Z" fill="#FF3344" stroke="#FF3344" stroke-width="0.5"/>
<path d="M162.949 35.6553L159.521 38.8253C159.353 38.9808 159.259 39.1916 159.259 39.4114C159.259 39.6313 159.353 39.8421 159.521 39.9976C159.689 40.153 159.917 40.2404 160.154 40.2404C160.391 40.2404 160.619 40.153 160.787 39.9976L164.215 36.8234C164.382 36.6685 164.476 36.4584 164.476 36.2393C164.476 36.0203 164.382 35.8102 164.215 35.6553C164.048 35.5004 163.821 35.4133 163.584 35.4133C163.348 35.4133 163.121 35.5004 162.954 35.6553H162.949Z" fill="#FF3344" stroke="#FF3344" stroke-width="0.5"/>
<path d="M192.736 9.24203C192.64 9.1527 192.523 9.08504 192.394 9.04426C192.264 9.00347 192.127 8.99064 191.992 9.00675L183.415 9.98089C182.234 10.12 181.137 10.6179 180.294 11.3967L177.562 13.927L172.939 13.6463C171.32 13.5386 169.72 14.0216 168.481 14.9919L162.097 19.9658C161.975 20.0616 161.883 20.1862 161.831 20.3265C161.778 20.4668 161.768 20.6175 161.8 20.7628C161.833 20.9081 161.907 21.0426 162.015 21.1523C162.123 21.2619 162.261 21.3425 162.414 21.3857L167.852 22.9006L166.136 24.5104C166.053 24.587 165.987 24.6781 165.943 24.7783C165.898 24.8785 165.875 24.986 165.875 25.0944C165.875 25.2029 165.898 25.3104 165.943 25.4106C165.987 25.5108 166.053 25.6018 166.136 25.6785L166.359 25.8849L163.604 27.2677C163.301 27.4218 163.04 27.6392 162.843 27.9026C162.646 28.1661 162.518 28.4684 162.47 28.7856C162.421 29.1028 162.452 29.4262 162.562 29.7302C162.671 30.0341 162.856 30.3103 163.1 30.5368L169.729 36.6829C170.145 37.0693 170.709 37.2874 171.298 37.2897C171.406 37.2898 171.513 37.2829 171.619 37.2691C171.964 37.225 172.293 37.1068 172.579 36.924C172.865 36.7413 173.102 36.499 173.269 36.2165L174.771 33.6821L174.994 33.8885C175.077 33.9652 175.175 34.0261 175.283 34.0677C175.392 34.1092 175.508 34.1306 175.625 34.1306C175.742 34.1306 175.858 34.1092 175.966 34.0677C176.074 34.0261 176.173 33.9652 176.255 33.8885L177.99 32.2828L179.626 37.3186C179.672 37.4609 179.759 37.5889 179.878 37.6891C179.996 37.7894 180.142 37.8582 180.299 37.8882C180.36 37.894 180.421 37.894 180.482 37.8882C180.611 37.8883 180.74 37.8621 180.858 37.8115C180.975 37.7609 181.08 37.6871 181.164 37.5952L186.54 31.6926C187.588 30.5454 188.11 29.0637 187.993 27.5649L187.677 23.2927L190.409 20.7624C191.249 19.982 191.785 18.9658 191.934 17.873L192.99 9.93135C193.008 9.80611 192.994 9.67884 192.95 9.55934C192.906 9.43984 192.833 9.33128 192.736 9.24203V9.24203ZM164.505 20.2506L169.636 16.2426C170.525 15.5562 171.668 15.2172 172.823 15.2974L175.885 15.4914L169.288 21.5797L164.505 20.2506ZM171.695 35.4199C171.662 35.4759 171.615 35.524 171.558 35.5604C171.502 35.5969 171.437 35.6206 171.368 35.6298C171.3 35.639 171.231 35.6334 171.165 35.6135C171.099 35.5935 171.04 35.5597 170.991 35.5148L164.353 29.3769C164.304 29.3315 164.268 29.2763 164.246 29.2156C164.225 29.1549 164.219 29.0904 164.229 29.0272C164.239 28.964 164.264 28.9037 164.304 28.8513C164.343 28.7988 164.395 28.7555 164.456 28.7247L167.647 27.1026L173.443 32.4686L171.695 35.4199ZM186.197 27.6804C186.276 28.7491 185.903 29.8044 185.158 30.6235L180.847 35.3827L179.412 30.9537L186.005 24.8488L186.197 27.6804ZM190.146 17.6667C190.049 18.3975 189.692 19.0774 189.13 19.5984L175.618 32.1342L168.013 25.0924L181.543 12.5648C182.105 12.0445 182.84 11.7133 183.629 11.6237L191.1 10.7569L190.146 17.6667Z" fill="#FF3344" stroke="#FF3344" stroke-width="0.5"/>
<path d="M163.934 41.1657C164.017 41.2425 164.115 41.3034 164.223 41.3449C164.332 41.3865 164.448 41.4078 164.565 41.4078C164.682 41.4078 164.798 41.3865 164.906 41.3449C165.014 41.3034 165.113 41.2425 165.196 41.1657L167.028 39.4485C167.195 39.2936 167.289 39.0835 167.289 38.8644C167.289 38.6453 167.195 38.4352 167.028 38.2803C166.86 38.1254 166.634 38.0383 166.397 38.0383C166.16 38.0383 165.933 38.1254 165.766 38.2803L163.912 39.9975C163.83 40.0755 163.766 40.1676 163.723 40.2686C163.68 40.3696 163.659 40.4774 163.661 40.5859C163.663 40.6944 163.688 40.8014 163.735 40.9009C163.782 41.0004 163.85 41.0904 163.934 41.1657V41.1657Z" fill="#FF3344" stroke="#FF3344" stroke-width="0.5"/>
<path d="M158.888 36.1548C159.124 36.1538 159.35 36.0662 159.516 35.9112L161.371 34.194C161.498 34.0342 161.559 33.8371 161.543 33.6389C161.526 33.4408 161.433 33.2549 161.28 33.1153C161.127 32.9758 160.925 32.892 160.711 32.8794C160.496 32.8667 160.285 32.926 160.114 33.0464L158.259 34.7637C158.135 34.8791 158.051 35.0259 158.017 35.1856C157.983 35.3453 158 35.5107 158.068 35.6612C158.135 35.8116 158.249 35.9403 158.394 36.031C158.54 36.1218 158.712 36.1706 158.888 36.1713V36.1548Z" fill="#FF3344" stroke="#FF3344" stroke-width="0.5"/>
</svg>
