<svg width="52" height="26" viewBox="0 0 52 26" fill="none" xmlns="http://www.w3.org/2000/svg">
<rect width="52" height="26" fill="white"/>
<path d="M9.64123 1.53722C9.39009 0.820928 8.29566 0.820928 8.04368 1.53722L6.76782 5.17232C6.71287 5.32837 6.60601 5.46433 6.46253 5.56072C6.31905 5.65711 6.14631 5.709 5.96905 5.70896H1.84162C1.02857 5.70896 0.689233 6.67334 1.34774 7.11664L4.68731 9.36273C4.83076 9.45929 4.93753 9.59542 4.9923 9.75162C5.04707 9.90781 5.04704 10.0761 4.99221 10.2322L3.71719 13.8673C3.46521 14.5836 4.35134 15.1801 5.009 14.7368L8.34858 12.4908C8.49211 12.3941 8.665 12.3421 8.84246 12.3421C9.01991 12.3421 9.1928 12.3941 9.33634 12.4908L12.6759 14.7368C13.3336 15.1801 14.2197 14.5844 13.9677 13.8673L12.6927 10.2322C12.6379 10.0761 12.6378 9.90781 12.6926 9.75162C12.7474 9.59542 12.8541 9.45929 12.9976 9.36273L16.3372 7.11664C16.9948 6.67334 16.6572 5.70896 15.8433 5.70896H11.715C11.5379 5.70883 11.3654 5.65687 11.222 5.56049C11.0787 5.46411 10.972 5.32825 10.9171 5.17232L9.64123 1.53722Z" fill="#F9C94E" stroke="#F9C94E" stroke-linecap="round" stroke-linejoin="round"/>
<path d="M28.6412 1.53722C28.3901 0.820928 27.2957 0.820928 27.0437 1.53722L25.7678 5.17232C25.7129 5.32837 25.606 5.46433 25.4625 5.56072C25.319 5.65711 25.1463 5.709 24.969 5.70896H20.8416C20.0286 5.70896 19.6892 6.67334 20.3477 7.11664L23.6873 9.36273C23.8308 9.45929 23.9375 9.59542 23.9923 9.75162C24.0471 9.90781 24.047 10.0761 23.9922 10.2322L22.7172 13.8673C22.4652 14.5836 23.3513 15.1801 24.009 14.7368L27.3486 12.4908C27.4921 12.3941 27.665 12.3421 27.8425 12.3421C28.0199 12.3421 28.1928 12.3941 28.3363 12.4908L31.6759 14.7368C32.3336 15.1801 33.2197 14.5844 32.9677 13.8673L31.6927 10.2322C31.6379 10.0761 31.6378 9.90781 31.6926 9.75162C31.7474 9.59542 31.8541 9.45929 31.9976 9.36273L35.3372 7.11664C35.9948 6.67334 35.6572 5.70896 34.8433 5.70896H30.715C30.5379 5.70883 30.3654 5.65687 30.222 5.56049C30.0787 5.46411 29.972 5.32825 29.9171 5.17232L28.6412 1.53722Z" stroke="#F9C94E" stroke-linecap="round" stroke-linejoin="round"/>
</svg>
