<svg width="328" height="381" viewBox="0 0 328 381" fill="none" xmlns="http://www.w3.org/2000/svg">
<path fill-rule="evenodd" clip-rule="evenodd" d="M196.38 365.82C200.78 361.56 215.44 345.82 220.18 342.14C220.325 341.985 220.521 341.886 220.732 341.861C220.944 341.836 221.157 341.887 221.334 342.004C221.512 342.122 221.642 342.298 221.702 342.502C221.761 342.707 221.746 342.926 221.66 343.12C219.3 347.38 198.72 366.72 197.52 367.86C196.7 368.88 193.18 373.12 192.22 374C192.25 374.796 192.041 375.584 191.621 376.261C191.2 376.938 190.587 377.474 189.86 377.8C187.283 378.674 184.759 379.696 182.3 380.86C181.94 381.18 181.52 380.86 181.62 380.52C182.853 378.975 183.887 377.282 184.7 375.48C184.875 374.288 185.48 373.201 186.401 372.424C187.322 371.646 188.495 371.233 189.7 371.26C189.84 371 195.14 366.64 196.38 365.82ZM189.64 371.58C188.559 371.643 187.537 372.091 186.759 372.843C185.981 373.596 185.499 374.602 185.4 375.68C184.949 377.037 184.273 378.308 183.4 379.44C188.46 377.34 190.18 377.64 191.28 375.94C191.628 375.375 191.846 374.74 191.92 374.08C190.52 373.7 189.54 371.34 189.64 371.58ZM195.98 366.56C194.42 367.98 192.8 369.5 190.42 371.56C190.769 372.255 191.293 372.848 191.94 373.28L197.16 367.7C196.699 367.403 196.305 367.015 196 366.56H195.98ZM187.08 343C189.36 341.5 220.3 321.14 220.6 322.14C220.9 323.14 190.24 346.34 189.98 346.5C188.68 347.98 179.98 357.36 178.84 357.76C177.389 357.707 176.015 357.098 175 356.06C173.609 354.638 172.58 352.903 172 351C171.62 349.64 185.84 343.52 187.08 343ZM172.98 351.9C173.374 353.168 174.086 354.314 175.049 355.228C176.012 356.141 177.193 356.793 178.48 357.12C177.04 355.76 174 352.86 172.98 351.9ZM178.98 347.28C176.784 348.327 174.677 349.551 172.68 350.94C172.94 351.8 172.68 350.94 174.68 352.6C176.303 353.873 177.726 355.384 178.9 357.08C179.9 356.34 183.96 352.3 183.72 352.52C182.221 350.684 180.618 348.934 178.92 347.28H178.98ZM187.16 343.28C183.86 344.82 181.66 345.9 179.16 347.12C181.144 348.387 182.753 350.162 183.82 352.26C185.02 351.06 189.1 346.92 189.7 346.26C189.12 345.7 187.6 343.96 187.1 343.32L187.16 343.28ZM235.62 320.42C236.64 311.46 238.14 300.32 239.36 300.26C240.58 300.2 239.26 311.46 238 320.48C242 320.82 246.76 323.02 246 326.82C246.036 327.497 245.948 328.175 245.74 328.82C247.74 342.4 245.96 345.2 246.1 344.98C244.935 346.383 243.478 347.514 241.83 348.295C240.182 349.075 238.383 349.487 236.56 349.5C234.729 349.51 232.917 349.129 231.245 348.384C229.572 347.64 228.078 346.547 226.86 345.18C225.2 342.68 226.26 332.12 226.58 329.18C226.403 328.561 226.302 327.923 226.28 327.28C226.039 326.228 226.175 325.125 226.665 324.163C227.155 323.202 227.967 322.443 228.96 322.02C231.006 320.923 233.299 320.372 235.62 320.42ZM245.36 337.98C243.78 341.22 239.36 342.24 235.8 342.24C235.752 343.199 235.645 344.154 235.48 345.1C235.32 345.86 235.14 346.52 234.36 346.5C233.234 346.272 232.243 345.611 231.6 344.66C231.08 343.88 231.2 343.48 231.86 341.76C230.993 341.534 230.187 341.121 229.496 340.551C228.805 339.982 228.247 339.268 227.86 338.46C227.868 340.247 228.049 342.028 228.4 343.78C228.822 344.575 229.425 345.261 230.16 345.78C234.68 349.46 240.16 348.42 244.74 344.48C244.94 343 245.22 340.1 245.36 337.98ZM227 329.98C226.86 332.4 226.32 342.62 227.68 344.62C228.727 345.836 230.051 346.783 231.54 347.38C229.979 346.618 228.708 345.368 227.92 343.82C227.576 341.678 227.462 339.506 227.58 337.34C227.454 336.733 227.477 336.105 227.648 335.509C227.818 334.913 228.131 334.368 228.56 333.92C229.98 332.28 230.32 333.22 229.02 332.32C228.169 331.746 227.475 330.969 227 330.06V329.98ZM232.38 341.78C232.138 342.428 231.957 343.098 231.84 343.78C231.84 344.46 233.64 345.98 234.44 345.9C234.72 345.9 234.8 345.48 234.9 344.98C235.077 344.075 235.198 343.16 235.26 342.24C234.289 342.221 233.323 342.093 232.38 341.86V341.78ZM245.5 329.5C244.813 330.767 243.761 331.799 242.48 332.46C244.78 333.18 246.3 334.72 245.68 337.06C245.68 338.32 245.68 339.56 245.56 340.68C245.36 344.86 245.22 344.68 245.42 344.38C246.36 340.82 245.88 333.34 245.5 329.58V329.5ZM242.14 332.64C240.269 333.545 238.218 334.017 236.14 334.02C236.143 335.215 235.988 336.405 235.68 337.56C235.761 338.892 235.761 340.228 235.68 341.56C238.185 341.646 240.662 341.014 242.82 339.74C246 337.74 246.5 334.12 242.14 332.72V332.64ZM233.88 337.64C233.76 337.92 232.76 340.7 232.58 341.2C233.477 341.418 234.397 341.532 235.32 341.54C235.32 340.56 235.52 338.68 235.5 337.7C234.967 337.817 234.416 337.824 233.88 337.72V337.64ZM230.14 333C226.3 335.64 227.92 339.84 232.14 341.12C232.56 340.06 233.22 338.58 233.7 337.56C233.755 336.366 233.889 335.177 234.1 334C232.733 333.895 231.393 333.557 230.14 333ZM234.28 334.02L234.1 337.26C234.44 337.26 235.54 337.42 235.42 337.26C235.3 337.1 235.68 335.38 235.82 334.06C235.3 334.1 234.78 334.08 234.28 334.04V334.02ZM245.16 328.72C241.6 333.18 230.84 333.24 227.16 328.72C227.549 329.722 228.189 330.608 229.019 331.291C229.849 331.974 230.842 332.432 231.9 332.62C236.46 333.86 243.32 332.86 245.16 328.74V328.72ZM237.7 322.56C237.1 326.7 236.58 330.06 236.4 331.16C239.42 331.16 243.46 330.06 244.86 327.62C244.42 324.5 240.86 322.88 237.7 322.58V322.56ZM235.38 322.56C233.729 322.641 232.13 323.165 230.751 324.076C229.371 324.988 228.262 326.253 227.54 327.74C228.82 329.74 232.04 330.84 234.52 331.08C234.62 329.98 234.94 326.66 235.38 322.58V322.56ZM235.58 320.8C233.4 320.879 231.275 321.505 229.4 322.62C227.62 323.76 226.42 325.52 227.4 327.42C228.082 325.844 229.195 324.493 230.609 323.52C232.024 322.547 233.685 321.993 235.4 321.92L235.58 320.8ZM238 321C238 321.34 237.9 321.68 237.84 322.02C241.14 322.32 244.6 324.02 245.14 327.22C245.86 325.4 244.66 323.76 242.98 322.7C241.462 321.781 239.763 321.201 238 321ZM257.16 329.12C256.22 324.46 248.62 289.74 251.16 287.72C252.062 287.223 253.043 286.885 254.06 286.72C256.86 286.12 274.72 283.72 275.54 286.14C276.36 288.56 271.54 325.42 271.18 327.4C271.18 328.74 270.68 332.48 270.68 332.48C270.161 333.565 269.392 334.51 268.436 335.24C267.48 335.97 266.365 336.462 265.182 336.677C263.999 336.891 262.782 336.822 261.631 336.475C260.48 336.128 259.427 335.513 258.56 334.68C257.892 332.883 257.423 331.019 257.16 329.12ZM274.52 290.58C266.861 290.682 259.22 291.351 251.66 292.58C252.28 300.98 255.92 320.58 257.5 328.94C259.582 330.078 261.955 330.574 264.319 330.364C266.683 330.154 268.931 329.248 270.78 327.76C271 326.06 274.36 292.82 274.52 290.58ZM272.72 302.18C272.72 302.18 272.84 300.82 271.16 301.16C269.48 301.5 266.42 304.38 262.66 304.06C258.9 303.74 255.32 301.64 254.2 303.04C253.08 304.44 257.82 308.86 263.96 307.82C271 306.64 272.86 303.74 272.72 302.18ZM252.92 287.98C252.62 287.98 251.8 288.3 251.72 288.56C251.549 289.828 251.549 291.112 251.72 292.38L253.72 292C253.268 290.704 252.998 289.351 252.92 287.98ZM256.38 287.24C255.36 287.42 254.16 287.64 253.18 287.9C253.477 289.219 253.697 290.555 253.84 291.9C254.6 291.76 256.72 291.4 257.34 291.34C257.28 291.2 256.8 289.54 256.38 287.24ZM260.2 286.74C258.94 286.88 257.74 287.04 256.64 287.2C257.13 288.538 257.426 289.939 257.52 291.36L260.88 290.94C260.76 290.28 260.34 288.2 260.2 286.74ZM263.94 286.38C263.26 286.38 261.82 286.54 260.46 286.7C260.881 288.067 261.09 289.49 261.08 290.92L264.68 290.58C264.62 290.24 264.2 288.44 264 286.38H263.94ZM267.94 286.12L264.2 286.36C264.631 287.719 264.861 289.134 264.88 290.56C266.04 290.56 267.32 290.4 268.46 290.36C268.46 290.32 268 286.38 268 286.12H267.94ZM272.78 286.12C272.708 287.521 272.554 288.917 272.32 290.3H274.54C274.54 289.8 274.88 286.44 274.54 286.3C273.961 286.186 273.371 286.132 272.78 286.14V286.12ZM272.52 286.12H268.22C268.607 287.498 268.756 288.932 268.66 290.36H272.14C272.08 288.936 272.208 287.511 272.52 286.12ZM122 313.66C124.62 313.66 126.76 314.62 126.76 315.84C126.76 317.06 124.62 318.02 122 318.02C119.38 318.02 117.26 317.04 117.26 315.84C117.26 314.64 119.3 313.66 122 313.66ZM71.44 302.14C71.44 302.58 70.62 302.98 69.58 303.02C68.54 303.06 67.58 302.72 67.58 302.26C67.62 301.2 71.4 301 71.44 302.14Z" fill="black"/>
<path d="M90.38 352.62C91.6613 352.62 92.7 352.002 92.7 351.24C92.7 350.478 91.6613 349.86 90.38 349.86C89.0987 349.86 88.06 350.478 88.06 351.24C88.06 352.002 89.0987 352.62 90.38 352.62Z" fill="black"/>
<path fill-rule="evenodd" clip-rule="evenodd" d="M190.26 285C192.26 285 193.98 285.58 193.98 286.28C193.98 286.98 192.32 287.58 190.26 287.58C188.2 287.58 186.56 287 186.56 286.28C186.56 285.56 188.22 285 190.26 285ZM62.92 233.94C62.92 234.44 62.62 238.22 62.78 243.74C62.78 244.48 62.92 247 62.92 247C62.92 247 63.16 247.14 63.16 247C63.16 246.86 63.28 244.48 63.3 243.74C63.42 239.14 63.16 233.74 63.16 233.94C63.16 233.908 63.1474 233.878 63.1249 233.855C63.1024 233.833 63.0718 233.82 63.04 233.82C63.0082 233.82 62.9777 233.833 62.9552 233.855C62.9327 233.878 62.92 233.908 62.92 233.94ZM146.22 15.4001C148.72 16.0801 153.14 17.5001 154.74 19.5601C154.797 19.6357 154.829 19.7279 154.83 19.8228C154.83 19.9178 154.8 20.0105 154.744 20.087C154.688 20.1635 154.608 20.2197 154.518 20.2473C154.427 20.2749 154.329 20.2724 154.24 20.2401C146.24 16.9801 133.5 21.1401 125.42 24.5001C122.22 25.8401 141.42 4.18007 155.22 7.58007C155.314 7.60882 155.397 7.6671 155.456 7.74631C155.514 7.82553 155.546 7.9215 155.546 8.02007C155.546 8.11864 155.514 8.21461 155.456 8.29383C155.397 8.37304 155.314 8.43132 155.22 8.46007C152.083 9.19571 149.002 10.1514 146 11.3201C148.3 11.4201 153.6 11.7601 155.38 13.3201C155.451 13.3811 155.502 13.4614 155.527 13.551C155.553 13.6407 155.552 13.7359 155.525 13.825C155.497 13.9142 155.444 13.9933 155.372 14.0528C155.3 14.1123 155.213 14.1496 155.12 14.1601C152.134 14.4195 149.163 14.8334 146.22 15.4001ZM152.86 8.14007C148.931 8.12571 145.068 9.14664 141.66 11.1001C135.561 14.3358 130.132 18.6997 125.66 23.9601C133.32 20.6401 144.22 16.8801 152.4 18.7601C149.82 17.4422 147.076 16.4737 144.24 15.8801C144.137 15.8582 144.044 15.8016 143.978 15.7197C143.912 15.6377 143.875 15.5355 143.875 15.4301C143.875 15.3246 143.912 15.2224 143.978 15.1405C144.044 15.0586 144.137 15.0019 144.24 14.9801C147.287 14.159 150.398 13.597 153.54 13.3001C150.473 12.5768 147.331 12.2143 144.18 12.2201C144.077 12.223 143.977 12.1915 143.894 12.1306C143.811 12.0697 143.751 11.9828 143.724 11.8839C143.696 11.785 143.702 11.6797 143.742 11.5847C143.781 11.4898 143.851 11.4107 143.94 11.3601C146.783 9.95609 149.775 8.87598 152.86 8.14007ZM17.8 175.44C15.8109 175.701 13.806 175.821 11.8 175.8C11.6981 175.804 11.598 175.773 11.5167 175.711C11.4355 175.649 11.3781 175.562 11.3545 175.462C11.3309 175.363 11.3425 175.259 11.3873 175.167C11.432 175.076 11.5072 175.002 11.6 174.96C14.08 173.62 19.92 172.3 22.92 170.22L30.34 165.26C30.355 165.243 30.3735 165.229 30.3942 165.22C30.4149 165.211 30.4373 165.206 30.46 165.206C30.4827 165.206 30.5052 165.211 30.5258 165.22C30.5465 165.229 30.565 165.243 30.58 165.26C30.8 165.52 30.34 165.54 27.84 168.84C26.1805 170.884 24.8325 173.162 23.84 175.6C22.7675 178.15 21.8262 180.754 21.02 183.4C21.02 184 19.58 184.44 19.98 181.16C20.1456 179.936 20.3725 178.721 20.66 177.52C18.5851 179.018 16.3987 180.355 14.12 181.52C14.0379 181.567 13.9433 181.588 13.849 181.579C13.7548 181.571 13.6654 181.533 13.5933 181.472C13.5211 181.411 13.4695 181.329 13.4457 181.237C13.4219 181.145 13.4269 181.049 13.46 180.96C14.4829 178.823 15.9648 176.938 17.8 175.44ZM29.12 166.58C19.32 173.48 23.7 170.98 13.92 174.88C15.7915 174.876 17.6519 174.593 19.44 174.04L19.66 173.86C20.1 173.52 20.88 174.2 20.02 174.76C18.0975 176.272 16.4005 178.049 14.98 180.04C17.195 178.907 19.2692 177.517 21.16 175.9C21.2304 175.818 21.3273 175.764 21.4337 175.746C21.5402 175.729 21.6495 175.749 21.7424 175.804C21.8354 175.859 21.9061 175.944 21.9422 176.046C21.9783 176.148 21.9776 176.259 21.94 176.36C21.5264 177.868 21.1926 179.397 20.94 180.94C22.5209 175.586 25.3208 170.671 29.12 166.58ZM30.48 157.24C33.8717 151.745 38.7169 147.294 44.48 144.38C52.24 140.72 55.08 144.62 51.56 151.62C48.5626 157.212 44.278 162.011 39.06 165.62C39.6475 167.672 39.8841 169.809 39.76 171.94C39.24 173.94 29.46 177.3 28.12 177.14C28.0185 177.135 27.9202 177.103 27.8356 177.047C27.7511 176.99 27.6835 176.912 27.64 176.82C27.44 176.36 27.9 175.94 28.34 175.6C30.7817 173.816 33.3408 172.199 36 170.76L35.86 167.44L34.72 168C34.6457 168.021 34.5673 168.02 34.4932 167.999C34.4191 167.978 34.3523 167.937 34.3 167.88L28 161.74C27.9705 161.707 27.9542 161.664 27.9542 161.62C27.9542 161.576 27.9705 161.533 28 161.5C28 161.5 28.2 161.08 28.62 160.34H25.12C24.6 161.42 21.12 168.46 20 168.94C19.9195 168.979 19.8309 168.998 19.7416 168.996C19.6522 168.993 19.5648 168.97 19.4864 168.927C19.4081 168.883 19.3413 168.822 19.2914 168.748C19.2416 168.674 19.2103 168.589 19.2 168.5C18.96 167 21.92 157.22 23.88 156.64C26.0563 156.44 28.2506 156.589 30.38 157.08C30.4115 157.093 30.4381 157.115 30.4561 157.144C30.4741 157.173 30.4825 157.206 30.48 157.24ZM38.62 165.76C37.8261 166.289 37.005 166.777 36.16 167.22L36.58 171C36.58 171.3 36.58 171.12 32.58 173.76C31.36 174.54 30.12 175.36 29.28 175.98C32.3147 175.144 35.2413 173.956 38 172.44C38.22 172.3 38.8 171.9 38.88 171.64C39.0913 169.678 39.0037 167.696 38.62 165.76ZM29.8 159.22C29.02 160.38 28.54 161.22 28.36 161.56L34.56 167.3C35.28 166.94 36.06 166.5 36.88 166C34.2968 163.985 31.9247 161.714 29.8 159.22ZM30.3 157.52C28.237 157.227 26.143 157.227 24.08 157.52C23.38 157.76 22.18 160.94 21.96 161.52C21.2538 163.403 20.6856 165.335 20.26 167.3C21.46 165.52 24.74 159.7 24.6 159.98C24.6271 159.924 24.67 159.877 24.7232 159.845C24.7765 159.813 24.8379 159.798 24.9 159.8L28.8 160C29.2 159.24 29.68 158.46 30.3 157.52ZM41.32 147.14C36.7866 150.217 32.9336 154.193 30 158.82C32.6557 160.859 35.0832 163.179 37.24 165.74C41.8038 162.732 45.7205 158.843 48.76 154.3L41.32 147.14ZM37.74 152.16C37.3552 152.563 37.0536 153.038 36.8524 153.558C36.6512 154.078 36.5544 154.632 36.5674 155.189C36.5804 155.746 36.703 156.295 36.9282 156.805C37.1534 157.315 37.4769 157.775 37.88 158.16C38.2832 158.545 38.7582 158.846 39.2779 159.048C39.7976 159.249 40.3519 159.346 40.909 159.333C41.4662 159.32 42.0153 159.197 42.5251 158.972C43.0348 158.747 43.4952 158.423 43.88 158.02C44.6571 157.206 45.0789 156.116 45.0527 154.991C45.0264 153.866 44.5542 152.797 43.74 152.02C42.9258 151.243 41.8362 150.821 40.711 150.847C39.5858 150.874 38.5171 151.346 37.74 152.16ZM43.32 152.48C43.9638 153.141 44.3241 154.027 44.3241 154.95C44.3241 155.873 43.9638 156.759 43.32 157.42C42.6888 158.006 41.8579 158.328 40.9969 158.322C40.1359 158.316 39.3098 157.981 38.6871 157.387C38.0644 156.792 37.6921 155.982 37.6462 155.122C37.6003 154.263 37.8842 153.418 38.44 152.76C39.0588 152.09 39.9133 151.687 40.8235 151.635C41.7337 151.583 42.6287 151.886 43.32 152.48ZM42.22 153.62C42.4924 153.903 42.6755 154.259 42.7468 154.645C42.818 155.031 42.7742 155.429 42.6207 155.79C42.4671 156.152 42.2108 156.46 41.8835 156.676C41.5562 156.893 41.1724 157.008 40.78 157.008C40.3876 157.008 40.0038 156.893 39.6765 156.676C39.3492 156.46 39.0929 156.152 38.9394 155.79C38.7859 155.429 38.742 155.031 38.8132 154.645C38.8845 154.259 39.0677 153.903 39.34 153.62C39.5266 153.427 39.7503 153.273 39.9977 153.167C40.2451 153.062 40.5112 153.008 40.78 153.008C41.0489 153.008 41.3149 153.062 41.5624 153.167C41.8098 153.273 42.0334 153.427 42.22 153.62Z" fill="black"/>
<path fill-rule="evenodd" clip-rule="evenodd" d="M105.54 17.78C105.357 17.6248 105.214 17.4286 105.121 17.2074C105.029 16.9861 104.99 16.7461 105.008 16.507C105.026 16.2679 105.1 16.0364 105.225 15.8315C105.349 15.6266 105.521 15.4541 105.725 15.328C105.929 15.2019 106.159 15.126 106.398 15.1062C106.637 15.0865 106.878 15.1236 107.1 15.2145C107.322 15.3054 107.519 15.4475 107.675 15.6292C107.832 15.8109 107.943 16.0271 108 16.26C108.014 16.5117 107.969 16.7633 107.868 16.9942C107.767 17.2251 107.612 17.4288 107.417 17.5887C107.222 17.7486 106.992 17.8601 106.746 17.9142C106.5 17.9683 106.244 17.9634 106 17.9C106 18.1 105.7 20.32 105.1 22.92C107.879 22.9306 110.562 23.9384 112.66 25.76C112.69 25.7042 112.74 25.6616 112.8 25.64C128.4 23.44 130.02 28.6 125 32.74C119.36 37.4 102.04 42.74 92.48 41.48C89.98 41.18 86.1 40.02 86.06 37.66C86.06 34.62 94.2 31.24 94.52 31.08C95.8238 27.7781 98.3431 25.1013 101.56 23.6C100.14 22.06 98.66 19.82 98.32 19.44C96.62 20.36 95.02 18.18 96.32 17.06C96.6065 16.8089 96.9797 16.6797 97.36 16.7C97.6771 16.6358 98.0066 16.6803 98.2954 16.8263C98.5841 16.9723 98.8153 17.2112 98.9516 17.5047C99.088 17.7981 99.1215 18.1289 99.0468 18.4437C98.9721 18.7586 98.7936 19.0391 98.54 19.24C99.213 19.7247 99.8125 20.304 100.32 20.96C103.2 24.44 100.76 23.24 104.32 22.96C104.426 21.176 104.839 19.4237 105.54 17.78ZM94.18 31.64C92.38 32.52 86.58 35.64 86.66 37.64C86.66 38.3 87.24 38.96 88.3 39.54C95.74 43.54 117.88 37.26 124.3 32.04C127.96 29.1 127.58 26.28 120.62 25.78C117.951 25.6591 115.277 25.7393 112.62 26.02C112.12 27.18 107.3 36.3 94.18 31.64ZM92.18 36.4C92.0929 36.5851 92.0457 36.7863 92.0414 36.9908C92.0371 37.1953 92.0758 37.3983 92.155 37.5869C92.2342 37.7755 92.3521 37.9453 92.5011 38.0853C92.6501 38.2254 92.8269 38.3326 93.02 38.4C93.2118 38.4478 93.411 38.4572 93.6065 38.4277C93.8019 38.3983 93.9895 38.3305 94.1586 38.2283C94.3277 38.126 94.475 37.9914 94.5919 37.8321C94.7089 37.6728 94.7932 37.492 94.84 37.3C94.9594 36.9473 94.9337 36.5616 94.7687 36.2277C94.6036 35.8939 94.3128 35.6393 93.96 35.52C93.6073 35.4007 93.2216 35.4263 92.8877 35.5914C92.5539 35.7564 92.2993 36.0473 92.18 36.4ZM93.82 35.84C94.7 36.24 94.1 37.84 93.26 37.6C92.42 37.36 92.86 35.66 93.82 35.84ZM107.62 34.7C107.479 34.5946 107.315 34.5223 107.142 34.4884C106.969 34.4544 106.791 34.4597 106.62 34.5039C106.449 34.548 106.29 34.6298 106.155 34.7434C106.02 34.8569 105.913 34.9993 105.84 35.16C105.687 35.5185 105.671 35.9211 105.797 36.2903C105.922 36.6596 106.18 36.9693 106.52 37.16C106.682 37.2606 106.865 37.3235 107.055 37.3442C107.245 37.3649 107.438 37.3427 107.618 37.2794C107.798 37.2161 107.962 37.1133 108.097 36.9784C108.233 36.8435 108.336 36.6801 108.4 36.5C108.512 36.1565 108.495 35.7838 108.351 35.4522C108.207 35.1206 107.947 34.8531 107.62 34.7ZM107.46 34.98C108.26 35.58 107.74 36.98 106.9 36.5C106.06 36.02 106.5 34.58 107.46 35V34.98ZM118.16 29.26C118.044 29.1512 117.904 29.07 117.752 29.0224C117.601 28.9748 117.44 28.9621 117.282 28.9851C117.125 29.0082 116.974 29.0664 116.842 29.1556C116.71 29.2447 116.6 29.3624 116.52 29.5C116.365 29.8202 116.333 30.1858 116.429 30.5283C116.524 30.8707 116.742 31.1665 117.04 31.36C117.173 31.4686 117.329 31.5463 117.496 31.5873C117.663 31.6284 117.837 31.6318 118.005 31.5973C118.174 31.5629 118.332 31.4914 118.47 31.3881C118.607 31.2848 118.72 31.1522 118.8 31C118.874 30.844 118.916 30.6748 118.923 30.5024C118.931 30.33 118.904 30.1578 118.845 29.9959C118.785 29.8339 118.694 29.6854 118.576 29.5591C118.459 29.4327 118.317 29.3311 118.16 29.26ZM118 29.52C118.6 30.08 118.18 31.2 117.48 30.72C116.78 30.24 117.18 29.12 118 29.52ZM97.36 17C97.6188 17.0095 97.8647 17.1153 98.0496 17.2965C98.2346 17.4778 98.3452 17.7215 98.36 17.98C98.3497 18.2117 98.2503 18.4305 98.0827 18.5907C97.915 18.7509 97.6919 18.8402 97.46 18.84C97.3392 18.8466 97.2183 18.8293 97.1041 18.7891C96.99 18.7489 96.8849 18.6867 96.7948 18.6059C96.6129 18.4427 96.5033 18.214 96.49 17.97C96.4768 17.726 96.561 17.4867 96.7241 17.3048C96.8873 17.1229 97.116 17.0133 97.36 17ZM106.22 15.3C106.479 15.3095 106.725 15.4153 106.91 15.5965C107.095 15.7778 107.205 16.0215 107.22 16.28C107.21 16.5117 107.11 16.7305 106.943 16.8907C106.775 17.0509 106.552 17.1402 106.32 17.14C106.191 17.1651 106.058 17.1622 105.93 17.1316C105.802 17.101 105.683 17.0434 105.579 16.9626C105.475 16.8818 105.39 16.7797 105.329 16.6632C105.268 16.5468 105.233 16.4186 105.226 16.2874C105.219 16.1561 105.24 16.0249 105.287 15.9024C105.335 15.78 105.409 15.6692 105.503 15.5775C105.597 15.4859 105.71 15.4155 105.834 15.371C105.957 15.3266 106.089 15.3092 106.22 15.32V15.3ZM204.92 114.6C205.858 112.861 207.398 111.523 209.25 110.835C211.102 110.147 213.142 110.157 214.988 110.862C216.834 111.567 218.36 112.919 219.283 114.667C220.205 116.415 220.46 118.438 220 120.36C222.942 121.791 225.753 123.478 228.4 125.4C229.56 126.44 229.4 127.4 227.34 127.26C223.763 126.941 220.226 126.271 216.78 125.26C215.678 126.065 214.39 126.58 213.036 126.758C211.683 126.935 210.306 126.769 209.033 126.275C207.761 125.781 206.633 124.975 205.753 123.931C204.873 122.887 204.271 121.638 204 120.3C202 119.34 195.06 115.76 194.64 113.74C194.5 113 195.22 112.66 195.98 112.58C199.053 112.742 202.076 113.425 204.92 114.6ZM219.84 120.78C219.45 122.139 218.712 123.373 217.7 124.36C221.099 125.34 224.58 126.009 228.1 126.36C226.96 124.88 221.48 121.72 219.84 120.78ZM204.72 120.6C205.044 121.725 205.624 122.761 206.414 123.626C207.203 124.491 208.181 125.162 209.273 125.588C210.364 126.013 211.538 126.182 212.705 126.08C213.872 125.978 214.999 125.608 216 125C212.136 123.815 208.366 122.344 204.72 120.6ZM217.08 124.18C218.486 122.928 219.381 121.202 219.595 119.331C219.809 117.461 219.326 115.577 218.24 114.04C217.67 113.2 216.935 112.486 216.08 111.94C215.224 111.394 214.266 111.029 213.265 110.866C212.263 110.703 211.239 110.746 210.255 110.993C209.27 111.239 208.346 111.684 207.54 112.3C206.454 113.1 205.597 114.171 205.056 115.407C204.516 116.643 204.31 117.999 204.46 119.34C208.529 121.291 212.75 122.909 217.08 124.18ZM204.72 115C203.24 114.52 196.72 112.64 195.54 113.56C196 115 202.5 118.38 204 119C203.886 117.627 204.134 116.247 204.72 115ZM59.72 238.26C62.1347 239.847 64.6767 241.232 67.32 242.4C67.3457 242.408 67.3733 242.407 67.3985 242.398C67.4236 242.388 67.4448 242.37 67.4587 242.347C67.4725 242.324 67.4782 242.297 67.4748 242.27C67.4714 242.244 67.4592 242.219 67.44 242.2C65.0225 240.617 62.4809 239.233 59.84 238.06C59.8143 238.052 59.7867 238.053 59.7615 238.062C59.7364 238.072 59.7152 238.09 59.7014 238.113C59.6875 238.136 59.6818 238.163 59.6852 238.19C59.6886 238.216 59.7008 238.241 59.72 238.26ZM16.36 62.66C16.36 57.82 16.64 53.26 16.64 53.46C16.6532 53.42 16.6786 53.3851 16.7127 53.3604C16.7468 53.3357 16.7879 53.3224 16.83 53.3224C16.8721 53.3224 16.9132 53.3357 16.9473 53.3604C16.9814 53.3851 17.0069 53.42 17.02 53.46C17.02 54.92 17.28 56.22 17.3 62.98C18.778 62.0181 20.3069 61.1368 21.88 60.34C21.901 60.3269 21.9244 60.318 21.9488 60.3139C21.9733 60.3098 21.9983 60.3106 22.0224 60.3162C22.0466 60.3217 22.0694 60.332 22.0896 60.3464C22.1097 60.3608 22.1269 60.379 22.14 60.4C22.1531 60.421 22.162 60.4444 22.1661 60.4688C22.1702 60.4933 22.1694 60.5183 22.1639 60.5424C22.1583 60.5666 22.148 60.5894 22.1336 60.6096C22.1192 60.6297 22.101 60.6469 22.08 60.66C20.7997 61.7102 19.4645 62.6916 18.08 63.6C20.96 65.18 21.54 65.6 22.92 66.44C24.3 67.28 24.32 67.28 24.22 67.48C24.12 67.68 24.02 67.6 22.64 66.96C21.26 66.32 20.32 65.92 17.3 64.26C17.3 71.92 17 75.42 17 75.22C16.9869 75.26 16.9614 75.2948 16.9273 75.3195C16.8932 75.3442 16.8521 75.3576 16.81 75.3576C16.7679 75.3576 16.7268 75.3442 16.6927 75.3195C16.6586 75.2948 16.6332 75.26 16.62 75.22C16.62 73.78 16.34 72.52 16.34 64.72C14.7794 65.7538 13.1637 66.7019 11.5 67.56C11.479 67.5731 11.4556 67.582 11.4312 67.5861C11.4067 67.5902 11.3817 67.5894 11.3576 67.5838C11.3334 67.5783 11.3106 67.568 11.2905 67.5536C11.2703 67.5392 11.2531 67.521 11.24 67.5C11.2269 67.479 11.218 67.4556 11.2139 67.4312C11.2098 67.4067 11.2106 67.3817 11.2162 67.3576C11.2217 67.3334 11.232 67.3106 11.2464 67.2905C11.2608 67.2703 11.279 67.2531 11.3 67.24C12.8747 65.9504 14.5243 64.755 16.24 63.66C14.62 62.76 14.1 62.44 12.82 61.66C11.54 60.88 11.12 60.64 11.22 60.42C11.2577 60.3924 11.3033 60.3775 11.35 60.3775C11.3968 60.3775 11.4423 60.3924 11.48 60.42C14 61.36 15.5 62.22 16.36 62.66Z" fill="black"/>
<path fill-rule="evenodd" clip-rule="evenodd" d="M59.84 242.4C62.0805 241.225 64.2035 239.839 66.18 238.26C66.32 238.26 66.18 237.98 66.06 238.06C63.821 239.237 61.6983 240.624 59.72 242.2C59.6 242.28 59.72 242.48 59.84 242.4ZM121.84 121.8C121.84 127.42 122.04 128.32 122.04 129.34C122.031 129.361 122.028 129.384 122.031 129.407C122.033 129.43 122.041 129.452 122.054 129.471C122.067 129.489 122.084 129.505 122.104 129.516C122.125 129.526 122.147 129.532 122.17 129.532C122.193 129.532 122.215 129.526 122.236 129.516C122.256 129.505 122.273 129.489 122.286 129.471C122.299 129.452 122.307 129.43 122.309 129.407C122.312 129.384 122.308 129.361 122.3 129.34C122.3 129.54 122.52 126.3 122.52 121.46C124.07 122.337 125.666 123.131 127.3 123.84C127.46 123.84 127.6 123.68 127.44 123.6C126.032 122.659 124.577 121.791 123.08 121C124.071 120.388 125.026 119.721 125.94 119C125.967 118.979 125.986 118.949 125.992 118.916C125.999 118.882 125.993 118.848 125.976 118.818C125.959 118.789 125.931 118.767 125.899 118.756C125.867 118.745 125.831 118.747 125.8 118.76C125.8 118.76 124.16 119.6 122.52 120.66C122.52 115.68 122.32 114.66 122.32 113.82C122.32 113.783 122.305 113.747 122.279 113.721C122.253 113.695 122.217 113.68 122.18 113.68C122.143 113.68 122.107 113.695 122.081 113.721C122.055 113.747 122.04 113.783 122.04 113.82C122.04 113.62 121.86 117.04 121.84 120.44C121.26 120.14 120.1 119.52 118.34 118.76C118.18 118.76 118.04 118.92 118.2 119C118.36 119.08 119.68 120.02 121.76 121.16C120.528 121.906 119.34 122.72 118.2 123.6C118.04 123.6 118.2 123.94 118.34 123.84C118.14 123.94 119.64 123.2 121.84 121.8ZM172.12 263.12C169.94 262.22 146.94 260.8 146.74 260.78C146.12 260.78 141.64 261.68 141.34 261.76C141.04 261.84 141.34 261.76 141.34 261.86C143.088 262.659 144.893 263.327 146.74 263.86C148.74 264.28 152.74 264.32 171.7 266.36C172.06 266.36 172.82 265.12 172.38 263.32C172.36 263.26 172.22 263.18 172.12 263.12ZM146.64 263.66L143.62 262.6C143.737 262.441 143.812 262.255 143.84 262.06C143.868 261.865 143.847 261.666 143.78 261.48C144.758 261.283 145.746 261.143 146.74 261.06C147.22 261.54 145.94 261.72 146.9 262.34C147.02 262.34 147.04 262.34 146.9 262.48C146.849 262.505 146.804 262.541 146.767 262.584C146.73 262.627 146.703 262.677 146.686 262.732C146.669 262.786 146.664 262.843 146.669 262.899C146.675 262.956 146.692 263.01 146.72 263.06C146.88 263.34 147.06 263.46 146.64 263.66ZM146.88 263.66C147.44 263.36 146.68 262.9 147.06 262.66C147.9 262.08 143.9 262.24 170.32 264.66C170.265 265.072 170.357 265.49 170.58 265.84L146.88 263.66ZM170.34 264.5C169.44 264.4 147.3 262.3 147.16 262.18C147.02 262.06 146.66 261.96 146.84 261.72C147.02 261.48 147.12 261.26 146.84 261.02C147.04 261.02 166.66 262.58 170.84 263.28C170.548 263.639 170.374 264.079 170.34 264.54V264.5ZM171.62 265.88C171.48 265.74 171.46 265.78 171.32 265.38C171.18 264.98 171.32 263.62 171.96 263.62C172.058 264.007 172.079 264.409 172.02 264.804C171.962 265.199 171.826 265.578 171.62 265.92V265.88ZM185.52 206.86C185.498 206.786 185.459 206.719 185.408 206.662C185.356 206.605 185.293 206.56 185.222 206.53C185.151 206.501 185.074 206.487 184.997 206.491C184.92 206.495 184.845 206.515 184.778 206.552C184.71 206.588 184.651 206.639 184.605 206.7C184.559 206.762 184.527 206.833 184.512 206.909C184.497 206.984 184.499 207.062 184.518 207.136C184.536 207.211 184.571 207.281 184.62 207.34C184.82 207.66 185.02 207.98 185.24 208.3C185.27 208.369 185.315 208.431 185.372 208.481C185.428 208.53 185.495 208.567 185.567 208.589C185.64 208.611 185.716 208.616 185.79 208.605C185.865 208.594 185.937 208.568 186 208.526C186.063 208.485 186.116 208.431 186.156 208.367C186.197 208.303 186.222 208.231 186.232 208.156C186.241 208.082 186.234 208.006 186.212 207.934C186.189 207.862 186.151 207.796 186.1 207.74C186 207.46 185.7 207.16 185.52 206.86ZM160.6 164.38C160.72 163.44 161.82 158.66 161.4 158.56C161.376 158.551 161.351 158.546 161.326 158.548C161.301 158.549 161.276 158.555 161.253 158.566C161.231 158.578 161.211 158.594 161.194 158.613C161.178 158.633 161.167 158.656 161.16 158.68C160.593 160.076 160.157 161.523 159.86 163C159.746 163.52 159.673 164.049 159.64 164.58C159.643 164.662 159.666 164.741 159.708 164.811C159.75 164.881 159.809 164.939 159.88 164.98C160.381 165.236 160.922 165.405 161.48 165.48C161.92 165.48 163.48 165.6 163.3 165.18C163.12 164.76 162.88 165.52 160.6 164.38ZM169.58 161.48V160.44C169.58 159.72 168.58 159.62 168.56 160.44V161.58C168.554 161.656 168.566 161.731 168.592 161.802C168.619 161.873 168.661 161.937 168.715 161.99C168.77 162.043 168.835 162.083 168.906 162.109C168.978 162.134 169.054 162.143 169.129 162.135C169.205 162.128 169.278 162.104 169.343 162.066C169.408 162.027 169.464 161.975 169.507 161.913C169.55 161.85 169.579 161.779 169.591 161.704C169.604 161.63 169.6 161.553 169.58 161.48ZM170.9 167C170.26 169.4 169.4 169.76 168.36 169.88C168.147 169.897 167.933 169.897 167.72 169.88C167.672 169.864 167.62 169.868 167.575 169.89C167.53 169.913 167.496 169.952 167.48 170C167.464 170.048 167.468 170.1 167.49 170.145C167.513 170.19 167.552 170.224 167.6 170.24C169.34 171.24 171.72 170.02 171.28 167C171.267 166.96 171.241 166.925 171.207 166.901C171.173 166.876 171.132 166.863 171.09 166.863C171.048 166.863 171.007 166.876 170.973 166.901C170.939 166.925 170.913 166.96 170.9 167ZM178.42 192C178.408 191.934 178.384 191.872 178.347 191.816C178.311 191.759 178.265 191.711 178.21 191.673C178.155 191.635 178.093 191.608 178.028 191.594C177.963 191.579 177.896 191.578 177.83 191.59C177.764 191.602 177.702 191.627 177.646 191.663C177.589 191.699 177.541 191.745 177.503 191.8C177.465 191.855 177.438 191.917 177.424 191.982C177.409 192.047 177.408 192.114 177.42 192.18C177.506 192.553 177.612 192.92 177.74 193.28C177.746 193.357 177.769 193.431 177.807 193.498C177.846 193.565 177.898 193.623 177.962 193.667C178.025 193.711 178.097 193.74 178.173 193.752C178.249 193.765 178.327 193.761 178.401 193.74C178.475 193.718 178.544 193.681 178.602 193.63C178.66 193.579 178.705 193.516 178.736 193.445C178.766 193.375 178.781 193.298 178.778 193.221C178.775 193.144 178.755 193.068 178.72 193C178.6 192.66 178.5 192.32 178.42 192ZM158.74 158.5C158.755 158.425 158.753 158.347 158.734 158.272C158.716 158.198 158.681 158.128 158.632 158.069C158.583 158.009 158.522 157.961 158.452 157.928C158.383 157.896 158.307 157.879 158.23 157.879C158.153 157.879 158.077 157.896 158.008 157.928C157.938 157.961 157.877 158.009 157.828 158.069C157.779 158.128 157.744 158.198 157.726 158.272C157.707 158.347 157.705 158.425 157.72 158.5V159.64C157.705 159.715 157.707 159.793 157.726 159.868C157.744 159.942 157.779 160.012 157.828 160.071C157.877 160.131 157.938 160.179 158.008 160.212C158.077 160.244 158.153 160.262 158.23 160.262C158.307 160.262 158.383 160.244 158.452 160.212C158.522 160.179 158.583 160.131 158.632 160.071C158.681 160.012 158.716 159.942 158.734 159.868C158.753 159.793 158.755 159.715 158.74 159.64C158.716 159.26 158.716 158.88 158.74 158.5ZM316.84 242.28C316.84 242.28 316.72 242.3 316.84 242.28V242.28Z" fill="black"/>
<path fill-rule="evenodd" clip-rule="evenodd" d="M326.82 241C324.6 239.92 319.32 240.82 316.82 241.34C315.902 240.314 314.743 239.532 313.448 239.065C312.153 238.597 310.762 238.458 309.4 238.66C307.16 239.22 306.62 241.98 306.72 244.3C305.28 244.04 303.72 243.86 302.28 243.72C302.4 243.28 302.78 242.66 302.66 242.22C302.595 242.063 302.497 241.922 302.373 241.806C302.248 241.69 302.1 241.603 301.939 241.55C301.777 241.497 301.606 241.479 301.437 241.498C301.268 241.517 301.106 241.572 300.96 241.66C300.561 241.978 300.193 242.333 299.86 242.72C299.86 242.02 300.44 240.9 299.74 240.72C299.04 240.54 296.86 242.5 296.24 243.2C291.647 242.695 287.013 242.695 282.42 243.2C276.407 243.632 270.74 246.175 266.42 250.38C290.74 222.38 301.42 203.14 301.14 179.16C300.86 155.18 272.36 143.74 260.64 143.44C249.26 143.16 237.52 149.44 236.92 149.44C226.64 151.44 199.68 148.46 194.02 150.82C194.089 148.286 193.635 145.765 192.685 143.414C191.735 141.064 190.311 138.935 188.5 137.16C185.26 133.62 180.08 132.3 174.82 132.52C167.32 132.86 159.88 136 156.16 142.52C154.927 144.631 154.201 147 154.04 149.44C154.04 150.06 152.76 160.26 156.04 167.98C156.78 169.935 157.963 171.691 159.497 173.11C161.031 174.53 162.874 175.574 164.88 176.16C161.647 180.446 158.681 184.928 156 189.58C155.38 190.88 155.84 191.58 156.74 191.58C157.64 191.58 158.84 191.34 159.68 191.38C158.36 195 155 204.44 154.18 208.18C150.068 210.949 146.365 214.282 143.18 218.08C137.18 224.96 134.38 232.42 127.58 236.4L125.58 237.52C128.3 229.26 133.44 212.86 131.58 212.84C129.72 212.82 125.2 228.6 122.32 239.3C119.24 241 117.68 242.08 116.6 245.44C116.248 246.29 116.067 247.2 116.067 248.12C116.067 249.04 116.248 249.95 116.6 250.8C116.728 251.073 116.924 251.308 117.169 251.483C117.415 251.658 117.701 251.767 118 251.8C118.24 251.8 118.24 251.58 117.58 253.04C117.265 253.13 116.968 253.272 116.7 253.46L107.08 247.6C106.86 247.6 109.62 247.22 51.08 254.84C49.98 254.02 48.82 253.16 47.62 252.22C18.86 229.84 112.78 205.82 120.3 175.24C127.04 147.86 88.3 142.34 96.9 116.62C105.5 90.9 161.74 98.1 214.68 95.02C267.62 91.94 288.68 38.5 250.14 10.66C211.6 -17.18 172 22.36 162.64 32.46C153.28 42.56 142.48 55.78 112.16 54.46C81.84 53.14 42.16 58.28 27.62 102.24C20.62 123.28 26.9 138.04 36.24 149.74C39.3682 146.557 43.2371 144.2 47.5 142.88C49.98 142.28 52.44 142.6 53.14 145.06C54.46 149.58 48.98 156.6 45.8 160.1C53.8 167.82 61.48 174.34 64.5 181.08C69.54 192.4 45.38 200.78 35.18 207.4C24.98 214.02 9.40001 234.5 18.96 254.38C19.6782 255.903 20.4794 257.385 21.36 258.82C1.08001 261.44 0.380008 261.44 0.180008 261.56C-0.0199921 261.68 0.0400079 262.04 0.180008 262.24H0.0400085C1.84001 264.24 54.82 339.96 87.34 378.44L87.92 378.56C94.96 375.18 222.72 313.16 215.92 309.34C215.92 309.34 122.52 257.2 120.3 255.88C120.647 255.284 120.948 254.662 121.2 254.02C121.311 254.012 121.415 253.965 121.495 253.889C121.575 253.812 121.626 253.71 121.64 253.6V252.52C122.88 252.94 124.82 251.74 125.82 250.84C127.82 249 130.82 243.88 133.04 243.2C137.467 242.097 141.833 240.762 146.12 239.2C163.94 232.52 171.34 225.04 179.1 212.96C180.382 211.073 181.474 209.063 182.36 206.96C186.888 211.851 192.394 215.735 198.52 218.36C182.36 237.02 184.9 248.86 190.74 255.32C196.08 261.22 204.74 259.14 206.16 258.7C206.16 267.58 209.16 287.3 210.16 289.28C210.68 290.42 208.94 291.28 208.58 293.54C208.391 294.688 208.539 295.867 209.008 296.932C209.477 297.998 210.245 298.904 211.22 299.54C213.44 300.94 217.22 301.02 215.74 298.8C215.246 298.166 214.69 297.583 214.08 297.06C214.66 297.24 215.3 297.48 216.08 297.76C223.38 300.62 224.34 301.92 225.68 301.54C225.86 301.498 226.028 301.418 226.173 301.303C226.319 301.189 226.437 301.045 226.52 300.88C226.68 300.99 226.861 301.066 227.052 301.102C227.242 301.137 227.439 301.132 227.627 301.087C227.816 301.042 227.993 300.957 228.147 300.839C228.301 300.72 228.428 300.571 228.52 300.4C228.588 300.271 228.624 300.126 228.624 299.98C228.624 299.834 228.588 299.689 228.52 299.56C228.774 299.133 228.859 298.627 228.76 298.14C228.76 296.34 221.88 290.46 220.48 289.3C220.68 287.3 221.74 282.86 224.38 271.06C238.02 286.44 283.88 265.06 286.38 263.98C286.8 264.42 303.74 257.2 305.7 256.16C305.5 256.16 327.18 246.36 328 242.76C328 241.92 327.46 241.38 326.82 241ZM249.46 59.92C249.791 59.9305 250.104 60.0706 250.332 60.3101C250.561 60.5496 250.685 60.8692 250.68 61.2C250.685 61.3645 250.658 61.5285 250.599 61.6822C250.541 61.836 250.452 61.9766 250.338 62.0957C250.225 62.2148 250.089 62.3102 249.938 62.3762C249.787 62.4422 249.625 62.4775 249.46 62.48C249.295 62.4774 249.131 62.4423 248.979 62.3765C248.827 62.3108 248.69 62.2158 248.575 62.0969C248.46 61.978 248.369 61.8377 248.308 61.6838C248.247 61.5299 248.217 61.3655 248.22 61.2C248.217 61.0346 248.247 60.8702 248.308 60.7163C248.369 60.5624 248.46 60.422 248.575 60.3032C248.69 60.1843 248.827 60.0893 248.979 60.0236C249.131 59.9578 249.295 59.9226 249.46 59.92ZM238.16 25C238.322 25 238.482 25.0322 238.632 25.0948C238.781 25.1573 238.916 25.249 239.03 25.3644C239.143 25.4798 239.233 25.6167 239.293 25.767C239.353 25.9174 239.383 26.0781 239.38 26.24C239.402 26.412 239.387 26.5867 239.337 26.7525C239.286 26.9183 239.201 27.0714 239.086 27.2016C238.972 27.3318 238.831 27.4361 238.673 27.5075C238.515 27.579 238.343 27.6159 238.17 27.6159C237.997 27.6159 237.825 27.579 237.667 27.5075C237.509 27.4361 237.368 27.3318 237.254 27.2016C237.139 27.0714 237.054 26.9183 237.003 26.7525C236.953 26.5867 236.938 26.412 236.96 26.24C236.957 26.0798 236.986 25.9206 237.045 25.7716C237.104 25.6226 237.192 25.4866 237.303 25.3715C237.415 25.2563 237.548 25.1642 237.695 25.1005C237.842 25.0368 238 25.0026 238.16 25ZM200.56 80.18C200.417 80.1541 200.288 80.0788 200.195 79.9673C200.102 79.8558 200.051 79.7152 200.051 79.57C200.051 79.4248 200.102 79.2842 200.195 79.1728C200.288 79.0613 200.417 78.986 200.56 78.96C200.727 78.96 200.887 79.0264 201.005 79.1446C201.124 79.2627 201.19 79.423 201.19 79.59C201.19 79.7571 201.124 79.9174 201.005 80.0355C200.887 80.1537 200.727 80.22 200.56 80.22V80.18ZM195.12 25.24C195.12 24.44 197.12 24.04 198 23.92C199.454 23.728 200.926 23.728 202.38 23.92C203.281 22.2657 204.39 20.7333 205.68 19.36C206.1 19.02 206.48 18.9 206.86 19.36C207.764 21.1865 208.346 23.1555 208.58 25.18C211.68 25.98 216 27.46 213.4 29.32C212.6 29.9 211.18 30.5 209.64 31.32C209.812 32.9339 209.866 34.5583 209.8 36.18C209.8 36.92 209.6 38.04 208.86 38.18C207.36 38.44 206.2 36.36 203.84 34.32C201.58 35.44 197.06 37.92 196.96 35.54C197.205 33.5101 197.807 31.5396 198.74 29.72C196.44 27.54 194.98 26.48 195.12 25.28V25.24ZM193.12 62.02C193.115 63.416 192.751 64.7873 192.062 66.0014C191.373 67.2155 190.383 68.2315 189.186 68.9512C187.99 69.6709 186.629 70.0701 185.233 70.1102C183.838 70.1503 182.456 69.8299 181.22 69.18L192.86 59.94C193.039 60.6328 193.133 61.3446 193.14 62.06L193.12 62.02ZM192.62 59.2C189.42 61.66 185.12 65.2 180.82 68.94C180.496 68.745 180.189 68.5242 179.9 68.28C184.08 64.06 188.18 59.3 190.72 56.28C191.556 57.1245 192.21 58.1321 192.64 59.24L192.62 59.2ZM190.28 55.86C189.48 56.72 182.52 64.56 179.52 67.86C178.666 67.0759 177.985 66.1222 177.52 65.06C180.56 62.86 184.7 59.8 189.3 56.18L190.02 55.6L190.28 55.86ZM185.02 53.86C186.624 53.8584 188.192 54.3392 189.52 55.24L186.7 57.24C186.06 57.72 181.2 61.54 177.36 64.54C176.953 63.3211 176.84 62.0229 177.03 60.7519C177.221 59.4809 177.71 58.2731 178.457 57.2274C179.204 56.1816 180.189 55.3277 181.329 54.7355C182.47 54.1433 183.735 53.8295 185.02 53.82V53.86ZM165.74 50.58C165.983 50.5721 166.223 50.6368 166.428 50.7659C166.634 50.895 166.797 51.0827 166.895 51.3048C166.994 51.5269 167.024 51.7733 166.981 52.0126C166.939 52.2518 166.826 52.4729 166.657 52.6476C166.488 52.8222 166.271 52.9424 166.033 52.9928C165.795 53.0432 165.548 53.0215 165.323 52.9305C165.098 52.8394 164.905 52.6832 164.769 52.4818C164.633 52.2804 164.56 52.043 164.56 51.8C164.58 51.4958 164.716 51.2108 164.939 51.0028C165.161 50.7947 165.455 50.6794 165.76 50.68L165.74 50.58ZM154.72 80.86C155.187 80.8757 155.639 81.0286 156.02 81.2994C156.4 81.5703 156.693 81.9473 156.861 82.3833C157.029 82.8194 157.065 83.2952 156.964 83.7515C156.863 84.2077 156.631 84.6243 156.295 84.9492C155.959 85.2741 155.535 85.4929 155.076 85.5785C154.616 85.664 154.142 85.6124 153.712 85.4302C153.281 85.2479 152.914 84.9431 152.656 84.5536C152.398 84.1641 152.26 83.7073 152.26 83.24C152.276 82.5999 152.542 81.9916 153.003 81.5463C153.463 81.1011 154.08 80.8546 154.72 80.86ZM123.6 75.22C124.46 75.22 124.46 76.76 123.6 76.76C122.74 76.76 122.72 75.22 123.6 75.22ZM42.26 119.44C42.1651 119.457 42.0677 119.452 41.9746 119.428C41.8815 119.403 41.7951 119.358 41.7213 119.296C41.6474 119.234 41.5881 119.156 41.5474 119.069C41.5067 118.982 41.4855 118.886 41.4855 118.79C41.4855 118.694 41.5067 118.598 41.5474 118.511C41.5881 118.424 41.6474 118.346 41.7213 118.285C41.7951 118.223 41.8815 118.178 41.9746 118.153C42.0677 118.128 42.1651 118.123 42.26 118.14C42.3549 118.123 42.4523 118.128 42.5454 118.153C42.6385 118.178 42.7249 118.223 42.7988 118.285C42.8726 118.346 42.9319 118.424 42.9726 118.511C43.0134 118.598 43.0345 118.694 43.0345 118.79C43.0345 118.886 43.0134 118.982 42.9726 119.069C42.9319 119.156 42.8726 119.234 42.7988 119.296C42.7249 119.358 42.6385 119.403 42.5454 119.428C42.4523 119.452 42.3549 119.457 42.26 119.44ZM85.26 197.96C84.9913 197.929 84.7372 197.821 84.5286 197.649C84.32 197.476 84.1658 197.247 84.0846 196.989C84.0034 196.731 83.9987 196.455 84.0711 196.195C84.1435 195.934 84.2898 195.7 84.4924 195.521C84.6951 195.341 84.9453 195.225 85.2128 195.185C85.4804 195.145 85.7538 195.183 86 195.295C86.2462 195.407 86.4547 195.588 86.6003 195.816C86.7458 196.044 86.8221 196.31 86.82 196.58C86.7943 196.969 86.616 197.332 86.3238 197.591C86.0317 197.849 85.6494 197.982 85.26 197.96ZM90 64.2C90.2738 64.1961 90.5425 64.2736 90.7721 64.4228C91.0016 64.572 91.1816 64.7861 91.2891 65.0379C91.3967 65.2897 91.4268 65.5678 91.3759 65.8368C91.3249 66.1058 91.1951 66.3536 91.0029 66.5486C90.8107 66.7436 90.5649 66.877 90.2967 66.9319C90.0285 66.9868 89.75 66.9606 89.4966 66.8568C89.2433 66.753 89.0266 66.5761 88.874 66.3488C88.7215 66.1214 88.64 65.8538 88.64 65.58C88.64 65.2175 88.7826 64.8695 89.0371 64.6112C89.2916 64.353 89.6375 64.2053 90 64.2ZM91.16 136.02C91.1582 136.215 91.1003 136.406 90.9932 136.569C90.8861 136.733 90.7344 136.862 90.556 136.942C90.3776 137.021 90.1801 137.048 89.987 137.019C89.7939 136.99 89.6132 136.905 89.4665 136.776C89.3198 136.647 89.2132 136.479 89.1595 136.291C89.1057 136.103 89.107 135.904 89.1632 135.717C89.2194 135.53 89.3281 135.363 89.4764 135.236C89.6248 135.109 89.8065 135.027 90 135C90.1405 134.989 90.2818 135.007 90.415 135.053C90.5481 135.1 90.6702 135.173 90.7736 135.269C90.8769 135.365 90.9593 135.481 91.0155 135.61C91.0717 135.74 91.1004 135.879 91.1 136.02H91.16ZM91.62 165.56C92.82 164.62 96.36 161.7 97.42 162.62C98.48 163.54 97.56 165.48 97.42 168.24C99.64 169.3 104.24 171.32 102.44 172.6C100.677 173.461 98.7858 174.029 96.84 174.28C96.5 177.18 96.52 178.66 95.54 179.16C94.86 179.48 93.36 178.26 92.8 177.74C91.724 176.822 90.7816 175.759 90 174.58C88.1733 174.8 86.3267 174.8 84.5 174.58C84.02 174.46 83.66 174.24 83.76 173.76C83.98 172.66 86.46 170.32 87.28 169.54C86.76 168.4 85.54 165.54 85.96 164.4C86.56 162.82 89.14 164.56 91.56 165.56H91.62ZM85.12 101.12C85.54 101.12 85.76 101.42 85.7 101.94C85.2814 103.424 84.648 104.839 83.82 106.14C84.6776 107.038 85.4108 108.047 86 109.14C88 113 85.22 112.02 81.1 111.14C80.1285 112.584 78.8937 113.833 77.46 114.82C75.6 115.74 75.18 111.82 74.86 109.6C72.04 108.86 69.8 108.96 69.22 107.82C68.64 106.68 72.96 104.94 74.2 104.38C74.06 102.38 73.2 99.7 74.92 99.78C76.6631 100.307 78.2635 101.223 79.6 102.46C81.3575 101.724 83.2207 101.272 85.12 101.12ZM59.64 157C59.417 157.036 59.1888 157.023 58.9712 156.962C58.7536 156.902 58.5518 156.794 58.3798 156.648C58.2078 156.501 58.0696 156.319 57.9748 156.114C57.8801 155.909 57.831 155.686 57.831 155.46C57.831 155.234 57.8801 155.011 57.9748 154.806C58.0696 154.601 58.2078 154.419 58.3798 154.272C58.5518 154.126 58.7536 154.018 58.9712 153.958C59.1888 153.897 59.417 153.884 59.64 153.92C59.863 153.884 60.0912 153.897 60.3088 153.958C60.5264 154.018 60.7282 154.126 60.9002 154.272C61.0723 154.419 61.2104 154.601 61.3052 154.806C61.3999 155.011 61.449 155.234 61.449 155.46C61.449 155.686 61.3999 155.909 61.3052 156.114C61.2104 156.319 61.0723 156.501 60.9002 156.648C60.7282 156.794 60.5264 156.902 60.3088 156.962C60.0912 157.023 59.863 157.036 59.64 157ZM48.36 96.58C48.2863 96.5618 48.2208 96.5193 48.1741 96.4595C48.1273 96.3997 48.1019 96.326 48.1019 96.25C48.1019 96.1741 48.1273 96.1004 48.1741 96.0406C48.2208 95.9807 48.2863 95.9383 48.36 95.92C52.74 95.62 57.72 95.48 62.1 95.48C58.4497 92.9198 54.5418 90.748 50.44 89C50.3531 88.9733 50.2796 88.9147 50.2341 88.836C50.1886 88.7573 50.1746 88.6643 50.1948 88.5757C50.2151 88.4871 50.2681 88.4094 50.3433 88.3583C50.4184 88.3072 50.5101 88.2864 50.6 88.3C55.1462 88.3486 59.6183 89.458 63.66 91.54C61.0016 88.8909 58.1901 86.4 55.24 84.08C55.1768 84.0288 55.134 83.9567 55.1195 83.8767C55.1049 83.7966 55.1195 83.7141 55.1607 83.6439C55.2018 83.5737 55.2667 83.5206 55.3437 83.4942C55.4206 83.4678 55.5045 83.4699 55.58 83.5C60.6214 85.1257 65.3539 87.5866 69.58 90.78C73.7517 93.837 77.3705 97.5842 80.28 101.86C80.28 102.04 80.1 102.18 79.98 102C77.0724 97.7519 73.4604 94.0318 69.3 91C65.5938 88.2818 61.5108 86.119 57.18 84.58C58.64 85.76 64.56 90.58 65.34 92.36C65.5 92.68 65.1 92.98 64.76 92.78C62.624 91.5904 60.355 90.6572 58 90C56.1647 89.451 54.2722 89.1155 52.36 89C54.66 90.1 61.8 93.6 63.26 95.68C63.2974 95.7357 63.3184 95.8007 63.3209 95.8677C63.3233 95.9347 63.3069 96.0011 63.2737 96.0593C63.2404 96.1175 63.1915 96.1652 63.1326 96.1972C63.0736 96.2291 63.0069 96.244 62.94 96.24C62.72 96.24 57.2 96.24 51.34 96.44C58.26 97.76 67.34 100.3 73.12 104.44C73.28 104.56 73.12 104.8 72.92 104.68C66.64 100.3 55.78 97.58 48.36 96.58ZM161.6 137.88C168.42 132.74 181.94 131.38 187.86 137.88C189.604 139.58 190.974 141.625 191.883 143.884C192.792 146.143 193.22 148.566 193.14 151C192.674 155.411 190.777 159.548 187.74 162.78C187.38 163.14 187.38 162.78 187.5 162.6C187.844 162.106 188.072 161.54 188.167 160.945C188.262 160.351 188.221 159.742 188.048 159.166C187.875 158.589 187.574 158.058 187.168 157.614C186.761 157.17 186.259 156.823 185.7 156.6C181.92 154.88 180.78 161.22 178.02 162C175.62 162.7 176.52 157.1 176.7 153.36C176.952 151.716 176.573 150.037 175.64 148.66C173.979 146.878 171.924 145.508 169.64 144.66C165.635 143.047 161.286 142.476 157 143C158.17 140.999 159.735 139.257 161.6 137.88ZM156.86 167.7C153.56 159.9 155 149.54 155 149.54C155.161 147.436 155.768 145.391 156.78 143.54C161.102 143.101 165.464 143.79 169.44 145.54C171.603 146.35 173.552 147.643 175.14 149.32C177.14 151.96 175.14 157 175.78 160.94C176.02 162.48 176.74 163.46 178.24 162.94C181.34 162.06 182.38 156.18 185.36 157.54C188.34 158.9 187.8 162.8 184.28 164.28C182.92 164.86 183.04 166.16 184.08 166.28C184.62 166.28 185.68 165.98 187.3 164.68C189.672 162.361 191.538 159.576 192.78 156.5C195.561 157.087 198.251 158.042 200.78 159.34C204.34 160.96 208.54 163.22 211.86 165.16C206.8 166.366 202.188 168.987 198.562 172.716C194.936 176.445 192.445 181.129 191.38 186.22C190.62 186.22 190.68 185.14 190.16 184.74C189.64 184.34 189.32 184.74 188.7 184.94C188.712 184.448 188.602 183.96 188.38 183.52C188.38 182.36 186.48 183.04 185.38 183.4C185.393 182.904 185.319 182.41 185.16 181.94C185.62 180.46 182.94 181.2 181.44 181.62C181.553 181.052 181.553 180.468 181.44 179.9C181.58 178.74 179.04 179.48 177.98 179.9C178.071 179.232 178.03 178.552 177.86 177.9C177.3 177.12 174.34 178.76 174.22 178.02C174.23 177.472 174.338 176.93 174.54 176.42C174.88 175.2 173.22 175.96 172.74 175.88C172.722 175.891 172.701 175.896 172.68 175.896C172.659 175.896 172.638 175.891 172.62 175.88V175.64C174.293 175.182 175.899 174.509 177.4 173.64C178.163 174.764 179.306 175.574 180.62 175.92C181.813 176.276 183.083 176.279 184.278 175.929C185.473 175.58 186.541 174.893 187.355 173.95C188.168 173.008 188.692 171.851 188.863 170.618C189.035 169.385 188.846 168.128 188.32 167C188.32 166.78 187.88 167 187.98 167.14C188.239 167.906 188.34 168.717 188.278 169.523C188.216 170.33 187.991 171.115 187.617 171.833C187.244 172.55 186.729 173.185 186.104 173.698C185.479 174.211 184.756 174.593 183.98 174.82L179.14 171.84C178.96 171.72 178.98 171.84 177.92 172.52C177.255 171.207 177.077 169.701 177.417 168.269C177.758 166.837 178.595 165.573 179.78 164.7C181.177 163.763 182.839 163.3 184.52 163.38C184.56 163.367 184.595 163.341 184.62 163.307C184.644 163.273 184.658 163.232 184.658 163.19C184.658 163.148 184.644 163.107 184.62 163.073C184.595 163.039 184.56 163.013 184.52 163C182.719 162.782 180.897 163.169 179.34 164.1C177.926 165.039 176.912 166.47 176.495 168.114C176.077 169.759 176.286 171.501 177.08 173C173.534 175.017 169.467 175.929 165.4 175.62C163.45 175.072 161.659 174.068 160.174 172.691C158.689 171.314 157.553 169.603 156.86 167.7ZM188 185.46C188.525 185.348 189.036 185.173 189.52 184.94C190.4 184.62 190.16 186.38 191.28 186.4C191.08 187.34 190.96 188.08 190.9 188.54C189.96 188.2 189.08 187.82 188.2 187.46C188.239 186.787 188.171 186.112 188 185.46ZM188 185.02C188 185.02 188 184.92 188.2 184.24C188.25 184.492 188.352 184.73 188.5 184.94L188 185V185.02ZM187.8 185.4C187.698 186.063 187.698 186.737 187.8 187.4C186.4 186.82 185.1 186.22 183.8 185.62C183.799 185.243 183.724 184.869 183.58 184.52C184.5 184.52 187.58 183.04 187.72 183.48C187.86 183.92 187.14 185 187.8 185.4ZM183.38 184.38C183.376 184.692 183.423 185.003 183.52 185.3C183 185.06 180.86 183.98 180.32 183.7C180.31 183.273 180.243 182.849 180.12 182.44C181.319 182.275 182.503 182.014 183.66 181.66C183.8 181.66 184.7 181.54 184.62 181.66C184.54 182.24 182.5 183.92 183.38 184.38ZM179.88 183.46C178.86 182.92 177.88 182.4 177.12 181.92C177.133 181.496 177.059 181.074 176.9 180.68C177.222 180.735 177.554 180.679 177.84 180.52C178.759 180.102 179.751 179.864 180.76 179.82C180.337 180.308 179.974 180.845 179.68 181.42C179.601 182.107 179.669 182.802 179.88 183.46ZM176.66 181.66L174.44 180.32C174.485 179.727 174.424 179.131 174.26 178.56C174.9 178.7 176.56 178.04 177.32 178.1C176.958 178.59 176.631 179.105 176.34 179.64C176.34 180.326 176.448 181.008 176.66 181.66ZM177.52 178.76C177.47 179.158 177.47 179.562 177.52 179.96C177.38 179.96 176.92 180.18 176.88 179.96C176.84 179.74 177.28 179 177.52 178.76ZM181.04 180.48C181.028 180.872 181.075 181.263 181.18 181.64C180.872 181.754 180.548 181.814 180.22 181.82C180.22 181.82 180.14 181.54 181.04 180.48ZM184.88 182.48C184.906 182.809 184.98 183.132 185.1 183.44C184.702 183.592 184.294 183.719 183.88 183.82C184.12 183.46 184.44 183 184.88 182.46V182.48ZM173.86 178.32C173.85 178.921 173.924 179.52 174.08 180.1C173.739 179.892 173.406 179.672 173.08 179.44L172.62 176.08C173.12 176.08 174.16 175.78 174.16 176.08C174.16 176.38 173.32 177.7 173.86 178.3V178.32ZM178.14 172.92C178.42 172.74 178.72 172.52 179 172.3L183.4 175C182.424 175.197 181.412 175.113 180.481 174.759C179.551 174.405 178.739 173.795 178.14 173V172.92ZM156.72 190.68C156.24 190.54 159 186.26 159.32 185.76C160.3 184.18 165.04 176.86 165.44 176.26C167.093 176.357 168.751 176.256 170.38 175.96C170.7 187.8 172.84 192.72 175.44 197.34C174.1 196.92 172.74 197.54 171.56 197.12C169.9 196.56 169.96 194.16 167.56 194.02C165.992 194.205 164.483 194.73 163.14 195.56C162.6 195.78 162.48 195.56 162.34 195.32C162.142 193.967 161.848 192.631 161.46 191.32C160.54 189.74 157.66 191 156.72 190.68ZM106.86 248.12L116.3 253.82C115.75 254.339 115.154 254.808 114.52 255.22C112.98 256.04 111.38 255.42 111.36 256.64C102.74 259.94 89.76 275.16 105.94 289.06C126.62 306.8 150.16 313.88 128.26 330.8C122.26 335.5 116.08 334.8 108.94 330.18C101.1 325.04 101.18 302.4 93.66 288.42C81.16 265.16 76 273 51.84 255.52L106.86 248.12ZM134.64 332.12C134.614 332.12 134.588 332.115 134.563 332.105C134.539 332.095 134.517 332.08 134.499 332.061C134.48 332.043 134.465 332.021 134.455 331.997C134.445 331.972 134.44 331.946 134.44 331.92C134.44 331.894 134.445 331.868 134.455 331.844C134.465 331.819 134.48 331.797 134.499 331.779C134.517 331.76 134.539 331.745 134.563 331.735C134.588 331.725 134.614 331.72 134.64 331.72C134.68 331.733 134.715 331.759 134.74 331.793C134.764 331.827 134.778 331.868 134.778 331.91C134.778 331.952 134.764 331.993 134.74 332.027C134.715 332.061 134.68 332.087 134.64 332.1V332.12ZM124.4 338.12C124.316 338.136 124.23 338.133 124.147 338.112C124.065 338.09 123.988 338.051 123.922 337.996C123.857 337.942 123.804 337.874 123.768 337.797C123.732 337.72 123.713 337.635 123.713 337.55C123.713 337.465 123.732 337.381 123.768 337.303C123.804 337.226 123.857 337.158 123.922 337.104C123.988 337.049 124.065 337.01 124.147 336.989C124.23 336.967 124.316 336.964 124.4 336.98C124.562 336.98 124.717 337.044 124.831 337.159C124.946 337.273 125.01 337.428 125.01 337.59C125.01 337.752 124.946 337.907 124.831 338.021C124.717 338.136 124.562 338.2 124.4 338.2V338.12ZM98.64 336.72C98.8449 336.126 99.1492 335.572 99.54 335.08C98.64 333.84 98.1 333.22 99.66 333.3C100.117 333.334 100.568 333.428 101 333.58C102.6 331.82 102.88 331.94 102.82 334.34C103.22 334.54 104.16 335.02 104.34 335.42C104.52 335.82 103.5 336.06 102.78 336.28C102.78 336.76 102.6 338.28 102.14 338.28C101.68 338.28 101.42 337.54 100.82 336.78C100 337 98.54 337.52 98.64 336.8V336.72ZM98.38 311.24C98.2962 311.256 98.21 311.253 98.1275 311.232C98.0449 311.21 97.9681 311.171 97.9025 311.116C97.8369 311.062 97.7841 310.994 97.7478 310.917C97.7116 310.84 97.6928 310.755 97.6928 310.67C97.6928 310.585 97.7116 310.501 97.7478 310.423C97.7841 310.346 97.8369 310.278 97.9025 310.224C97.9681 310.169 98.0449 310.13 98.1275 310.109C98.21 310.087 98.2962 310.084 98.38 310.1C98.5418 310.1 98.697 310.164 98.8113 310.279C98.9257 310.393 98.99 310.548 98.99 310.71C98.99 310.872 98.9257 311.027 98.8113 311.141C98.697 311.256 98.5418 311.32 98.38 311.32V311.24ZM74.22 282.24C74.1362 282.256 74.05 282.253 73.9675 282.232C73.8849 282.21 73.8081 282.171 73.7425 282.116C73.6769 282.062 73.6241 281.994 73.5878 281.917C73.5516 281.84 73.5328 281.755 73.5328 281.67C73.5328 281.585 73.5516 281.501 73.5878 281.423C73.6241 281.346 73.6769 281.278 73.7425 281.224C73.8081 281.169 73.8849 281.13 73.9675 281.109C74.05 281.087 74.1362 281.084 74.22 281.1C74.3038 281.084 74.39 281.087 74.4725 281.109C74.5551 281.13 74.6319 281.169 74.6975 281.224C74.7631 281.278 74.816 281.346 74.8522 281.423C74.8885 281.501 74.9072 281.585 74.9072 281.67C74.9072 281.755 74.8885 281.84 74.8522 281.917C74.816 281.994 74.7631 282.062 74.6975 282.116C74.6319 282.171 74.5551 282.21 74.4725 282.232C74.39 282.253 74.3038 282.256 74.22 282.24ZM66.22 269.76C66.1362 269.776 66.05 269.773 65.9675 269.752C65.8849 269.73 65.8081 269.691 65.7425 269.636C65.6769 269.582 65.6241 269.514 65.5878 269.437C65.5516 269.359 65.5328 269.275 65.5328 269.19C65.5328 269.105 65.5516 269.021 65.5878 268.943C65.6241 268.866 65.6769 268.798 65.7425 268.744C65.8081 268.689 65.8849 268.65 65.9675 268.629C66.05 268.607 66.1362 268.604 66.22 268.62C66.3026 268.601 66.3885 268.6 66.4716 268.617C66.5547 268.634 66.633 268.67 66.7009 268.721C66.7688 268.772 66.8247 268.837 66.8646 268.912C66.9045 268.987 66.9276 269.069 66.932 269.154C66.9365 269.239 66.9223 269.324 66.8904 269.402C66.8586 269.481 66.8098 269.552 66.7476 269.609C66.6855 269.667 66.6114 269.711 66.5305 269.737C66.4497 269.763 66.3642 269.771 66.28 269.76H66.22ZM42.76 265.76C42.8438 265.744 42.93 265.747 43.0126 265.769C43.0951 265.79 43.1719 265.829 43.2375 265.884C43.3031 265.938 43.356 266.006 43.3922 266.083C43.4285 266.161 43.4472 266.245 43.4472 266.33C43.4472 266.415 43.4285 266.5 43.3922 266.577C43.356 266.654 43.3031 266.722 43.2375 266.776C43.1719 266.831 43.0951 266.87 43.0126 266.892C42.93 266.913 42.8438 266.916 42.76 266.9C42.6758 266.911 42.5903 266.903 42.5095 266.877C42.4287 266.851 42.3546 266.807 42.2924 266.749C42.2302 266.692 42.1814 266.621 42.1496 266.542C42.1177 266.464 42.1035 266.379 42.108 266.294C42.1125 266.209 42.1355 266.127 42.1754 266.052C42.2154 265.977 42.2713 265.912 42.3392 265.861C42.4071 265.81 42.4853 265.774 42.5684 265.757C42.6515 265.74 42.7374 265.741 42.82 265.76H42.76ZM29.58 225.76C30.4071 225.094 31.3494 224.586 32.36 224.26C32.36 221.66 32.16 220.26 34.22 221.8C34.8217 222.291 35.3592 222.855 35.82 223.48C36.7484 223.199 37.7104 223.044 38.68 223.02C38.96 223.02 39.14 223.18 39.12 223.46C38.7783 224.492 38.2643 225.459 37.6 226.32C38.177 227.217 38.5333 228.239 38.64 229.3C38.46 230.28 36.92 229.42 35.68 229.06C35.14 229.7 33.48 231.82 32.86 231.34C32.24 230.86 32.58 229.62 32.5 227.94C31.28 227.5 28.8 226.7 29.64 225.76H29.58ZM22.22 243.4C22.3038 243.384 22.39 243.387 22.4726 243.409C22.5551 243.43 22.6319 243.469 22.6975 243.524C22.7631 243.578 22.816 243.646 22.8522 243.723C22.8885 243.801 22.9072 243.885 22.9072 243.97C22.9072 244.055 22.8885 244.139 22.8522 244.217C22.816 244.294 22.7631 244.362 22.6975 244.416C22.6319 244.471 22.5551 244.51 22.4726 244.532C22.39 244.553 22.3038 244.556 22.22 244.54C22.1358 244.551 22.0503 244.543 21.9695 244.517C21.8887 244.491 21.8146 244.447 21.7524 244.389C21.6902 244.332 21.6415 244.261 21.6096 244.182C21.5777 244.104 21.5635 244.019 21.568 243.934C21.5725 243.849 21.5955 243.767 21.6354 243.692C21.6754 243.617 21.7312 243.552 21.7992 243.501C21.8671 243.45 21.9453 243.414 22.0284 243.397C22.1115 243.38 22.1974 243.381 22.28 243.4H22.22ZM215.12 309.82C207.8 319.36 98.5 372.4 87.86 377.54C62.88 347.88 24 293.8 1.20001 262.24L21.8 259.54C34.64 279.8 54.32 275.1 64.88 281.54C76.76 288.8 82.88 294.28 86.48 308.36C91.38 327.5 85.2 335.76 99.52 341.86C113.24 347.68 140.48 345.34 151.52 326.4C162.56 307.46 140.94 299.18 121.52 290.4C102.1 281.62 105.52 269.46 108.16 266.02C110.176 263.403 112.514 261.051 115.12 259.02C116.105 259.023 117.074 258.768 117.931 258.281C118.787 257.793 119.5 257.089 120 256.24C122.34 257.5 211.1 307.52 215.18 309.82H215.12ZM141.12 333.4C141.146 333.4 141.172 333.405 141.197 333.415C141.221 333.425 141.243 333.44 141.261 333.459C141.28 333.477 141.295 333.499 141.305 333.523C141.315 333.548 141.32 333.574 141.32 333.6C141.32 333.626 141.315 333.652 141.305 333.677C141.295 333.701 141.28 333.723 141.261 333.741C141.243 333.76 141.221 333.775 141.197 333.785C141.172 333.795 141.146 333.8 141.12 333.8C141.094 333.799 141.068 333.792 141.044 333.781C141.02 333.77 140.999 333.754 140.982 333.734C140.964 333.715 140.95 333.692 140.941 333.667C140.933 333.643 140.929 333.616 140.93 333.59C140.931 333.564 140.938 333.538 140.949 333.514C140.96 333.49 140.976 333.469 140.996 333.452C141.015 333.434 141.038 333.42 141.063 333.411C141.087 333.403 141.114 333.399 141.14 333.4H141.12ZM146.24 313.14C146 313.3 145.64 313.14 145.08 312.86C144.2 313.84 143.78 314.12 143.88 312.46C143.02 312.18 142.54 312.04 143.34 311.58C143.58 311.449 143.835 311.349 144.1 311.28C144.32 309.9 144.5 309.88 145.26 311.04C145.628 310.949 146.012 310.949 146.38 311.04C146.66 311.2 146.2 311.58 145.88 311.96C146 312.24 146.48 313 146.26 313.14H146.24ZM116.72 257.82C115.948 258.075 115.121 258.107 114.332 257.912C113.543 257.717 112.825 257.304 112.26 256.72H112.44C116.22 256.14 115.66 254.58 117.62 253.62C117.8 253.82 117.62 253.76 120.8 254C119.997 255.762 118.531 257.135 116.72 257.82ZM121.34 249.82C121.051 250.358 120.939 250.974 121.02 251.58C121.02 251.72 120.88 252.36 120.8 252.96L118.64 252.78C118.64 252.68 120.06 249.3 120.16 248.98H121.52L121.34 249.82ZM120.94 244.2C119.56 246.78 118.94 251.58 117.72 250.74C117.294 250.299 117.051 249.713 117.04 249.1C116.976 247.946 117.139 246.791 117.52 245.7C117.846 244.555 118.42 243.495 119.201 242.597C119.982 241.698 120.951 240.982 122.04 240.5C120.98 244.58 121.28 243.66 120.94 244.28V244.2ZM122.38 247.22C122.7 246.28 123.14 244.9 123.76 243.1C124.02 242.96 124.08 243.1 124.42 243.94C124.96 245.34 121.8 248.9 121.8 248.9C122 248.32 122.22 247.76 122.38 247.3V247.22ZM178.86 212.56C171.8 223.18 166.56 227.94 158.32 232.56C150.287 236.833 141.746 240.072 132.9 242.2C129.34 243.3 126.36 251.2 122.46 251.56C122.02 251.56 121.72 251.56 122.08 250.56C122.98 248.06 126.24 245.98 125.3 243.6C125.181 243.242 125.02 242.9 124.82 242.58C124.658 242.319 124.411 242.121 124.12 242.02C124.24 241.62 124.64 240.46 125.18 238.82C125.64 238.5 125.96 238.4 128.06 237.16C135.1 233 137.86 225.54 143.78 218.56C146.907 214.735 150.556 211.369 154.62 208.56C154.92 208.38 154.42 208.68 156.74 201.36C158.08 197.14 159.64 192.68 160.1 191.36C160.187 191.372 160.269 191.403 160.342 191.452C160.415 191.5 160.476 191.565 160.52 191.64C161.04 192.62 160.94 194.5 161.38 195.64C162.42 198.16 165 194.78 167.38 194.84C169.38 194.84 169.38 197.14 171.38 197.72C172.88 198.16 174.38 197.24 175.78 197.9C177.614 201.019 179.773 203.935 182.22 206.6C181.311 208.724 180.185 210.748 178.86 212.64V212.56ZM191.14 213.2C185.086 208.873 180.026 203.302 176.3 196.86C173.84 192.58 171.56 187.8 170.78 175.8C171.252 175.718 171.719 175.611 172.18 175.48L172.6 179.48C174.803 181.148 177.13 182.645 179.56 183.96C179.56 183.96 177.86 193.58 185.56 205.96C189.26 212.04 191.14 213.28 191.14 213.28V213.2ZM228.32 239C228.68 243.36 224.72 267.16 224.18 270.4C224.148 270.412 224.119 270.431 224.095 270.455C224.071 270.479 224.052 270.508 224.04 270.54C224.3 269.56 219.8 284.7 219.46 289.44C219.46 289.82 219.46 289.64 222.88 292.6C224.04 293.62 228.02 297 228.22 298.18C228.312 298.487 228.312 298.813 228.22 299.12C226.434 297.227 224.302 295.693 221.94 294.6C221.898 294.574 221.846 294.565 221.798 294.576C221.749 294.587 221.707 294.618 221.68 294.66C221.653 294.702 221.645 294.754 221.656 294.802C221.667 294.851 221.698 294.894 221.74 294.92L223.36 296.24C224.98 297.34 226.47 298.622 227.8 300.06C227.6 300.56 227.16 300.6 226.64 300.46C226.64 299.42 222.08 296.9 220.64 296.04C220.42 295.92 220.22 296.24 220.44 296.36C222.449 297.52 224.32 298.902 226.02 300.48C225.38 301.92 223.44 299.86 216.38 296.96C215.108 296.388 213.761 295.998 212.38 295.8C212.286 295.794 212.193 295.817 212.114 295.868C212.035 295.918 211.974 295.993 211.94 296.08C211.76 296.6 212.32 296.58 214.12 298.4C214.503 298.736 214.833 299.127 215.1 299.56C213.902 299.702 212.691 299.418 211.68 298.76C210.879 298.224 210.246 297.471 209.857 296.59C209.467 295.708 209.336 294.733 209.48 293.78C209.82 291.78 211.8 290.76 210.98 288.98C210.16 287.2 208.48 275.64 208.24 273.98C206.02 258.96 206.86 258.64 206.44 258.52C206.44 237.68 207.1 237.6 206.94 236.52C206.94 236.3 202.46 205.54 202.42 205.3C203.74 205.3 204.68 206.76 205.42 207.96C206.5 209.68 207.42 210.8 209.58 210.14C211.74 209.48 213.58 207.66 215.58 206.94C217.58 206.22 218.64 206.94 220.82 207.64C221.66 208.041 222.609 208.155 223.519 207.963C224.43 207.771 225.253 207.285 225.86 206.58C229.34 203.68 227.7 202.96 234.82 205.76C233.44 211.14 230.34 226.34 230.28 226.58C229.016 230.6 228.356 234.786 228.32 239ZM202.18 204.32C200.611 204.886 199.081 205.554 197.6 206.32C197.26 206.32 197.12 206.32 197.02 205.92C196.4 203.06 203.68 169.2 221.82 167.92C230.1 167.36 235.82 182.22 238.32 190.14C239.964 195.174 241.241 200.321 242.14 205.54C242.5 209.16 231.94 202.38 228.9 203.08C227.7 203.36 227.16 204.38 225.44 205.82C223.72 207.26 222.84 207.26 221.32 206.72C219.524 205.736 217.42 205.479 215.44 206C213.32 206.76 211.56 208.54 209.44 209.2C207.64 209.78 207.08 208.54 206.06 206.94C205.04 205.34 204 203.98 202.18 204.24V204.32ZM231.98 223.2C232.82 219.88 234.3 213 235.4 205.8C237.24 206.52 241.26 208.28 242.6 207C242.799 206.786 242.944 206.527 243.02 206.244C243.097 205.962 243.104 205.665 243.04 205.38C242.315 201.159 241.313 196.99 240.04 192.9C237.36 184 231.1 166.9 221.78 167.48C202.86 168.8 195.48 202.94 196.12 206.02C196.139 206.218 196.202 206.409 196.306 206.579C196.41 206.748 196.552 206.891 196.72 206.998C196.888 207.104 197.078 207.17 197.276 207.191C197.473 207.213 197.673 207.188 197.86 207.12C199 206.84 200.62 205.6 202.1 205.26C202.32 208.9 202.74 213.74 203.62 220C200.246 218.673 196.988 217.067 193.88 215.2C187.605 209.106 183.182 201.361 181.12 192.86C180.417 190.078 180.015 187.228 179.92 184.36C183.552 186.388 187.321 188.159 191.2 189.66C191.264 189.685 191.334 189.695 191.403 189.689C191.472 189.682 191.538 189.659 191.596 189.622C191.655 189.585 191.704 189.535 191.739 189.475C191.775 189.416 191.795 189.349 191.8 189.28C192.531 183.63 194.926 178.325 198.68 174.04C202.505 169.802 207.586 166.9 213.18 165.76C213.27 165.745 213.354 165.702 213.419 165.638C213.484 165.573 213.527 165.49 213.542 165.4C213.558 165.31 213.545 165.217 213.505 165.134C213.465 165.052 213.4 164.984 213.32 164.94C209.358 162.654 205.272 160.591 201.08 158.76C198.483 157.553 195.76 156.641 192.96 156.04C193.502 154.548 193.865 152.997 194.04 151.42C198.04 149.72 218.22 152.22 231.82 150.8C233.88 150.673 235.923 150.344 237.92 149.82C250.18 149.48 268.64 164.56 272.04 171.36C275.44 178.16 274.9 186.66 267.36 197.24C260.26 207.14 234.74 221.58 232 223.12L231.98 223.2ZM286.4 263.58C289.18 254.82 284.78 246.62 283.2 244.08L296.44 243.72C298.144 244.729 299.445 246.298 300.12 248.16C301.205 250.948 301.781 253.908 301.82 256.9C297.86 258.68 290.52 262.04 286.4 263.5V263.58ZM302.68 256.36C302.57 253.43 301.891 250.55 300.68 247.88C299.878 245.996 298.47 244.434 296.68 243.44C297.478 242.584 298.445 241.903 299.52 241.44C299.52 242.08 298.74 243.44 299.68 243.58C300.62 243.72 300.72 242.8 301.3 242.5C301.54 242.38 302.02 242.36 301.82 242.88C301.62 243.4 301.18 244.18 301.64 244.88C301.979 245.278 302.445 245.547 302.96 245.64C303.08 245.64 302.28 246.2 302.06 246.84C302.008 246.991 302.016 247.157 302.083 247.302C302.15 247.448 302.271 247.562 302.42 247.62C303.1 247.88 304.28 247.2 305.02 247.94C305.32 248.26 305.16 248.56 304.78 248.78C303.86 249.36 303.74 250.04 304.6 250.78C305.032 251.081 305.416 251.445 305.74 251.86C305.112 251.856 304.5 252.06 304 252.44C303.905 252.513 303.827 252.607 303.774 252.714C303.721 252.822 303.693 252.94 303.693 253.06C303.693 253.18 303.721 253.298 303.774 253.406C303.827 253.513 303.905 253.607 304 253.68C304.44 254.06 305.52 254.46 305.76 254.8C304.807 255.434 303.771 255.933 302.68 256.28V256.36ZM326.94 242.52C326.12 245.86 308.12 253.92 306.84 254.52C306.62 253.74 305.36 253.36 304.84 252.98C305.4 252.68 306.52 252.8 306.74 252.1C306.96 251.4 305.4 250.24 305.04 249.78C305.38 249.46 306.6 248.88 306.06 247.78C305.814 247.366 305.444 247.041 305.002 246.851C304.56 246.66 304.069 246.615 303.6 246.72H303.3C303.74 246.16 304.46 245.44 303.8 244.96C303.14 244.48 302.7 244.96 302.36 244.3C304.26 244.54 305.82 244.8 307.02 245.06C307.06 245.066 307.101 245.063 307.139 245.051C307.178 245.04 307.214 245.02 307.244 244.994C307.275 244.967 307.299 244.934 307.316 244.897C307.332 244.86 307.34 244.82 307.34 244.78C307.34 245.58 306.78 240.16 309.62 239.52C310.888 239.386 312.17 239.566 313.352 240.044C314.534 240.522 315.581 241.283 316.4 242.26C316.447 242.318 316.509 242.363 316.58 242.387C316.651 242.412 316.727 242.416 316.8 242.4C317.54 242.26 323.68 241 326.14 241.9C326.42 241.88 327 242.16 326.94 242.44V242.52Z" fill="black"/>
</svg>
