<svg width="360" height="60" viewBox="0 0 360 60" fill="none" xmlns="http://www.w3.org/2000/svg">
<circle cx="330" cy="30" r="30" fill="#DCB986"/>
<path d="M336.279 30.7837L335.729 30.2737L336.279 30.7837ZM330.216 24.7208L330.726 25.2707L330.216 24.7208ZM339.158 23.4643L339.902 23.5615L339.158 23.4643ZM337.536 21.8421L337.633 22.5858L337.633 22.5858L337.536 21.8421ZM326.154 30.648L326.827 30.9781L326.154 30.648ZM330.352 34.8463L330.022 34.1728L330.022 34.1728L330.352 34.8463ZM327.715 28.4345C327.422 28.1416 326.947 28.1416 326.655 28.4345C326.362 28.7274 326.362 29.2022 326.655 29.4951L327.715 28.4345ZM331.505 34.3454C331.798 34.6383 332.273 34.6383 332.566 34.3454C332.858 34.0525 332.858 33.5777 332.566 33.2848L331.505 34.3454ZM326.199 35.8612C326.492 35.5683 326.492 35.0934 326.199 34.8005C325.907 34.5076 325.432 34.5076 325.139 34.8005L326.199 35.8612ZM322.714 37.2257C322.421 37.5185 322.421 37.9934 322.714 38.2863C323.007 38.5792 323.481 38.5792 323.774 38.2863L322.714 37.2257ZM324.381 34.0423C324.674 33.7494 324.674 33.2745 324.381 32.9816C324.088 32.6887 323.613 32.6887 323.32 32.9816L324.381 34.0423ZM322.107 34.1942C321.815 34.4871 321.815 34.962 322.107 35.2549C322.4 35.5478 322.875 35.5478 323.168 35.2549L322.107 34.1942ZM328.018 37.68C328.311 37.3871 328.311 36.9123 328.018 36.6194C327.725 36.3265 327.251 36.3265 326.958 36.6194L328.018 37.68ZM325.745 37.8319C325.452 38.1248 325.452 38.5997 325.745 38.8926C326.038 39.1855 326.513 39.1855 326.806 38.8926L325.745 37.8319ZM329.671 37.8772L330.413 37.7712L330.413 37.7712L329.671 37.8772ZM334.097 34.9064L334.839 34.8004L334.839 34.8004L334.097 34.9064ZM323.123 31.3293L323.229 30.5869L323.229 30.5869L323.123 31.3293ZM326.094 26.9034L325.987 27.6459L325.987 27.6459L326.094 26.9034ZM329.021 33.9844L327.016 31.979L325.955 33.0396L327.96 35.045L329.021 33.9844ZM335.729 30.2737C334.12 32.0087 331.5 33.4484 330.022 34.1728L330.682 35.5197C332.175 34.7876 335.017 33.2476 336.829 31.2937L335.729 30.2737ZM326.827 30.9781C327.552 29.5004 328.991 26.8799 330.726 25.2707L329.706 24.1709C327.752 25.9831 326.212 28.8246 325.48 30.3178L326.827 30.9781ZM338.414 23.367C338.154 25.3565 337.465 28.4027 335.729 30.2737L336.829 31.2937C338.907 29.0528 339.637 25.5867 339.902 23.5615L338.414 23.367ZM330.726 25.2707C332.597 23.5354 335.643 22.846 337.633 22.5858L337.438 21.0985C335.413 21.3633 331.947 22.0925 329.706 24.1709L330.726 25.2707ZM339.902 23.5615C340.092 22.1081 338.892 20.9084 337.438 21.0985L337.633 22.5858C338.109 22.5235 338.477 22.8905 338.414 23.367L339.902 23.5615ZM327.016 31.979C326.735 31.6979 326.67 31.2989 326.827 30.9781L325.48 30.3178C325.023 31.2502 325.249 32.3339 325.955 33.0396L327.016 31.979ZM327.96 35.045C328.666 35.7508 329.75 35.9768 330.682 35.5197L330.022 34.1728C329.701 34.3301 329.302 34.2655 329.021 33.9844L327.96 35.045ZM326.655 29.4951L331.505 34.3454L332.566 33.2848L327.715 28.4345L326.655 29.4951ZM325.139 34.8005L322.714 37.2257L323.774 38.2863L326.199 35.8612L325.139 34.8005ZM323.32 32.9816L322.107 34.1942L323.168 35.2549L324.381 34.0423L323.32 32.9816ZM326.958 36.6194L325.745 37.8319L326.806 38.8926L328.018 37.68L326.958 36.6194ZM331.808 25.7062C330.845 26.6688 330.845 28.2294 331.808 29.192L332.869 28.1313C332.492 27.7545 332.492 27.1436 332.869 26.7668L331.808 25.7062ZM331.808 29.192C332.771 30.1546 334.331 30.1546 335.294 29.192L334.233 28.1313C333.856 28.5081 333.245 28.5081 332.869 28.1313L331.808 29.192ZM335.294 29.192C336.256 28.2294 336.256 26.6688 335.294 25.7062L334.233 26.7668C334.61 27.1436 334.61 27.7545 334.233 28.1313L335.294 29.192ZM335.294 25.7062C334.331 24.7436 332.771 24.7436 331.808 25.7062L332.869 26.7668C333.245 26.39 333.856 26.39 334.233 26.7668L335.294 25.7062ZM333.324 35.1036L330.595 37.8319L331.656 38.8926L334.384 36.1643L333.324 35.1036ZM330.413 37.7712L330.049 35.2248L328.564 35.4369L328.928 37.9833L330.413 37.7712ZM333.112 33.3149L333.354 35.0125L334.839 34.8004L334.597 33.1028L333.112 33.3149ZM330.595 37.8319C330.574 37.853 330.557 37.8595 330.544 37.8623C330.529 37.8657 330.508 37.8653 330.486 37.8579C330.463 37.8505 330.446 37.8383 330.436 37.826C330.427 37.8161 330.417 37.8007 330.413 37.7712L328.928 37.9833C329.116 39.2946 330.719 39.8292 331.656 38.8926L330.595 37.8319ZM334.384 36.1643C334.742 35.8065 334.911 35.3012 334.839 34.8004L333.354 35.0125C333.359 35.046 333.348 35.0797 333.324 35.1036L334.384 36.1643ZM324.836 26.6156L322.107 29.3439L323.168 30.4046L325.896 27.6763L324.836 26.6156ZM323.017 32.0718L325.563 32.4356L325.775 30.9507L323.229 30.5869L323.017 32.0718ZM327.897 26.4035L326.2 26.161L325.987 27.6459L327.685 27.8884L327.897 26.4035ZM322.107 29.3439C321.171 30.2806 321.705 31.8845 323.017 32.0718L323.229 30.5869C323.199 30.5827 323.184 30.573 323.174 30.5643C323.162 30.5537 323.15 30.5368 323.142 30.5145C323.135 30.4922 323.134 30.4714 323.138 30.4556C323.14 30.4426 323.147 30.4257 323.168 30.4046L322.107 29.3439ZM325.896 27.6763C325.92 27.6524 325.954 27.6411 325.987 27.6459L326.2 26.161C325.699 26.0894 325.193 26.2579 324.836 26.6156L325.896 27.6763Z" fill="black"/>
<circle cx="270" cy="30" r="30" fill="#868EDC"/>
<path d="M258 37.2993C258 36.552 258.178 35.8154 258.52 35.1508L266.037 20.5218C266.647 19.336 267.755 18.4853 269.058 18.2036V18.2036C269.679 18.0694 270.321 18.0694 270.942 18.2036V18.2036C272.245 18.4853 273.353 19.336 273.963 20.5218L281.48 35.1508C281.822 35.8154 282 36.552 282 37.2993V37.2993C282 39.8954 279.895 42 277.299 42H262.701C260.105 42 258 39.8954 258 37.2993V37.2993Z" stroke="black" stroke-width="1.5"/>
<path d="M270 25.7838L270 30.973" stroke="black" stroke-width="1.5" stroke-linecap="round" stroke-linejoin="round"/>
<path d="M270 34.8649L270 35.5135" stroke="black" stroke-width="1.5" stroke-linecap="round" stroke-linejoin="round"/>
<circle cx="210" cy="30" r="30" fill="#C086DC"/>
<rect x="198" y="18" width="24" height="24" rx="5" stroke="black" stroke-width="1.5"/>
<circle cx="205.25" cy="30.25" r="1.25" fill="black"/>
<circle cx="210.25" cy="30.25" r="1.25" fill="black"/>
<circle cx="215.25" cy="30.25" r="1.25" fill="black"/>
<circle cx="150" cy="30" r="30" fill="#86DCD7"/>
<rect x="138" y="18" width="24" height="24" rx="5" stroke="black" stroke-width="1.5"/>
<path d="M147.6 36H152.4" stroke="black" stroke-width="1.5" stroke-linecap="round" stroke-linejoin="round"/>
<path d="M146.4 18L146.4 26.4L150 25.2L153.6 26.4L153.6 18.6" stroke="black" stroke-width="1.5" stroke-linecap="round" stroke-linejoin="round"/>
<circle cx="90" cy="30" r="30" fill="#B1DC86"/>
<rect x="78" y="26" width="24" height="16" rx="4" stroke="black" stroke-width="1.5"/>
<path d="M90 35.3334L90 32.6667" stroke="black" stroke-width="1.5" stroke-linecap="round" stroke-linejoin="round"/>
<path d="M96 26V22C96 19.7909 94.2091 18 92 18H88C85.7909 18 84 19.7909 84 22L84 26" stroke="black" stroke-width="1.5"/>
<circle cx="30" cy="30" r="30" fill="#DC8686"/>
<rect x="18" y="18" width="24" height="24" rx="4" stroke="black" stroke-width="1.5"/>
<path d="M24 24H36" stroke="black" stroke-width="1.5" stroke-linecap="round"/>
<path d="M24 30H36" stroke="black" stroke-width="1.5" stroke-linecap="round"/>
<path d="M24 36H30" stroke="black" stroke-width="1.5" stroke-linecap="round"/>
</svg>
