<svg width="60" height="60" viewBox="0 0 60 60" fill="none" xmlns="http://www.w3.org/2000/svg">
<circle cx="30" cy="30" r="30" fill="#DCB986"/>
<path d="M36.2792 30.7837L35.7293 30.2737L36.2792 30.7837ZM30.2163 24.7208L30.7263 25.2707L30.2163 24.7208ZM39.1579 23.4643L39.9015 23.5615L39.1579 23.4643ZM37.5357 21.8421L37.633 22.5858L37.633 22.5858L37.5357 21.8421ZM26.1537 30.648L26.8272 30.9781L26.1537 30.648ZM30.352 34.8463L30.0219 34.1728L30.352 34.8463ZM27.7152 28.4345C27.4223 28.1416 26.9474 28.1416 26.6546 28.4345C26.3617 28.7274 26.3617 29.2022 26.6546 29.4951L27.7152 28.4345ZM31.5049 34.3454C31.7978 34.6383 32.2726 34.6383 32.5655 34.3454C32.8584 34.0525 32.8584 33.5777 32.5655 33.2848L31.5049 34.3454ZM26.1995 35.8612C26.4924 35.5683 26.4924 35.0934 26.1995 34.8005C25.9066 34.5076 25.4317 34.5076 25.1388 34.8005L26.1995 35.8612ZM22.7137 37.2257C22.4208 37.5185 22.4208 37.9934 22.7137 38.2863C23.0066 38.5792 23.4815 38.5792 23.7743 38.2863L22.7137 37.2257ZM24.3806 34.0423C24.6735 33.7494 24.6735 33.2745 24.3806 32.9816C24.0877 32.6887 23.6129 32.6887 23.32 32.9816L24.3806 34.0423ZM22.1074 34.1942C21.8145 34.4871 21.8145 34.962 22.1074 35.2549C22.4003 35.5478 22.8752 35.5478 23.1681 35.2549L22.1074 34.1942ZM28.0184 37.68C28.3113 37.3871 28.3113 36.9123 28.0184 36.6194C27.7255 36.3265 27.2506 36.3265 26.9577 36.6194L28.0184 37.68ZM25.7451 37.8319C25.4522 38.1248 25.4522 38.5997 25.7451 38.8926C26.038 39.1855 26.5129 39.1855 26.8058 38.8926L25.7451 37.8319ZM29.6707 37.8772L30.4131 37.7712L29.6707 37.8772ZM34.0966 34.9064L34.839 34.8004L34.0966 34.9064ZM23.1227 31.3293L23.2288 30.5869L23.2288 30.5869L23.1227 31.3293ZM26.0935 26.9034L25.9875 27.6459L25.9875 27.6459L26.0935 26.9034ZM29.021 33.9844L27.0156 31.979L25.955 33.0396L27.9604 35.045L29.021 33.9844ZM35.7293 30.2737C34.1201 32.0087 31.4996 33.4484 30.0219 34.1728L30.6822 35.5197C32.1754 34.7876 35.0169 33.2476 36.8291 31.2937L35.7293 30.2737ZM26.8272 30.9781C27.5516 29.5004 28.9913 26.8799 30.7263 25.2707L29.7063 24.1709C27.7524 25.9831 26.2124 28.8246 25.4803 30.3178L26.8272 30.9781ZM38.4142 23.367C38.154 25.3565 37.4646 28.4027 35.7293 30.2737L36.8291 31.2937C38.9075 29.0528 39.6367 25.5867 39.9015 23.5615L38.4142 23.367ZM30.7263 25.2707C32.5973 23.5354 35.6435 22.846 37.633 22.5858L37.4385 21.0985C35.4133 21.3633 31.9472 22.0925 29.7063 24.1709L30.7263 25.2707ZM39.9015 23.5615C40.0916 22.1081 38.8919 20.9084 37.4385 21.0985L37.633 22.5858C38.1095 22.5235 38.4765 22.8905 38.4142 23.367L39.9015 23.5615ZM27.0156 31.979C26.7345 31.6979 26.6699 31.2989 26.8272 30.9781L25.4803 30.3178C25.0232 31.2502 25.2492 32.3339 25.955 33.0396L27.0156 31.979ZM27.9604 35.045C28.6661 35.7508 29.7498 35.9768 30.6822 35.5197L30.0219 34.1728C29.7011 34.3301 29.3021 34.2655 29.021 33.9844L27.9604 35.045ZM26.6546 29.4951L31.5049 34.3454L32.5655 33.2848L27.7152 28.4345L26.6546 29.4951ZM25.1388 34.8005L22.7137 37.2257L23.7743 38.2863L26.1995 35.8612L25.1388 34.8005ZM23.32 32.9816L22.1074 34.1942L23.1681 35.2549L24.3806 34.0423L23.32 32.9816ZM26.9577 36.6194L25.7451 37.8319L26.8058 38.8926L28.0184 37.68L26.9577 36.6194ZM31.808 25.7062C30.8454 26.6688 30.8454 28.2294 31.808 29.192L32.8687 28.1313C32.4919 27.7545 32.4919 27.1436 32.8687 26.7668L31.808 25.7062ZM31.808 29.192C32.7706 30.1546 34.3312 30.1546 35.2938 29.192L34.2332 28.1313C33.8564 28.5081 33.2455 28.5081 32.8687 28.1313L31.808 29.192ZM35.2938 29.192C36.2564 28.2294 36.2564 26.6688 35.2938 25.7062L34.2332 26.7668C34.61 27.1436 34.61 27.7545 34.2332 28.1313L35.2938 29.192ZM35.2938 25.7062C34.3312 24.7436 32.7706 24.7436 31.808 25.7062L32.8687 26.7668C33.2455 26.39 33.8564 26.39 34.2332 26.7668L35.2938 25.7062ZM33.3237 35.1036L30.5954 37.8319L31.6561 38.8926L34.3844 36.1643L33.3237 35.1036ZM30.4131 37.7712L30.0494 35.2248L28.5644 35.4369L28.9282 37.9833L30.4131 37.7712ZM33.1116 33.3149L33.3541 35.0125L34.839 34.8004L34.5965 33.1028L33.1116 33.3149ZM30.5954 37.8319C30.5743 37.853 30.5574 37.8595 30.5445 37.8623C30.5286 37.8657 30.5078 37.8653 30.4855 37.8579C30.4632 37.8505 30.4464 37.8383 30.4357 37.826C30.427 37.8161 30.4174 37.8007 30.4131 37.7712L28.9282 37.9833C29.1155 39.2946 30.7195 39.8292 31.6561 38.8926L30.5954 37.8319ZM34.3844 36.1643C34.7421 35.8065 34.9106 35.3012 34.839 34.8004L33.3541 35.0125C33.3589 35.046 33.3476 35.0797 33.3237 35.1036L34.3844 36.1643ZM24.8357 26.6156L22.1074 29.3439L23.168 30.4046L25.8963 27.6763L24.8357 26.6156ZM23.0167 32.0718L25.5631 32.4356L25.7752 30.9507L23.2288 30.5869L23.0167 32.0718ZM27.8972 26.4035L26.1996 26.161L25.9875 27.6459L27.6851 27.8884L27.8972 26.4035ZM22.1074 29.3439C21.1708 30.2806 21.7054 31.8845 23.0167 32.0718L23.2288 30.5869C23.1993 30.5827 23.1839 30.573 23.174 30.5643C23.1617 30.5537 23.1495 30.5368 23.1421 30.5145C23.1346 30.4922 23.1343 30.4714 23.1377 30.4556C23.1405 30.4426 23.1469 30.4257 23.168 30.4046L22.1074 29.3439ZM25.8963 27.6763C25.9202 27.6524 25.954 27.6411 25.9875 27.6459L26.1996 26.161C25.6988 26.0894 25.1934 26.2579 24.8357 26.6156L25.8963 27.6763Z" fill="black"/>
</svg>
