<svg width="20" height="19" viewBox="0 0 20 19" fill="none" xmlns="http://www.w3.org/2000/svg">
<path d="M8.97183 1.70847C9.43822 0.933483 10.5618 0.933482 11.0282 1.70847L13.0295 5.03392C13.197 5.31233 13.4703 5.51089 13.7869 5.58421L17.568 6.45993C18.4492 6.66401 18.7964 7.73257 18.2034 8.41562L15.6592 11.3466C15.4462 11.592 15.3418 11.9132 15.3699 12.237L15.7054 16.1036C15.7837 17.0048 14.8747 17.6652 14.0418 17.3123L10.4681 15.7983C10.1689 15.6716 9.83109 15.6716 9.53189 15.7983L5.95817 17.3123C5.12532 17.6652 4.21635 17.0048 4.29455 16.1036L4.63013 12.237C4.65822 11.9132 4.55383 11.592 4.34082 11.3466L1.79656 8.41562C1.20363 7.73258 1.55083 6.66401 2.432 6.45993L6.21313 5.58421C6.52969 5.51089 6.80299 5.31233 6.97054 5.03392L8.97183 1.70847Z" fill="#FFC700" stroke="#FFC700" stroke-width="1.5"/>
</svg>
