<svg width="60" height="60" viewBox="0 0 60 60" fill="none" xmlns="http://www.w3.org/2000/svg">
<circle cx="30" cy="30" r="30" fill="#868EDC"/>
<path d="M18 37.2993C18 36.552 18.1782 35.8154 18.5198 35.1508L26.0374 20.5218C26.6468 19.336 27.7553 18.4853 29.0585 18.2036V18.2036C29.679 18.0694 30.321 18.0694 30.9415 18.2036V18.2036C32.2447 18.4853 33.3532 19.336 33.9626 20.5218L41.4802 35.1508C41.8218 35.8154 42 36.552 42 37.2993V37.2993C42 39.8954 39.8954 42 37.2993 42H22.7007C20.1046 42 18 39.8954 18 37.2993V37.2993Z" stroke="black" stroke-width="1.5"/>
<path d="M30 25.7838L30 30.973" stroke="black" stroke-width="1.5" stroke-linecap="round" stroke-linejoin="round"/>
<path d="M30 34.8649L30 35.5135" stroke="black" stroke-width="1.5" stroke-linecap="round" stroke-linejoin="round"/>
</svg>
