<svg width="1436" height="392" viewBox="0 0 1436 392" fill="none" xmlns="http://www.w3.org/2000/svg">
<path d="M932.5 392C942.165 392 950 384.165 950 374.5C950 364.835 942.165 357 932.5 357C922.835 357 915 364.835 915 374.5C915 384.165 922.835 392 932.5 392Z" fill="#FF3344"/>
<path d="M24.5 319C38.031 319 49 308.031 49 294.5C49 280.969 38.031 270 24.5 270C10.969 270 0 280.969 0 294.5C0 308.031 10.969 319 24.5 319Z" fill="#4857EC"/>
<path d="M1421 337C1429.28 337 1436 330.284 1436 322C1436 313.716 1429.28 307 1421 307C1412.72 307 1406 313.716 1406 322C1406 330.284 1412.72 337 1421 337Z" fill="#4857EC"/>
<path d="M874.5 73C879.747 73 884 68.7467 884 63.5C884 58.2533 879.747 54 874.5 54C869.253 54 865 58.2533 865 63.5C865 68.7467 869.253 73 874.5 73Z" fill="#2FEFB1"/>
<path d="M768 299C778.493 299 787 290.493 787 280C787 269.507 778.493 261 768 261C757.507 261 749 269.507 749 280C749 290.493 757.507 299 768 299Z" fill="#2FEFB1"/>
<path d="M218 18C222.971 18 227 13.9706 227 9C227 4.02944 222.971 0 218 0C213.029 0 209 4.02944 209 9C209 13.9706 213.029 18 218 18Z" fill="#F7E36D"/>
</svg>
