<svg width="22" height="22" viewBox="0 0 22 22" fill="none" xmlns="http://www.w3.org/2000/svg">
<path d="M12.0186 1.77358C11.6984 0.742141 10.3029 0.742141 9.98156 1.77358L8.35469 7.00803C8.28462 7.23274 8.14835 7.4285 7.9654 7.56731C7.78244 7.70611 7.56219 7.78083 7.33615 7.78076H2.07317C1.03642 7.78076 0.603734 9.16945 1.44341 9.8078L5.70178 13.0421C5.8847 13.1811 6.02083 13.3772 6.09067 13.6021C6.16051 13.827 6.16047 14.0693 6.09056 14.2941L4.46475 19.5286C4.14345 20.56 5.27337 21.419 6.11198 20.7807L10.3703 17.5464C10.5534 17.4072 10.7738 17.3323 11.0001 17.3323C11.2264 17.3323 11.4468 17.4072 11.6299 17.5464L15.8882 20.7807C16.7268 21.419 17.8568 20.5612 17.5354 19.5286L15.9096 14.2941C15.8397 14.0693 15.8397 13.827 15.9095 13.6021C15.9794 13.3772 16.1155 13.1811 16.2984 13.0421L20.5568 9.8078C21.3954 9.16945 20.9648 7.78076 19.927 7.78076H14.663C14.4371 7.78059 14.2171 7.70576 14.0344 7.56698C13.8516 7.42819 13.7155 7.23255 13.6455 7.00803L12.0186 1.77358Z" stroke="#F9C94E" stroke-linecap="round" stroke-linejoin="round"/>
</svg>
