<svg width="16" height="14" viewBox="0 0 16 14" fill="none" xmlns="http://www.w3.org/2000/svg">
<path d="M8.16945 0.702804L8.16939 0.702649C8.12807 0.584787 8.01248 0.5 7.84277 0.5C7.67317 0.5 7.55712 0.584736 7.51544 0.702883C7.51541 0.702969 7.51538 0.703055 7.51535 0.703142L6.23961 4.33791L6.23944 4.3384C6.14704 4.60079 5.96995 4.82218 5.74136 4.97575C5.51323 5.12901 5.24294 5.209 4.96905 5.20896C4.96901 5.20896 4.96897 5.20896 4.96892 5.20896H0.84162C0.651582 5.20896 0.549803 5.31201 0.514588 5.41226C0.496094 5.46492 0.496018 5.5161 0.509692 5.55954C0.522272 5.5995 0.552101 5.65143 0.626782 5.70175L8.16945 0.702804ZM8.16945 0.702804L9.4453 4.33791L9.44547 4.3384C9.5378 4.60058 9.71468 4.82183 9.94301 4.97539C10.1709 5.12866 10.441 5.20877 10.7147 5.20896H10.715H14.8433C15.0338 5.20896 15.1352 5.31204 15.1702 5.41197C15.1887 5.46457 15.1887 5.51585 15.175 5.55946C15.1624 5.59962 15.1324 5.65158 15.058 5.70186C15.0579 5.70192 15.0578 5.70198 15.0577 5.70204L11.7186 7.94783L11.7184 7.94794C11.4898 8.10181 11.3129 8.32351 11.2208 8.58617C11.1285 8.84948 11.1285 9.13443 11.2209 9.39772C11.2209 9.39776 11.2209 9.39781 11.2209 9.39785L12.4959 13.0328L12.496 13.0331C12.5333 13.1393 12.5022 13.2427 12.3838 13.3224C12.2615 13.4047 12.0972 13.4178 11.9554 13.3222L11.9549 13.3219L8.61553 11.076C8.61548 11.0759 8.61543 11.0759 8.61538 11.0759C8.38714 10.9223 8.11661 10.8421 7.84246 10.8421C7.5683 10.8421 7.29777 10.9223 7.06953 11.0759C7.06948 11.0759 7.06943 11.0759 7.06938 11.076L3.72996 13.3219L3.72954 13.3222C3.58789 13.4177 3.42369 13.4046 3.30118 13.3221C3.18248 13.2422 3.15171 13.1388 3.18885 13.0333L3.18901 13.0328L4.46398 9.39785C4.46399 9.39781 4.46401 9.39776 4.46402 9.39772C4.55642 9.13443 4.55646 8.84948 4.46413 8.58617C4.37203 8.32351 4.19509 8.10181 3.96652 7.94794L3.96635 7.94783L0.626963 5.70187L8.16945 0.702804Z" stroke="#F9C94E" stroke-linecap="round" stroke-linejoin="round"/>
</svg>
