<svg width="210" height="210" viewBox="0 0 210 210" fill="none" xmlns="http://www.w3.org/2000/svg">
<path d="M24.15 7.35C24.15 7.85 24.0833 8.33333 23.95 8.8C23.8167 9.26666 23.5833 9.68333 23.25 10.05C23.1167 10.25 22.8833 10.5167 22.55 10.85C22.2167 11.15 21.7667 11.5833 21.2 12.15C19.8 13.3167 18.4667 14.55 17.2 15.85C15.9667 17.15 14.7667 18.5167 13.6 19.95C13.2 20.4167 12.8 20.9 12.4 21.4C12 21.9 11.6833 22.4167 11.45 22.95C11.2167 23.4833 11.1 24.05 11.1 24.65C11.1333 25.25 11.3833 25.8667 11.85 26.5C12.6833 27.6667 13.5667 28.7833 14.5 29.85C15.4333 30.9167 16.4333 31.9667 17.5 33C18.1333 33.6667 18.7667 34.3167 19.4 34.95C20.0667 35.5833 20.7 36.2167 21.3 36.85C22.1 37.65 22.5833 38.5 22.75 39.4C22.9167 40.2667 22.8333 41.0333 22.5 41.7C22.1667 42.3667 21.6167 42.85 20.85 43.15C20.1167 43.45 19.2333 43.4 18.2 43C17.6667 42.7667 17.15 42.45 16.65 42.05C16.15 41.6833 15.6667 41.2667 15.2 40.8C14.7333 40.3 14.2833 39.8 13.85 39.3C13.4167 38.8 13.0167 38.3333 12.65 37.9C6.38333 31 3.25 26.4333 3.25 24.2C3.25 22.5 4.46667 20.0333 6.9 16.8C7.83333 15.6333 8.86667 14.4167 10 13.15C11.1333 11.85 12.4 10.5667 13.8 9.3C14.6667 8.43333 15.55 7.58333 16.45 6.75C17.3833 5.88333 18.4 5.15 19.5 4.55C19.9667 4.31667 20.4667 4.21666 21 4.25C21.5667 4.25 22.0833 4.38333 22.55 4.65C23.0167 4.88333 23.4 5.23333 23.7 5.7C24 6.16667 24.15 6.71667 24.15 7.35Z" fill="#8F48EA"/>
<path d="M72.6 7.35C72.6 6.71667 72.75 6.16667 73.05 5.7C73.35 5.23333 73.7333 4.88333 74.2 4.65C74.6667 4.38333 75.1667 4.25 75.7 4.25C76.2667 4.21666 76.7833 4.31667 77.25 4.55C78.35 5.15 79.35 5.88333 80.25 6.75C81.1833 7.58333 82.0833 8.43333 82.95 9.3C84.35 10.5667 85.6167 11.85 86.75 13.15C87.8833 14.4167 88.9167 15.6333 89.85 16.8C92.2833 20.0333 93.5 22.5 93.5 24.2C93.5 26.4333 90.3667 31 84.1 37.9C83.7333 38.3333 83.3333 38.8 82.9 39.3C82.4667 39.8 82.0167 40.3 81.55 40.8C81.0833 41.2667 80.6 41.6833 80.1 42.05C79.6 42.45 79.0833 42.7667 78.55 43C77.5167 43.4 76.6167 43.45 75.85 43.15C75.1167 42.85 74.5833 42.3667 74.25 41.7C73.9167 41.0333 73.8333 40.2667 74 39.4C74.1667 38.5 74.65 37.65 75.45 36.85C76.05 36.2167 76.6667 35.5833 77.3 34.95C77.9667 34.3167 78.6167 33.6667 79.25 33C80.3167 31.9667 81.3167 30.9167 82.25 29.85C83.1833 28.7833 84.0667 27.6667 84.9 26.5C85.3333 25.8667 85.5667 25.25 85.6 24.65C85.6333 24.05 85.5333 23.4833 85.3 22.95C85.0667 22.4167 84.75 21.9 84.35 21.4C83.95 20.9 83.55 20.4167 83.15 19.95C81.9833 18.5167 80.7667 17.15 79.5 15.85C78.2667 14.55 76.95 13.3167 75.55 12.15C74.9833 11.5833 74.5333 11.15 74.2 10.85C73.8667 10.5167 73.6333 10.25 73.5 10.05C73.1667 9.68333 72.9333 9.26666 72.8 8.8C72.6667 8.33333 72.6 7.85 72.6 7.35Z" fill="#8F48EA"/>
<circle cx="170" cy="30" r="30" fill="#48EC9D" fill-opacity="0.2"/>
<path d="M160.127 40.0781L164.082 38.76L164.786 39.0825C166.387 39.9031 168.126 40.3134 170.001 40.3134C173.185 40.2159 175.836 39.1759 177.955 37.1934C180.073 35.2109 181.172 32.8134 181.251 30.0009C181.173 27.1884 180.074 24.7909 177.955 22.8084C175.835 20.8259 173.184 19.7859 170.001 19.6884C166.817 19.7859 164.166 20.8259 162.047 22.8084C159.928 24.7909 158.83 27.1884 158.751 30.0009C158.751 31.0165 158.927 32.0225 159.279 33.0187C159.631 34.015 160.148 34.9525 160.831 35.8312L161.476 36.6806L160.127 40.0781ZM158.779 42.4809C158.408 42.5984 158.09 42.5153 157.827 42.2315C157.563 41.9478 157.499 41.6206 157.636 41.25L159.336 36.9721C158.555 35.9371 157.949 34.8287 157.519 33.6468C157.089 32.465 156.874 31.249 156.874 29.999C156.952 26.7765 158.202 23.969 160.624 21.5765C163.046 19.184 166.171 17.929 169.999 17.8115C173.827 17.929 176.952 19.184 179.374 21.5765C181.796 23.969 183.046 26.7765 183.124 29.999C183.046 33.2215 181.796 36.029 179.374 38.4215C176.952 40.814 173.827 42.069 169.999 42.1865C167.87 42.1865 165.849 41.7178 163.934 40.7803L158.779 42.4809ZM170 31.4943C169.726 31.4943 169.477 31.4309 169.253 31.304C169.028 31.1771 168.848 30.9915 168.711 30.7471C168.574 30.5028 168.506 30.2537 168.506 30C168.506 29.7462 168.574 29.4971 168.711 29.2528C168.848 29.0084 169.028 28.8228 169.253 28.6959C169.477 28.569 169.726 28.5056 170 28.5056C170.43 28.5056 170.787 28.6471 171.07 28.9303C171.353 29.2134 171.494 29.57 171.494 30C171.494 30.43 171.353 30.7865 171.07 31.0696C170.787 31.3528 170.43 31.4943 170 31.4943V31.4943ZM175.625 31.4943C175.351 31.4943 175.102 31.4309 174.878 31.304C174.653 31.1771 174.473 30.9915 174.336 30.7471C174.199 30.5028 174.131 30.2537 174.131 30C174.131 29.7462 174.199 29.4971 174.336 29.2528C174.473 29.0084 174.653 28.8228 174.878 28.6959C175.102 28.569 175.351 28.5056 175.625 28.5056C176.055 28.5056 176.412 28.6471 176.695 28.9303C176.978 29.2134 177.119 29.57 177.119 30C177.119 30.43 176.978 30.7865 176.695 31.0696C176.412 31.3528 176.055 31.4943 175.625 31.4943V31.4943ZM164.375 31.4943C164.101 31.4943 163.852 31.4309 163.628 31.304C163.403 31.1771 163.223 30.9915 163.086 30.7471C162.949 30.5028 162.881 30.2537 162.881 30C162.881 29.7462 162.949 29.4971 163.086 29.2528C163.223 29.0084 163.403 28.8228 163.628 28.6959C163.852 28.569 164.101 28.5056 164.375 28.5056C164.805 28.5056 165.162 28.6471 165.445 28.9303C165.728 29.2134 165.869 29.57 165.869 30C165.869 30.43 165.728 30.7865 165.445 31.0696C165.162 31.3528 164.805 31.4943 164.375 31.4943V31.4943Z" fill="#08080A" fill-opacity="0.96"/>
<circle cx="30" cy="100" r="30" fill="#8DFF33" fill-opacity="0.2"/>
<path d="M30 100C31.6019 99.9606 32.93 99.4138 33.9844 98.3594C35.0388 97.305 35.5856 95.9769 35.625 94.375C35.5856 92.7731 35.0388 91.445 33.9844 90.3906C32.93 89.3362 31.6019 88.7894 30 88.75C28.3981 88.7894 27.07 89.3362 26.0156 90.3906C24.9612 91.445 24.4144 92.7731 24.375 94.375C24.4144 95.9769 24.9612 97.305 26.0156 98.3594C27.07 99.4138 28.3981 99.9606 30 100ZM30 101.875C27.8713 101.816 26.1037 101.084 24.6975 99.6775C23.2912 98.2713 22.5588 96.5037 22.5 94.375C22.5588 92.2463 23.2912 90.4787 24.6975 89.0725C26.1037 87.6662 27.8713 86.9338 30 86.875C32.1287 86.9338 33.8963 87.6662 35.3025 89.0725C36.7088 90.4787 37.4412 92.2463 37.5 94.375C37.4412 96.5037 36.7088 98.2713 35.3025 99.6775C33.8963 101.084 32.1287 101.816 30 101.875ZM30 100C30.2737 100 30.4984 100.088 30.6741 100.263C30.8497 100.439 30.9375 100.664 30.9375 100.938V108.438C30.9375 108.711 30.8497 108.936 30.6741 109.112C30.4984 109.287 30.2737 109.375 30 109.375C29.7263 109.375 29.5016 109.287 29.3259 109.112C29.1503 108.936 29.0625 108.711 29.0625 108.438V100.938C29.0625 100.664 29.1503 100.439 29.3259 100.263C29.5016 100.088 29.7263 100 30 100V100ZM26.25 104.013V105.918C24.5506 106.211 23.1931 106.596 22.1775 107.074C21.1619 107.552 20.6444 108.007 20.625 108.437C20.6838 109.042 21.5872 109.652 23.3353 110.267C25.0834 110.882 27.305 111.21 30 111.249C32.6956 111.21 34.9172 110.882 36.6647 110.267C38.4122 109.652 39.3156 109.042 39.375 108.437C39.3556 108.007 38.8381 107.552 37.8225 107.074C36.8069 106.596 35.4494 106.211 33.75 105.918V104.013C35.9769 104.345 37.7738 104.907 39.1406 105.698C40.5075 106.489 41.2106 107.403 41.25 108.438C41.1719 109.766 40.0731 110.869 37.9537 111.748C35.8344 112.627 33.1831 113.086 30 113.125C26.8163 113.086 24.165 112.627 22.0462 111.748C19.9275 110.869 18.8287 109.766 18.75 108.438C18.7894 107.403 19.4925 106.489 20.8594 105.698C22.2262 104.907 24.0231 104.345 26.25 104.013Z" fill="#08080A" fill-opacity="0.96"/>
<circle cx="100" cy="100" r="30" fill="#F76D6D" fill-opacity="0.2"/>
<path d="M88.75 96.25V109.375H111.25V96.25H88.75ZM87.8125 94.375H112.188C112.461 94.375 112.686 94.4628 112.862 94.6384C113.037 94.8141 113.125 95.0388 113.125 95.3125V110.312C113.125 110.586 113.037 110.811 112.862 110.987C112.686 111.162 112.461 111.25 112.188 111.25H87.8125C87.5388 111.25 87.3141 111.162 87.1384 110.987C86.9628 110.811 86.875 110.586 86.875 110.312V95.3125C86.875 95.0388 86.9628 94.8141 87.1384 94.6384C87.3141 94.4628 87.5388 94.375 87.8125 94.375ZM89.6875 90.625H110.312V92.5H89.6875V90.625ZM92.5 86.875H107.5V88.75H92.5V86.875Z" fill="#08080A" fill-opacity="0.96"/>
<circle cx="170" cy="100" r="30" fill="#4857EC" fill-opacity="0.2"/>
<path d="M165.518 107.5H159.688C159.414 107.5 159.189 107.412 159.013 107.237C158.838 107.061 158.75 106.836 158.75 106.562V90.625H156.875C156.601 90.625 156.377 90.5372 156.201 90.3616C156.025 90.1859 155.938 89.9613 155.938 89.6875C155.938 89.4137 156.025 89.1891 156.201 89.0134C156.377 88.8378 156.601 88.75 156.875 88.75H183.125C183.399 88.75 183.623 88.8378 183.799 89.0134C183.975 89.1891 184.062 89.4137 184.062 89.6875C184.062 89.9613 183.975 90.1859 183.799 90.3616C183.623 90.5372 183.399 90.625 183.125 90.625H181.25V106.562C181.25 106.836 181.162 107.061 180.987 107.237C180.811 107.412 180.586 107.5 180.312 107.5H174.482L177.734 113.125H175.566L172.314 107.5H167.684L164.432 113.125H162.264L165.518 107.5ZM179.375 90.625H160.625V105.625H179.375V90.625ZM165.049 100.674C164.853 100.85 164.629 100.938 164.375 100.938C164.121 100.938 163.902 100.845 163.716 100.659C163.53 100.473 163.438 100.254 163.438 100C163.438 99.7463 163.525 99.5216 163.701 99.3259L168.037 95.0191L171.699 97.7734L174.892 93.7891C175.126 93.4959 175.424 93.3738 175.785 93.4225C176.147 93.4713 176.391 93.6666 176.517 94.0084C176.644 94.3503 176.591 94.6678 176.356 94.9609L172.049 100.352L168.211 97.48L165.049 100.674Z" fill="#08080A" fill-opacity="0.96"/>
</svg>
