<svg width="20" height="20" viewBox="0 0 20 20" fill="none" xmlns="http://www.w3.org/2000/svg">
<path d="M11.0186 0.773576C10.6984 -0.257859 9.30287 -0.257859 8.98156 0.773576L7.35469 6.00803C7.28462 6.23274 7.14835 6.4285 6.9654 6.56731C6.78244 6.70611 6.56219 6.78083 6.33615 6.78076H1.07317C0.0364247 6.78076 -0.396266 8.16945 0.443411 8.8078L4.70178 12.0421C4.8847 12.1811 5.02083 12.3772 5.09067 12.6021C5.16051 12.827 5.16047 13.0693 5.09056 13.2941L3.46475 18.5286C3.14345 19.56 4.27337 20.419 5.11198 19.7807L9.37034 16.5464C9.55337 16.4072 9.77383 16.3323 10.0001 16.3323C10.2264 16.3323 10.4468 16.4072 10.6299 16.5464L14.8882 19.7807C15.7268 20.419 16.8568 19.5612 16.5354 18.5286L14.9096 13.2941C14.8397 13.0693 14.8397 12.827 14.9095 12.6021C14.9794 12.3772 15.1155 12.1811 15.2984 12.0421L19.5568 8.8078C20.3954 8.16945 19.9648 6.78076 18.927 6.78076H13.663C13.4371 6.78059 13.2171 6.70576 13.0344 6.56698C12.8516 6.42819 12.7155 6.23255 12.6455 6.00803L11.0186 0.773576Z" fill="#F9C94E"/>
</svg>
