<svg width="210" height="210" viewBox="0 0 210 210" fill="none" xmlns="http://www.w3.org/2000/svg">
<circle cx="27" cy="27" r="27" fill="#4857EC" fill-opacity="0.1"/>
<path d="M31.08 31.4234C29.8822 32.5321 28.258 33.1549 26.5643 33.1549C24.8707 33.1549 23.2464 32.5321 22.0486 31.4234M21.774 24.2851H21.79M31.3547 24.2851H31.3706M40.9353 27.2422C40.9353 28.9896 40.5636 30.7199 39.8414 32.3344C39.1192 33.9488 38.0606 35.4157 36.7261 36.6513C35.3917 37.887 33.8074 38.8671 32.0639 39.5359C30.3203 40.2046 28.4515 40.5488 26.5643 40.5488C24.6771 40.5488 22.8084 40.2046 21.0648 39.5359C19.3212 38.8671 17.737 37.887 16.4025 36.6513C15.0681 35.4157 14.0095 33.9488 13.2873 32.3344C12.5651 30.7199 12.1934 28.9896 12.1934 27.2422C12.1934 23.713 13.7074 20.3284 16.4025 17.833C19.0976 15.3375 22.7529 13.9355 26.5643 13.9355C30.3757 13.9355 34.0311 15.3375 36.7261 17.833C39.4212 20.3284 40.9353 23.713 40.9353 27.2422Z" stroke="#4857EC" stroke-width="3" stroke-linecap="round" stroke-linejoin="round"/>
<circle cx="97" cy="27" r="27" fill="#FFD6D6" fill-opacity="0.5"/>
<path d="M101.08 31.4234C99.8822 32.5321 98.258 33.1549 96.5643 33.1549C94.8707 33.1549 93.2464 32.5321 92.0486 31.4234M91.774 24.2851H91.79M101.355 24.2851H101.371M110.935 27.2422C110.935 28.9896 110.564 30.7199 109.841 32.3344C109.119 33.9488 108.061 35.4157 106.726 36.6513C105.392 37.887 103.807 38.8671 102.064 39.5359C100.32 40.2046 98.4515 40.5488 96.5643 40.5488C94.6771 40.5488 92.8084 40.2046 91.0648 39.5359C89.3212 38.8671 87.737 37.887 86.4025 36.6513C85.0681 35.4157 84.0095 33.9488 83.2873 32.3344C82.5651 30.7199 82.1934 28.9896 82.1934 27.2422C82.1934 23.713 83.7074 20.3284 86.4025 17.833C89.0976 15.3375 92.7529 13.9355 96.5643 13.9355C100.376 13.9355 104.031 15.3375 106.726 17.833C109.421 20.3284 110.935 23.713 110.935 27.2422Z" stroke="#C66464" stroke-width="3" stroke-linecap="round" stroke-linejoin="round"/>
<circle cx="167" cy="27" r="27" fill="#BCFF87" fill-opacity="0.5"/>
<path d="M179.841 32.3344C180.564 30.7199 180.935 28.9896 180.935 27.2422C180.935 23.713 179.421 20.3284 176.726 17.833C174.031 15.3375 170.376 13.9355 166.564 13.9355C162.753 13.9355 159.098 15.3375 156.403 17.833C153.707 20.3284 152.193 23.713 152.193 27.2422C152.193 28.9896 152.565 30.7199 153.287 32.3344C154.009 33.9488 155.068 35.4157 156.403 36.6513C157.737 37.887 159.321 38.8671 161.065 39.5359C162.808 40.2046 164.677 40.5488 166.564 40.5488C168.452 40.5488 170.32 40.2046 172.064 39.5359C173.807 38.8671 175.392 37.887 176.726 36.6513C178.061 35.4157 179.119 33.9488 179.841 32.3344Z" fill="#E8FFD6"/>
<path d="M171.08 31.4234C169.882 32.5321 168.258 33.1549 166.564 33.1549C164.871 33.1549 163.246 32.5321 162.049 31.4234M161.774 24.2851H161.79M171.355 24.2851H171.371M180.935 27.2422C180.935 28.9896 180.564 30.7199 179.841 32.3344C179.119 33.9488 178.061 35.4157 176.726 36.6513C175.392 37.887 173.807 38.8671 172.064 39.5359C170.32 40.2046 168.452 40.5488 166.564 40.5488C164.677 40.5488 162.808 40.2046 161.065 39.5359C159.321 38.8671 157.737 37.887 156.403 36.6513C155.068 35.4157 154.009 33.9488 153.287 32.3344C152.565 30.7199 152.193 28.9896 152.193 27.2422C152.193 23.713 153.707 20.3284 156.403 17.833C159.098 15.3375 162.753 13.9355 166.564 13.9355C170.376 13.9355 174.031 15.3375 176.726 17.833C179.421 20.3284 180.935 23.713 180.935 27.2422Z" stroke="#6AAF35" stroke-width="3" stroke-linecap="round" stroke-linejoin="round"/>
<circle cx="92.5" cy="92.5" r="22.5" fill="#F5F5F5"/>
<g clip-path="url(#clip0_520_1873)">
<path d="M102 92C102 86.4771 97.5229 82 92 82C86.4771 82 82 86.4771 82 92C82 96.9912 85.6568 101.128 90.4375 101.879V94.8906H87.8984V92H90.4375V89.7969C90.4375 87.2906 91.9305 85.9063 94.2146 85.9063C95.3084 85.9063 96.4531 86.1016 96.4531 86.1016V88.5625H95.1922C93.95 88.5625 93.5625 89.3334 93.5625 90.125V92H96.3359L95.8926 94.8906H93.5625V101.879C98.3432 101.128 102 96.9912 102 92Z" fill="black"/>
</g>
<circle cx="162.5" cy="92.5" r="22.5" fill="#F5F5F5"/>
<g clip-path="url(#clip1_520_1873)">
<path d="M162 83.8008C164.672 83.8008 164.988 83.8125 166.039 83.8594C167.016 83.9023 167.543 84.0664 167.895 84.2031C168.359 84.3828 168.695 84.6016 169.043 84.9492C169.395 85.3008 169.609 85.6328 169.789 86.0977C169.926 86.4492 170.09 86.9805 170.133 87.9531C170.18 89.0078 170.191 89.3242 170.191 91.9922C170.191 94.6641 170.18 94.9805 170.133 96.0313C170.09 97.0078 169.926 97.5352 169.789 97.8867C169.609 98.3516 169.391 98.6875 169.043 99.0352C168.691 99.3867 168.359 99.6016 167.895 99.7813C167.543 99.918 167.012 100.082 166.039 100.125C164.984 100.172 164.668 100.184 162 100.184C159.328 100.184 159.012 100.172 157.961 100.125C156.984 100.082 156.457 99.918 156.105 99.7813C155.641 99.6016 155.305 99.3828 154.957 99.0352C154.605 98.6836 154.391 98.3516 154.211 97.8867C154.074 97.5352 153.91 97.0039 153.867 96.0313C153.82 94.9766 153.809 94.6602 153.809 91.9922C153.809 89.3203 153.82 89.0039 153.867 87.9531C153.91 86.9766 154.074 86.4492 154.211 86.0977C154.391 85.6328 154.609 85.2969 154.957 84.9492C155.309 84.5977 155.641 84.3828 156.105 84.2031C156.457 84.0664 156.988 83.9023 157.961 83.8594C159.012 83.8125 159.328 83.8008 162 83.8008ZM162 82C159.285 82 158.945 82.0117 157.879 82.0586C156.816 82.1055 156.086 82.2773 155.453 82.5234C154.793 82.7812 154.234 83.1211 153.68 83.6797C153.121 84.2344 152.781 84.793 152.523 85.4492C152.277 86.0859 152.105 86.8125 152.059 87.875C152.012 88.9453 152 89.2852 152 92C152 94.7148 152.012 95.0547 152.059 96.1211C152.105 97.1836 152.277 97.9141 152.523 98.5469C152.781 99.207 153.121 99.7656 153.68 100.32C154.234 100.875 154.793 101.219 155.449 101.473C156.086 101.719 156.813 101.891 157.875 101.938C158.941 101.984 159.281 101.996 161.996 101.996C164.711 101.996 165.051 101.984 166.117 101.938C167.18 101.891 167.91 101.719 168.543 101.473C169.199 101.219 169.758 100.875 170.313 100.32C170.867 99.7656 171.211 99.207 171.465 98.5508C171.711 97.9141 171.883 97.1875 171.93 96.125C171.977 95.0586 171.988 94.7188 171.988 92.0039C171.988 89.2891 171.977 88.9492 171.93 87.8828C171.883 86.8203 171.711 86.0898 171.465 85.457C171.219 84.793 170.879 84.2344 170.32 83.6797C169.766 83.125 169.207 82.7813 168.551 82.5273C167.914 82.2812 167.188 82.1094 166.125 82.0625C165.055 82.0117 164.715 82 162 82Z" fill="black"/>
<path d="M162 86.8633C159.164 86.8633 156.863 89.1641 156.863 92C156.863 94.8359 159.164 97.1367 162 97.1367C164.836 97.1367 167.137 94.8359 167.137 92C167.137 89.1641 164.836 86.8633 162 86.8633ZM162 95.332C160.16 95.332 158.668 93.8398 158.668 92C158.668 90.1602 160.16 88.668 162 88.668C163.84 88.668 165.332 90.1602 165.332 92C165.332 93.8398 163.84 95.332 162 95.332Z" fill="black"/>
<path d="M168.539 86.6602C168.539 87.3242 168 87.8594 167.34 87.8594C166.676 87.8594 166.141 87.3203 166.141 86.6602C166.141 85.9961 166.68 85.4609 167.34 85.4609C168 85.4609 168.539 86 168.539 86.6602Z" fill="black"/>
</g>
<circle cx="22.5" cy="162.5" r="22.5" fill="#F5F5F5"/>
<g clip-path="url(#clip2_520_1873)">
<path d="M32.6018 158.155C32.4888 157.729 32.2659 157.341 31.9556 157.028C31.6453 156.716 31.2584 156.491 30.8337 156.375C29.27 155.955 23.02 155.955 23.02 155.955C23.02 155.955 16.77 155.955 15.2064 156.375C14.7816 156.491 14.3947 156.716 14.0844 157.028C13.7741 157.341 13.5513 157.729 13.4382 158.155C13.02 159.725 13.02 163 13.02 163C13.02 163 13.02 166.275 13.4382 167.845C13.5513 168.271 13.7741 168.659 14.0844 168.972C14.3947 169.284 14.7816 169.509 15.2064 169.625C16.77 170.045 23.02 170.045 23.02 170.045C23.02 170.045 29.27 170.045 30.8337 169.625C31.2584 169.509 31.6453 169.284 31.9556 168.972C32.2659 168.659 32.4888 168.271 32.6018 167.845C33.02 166.275 33.02 163 33.02 163C33.02 163 33.02 159.725 32.6018 158.155Z" fill="black"/>
<path d="M20.9746 165.974V160.026L26.2019 163L20.9746 165.974Z" fill="#FEFEFE"/>
</g>
<circle cx="92.5" cy="162.5" r="22.5" fill="#F5F5F5"/>
<g clip-path="url(#clip3_520_1873)">
<path fill-rule="evenodd" clip-rule="evenodd" d="M92.0004 152.417C89.6264 152.418 87.3303 153.259 85.5225 154.789C83.7148 156.319 82.5134 158.438 82.1331 160.768C81.7528 163.098 82.2184 165.487 83.4467 167.507C84.675 169.527 86.5858 171.046 88.8376 171.794C89.3344 171.886 89.5215 171.578 89.5215 171.317C89.5215 171.055 89.5115 170.296 89.5082 169.466C86.7263 170.067 86.1385 168.292 86.1385 168.292C85.6847 167.139 85.029 166.836 85.029 166.836C84.1216 166.221 85.0969 166.232 85.0969 166.232C86.102 166.303 86.6303 167.258 86.6303 167.258C87.5211 168.778 88.9701 168.338 89.5397 168.081C89.6291 167.437 89.8891 166.999 90.1756 166.751C87.9533 166.501 85.6185 165.648 85.6185 161.838C85.6047 160.85 85.9735 159.894 86.6485 159.169C86.5458 158.918 86.203 157.908 86.7462 156.534C86.7462 156.534 87.5857 156.268 89.4966 157.554C91.1357 157.108 92.865 157.108 94.5041 157.554C96.4133 156.268 97.2512 156.534 97.2512 156.534C97.796 157.904 97.4533 158.915 97.3506 159.169C98.0277 159.894 98.3972 160.851 98.3822 161.841C98.3822 165.659 96.0424 166.501 93.8169 166.746C94.1746 167.055 94.4942 167.66 94.4942 168.588C94.4942 169.919 94.4826 170.989 94.4826 171.317C94.4826 171.582 94.663 171.891 95.1698 171.794C97.4218 171.046 99.3328 169.526 100.561 167.506C101.789 165.486 102.255 163.097 101.874 160.767C101.493 158.436 100.291 156.317 98.4829 154.787C96.6746 153.257 94.3779 152.417 92.0037 152.417H92.0004Z" fill="black"/>
<path d="M85.7868 166.694C85.7653 166.743 85.6858 166.758 85.6212 166.723C85.5566 166.689 85.5086 166.624 85.5318 166.573C85.555 166.522 85.6328 166.509 85.6974 166.544C85.762 166.578 85.8116 166.644 85.7868 166.694Z" fill="black"/>
<path d="M86.1929 167.143C86.1586 167.16 86.1193 167.165 86.0819 167.156C86.0444 167.148 86.0111 167.127 85.9875 167.097C85.9229 167.028 85.9097 166.932 85.9594 166.889C86.009 166.846 86.0985 166.866 86.163 166.935C86.2276 167.004 86.2425 167.1 86.1929 167.143Z" fill="black"/>
<path d="M86.5867 167.714C86.5255 167.757 86.4211 167.714 86.3632 167.629C86.3471 167.613 86.3344 167.595 86.3257 167.575C86.317 167.554 86.3125 167.532 86.3125 167.51C86.3125 167.488 86.317 167.466 86.3257 167.446C86.3344 167.425 86.3471 167.407 86.3632 167.392C86.4244 167.35 86.5288 167.392 86.5867 167.476C86.6447 167.56 86.6463 167.672 86.5867 167.714V167.714Z" fill="black"/>
<path d="M87.1217 168.267C87.067 168.328 86.9561 168.312 86.865 168.23C86.7739 168.147 86.7524 168.035 86.8071 167.976C86.8617 167.917 86.9726 167.933 87.067 168.014C87.1614 168.094 87.1796 168.208 87.1217 168.267V168.267Z" fill="black"/>
<path d="M87.872 168.59C87.8471 168.668 87.7345 168.702 87.6219 168.669C87.5093 168.636 87.4348 168.544 87.4563 168.465C87.4779 168.386 87.5921 168.35 87.7064 168.386C87.8206 168.422 87.8935 168.51 87.872 168.59Z" fill="black"/>
<path d="M88.6896 168.646C88.6896 168.727 88.5969 168.796 88.4777 168.797C88.3584 168.799 88.2607 168.733 88.2607 168.652C88.2607 168.572 88.3535 168.503 88.4727 168.501C88.5919 168.499 88.6896 168.564 88.6896 168.646Z" fill="black"/>
<path d="M89.4517 168.519C89.4666 168.6 89.3838 168.684 89.2645 168.704C89.1453 168.724 89.041 168.676 89.0261 168.597C89.0112 168.518 89.0973 168.432 89.2132 168.411C89.3291 168.389 89.4368 168.439 89.4517 168.519Z" fill="black"/>
</g>
<circle cx="162.5" cy="162.5" r="22.5" fill="#F5F5F5"/>
<path d="M160.24 160.39C159.67 160.39 159.22 160.89 159.22 161.5C159.22 162.11 159.68 162.61 160.24 162.61C160.81 162.61 161.26 162.11 161.26 161.5C161.27 160.89 160.81 160.39 160.24 160.39ZM163.89 160.39C163.32 160.39 162.87 160.89 162.87 161.5C162.87 162.11 163.33 162.61 163.89 162.61C164.46 162.61 164.91 162.11 164.91 161.5C164.91 160.89 164.46 160.39 163.89 160.39Z" fill="black"/>
<path d="M168.75 152H155.35C154.22 152 153.3 152.92 153.3 154.06V167.58C153.3 168.72 154.22 169.64 155.35 169.64H166.69L166.16 167.79L167.44 168.98L168.65 170.1L170.8 172V154.06C170.8 152.92 169.88 152 168.75 152ZM164.89 165.06C164.89 165.06 164.53 164.63 164.23 164.25C165.54 163.88 166.04 163.06 166.04 163.06C165.63 163.33 165.24 163.52 164.89 163.65C164.39 163.86 163.91 164 163.44 164.08C162.48 164.26 161.6 164.21 160.85 164.07C160.28 163.96 159.79 163.8 159.38 163.64C159.15 163.55 158.9 163.44 158.65 163.3C158.62 163.28 158.59 163.27 158.56 163.25C158.54 163.24 158.53 163.23 158.52 163.22C158.34 163.12 158.24 163.05 158.24 163.05C158.24 163.05 158.72 163.85 159.99 164.23C159.69 164.61 159.32 165.06 159.32 165.06C157.11 164.99 156.27 163.54 156.27 163.54C156.27 160.32 157.71 157.71 157.71 157.71C159.15 156.63 160.52 156.66 160.52 156.66L160.62 156.78C158.82 157.3 157.99 158.09 157.99 158.09C157.99 158.09 158.21 157.97 158.58 157.8C159.65 157.33 160.5 157.2 160.85 157.17C160.91 157.16 160.96 157.15 161.02 157.15C161.63 157.07 162.32 157.05 163.04 157.13C163.99 157.24 165.01 157.52 166.05 158.09C166.05 158.09 165.26 157.34 163.56 156.82L163.7 156.66C163.7 156.66 165.07 156.63 166.51 157.71C166.51 157.71 167.95 160.32 167.95 163.54C167.95 163.54 167.1 164.99 164.89 165.06V165.06Z" fill="black"/>
<path d="M11.0186 70.7736C10.6984 69.7421 9.30287 69.7421 8.98156 70.7736L7.35469 76.008C7.28462 76.2327 7.14835 76.4285 6.9654 76.5673C6.78244 76.7061 6.56219 76.7808 6.33615 76.7808H1.07317C0.0364247 76.7808 -0.396266 78.1694 0.443411 78.8078L4.70178 82.0421C4.8847 82.1811 5.02083 82.3772 5.09067 82.6021C5.16051 82.827 5.16047 83.0693 5.09056 83.2941L3.46475 88.5286C3.14345 89.56 4.27337 90.419 5.11198 89.7807L9.37034 86.5464C9.55337 86.4072 9.77383 86.3323 10.0001 86.3323C10.2264 86.3323 10.4468 86.4072 10.6299 86.5464L14.8882 89.7807C15.7268 90.419 16.8568 89.5612 16.5354 88.5286L14.9096 83.2941C14.8397 83.0693 14.8397 82.827 14.9095 82.6021C14.9794 82.3772 15.1155 82.1811 15.2984 82.0421L19.5568 78.8078C20.3954 78.1694 19.9648 76.7808 18.927 76.7808H13.663C13.4371 76.7806 13.2171 76.7058 13.0344 76.567C12.8516 76.4282 12.7155 76.2326 12.6455 76.008L11.0186 70.7736Z" fill="#F9C94E"/>
<path d="M50.5412 70.922L50.5411 70.9218C50.3668 70.3602 49.6347 70.3585 49.459 70.9221C49.459 70.9222 49.459 70.9222 49.4589 70.9223L47.8322 76.1564L47.832 76.1569C47.7318 76.4783 47.5357 76.7623 47.2676 76.9656C46.9992 77.1693 46.6732 77.2808 46.3361 77.2808C46.3361 77.2808 46.3361 77.2808 46.336 77.2808H41.0732C40.8103 77.2808 40.6114 77.4483 40.5321 77.7034C40.4524 77.9596 40.5174 78.2358 40.7458 78.4096L50.5412 70.922ZM50.5412 70.922L52.168 76.1564L52.1682 76.1569C52.2683 76.478 52.4642 76.7618 52.732 76.9652C53.0001 77.1688 53.3258 77.2805 53.6626 77.2808H53.663H58.927C59.1904 77.2808 59.3889 77.4483 59.468 77.7031C59.5476 77.9594 59.4824 78.2359 59.2541 78.4098C59.254 78.4099 59.254 78.4099 59.2539 78.4099L54.996 81.6439L54.9958 81.644C54.7278 81.8478 54.5319 82.1321 54.432 82.4538C54.3322 82.7753 54.3322 83.121 54.4321 83.4425C54.4322 83.4425 54.4322 83.4425 54.4322 83.4426L56.058 88.6769L56.058 88.6772C56.1513 88.9771 56.0372 89.2365 55.8443 89.3831C55.6547 89.5272 55.411 89.5502 55.1911 89.3828L55.1906 89.3825L50.9324 86.1483C50.9324 86.1483 50.9323 86.1482 50.9323 86.1482C50.6638 85.9441 50.3375 85.8323 50.0001 85.8323C49.6627 85.8323 49.3364 85.9441 49.0679 86.1482C49.0679 86.1482 49.0678 86.1483 49.0678 86.1483L44.8096 89.3825L44.8091 89.3828C44.5894 89.5501 44.3458 89.527 44.156 89.3827C43.9628 89.2359 43.849 88.9764 43.9421 88.6773L43.9422 88.6769L45.568 83.4426C45.568 83.4425 45.568 83.4425 45.5681 83.4425C45.668 83.121 45.668 82.7753 45.5682 82.4538C45.4683 82.1321 45.2724 81.8478 45.0044 81.644L45.0042 81.6439L40.746 78.4098L50.5412 70.922Z" stroke="#F9C94E" stroke-linecap="round" stroke-linejoin="round"/>
<defs>
<clipPath id="clip0_520_1873">
<rect width="20" height="20" fill="white" transform="translate(82 82)"/>
</clipPath>
<clipPath id="clip1_520_1873">
<rect width="20" height="20" fill="white" transform="translate(152 82)"/>
</clipPath>
<clipPath id="clip2_520_1873">
<rect width="20" height="20" fill="white" transform="translate(13 153)"/>
</clipPath>
<clipPath id="clip3_520_1873">
<rect width="20" height="20" fill="white" transform="translate(82 152)"/>
</clipPath>
</defs>
</svg>
