<svg width="362" height="382" viewBox="0 0 362 382" fill="none" xmlns="http://www.w3.org/2000/svg">
<path d="M258.34 156.18C259.92 158.98 264.06 164.32 264.6 164.18C268.36 162.92 271.92 161.18 275.56 159.66C277.11 159.084 278.576 158.303 279.92 157.34C286.6 152.14 288.26 145.62 279.92 143.72C278.433 143.341 276.872 143.36 275.395 143.774C273.917 144.188 272.574 144.984 271.5 146.08C270.96 143.204 269.361 140.635 267.02 138.88C265.678 138.2 264.164 137.936 262.671 138.121C261.179 138.306 259.775 138.933 258.64 139.92C253.7 143.7 255.8 151.62 258.34 156.18ZM265.58 139C268.68 140.1 270.1 144.04 270.88 147C271.06 147.68 272.56 146.16 272.88 145.98C273.787 145.161 274.883 144.58 276.07 144.29C277.257 144 278.498 144.01 279.68 144.32C285.3 145.5 286.62 148.94 282.7 153.74C278.78 158.54 276.84 158.1 264.7 163.48C262.916 161.607 261.328 159.556 259.96 157.36C257.28 153.1 255.14 146.1 257.96 141.94C258.805 140.76 259.977 139.853 261.331 139.331C262.685 138.809 264.162 138.693 265.58 139ZM262.58 195.26C262.402 194.264 262.002 193.321 261.409 192.501C260.817 191.681 260.047 191.005 259.158 190.522C258.268 190.04 257.282 189.764 256.271 189.715C255.261 189.667 254.252 189.846 253.32 190.24C249.16 192.44 250.02 198.72 252.26 203.02C253.71 205.465 255.464 207.716 257.48 209.72C260.38 208.6 263.24 207.36 266.12 206.16C267.378 205.668 268.557 204.994 269.62 204.16C275.98 199.08 274.78 194.46 269.26 193.46C268.085 193.186 266.86 193.207 265.694 193.521C264.529 193.835 263.459 194.432 262.58 195.26ZM268.58 204.24C267.22 205.18 262.02 207.04 257.62 209C254.546 206.08 252.392 202.327 251.42 198.2C249.42 187.8 261.22 188.68 261.98 196.2C261.98 196.6 263.22 196 263.72 195.48C264.288 194.961 264.975 194.59 265.72 194.4C266.785 194.077 267.917 194.043 269 194.3C275.64 195.58 273.54 200.78 268.54 204.24H268.58ZM292.76 175.16C292.755 174.647 292.631 174.141 292.399 173.683C292.166 173.226 291.831 172.827 291.42 172.52C288.82 170.78 285.24 174.9 289.58 180.16C290.44 181.22 292.52 183.36 293.06 182.98C294.62 182.06 296.24 181.18 297.78 180.18C300.06 178.68 302.26 174.98 300.04 173.44C298.82 172.817 297.418 172.648 296.084 172.964C294.751 173.279 293.573 174.057 292.76 175.16ZM299.18 177.66C298.24 179.04 297.98 179.02 292.88 182.4C290.793 181.027 289.251 178.969 288.52 176.58C287.7 173.42 290.08 171.86 291.62 173.64C292.12 174.22 292.26 177.02 292.94 176.24C293.626 175.288 294.581 174.564 295.683 174.161C296.785 173.758 297.982 173.695 299.12 173.98C300.88 174.6 299.92 176.6 299.18 177.66ZM77.6402 179C71.8002 179.38 74.0202 187.76 76.3002 190.82C78.5006 193.744 80.8643 196.542 83.3802 199.2C85.5969 198.601 87.7179 197.692 89.6802 196.5C91.641 195.374 93.3659 193.88 94.7602 192.1C98.6002 187.18 96.2802 182.1 92.5402 182.5C91.437 182.7 90.4119 183.205 89.5812 183.958C88.7505 184.711 88.1473 185.682 87.8402 186.76C87.2142 184.534 85.8801 182.572 84.0396 181.172C82.1992 179.772 79.9527 179.009 77.6402 179ZM83.6402 182.2C85.2188 183.673 86.4194 185.505 87.1402 187.54C87.1603 187.628 87.2099 187.707 87.2807 187.764C87.3516 187.82 87.4395 187.851 87.5302 187.851C87.6208 187.851 87.7088 187.82 87.7796 187.764C87.8505 187.707 87.9 187.628 87.9202 187.54C88.7402 185.72 89.7802 183.82 91.9202 183.38C94.0602 182.94 95.9202 184.92 95.9202 187.14C95.9202 190.64 92.3002 194.3 89.2402 196.04C87.3531 197.052 85.3866 197.908 83.3602 198.6C77.1802 190.6 76.2802 189.86 75.3602 187.4C74.6602 185.4 73.7002 181.06 76.5802 180.12C77.8502 179.906 79.152 179.978 80.3906 180.331C81.6292 180.684 82.7735 181.309 83.7402 182.16L83.6402 182.2ZM78.7402 95.6C75.6002 96.78 78.0202 100.92 79.8202 102.26C81.6202 103.6 82.9802 104.26 84.5602 105.4C85.0802 105.86 87.2202 103.66 87.7002 103.16C89.3802 101.44 90.9402 98.46 89.7002 96.28C88.4602 94.1 85.7002 94.52 85.1402 97.82C84.4345 96.8329 83.4398 96.0892 82.2934 95.6915C81.1471 95.2939 79.9055 95.2619 78.7402 95.6ZM87.7802 95.78C89.7802 95.98 90.2602 99.46 87.3402 102.6C86.5296 103.403 85.6606 104.145 84.7402 104.82C80.0602 101.4 79.8402 101.34 79.1802 100.44C78.5202 99.54 77.1802 97.42 78.7002 96.62C79.2598 96.3683 79.8665 96.2382 80.4802 96.2382C81.0938 96.2382 81.7005 96.3683 82.2602 96.62C83.3588 97.1708 84.3011 97.9892 85.0002 99C85.6802 99.82 85.7202 95.58 87.7802 95.78ZM42.8402 271.82C36.6887 271.694 30.7172 269.722 25.7002 266.16C25.0402 265.68 24.0602 264.5 23.1202 264.82C22.1802 265.14 22.0802 267.68 19.5602 270.06C18.5529 271.037 17.3419 271.778 16.014 272.231C14.6861 272.684 13.2743 272.837 11.8802 272.68C11.6002 272.68 11.5402 273.12 11.8802 273.16C14.1121 273.416 16.3677 272.958 18.3227 271.851C20.2777 270.744 21.8313 269.046 22.7602 267C22.9202 266.66 23.1402 265.54 23.5802 265.52C24.0202 265.5 27.1402 268.02 28.1802 268.6C32.6484 271.113 37.7157 272.364 42.8402 272.22C42.8932 272.22 42.9441 272.199 42.9816 272.161C43.0191 272.124 43.0402 272.073 43.0402 272.02C43.0402 271.967 43.0191 271.916 42.9816 271.879C42.9441 271.841 42.8932 271.82 42.8402 271.82ZM54.7802 266.64C51.1002 265.36 47.6202 263.22 43.6602 263.02C41.9727 262.944 40.2934 263.297 38.7791 264.045C37.2647 264.793 35.9647 265.913 35.0002 267.3C34.7802 267.6 35.2802 267.88 35.4802 267.58C36.4858 266.193 37.854 265.111 39.4347 264.451C41.0153 263.791 42.7472 263.58 44.4402 263.84C48.0202 264.34 51.2402 266.26 54.6602 267.24C54.7283 267.233 54.7925 267.205 54.8432 267.159C54.8939 267.113 54.9285 267.052 54.942 266.984C54.9554 266.917 54.9469 266.848 54.9178 266.786C54.8887 266.724 54.8404 266.673 54.7802 266.64ZM345 371.8C340.36 370.72 338.64 366.08 338.08 365.06C337.76 364.46 337.38 363.18 336.5 363.34C336.08 363.485 335.717 363.758 335.46 364.12C331.46 368.98 327.36 369.96 324.9 369.74C324.56 369.74 324.58 370.22 324.9 370.26C327.154 370.447 329.408 369.914 331.34 368.74C332.26 368.2 335.96 364.74 336.36 364.38C336.76 364.02 338.94 368.54 339.92 369.46C341.244 370.901 342.997 371.876 344.92 372.24C344.979 372.251 345.039 372.238 345.087 372.204C345.136 372.17 345.17 372.118 345.18 372.06C345.191 372.002 345.178 371.941 345.144 371.893C345.11 371.844 345.059 371.811 345 371.8ZM359.84 366.54C355.14 367.08 354.06 364.16 350.82 363.04C346.16 361.46 345.7 366.64 342.82 366.08C342.42 366.08 342.24 366.62 342.64 366.7C343.327 366.775 344.022 366.677 344.661 366.415C345.3 366.153 345.864 365.736 346.3 365.2C347.76 363.84 348.76 363.06 351 363.98C352.467 364.811 353.889 365.719 355.26 366.7C355.973 367.097 356.759 367.344 357.571 367.426C358.382 367.509 359.202 367.425 359.98 367.18C360.24 367 360.24 366.5 359.84 366.54ZM180.78 68.44C181.22 68.6197 181.696 68.6916 182.169 68.6499C182.642 68.6081 183.099 68.4539 183.5 68.2C183.92 67.98 183.64 67.24 183.16 67.4C182.575 67.5785 181.971 67.686 181.36 67.72C181.08 67.72 181.1 67.54 181.16 67.28C181.793 64.7317 181.855 62.0749 181.34 59.5C181.34 59.24 180.86 59.3 180.9 59.5C181.96 65.76 179.42 67.68 180.78 68.44ZM184.42 76C185.507 75.8351 186.527 75.3748 187.37 74.6694C188.213 73.964 188.846 73.0406 189.2 72C189.34 71.62 188.68 71.24 188.5 71.6C185.3 77.6 179.96 74.34 178.18 73.12C177.92 72.96 177.7 73.36 177.94 73.52C179.743 75.08 182.036 75.9576 184.42 76ZM177.26 58.36C176.961 58.8749 176.538 59.3074 176.031 59.6189C175.523 59.9303 174.946 60.111 174.352 60.1447C173.757 60.1784 173.163 60.0641 172.624 59.8119C172.084 59.5598 171.616 59.1777 171.26 58.7C171.02 58.42 170.64 58.82 170.86 59.08C171.322 59.6712 171.906 60.1558 172.572 60.501C173.238 60.8461 173.971 61.0436 174.72 61.08C175.445 61.0822 176.153 60.8657 176.752 60.4589C177.352 60.0522 177.815 59.474 178.08 58.8C178.139 58.6913 178.151 58.5638 178.116 58.4457C178.08 58.3275 177.999 58.2284 177.89 58.17C177.781 58.1117 177.654 58.0989 177.536 58.1345C177.418 58.1702 177.319 58.2513 177.26 58.36ZM189.5 59.96C190.073 59.8273 190.614 59.5822 191.091 59.2388C191.568 58.8955 191.972 58.4608 192.28 57.96C192.329 57.8799 192.347 57.7843 192.33 57.6918C192.313 57.5993 192.262 57.5164 192.188 57.4592C192.113 57.4019 192.02 57.3744 191.926 57.382C191.832 57.3895 191.745 57.4316 191.68 57.5C190.3 58.62 189.46 60.62 186.36 58.4C186.14 58.24 185.86 58.6 186.06 58.76C186.518 59.1898 187.06 59.5188 187.653 59.7255C188.245 59.9322 188.875 60.0121 189.5 59.96ZM173 53.4C173.497 52.886 174.09 52.4748 174.745 52.1899C175.4 51.9051 176.106 51.7522 176.82 51.74C177.28 51.74 177.26 50.84 176.7 50.86C175.896 50.8444 175.099 51.0171 174.373 51.3644C173.647 51.7117 173.013 52.2238 172.52 52.86C172.2 53.24 172.7 53.72 173 53.4ZM59.0002 128.66C53.2602 128.26 46.7602 134.16 47.0002 140.66C40.8002 135 32.4002 137 30.0402 143C26.0402 153.24 40.7602 157.94 42.9202 158.68L58.6002 164.12C58.6779 164.145 58.7619 164.143 58.8382 164.114C58.9145 164.085 58.9787 164.03 59.0202 163.96C60.4802 160.72 62.6202 153.96 62.6402 153.84C65.7602 147.84 69.6602 139.98 66.0002 133.4C65.3236 132.087 64.3281 130.965 63.1051 130.137C61.882 129.309 60.4705 128.801 59.0002 128.66ZM66.1202 143.22C65.0305 146.776 63.6457 150.235 61.9802 153.56C61.9802 153.56 59.8002 160.16 58.4202 163.28L39.7402 156.78C38.9202 156.5 29.4802 151.54 30.1602 145.12C30.4237 143.528 31.1444 142.047 32.2346 140.858C33.3247 139.668 34.7373 138.821 36.3002 138.42C38.2621 137.994 40.3022 138.102 42.2085 138.731C44.1148 139.361 45.8177 140.49 47.1402 142C47.4402 142.34 47.9002 142 47.8402 141.6C46.9602 135.76 52.6402 129.48 58.4802 129.48C63.5202 129.48 68.1602 134.82 66.2002 143.22H66.1202ZM9.00016 81.84C9.20016 81.84 40.3002 83.48 48.6402 83.64C55.3802 83.76 62.1602 83.64 68.8802 83.3C69.0202 83.3 80.6602 82.7 83.8002 78C88.9802 70.26 77.3402 64.92 68.1802 69.4C68.2964 67.8314 68.0294 66.2581 67.4023 64.8156C66.7751 63.3732 65.8066 62.1049 64.5802 61.12C62.5691 59.6421 60.0538 59.0226 57.5864 59.3976C55.1191 59.7726 52.9013 61.1114 51.4202 63.12C45.5202 48.46 19.4202 48.1 14.6402 62.56C14.0711 64.173 13.8534 65.889 14.0018 67.593C14.1501 69.297 14.661 70.9496 15.5002 72.44C12.3669 72.5875 9.3353 73.598 6.74016 75.36C6.11843 76.0942 5.76897 77.0203 5.75075 77.9822C5.73253 78.9441 6.04667 79.8828 6.64016 80.64C6.92425 80.9978 7.28209 81.2902 7.68934 81.4973C8.09659 81.7044 8.54368 81.8213 9.00016 81.84ZM7.00016 76.68C7.00016 76.18 7.62017 75.92 8.04017 75.66C9.20017 74.96 14.5602 73.14 16.3602 73.54C17.0202 73.68 17.4802 73.32 17.0802 72.82C16.1334 71.5236 15.4922 70.0297 15.2048 68.4503C14.9173 66.8709 14.9909 65.2469 15.4202 63.7C19.1402 48.84 45.9402 49.46 50.9402 64.22C50.9672 64.3069 51.0184 64.3843 51.0878 64.4432C51.1572 64.5021 51.242 64.5401 51.3321 64.5527C51.4223 64.5653 51.5141 64.5519 51.597 64.5143C51.6799 64.4766 51.7503 64.4162 51.8002 64.34C52.7737 62.6076 54.3312 61.2776 56.1947 60.5873C58.0582 59.897 60.1063 59.8914 61.9735 60.5715C63.8407 61.2516 65.4055 62.5731 66.3885 64.3001C67.3715 66.0271 67.7088 68.0473 67.3402 70C67.3157 70.0813 67.3165 70.1682 67.3424 70.249C67.3683 70.3299 67.4181 70.401 67.4853 70.453C67.5524 70.505 67.6338 70.5354 67.7185 70.5402C67.8033 70.545 67.8876 70.524 67.9602 70.48C75.9602 65.98 87.6802 70.02 83.4402 77.26C80.6002 82.14 69.1002 82.48 68.9602 82.46C44.7402 82.34 73.1602 83.64 11.3402 81C10.2202 81 5.94016 81.46 6.82016 76.68H7.00016ZM269.76 41.68C272.757 42.9784 275.975 43.6912 279.24 43.78C285.24 44.08 288.42 43.12 300.98 42.68C309.54 42.38 318.12 42.22 326.66 41.74C326.86 41.74 338.66 41.02 342.82 37.24C349.98 30.84 338.28 22.88 331.44 27.56C331.729 25.732 331.558 23.861 330.943 22.1153C330.329 20.3697 329.29 18.8043 327.92 17.56C326.961 16.6633 325.81 15.9974 324.555 15.6132C323.3 15.229 321.973 15.1366 320.677 15.343C319.38 15.5495 318.148 16.0493 317.074 16.8044C316 17.5595 315.113 18.5499 314.48 19.7C314.116 17.6109 313.173 15.6658 311.759 14.0855C310.345 12.5052 308.516 11.3531 306.48 10.76C304.727 10.2966 302.887 10.266 301.118 10.671C299.35 11.0759 297.707 11.9042 296.33 13.0846C294.953 14.2651 293.883 15.7624 293.212 17.4477C292.542 19.1331 292.29 20.9561 292.48 22.76C286.357 20.9876 279.8 21.492 274.02 24.18C263 29.32 265.32 39 269.76 41.68ZM267.14 32.04C268.76 26.04 280.58 19.8 292.74 23.62C293.04 23.72 293.26 23.42 293.22 23.14C292.999 21.7393 293.066 20.3083 293.417 18.9342C293.767 17.5602 294.394 16.272 295.259 15.1481C296.123 14.0243 297.208 13.0884 298.446 12.3975C299.685 11.7066 301.051 11.2752 302.461 11.1297C303.872 10.9842 305.297 11.1275 306.651 11.551C308.004 11.9744 309.257 12.6691 310.333 13.5927C311.409 14.5163 312.285 15.6495 312.909 16.923C313.533 18.1965 313.89 19.5837 313.96 21C313.947 21.0902 313.97 21.1819 314.024 21.2551C314.079 21.3282 314.16 21.3767 314.25 21.39C314.34 21.4033 314.432 21.3802 314.505 21.3258C314.578 21.2714 314.627 21.1902 314.64 21.1C314.988 20.079 315.547 19.1427 316.281 18.3522C317.016 17.5618 317.908 16.9348 318.9 16.5121C319.893 16.0895 320.963 15.8806 322.042 15.8992C323.12 15.9178 324.183 16.1634 325.16 16.62C327.259 17.6586 328.94 19.3824 329.925 21.5063C330.911 23.6302 331.142 26.027 330.58 28.3C330.565 28.3773 330.575 28.4573 330.608 28.5288C330.641 28.6004 330.695 28.6601 330.763 28.6996C330.831 28.7391 330.909 28.7565 330.988 28.7494C331.066 28.7423 331.14 28.7111 331.2 28.66C336.22 24.14 345.56 28.82 344.28 33.86C343.906 35.0439 343.214 36.1024 342.28 36.92C338.98 40.16 326.92 40.8 326.72 40.8C320.72 40.9 295.34 41.94 294.5 41.98C287.94 42.42 280.78 43.64 274.28 42.24C271.38 41.64 269.42 41.1 267.98 38.44C266.905 36.4882 266.605 34.2031 267.14 32.04Z" fill="black"/>
<path d="M361.56 235.64C357.86 235.52 239.46 236.3 238.74 236.32C242.165 220.454 240.347 203.905 233.56 189.16C230.06 181.76 211.56 180.64 223.38 160.6C225.16 157.6 228.18 155.58 230.4 152.92C231.48 151.62 240.4 142.92 231.52 123.7C239.39 114.446 246.735 104.757 253.52 94.68C256.075 91.2464 258.173 87.4949 259.76 83.52C261.144 79.9737 261.664 76.1491 261.278 72.3621C260.892 68.575 259.611 64.9341 257.54 61.74C255.295 58.7588 252.756 56.0116 249.96 53.54C244.94 48.78 238.76 44.72 229.34 38.56C229.34 38.56 231.56 32.74 230.84 29.84C230.175 27.3204 228.951 24.9827 227.26 23C226.74 17.86 222.12 13.84 218.66 14.2C218.62 12.9375 218.208 11.715 217.475 10.6865C216.742 9.65793 215.721 8.86932 214.54 8.41997C213.836 8.25962 213.104 8.25962 212.4 8.41997C211.645 7.11423 210.569 6.02292 209.274 5.24943C207.979 4.47593 206.508 4.04587 205 3.99997C203.155 2.89519 201.08 2.2303 198.937 2.05688C196.793 1.88346 194.639 2.20617 192.64 2.99997C187.7 -0.320028 185.08 2.29997 181.96 1.51997C180.201 0.966279 178.343 0.804684 176.515 1.04656C174.687 1.28843 172.934 1.9279 171.38 2.91997C162.22 -0.100028 152.1 6.91997 148.2 15.1C145.943 16.0871 143.78 17.2787 141.74 18.66C134.36 24.54 134.78 34.66 134.86 36.06C126.98 43.2 132 53.72 132.3 54.36C131.859 56.2764 132.139 58.2881 133.088 60.0109C134.036 61.7337 135.585 63.047 137.44 63.7C137.111 64.335 136.938 65.0393 136.935 65.7546C136.933 66.4699 137.101 67.1754 137.425 67.8128C137.75 68.4502 138.222 69.0011 138.802 69.4197C139.382 69.8383 140.053 70.1127 140.76 70.22C138.88 74.38 141.94 75.66 142.08 75.8C142.724 76.356 143.517 76.7107 144.36 76.82C145.624 78.498 147.2 79.9171 149 81C154.84 85.68 161.6 87.56 167.26 85.66C169.294 84.7593 171.198 83.5888 172.92 82.18C173.5 82.5 175.28 83.32 175.28 83.32V88.54C173.58 89.74 167.14 93.62 165.68 94.4C162.448 93.9402 159.162 94.7189 156.48 96.58C135 99.5 120.2 105.18 105.94 113.56C100.12 116.98 94.8801 119.78 91.7001 123.88C86.8201 130.18 86.3401 138.58 89.0601 142.96C96.1801 154.5 129.88 166.24 143.36 169.92C143.115 171.269 142.585 172.55 141.806 173.678C141.026 174.805 140.015 175.754 138.84 176.46C137.3 177.48 134.98 178.12 136 181.2C112.88 198.6 120.64 231.9 121.5 235.7C118.22 235.7 1.5001 238.14 0.660097 238.14C0.576627 238.16 0.502216 238.207 0.448952 238.274C0.395687 238.341 0.366699 238.424 0.366699 238.51C0.366699 238.596 0.395687 238.679 0.448952 238.746C0.502216 238.813 0.576627 238.86 0.660097 238.88C8.3001 238.88 121.1 236.4 121.66 236.38C124.276 247.553 129.33 258.009 136.46 267C135.28 269.64 131.56 268.22 130.46 268.84C125.48 274.16 120.62 271.54 119.78 271.1C118.94 270.66 118.3 270.7 117.9 271.38C113.42 278.58 105.14 277.62 104.28 277.82C103.482 278.115 102.787 278.636 102.28 279.32C98.2801 283.7 90.8001 282.98 89.9201 282.96C89.532 282.916 89.1407 283.01 88.8152 283.226C88.4896 283.442 88.2505 283.765 88.1401 284.14C87.4245 285.714 86.3498 287.099 85.0021 288.183C83.6544 289.266 82.0714 290.019 80.3801 290.38C80.0227 290.367 79.671 290.472 79.3785 290.678C79.0861 290.884 78.8689 291.179 78.7601 291.52C79.5401 295.98 75.7801 299.18 74.2001 300.02C73.5201 300.36 72.7201 300.82 72.8401 301.6C73.5201 306.2 69.2001 308.82 67.3001 310.96C66.9663 311.646 66.7887 312.397 66.7801 313.16C67.2531 315.031 67.1743 317 66.5532 318.828C65.9321 320.655 64.7954 322.264 63.2801 323.46C63.191 323.514 63.1266 323.601 63.1004 323.702C63.0743 323.802 63.0885 323.909 63.1401 324C65.9601 328.76 65.9201 333.82 64.6801 335.52C64.6417 335.563 64.6165 335.616 64.6074 335.673C64.5984 335.73 64.6059 335.788 64.6291 335.841C64.6523 335.894 64.6902 335.938 64.7382 335.97C64.7863 336.002 64.8425 336.019 64.9001 336.02C74.7801 344.14 73.2801 350.24 77.2001 354.66C80.3227 357.681 84.2552 359.731 88.5201 360.56C145.82 386.08 242.92 388.56 300.24 363.3C301.68 362.66 313.34 358.58 316.7 355.92C318.44 354.52 324.52 346.16 327.12 345.52C327.205 345.492 327.277 345.434 327.321 345.356C327.366 345.279 327.379 345.187 327.36 345.1C327.053 343.093 327.335 341.039 328.173 339.189C329.011 337.339 330.368 335.773 332.08 334.68C332.9 334.12 332.78 333.36 332.24 332.68C331.222 331.4 330.593 329.853 330.43 328.225C330.267 326.597 330.576 324.957 331.32 323.5C331.349 323.443 331.366 323.38 331.368 323.316C331.37 323.252 331.359 323.189 331.334 323.13C331.309 323.071 331.272 323.018 331.225 322.975C331.177 322.931 331.121 322.899 331.06 322.88C329.302 322.192 327.819 320.943 326.843 319.326C325.867 317.71 325.451 315.817 325.66 313.94C325.66 313.829 325.616 313.722 325.537 313.643C325.458 313.564 325.351 313.52 325.24 313.52C320.62 313.12 315.4 308.04 315.92 303.16C315.921 303.062 315.89 302.967 315.832 302.888C315.775 302.808 315.693 302.75 315.6 302.72C312.93 301.987 310.522 300.512 308.657 298.466C306.791 296.42 305.544 293.886 305.06 291.16C304.94 290.54 304.18 290.62 303.6 290.68C300.393 290.922 297.186 290.206 294.386 288.621C291.587 287.036 289.323 284.655 287.88 281.78C287.825 281.697 287.745 281.633 287.652 281.597C287.559 281.561 287.457 281.555 287.36 281.58C285.348 282.161 283.203 282.087 281.236 281.368C279.269 280.649 277.582 279.322 276.42 277.58C275.28 276.56 273.94 277.58 272.68 277.8C265.74 279.34 261.62 274.2 261 273.8C260.357 273.55 259.643 273.55 259 273.8C255 274.82 249.56 272.5 247 270.12C246.952 270.063 246.889 270.021 246.818 270C246.747 269.979 246.671 269.979 246.6 270C240.74 272.3 231.74 267.54 227.8 262.74C229.08 260.5 236.3 248.16 238.56 237.14C246.12 237.14 360.66 236.38 361.58 236.32C361.94 236.2 361.96 235.64 361.56 235.64ZM207.22 28.48C208.58 25.42 211.22 25.08 211.92 23.2C212.234 21.814 212.268 20.3793 212.02 18.98C212.36 18.42 212.82 18.2 213.06 18.78C213.578 20.6125 213.78 22.5196 213.66 24.42C213.678 24.4888 213.718 24.5498 213.774 24.5934C213.83 24.6369 213.899 24.6606 213.97 24.6606C214.041 24.6606 214.11 24.6369 214.166 24.5934C214.222 24.5498 214.262 24.4888 214.28 24.42C214.39 23.0312 214.33 21.6341 214.1 20.26C214.36 19.98 214.86 19.6 215.14 19.88C215.275 20.0745 215.351 20.3035 215.36 20.54C215.654 22.1198 215.654 23.7402 215.36 25.32C215.36 25.62 215.8 25.66 215.88 25.32C216.212 24.1222 216.28 22.8667 216.08 21.64C216.24 21.36 216.82 21.24 216.94 21.52C218 23.78 216.28 27.52 215.88 28.44C215.48 29.36 215.18 29.86 215.58 30.6C215.58 30.6 243.98 49.66 246.78 52.06C256.58 60.44 262.78 67.82 259.5 80.6C258.338 84.6568 256.492 88.4852 254.04 91.92C251.64 95.52 236.38 116.1 231.04 122.68C226.937 112.179 220.884 102.55 213.2 94.3C217.2 91.98 227.42 87.68 234.82 80.18C237.32 77.66 237.16 75.92 235.34 73.5C230.3 66.86 217.34 52.8 209.64 35.76C209.62 35.52 205.7 31.92 207.22 28.48ZM211.1 83.62C212.5 83.02 213.9 82.42 215.28 81.76C217.28 81.16 224.44 78.32 226.44 71.42C227.063 69.1833 227.26 66.8494 227.02 64.54C235.32 75.22 237.2 75.68 235.2 78.54C231.8 83.42 219.44 90.04 212.74 94.02C211.826 93.619 210.838 93.412 209.84 93.412C208.842 93.412 207.854 93.619 206.94 94.02C205.32 93.5 203.66 93.02 202.08 92.4C200.748 91.2866 199.642 89.9289 198.82 88.4C201.107 88.7529 203.446 88.4969 205.601 87.6577C207.757 86.8185 209.654 85.4258 211.1 83.62ZM177.22 87.62C177.5 87.4 177.22 86.88 176.82 87.1L175.78 87.86V83.3C177.079 83.7323 178.42 84.0273 179.78 84.18C180.08 84.18 180.16 83.72 179.78 83.66C175.94 83.12 166.54 80.58 165.44 67.44C165.039 67.2108 164.598 67.0614 164.14 67C163.13 66.8442 162.209 66.3321 161.544 65.5562C160.878 64.7804 160.512 63.7921 160.512 62.77C160.512 61.7479 160.878 60.7596 161.544 59.9837C162.209 59.2079 163.13 58.6957 164.14 58.54C164.062 55.6007 164.398 52.6651 165.14 49.82C166.01 47.8848 167.394 46.2248 169.14 45.02C172.137 43.0784 175.578 41.9292 179.14 41.68C187.78 56.36 199.9 57.38 201.14 57.46C199.96 58.92 201.04 59.3 201.04 59.34C201.785 59.461 202.485 59.7741 203.072 60.2483C203.658 60.7225 204.111 61.3414 204.386 62.044C204.66 62.7466 204.747 63.5086 204.637 64.2549C204.528 65.0013 204.225 65.7061 203.76 66.3C202.72 67.6 201 66.3 199.86 67.28C199.812 67.3263 199.777 67.3846 199.758 67.449C199.739 67.5133 199.738 67.5814 199.754 67.6464C199.771 67.7113 199.804 67.7709 199.85 67.8189C199.897 67.8669 199.956 67.9018 200.02 67.92C201.74 78.68 194.68 81.14 193.52 81.48C193.26 81.48 193.38 81.94 193.64 81.88C194.326 81.7224 194.995 81.5014 195.64 81.22C194.92 84.22 195.22 87.22 198.26 88.2C199.087 89.9714 200.202 91.5934 201.56 93C203.222 93.791 204.94 94.4594 206.7 95C210.84 117.32 203.9 121.64 203.38 122.04C195.24 128.76 185.18 123.42 184.06 122.86C182.06 121.34 173.02 114.86 166.38 94.86C167.66 94.18 176.7 88.12 177.22 87.72V87.62ZM140.46 176.04C141.397 175.255 142.169 174.293 142.732 173.208C143.295 172.123 143.637 170.938 143.74 169.72C143.767 169.643 143.763 169.559 143.729 169.484C143.696 169.41 143.635 169.351 143.56 169.32C130.7 165.32 98.7001 154.12 90.4001 143.56C86.8201 139 87.8001 132.34 90.2801 127.4C91.5774 124.9 93.407 122.716 95.6401 121C102.767 116.134 110.241 111.796 118 108.02C130.197 102.672 143.049 98.9666 156.22 97C161.36 108.82 160.56 123.26 160.22 126.38C158.9 135.96 153.7 134.22 149.24 132.38C150.34 132.04 151.42 131.66 152.5 131.26C152.8 131.14 152.68 130.68 152.36 130.78C132.94 137.24 119.84 134.66 119.78 134.78C118.449 133.978 117.042 133.308 115.58 132.78C115.3 132.78 115.18 133.14 115.46 133.24C118.179 134.298 120.67 135.866 122.8 137.86C125.04 139.86 150.52 164.24 152 165.44C152 165.44 152.24 165.6 152.38 165.56C154 165.1 157.64 164.04 159.54 166.66C159.54 166.66 144.02 174.06 136.56 180.66C136.02 177.88 138.28 178.02 140.46 176.04ZM153.84 144.04C152.1 157.18 154.68 164.34 154.7 164.42C153.896 164.533 153.105 164.727 152.34 165C151.26 163.76 125.98 139.54 123.58 137.62C122.76 136.96 121.9 136.34 121.02 135.74C130.04 136.59 139.139 135.659 147.8 133C148.025 135.137 148.676 137.208 149.713 139.09C150.75 140.972 152.154 142.628 153.84 143.96V144.04ZM129 253.82C126.06 248.28 121.48 236.3 120.84 227.82C120.12 218.5 120.3 208.94 123.58 200.12C125.884 193.439 129.807 187.433 135 182.64C135.88 190.64 140.04 197.72 145 203.9C147.74 207.34 176.2 234.18 176.4 234.1C176.6 234.02 174.4 274.76 174.4 279.34C174.072 287.644 175.978 295.884 179.92 303.2C182.397 307.838 185.114 312.345 188.06 316.7C189.6 334.4 184.62 349.18 184.62 351.28C181.74 353.28 178.92 355.52 176.06 357.6C167 338.5 156.28 316.76 161.58 293.8C161.58 293.8 163.58 295.14 164.58 295.66C165 295.88 165.36 295.24 164.94 295.02C161.231 292.501 157.781 289.62 154.64 286.42C151.52 283.28 148.64 279.9 145.74 276.54C139.342 269.605 133.728 261.986 129 253.82ZM188.66 317.7C190.08 319.7 206.66 344.1 207.16 344.72C198.72 342.92 191.84 346.24 185.3 350.72C186.5 346.46 190.58 331.16 188.68 317.7H188.66ZM75.3801 349.7C74.0426 345.42 71.6968 341.524 68.5401 338.34C70.3801 339.52 92.4401 353.3 116.86 354.14C116.914 354.124 116.962 354.092 116.996 354.047C117.03 354.001 117.049 353.946 117.049 353.89C117.049 353.833 117.03 353.779 116.996 353.733C116.962 353.688 116.914 353.656 116.86 353.64C98.5037 352.101 80.8679 345.793 65.7001 335.34C67.1401 332.8 66.2601 328.36 64.9801 325.6C66.2201 326.64 85.7001 340 117.64 347.9C117.701 347.919 117.767 347.912 117.823 347.882C117.879 347.852 117.922 347.801 117.94 347.74C117.959 347.679 117.952 347.613 117.922 347.557C117.892 347.501 117.841 347.459 117.78 347.44C108.34 344.86 82.0001 336.9 64.3601 323.76C67.2201 321.92 68.7001 317.02 67.6601 312.9C81.4186 325.241 97.1415 335.198 114.18 342.36C114.46 342.48 114.72 342.06 114.42 341.94C85.3001 328.8 70.8001 314.32 67.7801 311.78C68.7201 310.06 73.7801 307.78 73.7801 303.06C73.759 302.714 73.759 302.366 73.7801 302.02C88.8549 318.224 105.693 332.694 123.98 345.16C124.26 345.34 124.54 344.88 124.24 344.7C116.92 340.02 91.9801 320.06 74.0601 301.18C74.998 300.463 75.9727 299.795 76.9801 299.18C78.0246 298.423 78.8366 297.388 79.3243 296.194C79.812 294.999 79.956 293.692 79.7401 292.42C83.0601 298.42 94.1201 316.14 116.86 332.42C117.08 332.58 117.28 332.22 117.08 332.06C105.44 323.32 88.7401 307.5 80.2001 291.32C80.6001 291.18 87.2801 290.04 89.3401 284.14C104.06 315.5 124.46 330.68 128.78 334.02C129 334.18 129.32 333.86 129.1 333.68C112.745 319.996 99.4743 303.003 90.1601 283.82C90.5401 283.82 99.4001 284.8 104.16 279.12C113.612 307.501 131.512 332.315 155.46 350.24C155.7 350.42 155.92 350.04 155.7 349.86C119 321.6 106.62 282.6 105 279.22C105 279.08 115.5 278.54 119 271.9C120.14 274.96 121 278.1 122.12 281.18C130.24 305.18 140.8 325.86 160.28 343.04C160.48 343.22 160.8 342.94 160.58 342.74C142.36 326.22 131.5 304.86 123.5 282.28C122.28 278.86 121.08 275.44 119.8 272.04C121.641 272.87 123.699 273.091 125.674 272.67C127.649 272.249 129.438 271.209 130.78 269.7C139.68 298.06 155.64 321.7 157.88 325.7C157.912 325.756 157.965 325.796 158.026 325.813C158.088 325.83 158.154 325.822 158.21 325.79C158.266 325.758 158.307 325.706 158.323 325.644C158.34 325.582 158.332 325.516 158.3 325.46C154.3 318.32 138.84 294.1 131.54 269.32C132.24 269.16 136.04 269.76 137.06 267.54C138.82 269.82 151.9 286.7 161.06 293.3C155.44 315.58 165.18 337.76 175.4 358.06C168.7 362.84 161.72 366.7 153.54 365.18C144.7 363.52 137.16 356.58 128.32 354.5C116.94 351.84 108.96 359.74 98.1201 360.5C89.5001 361 78.4201 357.74 75.4001 349.74L75.3801 349.7ZM91.2601 361.06C104.08 363.06 110.64 356.76 120 355.2C134.62 352.76 144.98 368.4 159.54 366.38C175.54 364.18 185.82 346.02 201.36 345.16C216.9 344.3 229.22 363.16 244.8 362.08C255.28 361.38 264.36 348.44 276.42 350.58C281.94 351.54 285.2 356.58 290.02 358.94C294.21 361.039 298.943 361.8 303.58 361.12C246.08 387.46 149.6 385 91.2801 361.1L91.2601 361.06ZM245.96 271C237.777 286.137 232.794 302.796 231.32 319.94C231.32 320.24 231.76 320.22 231.78 319.94C233.02 306.42 240.4 280.76 246.76 270.92C248.442 272.624 250.549 273.849 252.862 274.468C255.175 275.086 257.612 275.077 259.92 274.44C248.6 292.76 236.26 331.26 234.92 334.44C234.92 334.68 235.18 334.9 235.3 334.66C236.42 332.04 251.64 288.98 260.72 274.66C266.72 281.22 272.72 278.66 273.34 278.5C273.96 278.34 275.18 277.58 275.94 278.22C277.007 279.851 278.509 281.152 280.276 281.976C282.043 282.799 284.005 283.112 285.94 282.88C269.94 297.7 241.2 341.5 241 341.78C240.8 342.06 241.28 342.34 241.48 342.06C269.48 300.28 287.26 282.74 287.36 282.66C288.859 285.575 291.189 287.98 294.055 289.571C296.92 291.162 300.193 291.868 303.46 291.6C286.113 303.705 270.773 318.458 258 335.32C257.82 335.58 258.14 335.9 258.34 335.66C283.72 305.14 303.32 292.8 304.34 291.76C304.956 294.26 306.152 296.579 307.83 298.532C309.508 300.484 311.621 302.015 314 303C278 321.32 261.36 343.28 258 347.32C257.82 347.54 258.14 347.86 258.34 347.64C274.168 329.384 293.417 314.402 315 303.54C314.78 308.4 319.34 313.04 324 314.1C307.881 320.596 292.379 328.528 277.68 337.8C277.634 337.831 277.601 337.879 277.588 337.933C277.575 337.988 277.584 338.045 277.612 338.093C277.64 338.141 277.685 338.177 277.739 338.194C277.792 338.21 277.85 338.205 277.9 338.18C292.98 329.23 308.641 321.299 324.78 314.44C324.722 316.216 325.164 317.973 326.055 319.511C326.946 321.049 328.25 322.306 329.82 323.14C310.48 326.38 276.9 343.44 270.48 346.9C270.18 347.06 270.48 347.54 270.76 347.38C281.08 341.94 305.38 330.18 330.28 323.78C327.64 328.16 331.86 333.42 331.86 333.46C321.48 336.02 286.58 349.46 284.76 350.22C284.42 350.36 284.56 350.92 284.92 350.78C289.48 348.96 318.76 338.3 331.26 334.36C327.26 337.62 326.04 341.12 326.66 344.92C321.22 346.92 317.88 355.68 309.08 358.64C304.151 360.539 298.737 360.778 293.66 359.32C286.96 357.2 285.04 353.32 280.62 350.96C278.32 349.893 275.815 349.34 273.28 349.34C270.745 349.34 268.24 349.893 265.94 350.96C260.7 353.1 256.2 356.64 251.12 359.12C240.08 364.52 230.64 357.12 220.32 350.6C220.32 334.08 217.62 317.68 214.54 301.48C211.64 286.22 211.64 288.48 212.02 287.92C215.68 282.52 225.78 265.92 227.34 263.34C234.32 271.16 242.74 271.88 245.96 271ZM237.58 237C234.74 248.7 228.84 259.24 222.56 269.4C218.8 275.4 210.92 288.08 210.94 288.18C215.473 308.632 218.389 329.41 219.66 350.32C216.1 347.961 212.192 346.173 208.08 345.02C186.08 311.2 175.8 300.86 175.34 282.68C175.22 278.18 177.12 236.68 177.02 234.08C178.28 232.8 197.88 212.72 238.22 207.44C240.177 217.221 239.959 227.313 237.58 237Z" fill="black"/>
</svg>
