<svg width="22" height="40" viewBox="0 0 22 40" fill="none" xmlns="http://www.w3.org/2000/svg">
<path d="M0.85 36.65C0.85 36.15 0.916667 35.6667 1.05 35.2C1.18333 34.7333 1.41667 34.3167 1.75 33.95C1.88333 33.75 2.11667 33.4833 2.45 33.15C2.78333 32.85 3.23333 32.4167 3.8 31.85C5.2 30.6833 6.53333 29.45 7.8 28.15C9.03333 26.85 10.2333 25.4833 11.4 24.05C11.8 23.5833 12.2 23.1 12.6 22.6C13 22.1 13.3167 21.5833 13.55 21.05C13.7833 20.5167 13.9 19.95 13.9 19.35C13.8667 18.75 13.6167 18.1333 13.15 17.5C12.3167 16.3333 11.4333 15.2167 10.5 14.15C9.56667 13.0833 8.56667 12.0333 7.5 11C6.86667 10.3333 6.23334 9.68333 5.6 9.05C4.93334 8.41667 4.3 7.78333 3.7 7.15C2.9 6.35 2.41667 5.5 2.25 4.6C2.08334 3.73333 2.16667 2.96666 2.5 2.3C2.83334 1.63333 3.38334 1.15 4.15 0.849998C4.88334 0.549998 5.76667 0.599998 6.8 0.999998C7.33334 1.23333 7.85 1.55 8.35 1.95C8.85 2.31667 9.33334 2.73333 9.8 3.2C10.2667 3.7 10.7167 4.2 11.15 4.7C11.5833 5.2 11.9833 5.66667 12.35 6.1C18.6167 13 21.75 17.5667 21.75 19.8C21.75 21.5 20.5333 23.9667 18.1 27.2C17.1667 28.3667 16.1333 29.5833 15 30.85C13.8667 32.15 12.6 33.4333 11.2 34.7C10.3333 35.5667 9.45 36.4167 8.55 37.25C7.61667 38.1167 6.6 38.85 5.5 39.45C5.03333 39.6833 4.53333 39.7833 4 39.75C3.43333 39.75 2.91667 39.6167 2.45 39.35C1.98333 39.1167 1.6 38.7667 1.3 38.3C1 37.8333 0.85 37.2833 0.85 36.65Z" fill="#4857EC"/>
</svg>
