<svg width="22" height="40" viewBox="0 0 22 40" fill="none" xmlns="http://www.w3.org/2000/svg">
<path d="M21.15 3.35C21.15 3.85 21.0833 4.33333 20.95 4.8C20.8167 5.26666 20.5833 5.68333 20.25 6.05C20.1167 6.25 19.8833 6.51667 19.55 6.85C19.2167 7.15 18.7667 7.58333 18.2 8.15C16.8 9.31667 15.4667 10.55 14.2 11.85C12.9667 13.15 11.7667 14.5167 10.6 15.95C10.2 16.4167 9.8 16.9 9.4 17.4C9 17.9 8.68333 18.4167 8.45 18.95C8.21667 19.4833 8.1 20.05 8.1 20.65C8.13333 21.25 8.38333 21.8667 8.85 22.5C9.68333 23.6667 10.5667 24.7833 11.5 25.85C12.4333 26.9167 13.4333 27.9667 14.5 29C15.1333 29.6667 15.7667 30.3167 16.4 30.95C17.0667 31.5833 17.7 32.2167 18.3 32.85C19.1 33.65 19.5833 34.5 19.75 35.4C19.9167 36.2667 19.8333 37.0333 19.5 37.7C19.1667 38.3667 18.6167 38.85 17.85 39.15C17.1167 39.45 16.2333 39.4 15.2 39C14.6667 38.7667 14.15 38.45 13.65 38.05C13.15 37.6833 12.6667 37.2667 12.2 36.8C11.7333 36.3 11.2833 35.8 10.85 35.3C10.4167 34.8 10.0167 34.3333 9.65 33.9C3.38333 27 0.25 22.4333 0.25 20.2C0.25 18.5 1.46667 16.0333 3.9 12.8C4.83333 11.6333 5.86667 10.4167 7 9.15C8.13333 7.85 9.4 6.56666 10.8 5.3C11.6667 4.43333 12.55 3.58333 13.45 2.75C14.3833 1.88333 15.4 1.15 16.5 0.549999C16.9667 0.316665 17.4667 0.216664 18 0.249997C18.5667 0.249997 19.0833 0.383331 19.55 0.649998C20.0167 0.883332 20.4 1.23333 20.7 1.7C21 2.16667 21.15 2.71667 21.15 3.35Z" fill="#4857EC"/>
</svg>
